<svg width="638" height="603" viewBox="0 0 638 603" fill="none" xmlns="http://www.w3.org/2000/svg">
<g clip-path="url(#clip0_587_1067)">
<path d="M613.509 363.82H23.9395V578.41H613.509V363.82Z" fill="#F8F7F1"/>
<path d="M519.341 402.76C484.241 402.03 449.471 429.52 451.201 472.71C452.551 506.51 480.491 534.64 516.961 535.35C553.241 535.47 582.071 508.18 583.801 472.23C585.601 434.75 556.421 403.53 519.341 402.76ZM519.461 509.6C495.931 509.54 477.121 493.46 477.101 469.32C477.081 443.86 497.611 428.51 517.691 428.54C539.531 428.57 557.931 446.62 558.011 468.2C558.101 490.56 540.411 509.65 519.461 509.6Z" fill="#0A354B"/>
<path d="M343.221 407.361C332.311 405.261 320.901 405.511 309.711 405.121C302.471 404.871 301.421 406.221 301.411 413.401C301.391 432.071 301.411 450.751 301.411 469.421C301.531 469.421 301.651 469.421 301.781 469.421C301.781 472.231 301.801 475.041 301.781 477.841C301.671 494.271 301.551 510.691 301.441 527.121C301.421 530.191 302.111 533.151 305.751 533.171C316.691 533.251 327.801 534.141 338.541 532.631C367.991 528.471 398.481 498.501 391.851 458.961C387.701 434.201 367.971 412.121 343.241 407.361H343.221ZM344.651 503.611C341.271 505.191 337.591 506.431 333.921 507.061C329.251 507.851 327.881 506.311 327.881 501.531C327.881 490.871 327.881 480.211 327.881 469.561C327.831 469.561 327.781 469.561 327.731 469.561C327.731 458.761 327.671 447.961 327.761 437.171C327.801 432.271 329.471 431.061 334.401 431.871C350.141 434.461 364.551 448.251 366.111 463.711C367.881 481.341 361.991 495.501 344.651 503.631V503.611Z" fill="#0A354B"/>
<path d="M270.351 404.909C265.631 405.019 260.901 404.929 255.801 404.929C255.801 406.799 255.811 408.179 255.801 409.569C255.641 426.269 255.381 442.969 255.361 459.679C255.341 472.989 255.581 486.299 255.801 499.609C255.921 507.059 247.711 512.949 240.791 510.149C235.051 507.829 233.241 503.179 233.261 497.309C233.371 468.099 233.391 438.899 233.431 409.689C233.431 408.209 233.301 406.739 233.211 404.779C226.721 404.779 220.701 404.869 214.691 404.749C209.371 404.649 209.371 404.569 209.361 410.009C209.271 439.079 209.051 468.139 209.101 497.209C209.121 509.709 213.211 520.399 223.701 528.259C234.271 536.179 245.851 537.509 257.491 532.649C271.061 526.989 279.421 516.409 279.571 501.159C279.851 472.099 279.671 443.029 279.611 413.969C279.591 404.659 279.511 404.699 270.351 404.909Z" fill="#0A354B"/>
<path d="M179.14 405.179C164.54 405.059 149.93 404.989 135.33 405.049C121.98 405.099 121.98 405.179 121.87 418.369C121.76 431.239 121.83 431.309 134.62 431.339C141.34 431.359 141.95 431.959 141.96 438.859C141.98 453.449 141.96 468.049 141.96 482.639C141.96 497.659 142.07 512.669 141.89 527.679C141.84 531.649 143.46 533.449 147.18 533.629C151.24 533.829 155.31 534.009 159.38 533.999C166.65 533.989 167.66 532.989 167.7 525.739C167.83 497.819 167.92 469.889 168.02 441.969C168.02 440.289 168.06 438.599 168.08 436.919C168.13 432.989 169.87 430.939 174.06 431.199C177 431.379 179.96 431.309 182.9 431.169C186.01 431.019 187.85 429.479 187.82 426.129C187.78 421.919 187.92 417.709 187.79 413.509C187.55 405.859 186.95 405.229 179.12 405.159L179.14 405.179Z" fill="#0A354B"/>
<path d="M88.1505 456.811C85.7105 453.221 83.0605 449.721 81.1105 445.881C77.4205 438.571 81.6405 430.081 89.6005 428.161C96.3805 426.521 96.4005 426.521 96.3705 419.231C96.3705 417.841 96.2805 416.411 95.9505 415.061C95.1005 411.601 98.2905 406.721 94.0605 404.831C90.8805 403.411 86.6305 404.331 82.8505 404.301C81.9005 404.301 80.9405 404.681 79.9905 404.891C57.7605 409.691 45.6905 440.231 60.0305 461.441C66.0705 470.371 72.4405 479.091 78.7605 487.831C85.2005 496.731 82.1205 506.221 71.6605 509.211C69.7905 509.741 67.7905 509.821 65.8505 510.051C62.8805 510.411 58.3505 509.691 57.2905 511.281C55.6805 513.711 56.4705 517.741 56.2405 521.081C56.3105 521.081 56.3805 521.081 56.4505 521.091C56.4505 523.191 56.5305 525.301 56.4305 527.401C56.2305 531.381 57.8605 533.471 61.9405 534.431C69.8905 536.301 77.2705 535.381 84.8705 532.431C103.631 525.151 114.381 499.131 104.831 481.471C100.131 472.781 93.7305 465.011 88.1505 456.791V456.811Z" fill="#0A354B"/>
<path d="M434.311 409.789C434.351 407.009 432.931 405.409 430.381 405.289C424.921 405.029 419.441 404.959 413.971 405.059C411.231 405.109 409.781 406.609 409.801 409.679C409.891 429.459 409.851 449.229 409.851 469.009C409.901 469.009 409.951 469.009 409.991 469.009C409.991 470.129 409.991 471.249 409.991 472.379C410.041 490.889 410.131 509.409 410.111 527.919C410.111 531.799 411.361 534.099 415.651 533.999C419.301 533.919 422.951 534.059 426.601 534.069C433.411 534.089 434.551 533.019 434.561 526.329C434.591 509.219 434.641 492.099 434.571 474.989C434.511 459.979 434.261 444.979 434.171 429.969C434.131 423.239 434.211 416.509 434.321 409.789H434.311Z" fill="#0A354B"/>
<path d="M613.429 23.6797H24.2891V194.32H613.429V23.6797Z" fill="#EE7A00"/>
<path d="M613.429 194.328H23.9395V363.828H613.429V194.328Z" fill="#EA4315"/>
<path d="M370.22 182.24C366.11 177.94 365.72 176.5 368.24 171.39C371.64 164.51 374.65 157.68 375.86 149.85C378.67 131.72 375.49 115.52 363.79 101.03C351.18 85.41 335.03 77.4801 310.47 77.1601C301.08 76.8801 288.45 81.68 277.79 89.67C262.8 100.9 254.3 116.65 253.55 135.71C253.05 148.37 255.29 160.57 262.72 171.3C264.96 174.54 264.88 177.26 261.86 180.17C255.65 186.14 251.03 193.19 247.02 200.89C239.37 215.56 237.3 231.13 240.03 246.91C242.64 262 248.24 276.21 259.95 287.27C267.85 294.73 275.8 302.05 286.29 305.5C292.98 307.7 299.91 309.47 306.87 310.48C321.61 312.61 335.54 310.03 349.07 303.3C366.54 294.61 378.45 281.24 385.94 263.62C391.86 249.71 393.16 235.11 390.45 220.34C387.75 205.61 380.53 193.05 370.23 182.25L370.22 182.24ZM313.89 119.9C325.41 119.43 333.97 127.34 334.28 138.72C334.57 149.54 327 157.54 316.02 158.03C307.78 159.29 296.66 151.37 296.14 139.54C295.74 130.36 304.78 120.27 313.89 119.9ZM313.82 269.16C295.97 269.47 279.55 250 281.6 234.59C280.01 215.35 300.83 199.54 316.3 200.48C332.19 201.44 349.85 218.15 349.69 232.28C349.4 256.92 332.36 268.83 313.83 269.16H313.82Z" fill="#0A354B"/>
<path d="M196.26 104.441C188.74 95.5107 179.46 89.2207 169.11 84.3907C164.71 82.3407 159.9 80.5207 155.13 80.0507C145.74 79.1307 136.42 78.1007 126.75 79.5507C107.88 82.3707 92.5802 91.1707 80.4002 105.121C70.1502 116.871 64.9002 130.941 63.4502 146.811C61.5802 167.371 67.2702 185.031 79.6102 201.231C87.6202 211.751 98.3702 218.401 109.72 224.251C118.73 228.901 128.73 229.811 138.72 230.251C145.63 230.551 146.98 231.921 145.02 238.441C142.32 247.411 139.13 256.231 136.03 265.081C131.68 277.481 127.24 289.851 122.79 302.221C120.98 307.241 121.8 308.431 127.18 308.641C133.76 308.901 140.34 309.301 146.93 309.631C146.93 309.481 146.94 309.321 146.95 309.171C149.62 309.171 152.29 309.241 154.96 309.161C161.354 308.967 165.597 305.877 167.69 299.891C167.78 299.631 167.86 299.361 167.96 299.091C175.17 278.631 182.36 258.171 189.61 237.731C196.25 218.991 203.19 200.351 209.54 181.511C213.01 171.221 215.82 160.871 214.64 149.501C212.88 132.501 207.34 117.561 196.28 104.441H196.26ZM139.5 187.911C118.29 187.901 104.31 171.011 104.97 153.751C105.73 133.881 123.24 121.021 135.46 120.441C158.15 119.361 173.33 136.681 172.7 155.761C172.22 170.251 157.78 189.011 139.5 187.911Z" fill="#0A354B"/>
<path d="M562.26 203.369C552.24 189.009 541.48 175.159 531.6 160.709C526.77 153.649 522.53 146.429 525.76 136.509C528.24 128.909 538.32 120.499 547.31 120.839C553.28 121.069 553.98 120.579 553.93 114.459C553.86 104.109 553.45 93.7588 553.38 83.4088C553.36 80.6888 551.98 79.2288 549.74 79.1888C541.81 79.0488 533.63 78.0388 525.98 79.5388C507.77 83.0888 494.96 94.3788 486.54 110.709C481.62 120.259 478.32 130.439 478.18 141.159C478.09 148.179 478.95 155.449 480.8 162.209C484.17 174.539 492.31 184.429 499.57 194.679C508 206.569 516.7 218.279 524.82 230.369C528.56 235.949 530.09 242.569 527.65 249.199C523.84 259.529 515.66 264.449 505.12 265.379C499.34 265.889 493.46 265.499 487.63 265.339C485.25 265.279 483.83 265.919 483.69 268.479C483.39 274.209 483.06 279.929 482.75 285.659C482.85 285.659 482.96 285.659 483.06 285.669C483.06 290.159 482.92 294.659 483.1 299.139C483.25 302.679 483.66 306.529 487.73 307.769C492.79 309.319 497.97 311.109 503.18 311.379C513.23 311.899 522.95 310.649 532.51 306.319C543.43 301.379 552.92 294.849 560 285.499C568.28 274.549 573.23 262.169 574.57 248.089C576.16 231.349 571.61 216.729 562.27 203.359L562.26 203.369Z" fill="#0A354B"/>
<path d="M449.12 78.1284C444.35 78.0184 439.58 78.0984 434.81 78.0984C430.32 78.0984 425.83 78.0784 421.34 78.0984C416.04 78.1184 415.06 78.8784 415.4 84.2584C415.99 93.6084 416.98 102.928 417.77 112.258C418.97 126.488 420.11 140.718 421.31 154.938C421.6 158.418 423.57 160.258 427.1 160.288C431.73 160.318 436.36 160.398 440.99 160.278C445.6 160.158 447.34 158.538 447.81 153.998C448.48 147.598 449.01 141.188 449.61 134.788C451.2 117.948 452.76 101.098 454.4 84.2584C454.81 80.0584 453.44 78.2284 449.13 78.1184L449.12 78.1284Z" fill="#0A354B"/>
<path d="M318.59 602.36C224.9 602.36 131.22 602.36 37.53 602.36C14.38 602.36 0.01 588.11 0.01 565.14C0 388.77 0 212.41 0 36.0401C0 18.6201 9.7 5.24007 25.54 1.23007C29.17 0.310069 33.08 0.210069 36.86 0.210069C224.79 0.170069 412.73 0.310069 600.66 6.86724e-05C623.92 -0.0399313 637.83 17.4001 637.79 37.2801C637.5 213.36 637.61 389.45 637.64 565.53C637.64 581.46 630.96 593.26 616.11 599.5C611.34 601.5 605.71 602.24 600.47 602.25C506.5 602.41 412.53 602.36 318.57 602.36H318.59ZM318.45 578.41C382.65 578.41 446.84 578.41 511.04 578.41C541.37 578.41 571.71 578.41 602.04 578.41C609.11 578.41 613.33 574.33 613.63 567.3C613.69 565.9 613.65 564.49 613.65 563.09C613.6 487.97 613.58 412.85 613.5 337.73C613.4 237.9 613.26 138.07 613.12 38.2501C613.12 36.5701 613.02 34.8801 612.93 33.2001C612.71 29.1001 610.42 26.3101 606.76 24.9401C604.46 24.0801 601.83 23.7401 599.35 23.7401C412.4 23.6901 225.46 23.6901 38.51 23.6901C28.25 23.6901 24.49 27.3801 24.47 37.5401C24.34 91.4501 24.18 145.36 24.1 199.28C24.01 256.29 23.98 313.3 23.96 370.3C23.94 435.31 23.96 500.33 23.96 565.34C23.96 574.63 27.76 578.42 36.97 578.42C130.8 578.42 224.62 578.42 318.45 578.42V578.41Z" fill="#0A354B"/>
</g>
<defs>
<clipPath id="clip0_587_1067">
<rect width="637.8" height="602.36" fill="white"/>
</clipPath>
</defs>
</svg>
