<svg width="88" height="71" viewBox="0 0 88 71" fill="none" xmlns="http://www.w3.org/2000/svg">
<path d="M3.40186 5.14209H5.70898C7.19824 5.14209 8.2041 5.21045 8.72656 5.34717C9.25391 5.48389 9.6543 5.7085 9.92773 6.021C10.2012 6.3335 10.3721 6.68262 10.4404 7.06836C10.5088 7.44922 10.543 8.20117 10.543 9.32422V13.4771C10.543 14.5415 10.4917 15.2544 10.3892 15.6157C10.2915 15.9722 10.1182 16.2529 9.86914 16.458C9.62012 16.6582 9.3125 16.7998 8.94629 16.8828C8.58008 16.9609 8.02832 17 7.29102 17H3.40186V5.14209ZM6.48535 7.1709V14.9712C6.92969 14.9712 7.20312 14.8833 7.30566 14.7075C7.4082 14.5269 7.45947 14.041 7.45947 13.25V8.64307C7.45947 8.10596 7.44238 7.76172 7.4082 7.61035C7.37402 7.45898 7.2959 7.34912 7.17383 7.28076C7.05176 7.20752 6.82227 7.1709 6.48535 7.1709ZM18.3066 12.3125H14.4761V14.4146C14.4761 14.854 14.5078 15.1372 14.5713 15.2642C14.6348 15.3911 14.7568 15.4546 14.9375 15.4546C15.1621 15.4546 15.311 15.3716 15.3843 15.2056C15.4624 15.0347 15.5015 14.7075 15.5015 14.2241V12.9424H18.3066V13.6602C18.3066 14.2607 18.2676 14.7222 18.1895 15.0444C18.1162 15.3667 17.9404 15.7109 17.6621 16.0771C17.3838 16.4434 17.0298 16.7192 16.6001 16.9048C16.1753 17.0854 15.6406 17.1758 14.9961 17.1758C14.3711 17.1758 13.8193 17.0854 13.3408 16.9048C12.8623 16.7241 12.4888 16.4775 12.2202 16.165C11.9565 15.8477 11.7734 15.501 11.6709 15.125C11.5684 14.7441 11.5171 14.1924 11.5171 13.4697V10.6353C11.5171 9.78564 11.6318 9.1167 11.8613 8.62842C12.0908 8.13525 12.4668 7.75928 12.9893 7.50049C13.5117 7.23682 14.1123 7.10498 14.791 7.10498C15.6211 7.10498 16.3047 7.26367 16.8418 7.58105C17.3838 7.89355 17.7622 8.31104 17.9771 8.8335C18.1968 9.35107 18.3066 10.0811 18.3066 11.0234V12.3125ZM15.3403 10.7305V10.02C15.3403 9.51709 15.3135 9.19238 15.2598 9.0459C15.2061 8.89941 15.0962 8.82617 14.9302 8.82617C14.7251 8.82617 14.5981 8.88965 14.5493 9.0166C14.5005 9.13867 14.4761 9.47314 14.4761 10.02V10.7305H15.3403ZM25.3965 7.28076L24.0122 17H20.1523L18.6655 7.28076H21.3096L22.1372 14.3706C22.2007 13.853 22.3081 12.5835 22.4595 10.562C22.5474 9.43408 22.645 8.34033 22.7524 7.28076H25.3965ZM32.5449 12.3125H28.7144V14.4146C28.7144 14.854 28.7461 15.1372 28.8096 15.2642C28.873 15.3911 28.9951 15.4546 29.1758 15.4546C29.4004 15.4546 29.5493 15.3716 29.6226 15.2056C29.7007 15.0347 29.7397 14.7075 29.7397 14.2241V12.9424H32.5449V13.6602C32.5449 14.2607 32.5059 14.7222 32.4277 15.0444C32.3545 15.3667 32.1787 15.7109 31.9004 16.0771C31.6221 16.4434 31.2681 16.7192 30.8384 16.9048C30.4136 17.0854 29.8789 17.1758 29.2344 17.1758C28.6094 17.1758 28.0576 17.0854 27.5791 16.9048C27.1006 16.7241 26.7271 16.4775 26.4585 16.165C26.1948 15.8477 26.0117 15.501 25.9092 15.125C25.8066 14.7441 25.7554 14.1924 25.7554 13.4697V10.6353C25.7554 9.78564 25.8701 9.1167 26.0996 8.62842C26.3291 8.13525 26.7051 7.75928 27.2275 7.50049C27.75 7.23682 28.3506 7.10498 29.0293 7.10498C29.8594 7.10498 30.543 7.26367 31.0801 7.58105C31.6221 7.89355 32.0005 8.31104 32.2153 8.8335C32.4351 9.35107 32.5449 10.0811 32.5449 11.0234V12.3125ZM29.5786 10.7305V10.02C29.5786 9.51709 29.5518 9.19238 29.498 9.0459C29.4443 8.89941 29.3345 8.82617 29.1685 8.82617C28.9634 8.82617 28.8364 8.88965 28.7876 9.0166C28.7388 9.13867 28.7144 9.47314 28.7144 10.02V10.7305H29.5786ZM36.5659 5.14209V17H33.519V5.14209H36.5659ZM44.3296 10.6938V13.0742C44.3296 13.9482 44.2856 14.5903 44.1978 15.0005C44.1099 15.4058 43.9219 15.7866 43.6338 16.1431C43.3457 16.4946 42.9746 16.7559 42.5205 16.9268C42.0713 17.0928 41.5537 17.1758 40.9678 17.1758C40.3135 17.1758 39.7593 17.105 39.3052 16.9634C38.8511 16.8169 38.4971 16.5996 38.2432 16.3115C37.9941 16.0186 37.8159 15.667 37.7085 15.2568C37.6011 14.8418 37.5474 14.2217 37.5474 13.3965V10.9062C37.5474 10.0029 37.645 9.29736 37.8403 8.78955C38.0356 8.28174 38.3872 7.87402 38.895 7.56641C39.4028 7.25879 40.0522 7.10498 40.8433 7.10498C41.5073 7.10498 42.0762 7.20508 42.5498 7.40527C43.0283 7.60059 43.397 7.85693 43.6558 8.17432C43.9146 8.4917 44.0903 8.81885 44.1831 9.15576C44.2808 9.49268 44.3296 10.0054 44.3296 10.6938ZM41.3706 9.96143C41.3706 9.46338 41.3438 9.15088 41.29 9.02393C41.2363 8.89209 41.1216 8.82617 40.9458 8.82617C40.77 8.82617 40.6528 8.89209 40.5942 9.02393C40.5356 9.15088 40.5063 9.46338 40.5063 9.96143V14.3486C40.5063 14.8076 40.5356 15.1079 40.5942 15.2495C40.6528 15.3862 40.7676 15.4546 40.9385 15.4546C41.1143 15.4546 41.229 15.3911 41.2827 15.2642C41.3413 15.1372 41.3706 14.8638 41.3706 14.4438V9.96143ZM48.3213 7.28076L48.27 8.1377C48.5337 7.79102 48.8242 7.53223 49.1416 7.36133C49.459 7.19043 49.8057 7.10498 50.1816 7.10498C50.6406 7.10498 51.0361 7.22949 51.3682 7.47852C51.7051 7.72266 51.915 8.00586 51.998 8.32812C52.0811 8.65039 52.1226 9.19727 52.1226 9.96875V14.063C52.1226 14.9468 52.0688 15.5767 51.9614 15.9526C51.8589 16.3237 51.644 16.6216 51.3169 16.8462C50.9946 17.0659 50.604 17.1758 50.145 17.1758C49.7788 17.1758 49.4395 17.0903 49.127 16.9194C48.8145 16.7485 48.5288 16.4946 48.27 16.1577V18.3843H45.311V7.28076H48.3213ZM49.1636 10.1079C49.1636 9.50732 49.1416 9.14355 49.0977 9.0166C49.0537 8.88965 48.9316 8.82617 48.7314 8.82617C48.5361 8.82617 48.4092 8.89941 48.3506 9.0459C48.2969 9.19238 48.27 9.54639 48.27 10.1079V14.1362C48.27 14.7222 48.2993 15.0884 48.3579 15.2349C48.4165 15.3813 48.5435 15.4546 48.7388 15.4546C48.9292 15.4546 49.0464 15.3887 49.0903 15.2568C49.1392 15.1201 49.1636 14.793 49.1636 14.2754V10.1079ZM59.8057 12.3125H55.9751V14.4146C55.9751 14.854 56.0068 15.1372 56.0703 15.2642C56.1338 15.3911 56.2559 15.4546 56.4365 15.4546C56.6611 15.4546 56.8101 15.3716 56.8833 15.2056C56.9614 15.0347 57.0005 14.7075 57.0005 14.2241V12.9424H59.8057V13.6602C59.8057 14.2607 59.7666 14.7222 59.6885 15.0444C59.6152 15.3667 59.4395 15.7109 59.1611 16.0771C58.8828 16.4434 58.5288 16.7192 58.0991 16.9048C57.6743 17.0854 57.1396 17.1758 56.4951 17.1758C55.8701 17.1758 55.3184 17.0854 54.8398 16.9048C54.3613 16.7241 53.9878 16.4775 53.7192 16.165C53.4556 15.8477 53.2725 15.501 53.1699 15.125C53.0674 14.7441 53.0161 14.1924 53.0161 13.4697V10.6353C53.0161 9.78564 53.1309 9.1167 53.3604 8.62842C53.5898 8.13525 53.9658 7.75928 54.4883 7.50049C55.0107 7.23682 55.6113 7.10498 56.29 7.10498C57.1201 7.10498 57.8037 7.26367 58.3408 7.58105C58.8828 7.89355 59.2612 8.31104 59.4761 8.8335C59.6958 9.35107 59.8057 10.0811 59.8057 11.0234V12.3125ZM56.8394 10.7305V10.02C56.8394 9.51709 56.8125 9.19238 56.7588 9.0459C56.7051 8.89941 56.5952 8.82617 56.4292 8.82617C56.2241 8.82617 56.0972 8.88965 56.0483 9.0166C55.9995 9.13867 55.9751 9.47314 55.9751 10.02V10.7305H56.8394ZM67.5107 5.14209V17H64.5518V16.2969C64.2686 16.5898 63.9707 16.8096 63.6582 16.9561C63.3457 17.1025 63.0186 17.1758 62.6768 17.1758C62.2178 17.1758 61.8198 17.0562 61.4829 16.8169C61.146 16.5728 60.9287 16.292 60.8311 15.9746C60.7383 15.6572 60.6919 15.1396 60.6919 14.4219V9.87354C60.6919 9.12646 60.7383 8.59668 60.8311 8.28418C60.9287 7.97168 61.1484 7.69824 61.4902 7.46387C61.832 7.22461 62.2397 7.10498 62.7134 7.10498C63.0796 7.10498 63.4141 7.1709 63.7168 7.30273C64.0244 7.43457 64.3027 7.63232 64.5518 7.896V5.14209H67.5107ZM64.5518 9.72705C64.5518 9.37061 64.52 9.13135 64.4565 9.00928C64.3979 8.88721 64.2783 8.82617 64.0977 8.82617C63.9219 8.82617 63.8022 8.88232 63.7388 8.99463C63.6802 9.10205 63.6509 9.34619 63.6509 9.72705V14.4878C63.6509 14.8833 63.6802 15.1445 63.7388 15.2715C63.7974 15.3936 63.9097 15.4546 64.0757 15.4546C64.2661 15.4546 64.3931 15.3862 64.4565 15.2495C64.52 15.1079 64.5518 14.7661 64.5518 14.2241V9.72705ZM74.1831 5.14209V7.94727C74.4272 7.66406 74.6982 7.4541 74.9961 7.31738C75.2988 7.17578 75.626 7.10498 75.9775 7.10498C76.3828 7.10498 76.7344 7.16846 77.0322 7.29541C77.3301 7.42236 77.5571 7.60059 77.7134 7.83008C77.8696 8.05957 77.9624 8.28418 77.9917 8.50391C78.0259 8.72363 78.043 9.19238 78.043 9.91016V14.29C78.043 15.0029 77.9941 15.5352 77.8965 15.8867C77.8037 16.2334 77.5815 16.5361 77.23 16.7949C76.8784 17.0488 76.4609 17.1758 75.9775 17.1758C75.6309 17.1758 75.3062 17.1001 75.0034 16.9487C74.7056 16.7974 74.4321 16.5703 74.1831 16.2676L73.9927 17H71.2241V5.14209H74.1831ZM75.084 10.042C75.084 9.53906 75.0522 9.21191 74.9888 9.06055C74.9253 8.9043 74.8008 8.82617 74.6152 8.82617C74.4346 8.82617 74.3174 8.89453 74.2637 9.03125C74.21 9.16309 74.1831 9.5 74.1831 10.042V14.2314C74.1831 14.7539 74.2124 15.0884 74.271 15.2349C74.3345 15.3813 74.4565 15.4546 74.6372 15.4546C74.8228 15.4546 74.9424 15.3789 74.9961 15.2275C75.0547 15.0762 75.084 14.7124 75.084 14.1362V10.042ZM85.2134 7.28076L84.3638 14.312C84.2319 15.4253 84.1196 16.1846 84.0269 16.5898C83.939 16.9951 83.79 17.3296 83.5801 17.5933C83.3701 17.8569 83.0771 18.0498 82.7012 18.1719C82.3301 18.2988 81.7344 18.3623 80.9141 18.3623H79.1196V16.8096C79.5786 16.8096 79.874 16.7876 80.0059 16.7437C80.1377 16.6948 80.2036 16.5898 80.2036 16.4287C80.2036 16.3506 80.1426 16.0112 80.0205 15.4106L78.4019 7.28076H81.0898L82.0566 13.8359L82.5254 7.28076H85.2134Z" fill="#653E1A" fill-opacity="0.46"/>
<path d="M61.9048 51.5962H13.9441V69.0527H61.9048V51.5962Z" fill="#F8F7F1"/>
<path d="M54.244 54.7629C51.3885 54.7039 48.5601 56.9392 48.7011 60.4537C48.8111 63.2031 51.0845 65.4914 54.05 65.5494C57.0015 65.5594 59.3469 63.3391 59.4879 60.4147C59.6349 57.3662 57.2605 54.8259 54.244 54.7639V54.7629ZM54.253 63.4541C52.3387 63.4491 50.8085 62.1409 50.8065 60.1776C50.8045 58.1063 52.4747 56.8582 54.108 56.8602C55.8843 56.8632 57.3815 58.3314 57.3885 60.0866C57.3955 61.9059 55.9573 63.4581 54.253 63.4541Z" fill="#653E1A"/>
<path d="M39.9205 55.1375C39.0324 54.9665 38.1052 54.9875 37.1941 54.9555C36.605 54.9345 36.519 55.0455 36.519 55.6286C36.517 57.1478 36.519 58.667 36.519 60.1852C36.529 60.1852 36.539 60.1852 36.549 60.1852C36.549 60.4133 36.55 60.6423 36.549 60.8703C36.54 62.2065 36.53 63.5427 36.521 64.8789C36.519 65.1289 36.576 65.369 36.871 65.371C37.7612 65.377 38.6643 65.45 39.5385 65.327C41.9348 64.9889 44.4153 62.5506 43.8752 59.3341C43.5371 57.3198 41.9318 55.5246 39.9205 55.1365V55.1375ZM40.0365 62.9666C39.7615 63.0956 39.4624 63.1967 39.1634 63.2467C38.7833 63.3107 38.6723 63.1857 38.6723 62.7966C38.6723 61.9295 38.6723 61.0624 38.6723 60.1962C38.6683 60.1962 38.6643 60.1962 38.6603 60.1962C38.6603 59.3181 38.6553 58.439 38.6623 57.5609C38.6653 57.1628 38.8013 57.0638 39.2024 57.1298C40.4826 57.3408 41.6548 58.462 41.7818 59.7202C41.9258 61.1544 41.4468 62.3065 40.0355 62.9676L40.0365 62.9666Z" fill="#653E1A"/>
<path d="M33.9888 54.9377C33.6047 54.9467 33.2196 54.9397 32.8056 54.9397C32.8056 55.0917 32.8056 55.2047 32.8056 55.3167C32.7926 56.6749 32.7716 58.0341 32.7696 59.3923C32.7686 60.4755 32.7876 61.5576 32.8056 62.6408C32.8156 63.2469 32.1475 63.7259 31.5844 63.4979C31.1173 63.3089 30.9703 62.9308 30.9723 62.4538C30.9813 60.0784 30.9833 57.7021 30.9863 55.3267C30.9863 55.2067 30.9763 55.0867 30.9683 54.9277C30.4412 54.9277 29.9511 54.9347 29.461 54.9257C29.0279 54.9167 29.0289 54.9117 29.0269 55.3537C29.0199 57.7181 29.0019 60.0824 29.0059 62.4468C29.0079 63.4639 29.34 64.333 30.1931 64.9731C31.0533 65.6172 31.9944 65.7252 32.9416 65.3302C34.0458 64.8701 34.7259 64.009 34.7379 62.7688C34.7609 60.4045 34.7459 58.0401 34.7419 55.6758C34.7409 54.9187 34.7339 54.9217 33.9888 54.9387V54.9377Z" fill="#653E1A"/>
<path d="M26.5712 54.9597C25.383 54.9497 24.1959 54.9446 23.0077 54.9486C21.9215 54.9526 21.9215 54.9597 21.9125 56.0328C21.9035 57.0789 21.9095 57.0849 22.9497 57.0879C23.4957 57.0889 23.5457 57.138 23.5467 57.7C23.5487 58.8872 23.5467 60.0744 23.5467 61.2615C23.5467 62.4827 23.5557 63.7049 23.5407 64.926C23.5367 65.2491 23.6688 65.3951 23.9708 65.4101C24.3009 65.4261 24.6329 65.4411 24.963 65.4401C25.5551 65.4401 25.6371 65.3581 25.6401 64.768C25.6511 62.4967 25.6581 60.2254 25.6661 57.9531C25.6661 57.8161 25.6691 57.679 25.6711 57.542C25.6751 57.222 25.8161 57.0559 26.1572 57.0769C26.3962 57.0919 26.6372 57.0859 26.8763 57.0739C27.1293 57.0619 27.2794 56.9359 27.2764 56.6639C27.2733 56.3218 27.2844 55.9788 27.2733 55.6377C27.2543 55.0147 27.2053 54.9637 26.5682 54.9587L26.5712 54.9597Z" fill="#653E1A"/>
<path d="M19.1724 59.1598C18.9743 58.8678 18.7583 58.5838 18.6003 58.2707C18.3002 57.6756 18.6433 56.9855 19.2904 56.8295C19.8425 56.6955 19.8435 56.6955 19.8415 56.1024C19.8415 55.9894 19.8345 55.8734 19.8075 55.7634C19.7385 55.4823 19.9975 55.0853 19.6534 54.9312C19.3944 54.8152 19.0494 54.8902 18.7423 54.8882C18.6643 54.8882 18.5873 54.9192 18.5093 54.9362C16.701 55.3263 15.7188 57.8107 16.886 59.5359C17.3771 60.263 17.8952 60.9721 18.4092 61.6832C18.9323 62.4073 18.6833 63.1794 17.8312 63.4225C17.6791 63.4655 17.5171 63.4725 17.3581 63.4915C17.116 63.5205 16.748 63.4615 16.662 63.5915C16.5309 63.7895 16.595 64.1166 16.577 64.3886C16.583 64.3886 16.588 64.3886 16.594 64.3896C16.594 64.5606 16.601 64.7327 16.593 64.9027C16.577 65.2257 16.71 65.3967 17.041 65.4748C17.6871 65.6268 18.2872 65.5518 18.9063 65.3117C20.4326 64.7197 21.3077 62.6023 20.5306 61.1661C20.1485 60.459 19.6274 59.8279 19.1734 59.1588L19.1724 59.1598Z" fill="#653E1A"/>
<path d="M47.3288 55.3357C47.3328 55.1097 47.2168 54.9797 47.0087 54.9697C46.5647 54.9487 46.1186 54.9427 45.6735 54.9507C45.4505 54.9547 45.3335 55.0767 45.3345 55.3267C45.3415 56.936 45.3385 58.5442 45.3385 60.1534C45.3425 60.1534 45.3465 60.1534 45.3505 60.1534C45.3505 60.2444 45.3505 60.3364 45.3505 60.4275C45.3545 61.9337 45.3615 63.4399 45.3595 64.9461C45.3595 65.2622 45.4615 65.4492 45.8106 65.4412C46.1076 65.4342 46.4046 65.4462 46.7007 65.4472C47.2548 65.4492 47.3468 65.3612 47.3488 64.8171C47.3518 63.4249 47.3558 62.0327 47.3488 60.6405C47.3438 59.4193 47.3238 58.1991 47.3158 56.978C47.3118 56.4309 47.3188 55.8828 47.3278 55.3357H47.3288Z" fill="#653E1A"/>
<path d="M61.9059 23.9272H13.98V37.8082H61.9059V23.9272Z" fill="#B19E87" fill-opacity="0.32"/>
<path d="M61.8978 37.8076H13.9441V51.5956H61.8978V37.8076Z" fill="#B19E87"/>
<path d="M42.1161 36.8251C41.7821 36.475 41.7501 36.358 41.9551 35.9419C42.2312 35.3818 42.4762 34.8268 42.5752 34.1897C42.8043 32.7145 42.5452 31.3973 41.5941 30.2191C40.5679 28.9489 39.2547 28.3028 37.2573 28.2768C36.4942 28.2538 35.466 28.6449 34.5989 29.294C33.3797 30.2081 32.6886 31.4883 32.6266 33.0395C32.5856 34.0687 32.7676 35.0618 33.3727 35.9349C33.5557 36.198 33.5487 36.42 33.3027 36.656C32.7976 37.1411 32.4215 37.7152 32.0955 38.3413C31.4734 39.5344 31.3044 40.8016 31.5274 42.0848C31.7404 43.313 32.1955 44.4681 33.1477 45.3683C33.7908 45.9753 34.4369 46.5704 35.291 46.8515C35.8351 47.0305 36.3982 47.1745 36.9653 47.2565C38.1645 47.4306 39.2977 47.2205 40.3979 46.6724C41.8191 45.9653 42.7882 44.8772 43.3973 43.445C43.8784 42.3128 43.9844 41.1257 43.7644 39.9245C43.5444 38.7263 42.9573 37.7042 42.1191 36.8261L42.1161 36.8251ZM37.5334 31.7533C38.4705 31.7153 39.1667 32.3584 39.1917 33.2846C39.2157 34.1647 38.5996 34.8158 37.7064 34.8558C37.0363 34.9588 36.1312 34.3137 36.0891 33.3516C36.0571 32.6045 36.7923 31.7843 37.5334 31.7543V31.7533ZM37.5284 43.8951C36.0761 43.9211 34.7399 42.3358 34.907 41.0827C34.7779 39.5174 36.4712 38.2313 37.7294 38.3083C39.0226 38.3863 40.4589 39.7455 40.4449 40.8956C40.4209 42.8999 39.0346 43.869 37.5274 43.8951H37.5284Z" fill="#653E1A"/>
<path d="M27.969 30.4972C27.3569 29.7711 26.6028 29.259 25.7607 28.8659C25.4026 28.6989 25.0115 28.5509 24.6235 28.5129C23.8593 28.4379 23.1012 28.3549 22.3151 28.4719C20.7798 28.7019 19.5356 29.417 18.5445 30.5522C17.7104 31.5073 17.2833 32.6525 17.1663 33.9437C17.0142 35.6159 17.4773 37.0531 18.4805 38.3703C19.1316 39.2264 20.0067 39.7665 20.9299 40.2436C21.663 40.6216 22.4761 40.6966 23.2883 40.7316C23.8503 40.7566 23.9594 40.8677 23.8003 41.3977C23.5813 42.1278 23.3213 42.8449 23.0692 43.564C22.7152 44.5732 22.3541 45.5793 21.993 46.5855C21.846 46.9945 21.913 47.0905 22.3501 47.1085C22.8862 47.1296 23.4213 47.1616 23.9564 47.1896C23.9564 47.1766 23.9564 47.1646 23.9574 47.1516C24.1744 47.1516 24.3914 47.1576 24.6085 47.1506C25.1286 47.1352 25.4736 46.8839 25.6436 46.3964C25.6516 46.3744 25.6576 46.3534 25.6656 46.3314C26.2527 44.6672 26.8378 43.003 27.4269 41.3397C27.967 39.8155 28.5321 38.2993 29.0482 36.7661C29.3302 35.929 29.5593 35.0878 29.4633 34.1627C29.3202 32.7795 28.8692 31.5643 27.97 30.4972H27.969ZM23.3513 37.2871C21.626 37.2861 20.4888 35.913 20.5418 34.5088C20.6038 32.8925 22.028 31.8464 23.0222 31.7984C24.8675 31.7104 26.1027 33.1196 26.0517 34.6708C26.0127 35.8499 24.8375 37.3762 23.3513 37.2861V37.2871Z" fill="#653E1A"/>
<path d="M57.737 38.5434C56.9218 37.3752 56.0467 36.2491 55.2435 35.0729C54.8505 34.4978 54.5054 33.9117 54.7685 33.1046C54.9695 32.4865 55.7906 31.8024 56.5218 31.8294C57.0068 31.8474 57.0638 31.8084 57.0608 31.3104C57.0548 30.4682 57.0218 29.6271 57.0158 28.785C57.0138 28.564 56.9018 28.4449 56.7198 28.4419C56.0747 28.4299 55.4096 28.3489 54.7865 28.47C53.3052 28.759 52.2631 29.6771 51.5779 31.0053C51.1779 31.7824 50.9098 32.6105 50.8978 33.4827C50.8898 34.0537 50.9598 34.6448 51.1109 35.1949C51.3849 36.198 52.047 37.0022 52.6381 37.8363C53.3242 38.8034 54.0313 39.7556 54.6915 40.7397C54.9955 41.1938 55.1205 41.7328 54.9215 42.2719C54.6114 43.112 53.9463 43.5121 53.0882 43.5881C52.6171 43.6291 52.14 43.5981 51.666 43.5851C51.4729 43.5801 51.3569 43.6321 51.3459 43.8401C51.3209 44.3062 51.2949 44.7713 51.2689 45.2373C51.2769 45.2373 51.2859 45.2373 51.2939 45.2383C51.2939 45.6034 51.2829 45.9694 51.2979 46.3345C51.3099 46.6225 51.3439 46.9356 51.674 47.0366C52.085 47.1626 52.5071 47.3086 52.9312 47.3306C53.7483 47.3736 54.5394 47.2716 55.3176 46.9186C56.2057 46.5165 56.9778 45.9854 57.5539 45.2253C58.227 44.3352 58.6301 43.3281 58.7391 42.1819C58.8681 40.8197 58.4981 39.6315 57.739 38.5434H57.737Z" fill="#653E1A"/>
<path d="M48.5375 28.3552C48.1495 28.3462 47.7614 28.3532 47.3733 28.3532C47.0083 28.3532 46.6432 28.3512 46.2772 28.3532C45.8461 28.3552 45.7661 28.4162 45.7941 28.8543C45.8421 29.6144 45.9231 30.3725 45.9871 31.1326C46.0841 32.2897 46.1771 33.4469 46.2751 34.6041C46.2992 34.8871 46.4592 35.0371 46.7462 35.0391C47.1233 35.0421 47.4994 35.0481 47.8764 35.0391C48.2515 35.0291 48.3925 34.8981 48.4315 34.5281C48.4855 34.008 48.5285 33.4859 48.5775 32.9648C48.7066 31.5946 48.8336 30.2244 48.9676 28.8553C49.0006 28.5142 48.8896 28.3642 48.5385 28.3562L48.5375 28.3552Z" fill="#653E1A"/>
<path d="M37.9162 71C30.295 71 22.6737 71 15.0525 71C13.1692 71 12 69.8408 12 67.9726C12 53.6255 12 39.2795 12 24.9324C12 23.5152 12.7881 22.4271 14.0763 22.1C14.3714 22.025 14.6894 22.017 14.9975 22.017C30.286 22.013 45.5735 22.025 60.8619 22C62.7543 21.997 63.8854 23.4152 63.8824 25.0324C63.8584 39.3565 63.8674 53.6805 63.8704 68.0036C63.8704 69.2988 63.3274 70.2589 62.1192 70.767C61.7311 70.93 61.273 70.99 60.847 70.99C53.2027 71.003 45.5585 70.999 37.9142 70.999L37.9162 71ZM37.9052 69.0517C43.1271 69.0517 48.3499 69.0517 53.5718 69.0517C56.0392 69.0517 58.5076 69.0517 60.975 69.0517C61.5501 69.0517 61.8931 68.7197 61.9171 68.1476C61.9221 68.0336 61.9191 67.9196 61.9191 67.8046C61.9151 61.6937 61.9131 55.5828 61.9071 49.4719C61.8991 41.3508 61.8871 33.2306 61.8761 25.1095C61.8761 24.9724 61.8681 24.8354 61.8601 24.6994C61.8421 24.3653 61.6561 24.1393 61.358 24.0273C61.171 23.9573 60.957 23.9303 60.7549 23.9303C45.5475 23.9263 30.339 23.9263 15.1315 23.9263C14.2974 23.9263 13.9913 24.2263 13.9893 25.0534C13.9783 29.4391 13.9663 33.8247 13.9593 38.2103C13.9523 42.848 13.9493 47.4846 13.9473 52.1223C13.9453 57.4111 13.9473 62.6998 13.9473 67.9886C13.9473 68.7437 14.2564 69.0527 15.0055 69.0527C22.6377 69.0527 30.271 69.0527 37.9032 69.0527L37.9052 69.0517Z" fill="#653E1A"/>
</svg>
