<svg width="88" height="77" viewBox="0 0 88 77" fill="none" xmlns="http://www.w3.org/2000/svg">
<path d="M9.14404 5.14209H12.2495C13.0894 5.14209 13.7339 5.20801 14.1831 5.33984C14.6372 5.47168 14.9766 5.66211 15.2012 5.91113C15.4307 6.16016 15.5845 6.46289 15.6626 6.81934C15.7456 7.1709 15.7871 7.71777 15.7871 8.45996V9.49268C15.7871 10.2495 15.709 10.8013 15.5527 11.1479C15.3965 11.4946 15.1084 11.7607 14.6885 11.9463C14.2734 12.1318 13.729 12.2246 13.0552 12.2246H12.2275V17H9.14404V5.14209ZM12.2275 7.1709V10.1885C12.3154 10.1934 12.3911 10.1958 12.4546 10.1958C12.7378 10.1958 12.9331 10.1274 13.0405 9.99072C13.1528 9.84912 13.209 9.55859 13.209 9.11914V8.14502C13.209 7.73975 13.1455 7.47607 13.0186 7.354C12.8916 7.23193 12.6279 7.1709 12.2275 7.1709ZM23.2798 10.6938V13.0742C23.2798 13.9482 23.2358 14.5903 23.1479 15.0005C23.0601 15.4058 22.8721 15.7866 22.584 16.1431C22.2959 16.4946 21.9248 16.7559 21.4707 16.9268C21.0215 17.0928 20.5039 17.1758 19.918 17.1758C19.2637 17.1758 18.7095 17.105 18.2554 16.9634C17.8013 16.8169 17.4473 16.5996 17.1934 16.3115C16.9443 16.0186 16.7661 15.667 16.6587 15.2568C16.5513 14.8418 16.4976 14.2217 16.4976 13.3965V10.9062C16.4976 10.0029 16.5952 9.29736 16.7905 8.78955C16.9858 8.28174 17.3374 7.87402 17.8452 7.56641C18.353 7.25879 19.0024 7.10498 19.7935 7.10498C20.4575 7.10498 21.0264 7.20508 21.5 7.40527C21.9785 7.60059 22.3472 7.85693 22.606 8.17432C22.8647 8.4917 23.0405 8.81885 23.1333 9.15576C23.231 9.49268 23.2798 10.0054 23.2798 10.6938ZM20.3208 9.96143C20.3208 9.46338 20.2939 9.15088 20.2402 9.02393C20.1865 8.89209 20.0718 8.82617 19.896 8.82617C19.7202 8.82617 19.603 8.89209 19.5444 9.02393C19.4858 9.15088 19.4565 9.46338 19.4565 9.96143V14.3486C19.4565 14.8076 19.4858 15.1079 19.5444 15.2495C19.603 15.3862 19.7178 15.4546 19.8887 15.4546C20.0645 15.4546 20.1792 15.3911 20.2329 15.2642C20.2915 15.1372 20.3208 14.8638 20.3208 14.4438V9.96143ZM33.8193 7.28076L32.6401 17H29.4248C29.249 15.8135 29.0464 14.251 28.8169 12.3125C28.7388 13.1621 28.6289 14.0215 28.4873 14.8906L28.1577 17H24.9424L23.6899 7.28076H26.2388C26.2583 7.53467 26.4731 9.3877 26.8833 12.8398C26.9126 12.4883 27.1323 10.6353 27.5425 7.28076H29.9961L30.5967 12.8398C30.6895 11.2188 30.9141 9.36572 31.2705 7.28076H33.8193ZM41.0117 12.3125H37.1812V14.4146C37.1812 14.854 37.2129 15.1372 37.2764 15.2642C37.3398 15.3911 37.4619 15.4546 37.6426 15.4546C37.8672 15.4546 38.0161 15.3716 38.0894 15.2056C38.1675 15.0347 38.2065 14.7075 38.2065 14.2241V12.9424H41.0117V13.6602C41.0117 14.2607 40.9727 14.7222 40.8945 15.0444C40.8213 15.3667 40.6455 15.7109 40.3672 16.0771C40.0889 16.4434 39.7349 16.7192 39.3052 16.9048C38.8804 17.0854 38.3457 17.1758 37.7012 17.1758C37.0762 17.1758 36.5244 17.0854 36.0459 16.9048C35.5674 16.7241 35.1938 16.4775 34.9253 16.165C34.6616 15.8477 34.4785 15.501 34.376 15.125C34.2734 14.7441 34.2222 14.1924 34.2222 13.4697V10.6353C34.2222 9.78564 34.3369 9.1167 34.5664 8.62842C34.7959 8.13525 35.1719 7.75928 35.6943 7.50049C36.2168 7.23682 36.8174 7.10498 37.4961 7.10498C38.3262 7.10498 39.0098 7.26367 39.5469 7.58105C40.0889 7.89355 40.4673 8.31104 40.6821 8.8335C40.9019 9.35107 41.0117 10.0811 41.0117 11.0234V12.3125ZM38.0454 10.7305V10.02C38.0454 9.51709 38.0186 9.19238 37.9648 9.0459C37.9111 8.89941 37.8013 8.82617 37.6353 8.82617C37.4302 8.82617 37.3032 8.88965 37.2544 9.0166C37.2056 9.13867 37.1812 9.47314 37.1812 10.02V10.7305H38.0454ZM44.9448 7.28076L44.8276 8.55518C45.2573 7.64209 45.8799 7.15869 46.6953 7.10498V10.5254C46.1533 10.5254 45.7554 10.5986 45.5015 10.7451C45.2476 10.8916 45.0913 11.0967 45.0327 11.3604C44.9741 11.6191 44.9448 12.2197 44.9448 13.1621V17H41.9858V7.28076H44.9448ZM54.0635 12.3125H50.2329V14.4146C50.2329 14.854 50.2646 15.1372 50.3281 15.2642C50.3916 15.3911 50.5137 15.4546 50.6943 15.4546C50.9189 15.4546 51.0679 15.3716 51.1411 15.2056C51.2192 15.0347 51.2583 14.7075 51.2583 14.2241V12.9424H54.0635V13.6602C54.0635 14.2607 54.0244 14.7222 53.9463 15.0444C53.873 15.3667 53.6973 15.7109 53.4189 16.0771C53.1406 16.4434 52.7866 16.7192 52.3569 16.9048C51.9321 17.0854 51.3975 17.1758 50.7529 17.1758C50.1279 17.1758 49.5762 17.0854 49.0977 16.9048C48.6191 16.7241 48.2456 16.4775 47.9771 16.165C47.7134 15.8477 47.5303 15.501 47.4277 15.125C47.3252 14.7441 47.2739 14.1924 47.2739 13.4697V10.6353C47.2739 9.78564 47.3887 9.1167 47.6182 8.62842C47.8477 8.13525 48.2236 7.75928 48.7461 7.50049C49.2686 7.23682 49.8691 7.10498 50.5479 7.10498C51.3779 7.10498 52.0615 7.26367 52.5986 7.58105C53.1406 7.89355 53.519 8.31104 53.7339 8.8335C53.9536 9.35107 54.0635 10.0811 54.0635 11.0234V12.3125ZM51.0972 10.7305V10.02C51.0972 9.51709 51.0703 9.19238 51.0166 9.0459C50.9629 8.89941 50.853 8.82617 50.687 8.82617C50.4819 8.82617 50.355 8.88965 50.3062 9.0166C50.2573 9.13867 50.2329 9.47314 50.2329 10.02V10.7305H51.0972ZM61.7686 5.14209V17H58.8096V16.2969C58.5264 16.5898 58.2285 16.8096 57.916 16.9561C57.6035 17.1025 57.2764 17.1758 56.9346 17.1758C56.4756 17.1758 56.0776 17.0562 55.7407 16.8169C55.4038 16.5728 55.1865 16.292 55.0889 15.9746C54.9961 15.6572 54.9497 15.1396 54.9497 14.4219V9.87354C54.9497 9.12646 54.9961 8.59668 55.0889 8.28418C55.1865 7.97168 55.4062 7.69824 55.748 7.46387C56.0898 7.22461 56.4976 7.10498 56.9712 7.10498C57.3374 7.10498 57.6719 7.1709 57.9746 7.30273C58.2822 7.43457 58.5605 7.63232 58.8096 7.896V5.14209H61.7686ZM58.8096 9.72705C58.8096 9.37061 58.7778 9.13135 58.7144 9.00928C58.6558 8.88721 58.5361 8.82617 58.3555 8.82617C58.1797 8.82617 58.0601 8.88232 57.9966 8.99463C57.938 9.10205 57.9087 9.34619 57.9087 9.72705V14.4878C57.9087 14.8833 57.938 15.1445 57.9966 15.2715C58.0552 15.3936 58.1675 15.4546 58.3335 15.4546C58.5239 15.4546 58.6509 15.3862 58.7144 15.2495C58.7778 15.1079 58.8096 14.7661 58.8096 14.2241V9.72705ZM68.4409 5.14209V7.94727C68.6851 7.66406 68.9561 7.4541 69.2539 7.31738C69.5566 7.17578 69.8838 7.10498 70.2354 7.10498C70.6406 7.10498 70.9922 7.16846 71.29 7.29541C71.5879 7.42236 71.8149 7.60059 71.9712 7.83008C72.1274 8.05957 72.2202 8.28418 72.2495 8.50391C72.2837 8.72363 72.3008 9.19238 72.3008 9.91016V14.29C72.3008 15.0029 72.252 15.5352 72.1543 15.8867C72.0615 16.2334 71.8394 16.5361 71.4878 16.7949C71.1362 17.0488 70.7188 17.1758 70.2354 17.1758C69.8887 17.1758 69.564 17.1001 69.2612 16.9487C68.9634 16.7974 68.6899 16.5703 68.4409 16.2676L68.2505 17H65.4819V5.14209H68.4409ZM69.3418 10.042C69.3418 9.53906 69.3101 9.21191 69.2466 9.06055C69.1831 8.9043 69.0586 8.82617 68.873 8.82617C68.6924 8.82617 68.5752 8.89453 68.5215 9.03125C68.4678 9.16309 68.4409 9.5 68.4409 10.042V14.2314C68.4409 14.7539 68.4702 15.0884 68.5288 15.2349C68.5923 15.3813 68.7144 15.4546 68.895 15.4546C69.0806 15.4546 69.2002 15.3789 69.2539 15.2275C69.3125 15.0762 69.3418 14.7124 69.3418 14.1362V10.042ZM79.4712 7.28076L78.6216 14.312C78.4897 15.4253 78.3774 16.1846 78.2847 16.5898C78.1968 16.9951 78.0479 17.3296 77.8379 17.5933C77.6279 17.8569 77.335 18.0498 76.959 18.1719C76.5879 18.2988 75.9922 18.3623 75.1719 18.3623H73.3774V16.8096C73.8364 16.8096 74.1318 16.7876 74.2637 16.7437C74.3955 16.6948 74.4614 16.5898 74.4614 16.4287C74.4614 16.3506 74.4004 16.0112 74.2783 15.4106L72.6597 7.28076H75.3477L76.3145 13.8359L76.7832 7.28076H79.4712Z" fill="#653E1A" fill-opacity="0.46"/>
<path d="M67.9048 57.5962H19.9441V75.0527H67.9048V57.5962Z" fill="#F8F7F1"/>
<path d="M60.244 60.7631C57.3885 60.7041 54.5601 62.9394 54.7011 66.4539C54.8111 69.2033 57.0845 71.4916 60.05 71.5496C63.0015 71.5596 65.3469 69.3393 65.4879 66.4149C65.6349 63.3665 63.2605 60.8261 60.244 60.7641V60.7631ZM60.253 69.4543C58.3387 69.4493 56.8085 68.1411 56.8065 66.1779C56.8045 64.1066 58.4747 62.8584 60.108 62.8604C61.8843 62.8634 63.3815 64.3316 63.3885 66.0869C63.3955 67.9061 61.9573 69.4583 60.253 69.4543Z" fill="#653E1A"/>
<path d="M45.9205 61.1378C45.0324 60.9667 44.1052 60.9877 43.1941 60.9557C42.605 60.9347 42.519 61.0457 42.519 61.6288C42.517 63.148 42.519 64.6673 42.519 66.1855C42.529 66.1855 42.539 66.1855 42.549 66.1855C42.549 66.4135 42.55 66.6425 42.549 66.8706C42.54 68.2068 42.53 69.543 42.521 70.8791C42.519 71.1292 42.576 71.3692 42.871 71.3712C43.7612 71.3772 44.6643 71.4502 45.5385 71.3272C47.9348 70.9892 50.4153 68.5508 49.8752 65.3344C49.5371 63.3201 47.9318 61.5248 45.9205 61.1368V61.1378ZM46.0365 68.9669C45.7615 69.0959 45.4624 69.1969 45.1634 69.2469C44.7833 69.3109 44.6723 69.1859 44.6723 68.7968C44.6723 67.9297 44.6723 67.0626 44.6723 66.1965C44.6683 66.1965 44.6643 66.1965 44.6603 66.1965C44.6603 65.3184 44.6553 64.4392 44.6623 63.5611C44.6653 63.163 44.8013 63.064 45.2024 63.13C46.4826 63.3411 47.6548 64.4622 47.7818 65.7204C47.9258 67.1546 47.4468 68.3068 46.0355 68.9679L46.0365 68.9669Z" fill="#653E1A"/>
<path d="M39.9888 60.9377C39.6047 60.9467 39.2196 60.9397 38.8056 60.9397C38.8056 61.0917 38.8056 61.2047 38.8056 61.3167C38.7926 62.6749 38.7716 64.0341 38.7696 65.3923C38.7686 66.4755 38.7876 67.5576 38.8056 68.6408C38.8156 69.2469 38.1475 69.7259 37.5844 69.4979C37.1173 69.3089 36.9703 68.9308 36.9723 68.4538C36.9813 66.0784 36.9833 63.7021 36.9863 61.3267C36.9863 61.2067 36.9763 61.0867 36.9683 60.9277C36.4412 60.9277 35.9511 60.9347 35.461 60.9257C35.0279 60.9167 35.0289 60.9117 35.0269 61.3537C35.0199 63.7181 35.0019 66.0824 35.0059 68.4468C35.0079 69.4639 35.34 70.333 36.1931 70.9731C37.0533 71.6172 37.9944 71.7252 38.9416 71.3302C40.0458 70.8701 40.7259 70.009 40.7379 68.7688C40.7609 66.4045 40.7459 64.0401 40.7419 61.6758C40.7409 60.9187 40.7339 60.9217 39.9888 60.9387V60.9377Z" fill="#653E1A"/>
<path d="M32.5712 60.9597C31.383 60.9497 30.1959 60.9446 29.0077 60.9486C27.9215 60.9526 27.9215 60.9597 27.9125 62.0328C27.9035 63.0789 27.9095 63.0849 28.9497 63.0879C29.4957 63.0889 29.5457 63.138 29.5467 63.7C29.5487 64.8872 29.5467 66.0744 29.5467 67.2615C29.5467 68.4827 29.5557 69.7049 29.5407 70.926C29.5367 71.2491 29.6688 71.3951 29.9708 71.4101C30.3009 71.4261 30.6329 71.4411 30.963 71.4401C31.5551 71.4401 31.6371 71.3581 31.6401 70.768C31.6511 68.4967 31.6581 66.2254 31.6661 63.9531C31.6661 63.8161 31.6691 63.679 31.6711 63.542C31.6751 63.222 31.8161 63.0559 32.1572 63.0769C32.3962 63.0919 32.6372 63.0859 32.8763 63.0739C33.1293 63.0619 33.2794 62.9359 33.2764 62.6639C33.2733 62.3218 33.2844 61.9788 33.2733 61.6377C33.2543 61.0147 33.2053 60.9637 32.5682 60.9587L32.5712 60.9597Z" fill="#653E1A"/>
<path d="M25.1724 65.1601C24.9743 64.8681 24.7583 64.584 24.6003 64.271C24.3002 63.6759 24.6433 62.9858 25.2904 62.8298C25.8425 62.6957 25.8435 62.6957 25.8415 62.1027C25.8415 61.9896 25.8345 61.8736 25.8075 61.7636C25.7385 61.4826 25.9975 61.0855 25.6534 60.9315C25.3944 60.8155 25.0494 60.8905 24.7423 60.8885C24.6643 60.8885 24.5873 60.9195 24.5093 60.9365C22.701 61.3265 21.7188 63.8109 22.886 65.5361C23.3771 66.2633 23.8952 66.9724 24.4092 67.6835C24.9323 68.4076 24.6833 69.1797 23.8312 69.4227C23.6791 69.4657 23.5171 69.4727 23.3581 69.4917C23.116 69.5207 22.748 69.4617 22.662 69.5917C22.5309 69.7898 22.595 70.1168 22.577 70.3888C22.583 70.3888 22.588 70.3888 22.594 70.3898C22.594 70.5609 22.601 70.7329 22.593 70.9029C22.577 71.226 22.71 71.397 23.041 71.475C23.6871 71.627 24.2872 71.552 24.9063 71.312C26.4326 70.7199 27.3077 68.6026 26.5306 67.1664C26.1485 66.4593 25.6274 65.8282 25.1734 65.1591L25.1724 65.1601Z" fill="#653E1A"/>
<path d="M53.3288 61.3357C53.3328 61.1097 53.2168 60.9797 53.0087 60.9697C52.5647 60.9487 52.1186 60.9427 51.6735 60.9507C51.4505 60.9547 51.3335 61.0767 51.3345 61.3267C51.3415 62.936 51.3385 64.5442 51.3385 66.1534C51.3425 66.1534 51.3465 66.1534 51.3505 66.1534C51.3505 66.2444 51.3505 66.3364 51.3505 66.4275C51.3545 67.9337 51.3615 69.4399 51.3595 70.9461C51.3595 71.2622 51.4615 71.4492 51.8106 71.4412C52.1076 71.4342 52.4046 71.4462 52.7007 71.4472C53.2548 71.4492 53.3468 71.3612 53.3488 70.8171C53.3518 69.4249 53.3558 68.0327 53.3488 66.6405C53.3438 65.4193 53.3238 64.1991 53.3158 62.978C53.3118 62.4309 53.3188 61.8828 53.3278 61.3357H53.3288Z" fill="#653E1A"/>
<path d="M67.9059 29.9275H19.98V43.8085H67.9059V29.9275Z" fill="#B19E87" fill-opacity="0.32"/>
<path d="M67.8978 43.8074H19.9441V57.5953H67.8978V43.8074Z" fill="#B19E87"/>
<path d="M48.1161 42.8253C47.7821 42.4752 47.7501 42.3582 47.9551 41.9422C48.2312 41.3821 48.4762 40.827 48.5752 40.1899C48.8043 38.7147 48.5452 37.3975 47.5941 36.2194C46.5679 34.9492 45.2547 34.3031 43.2573 34.2771C42.4942 34.2541 41.466 34.6451 40.5989 35.2942C39.3797 36.2084 38.6886 37.4885 38.6266 39.0398C38.5856 40.0689 38.7676 41.062 39.3727 41.9352C39.5557 42.1982 39.5487 42.4202 39.3027 42.6563C38.7976 43.1413 38.4215 43.7154 38.0955 44.3415C37.4734 45.5347 37.3044 46.8019 37.5274 48.085C37.7404 49.3132 38.1955 50.4684 39.1477 51.3685C39.7908 51.9756 40.4369 52.5707 41.291 52.8517C41.8351 53.0307 42.3982 53.1748 42.9653 53.2568C44.1645 53.4308 45.2977 53.2208 46.3979 52.6727C47.8191 51.9656 48.7882 50.8774 49.3973 49.4452C49.8784 48.3131 49.9844 47.1259 49.7644 45.9247C49.5444 44.7266 48.9573 43.7044 48.1191 42.8263L48.1161 42.8253ZM43.5334 37.7536C44.4705 37.7156 45.1667 38.3587 45.1917 39.2848C45.2157 40.1649 44.5996 40.816 43.7064 40.856C43.0363 40.959 42.1312 40.3139 42.0891 39.3518C42.0571 38.6047 42.7923 37.7846 43.5334 37.7546V37.7536ZM43.5284 49.8953C42.0761 49.9213 40.7399 48.3361 40.907 47.0829C40.7779 45.5177 42.4712 44.2315 43.7294 44.3085C45.0226 44.3865 46.4589 45.7457 46.4449 46.8959C46.4209 48.9002 45.0346 49.8693 43.5274 49.8953H43.5284Z" fill="#653E1A"/>
<path d="M33.969 36.4974C33.3569 35.7713 32.6028 35.2592 31.7607 34.8662C31.4026 34.6992 31.0115 34.5511 30.6235 34.5131C29.8593 34.4381 29.1012 34.3551 28.3151 34.4721C26.7798 34.7022 25.5356 35.4173 24.5445 36.5524C23.7104 37.5076 23.2833 38.6527 23.1663 39.9439C23.0142 41.6162 23.4773 43.0534 24.4805 44.3705C25.1316 45.2267 26.0067 45.7667 26.9299 46.2438C27.663 46.6219 28.4761 46.6969 29.2883 46.7319C29.8503 46.7569 29.9594 46.8679 29.8003 47.398C29.5813 48.1281 29.3213 48.8452 29.0692 49.5643C28.7152 50.5734 28.3541 51.5796 27.993 52.5857C27.846 52.9948 27.913 53.0908 28.3501 53.1088C28.8862 53.1298 29.4213 53.1618 29.9564 53.1898C29.9564 53.1768 29.9564 53.1648 29.9574 53.1518C30.1744 53.1518 30.3914 53.1578 30.6085 53.1508C31.1286 53.1355 31.4736 52.8841 31.6436 52.3967C31.6516 52.3747 31.6576 52.3537 31.6656 52.3317C32.2527 50.6674 32.8378 49.0032 33.4269 47.34C33.967 45.8158 34.5321 44.2995 35.0482 42.7663C35.3302 41.9292 35.5593 41.0881 35.4633 40.1629C35.3202 38.7797 34.8692 37.5646 33.97 36.4974H33.969ZM29.3513 43.2874C27.626 43.2864 26.4888 41.9132 26.5418 40.509C26.6038 38.8928 28.028 37.8466 29.0222 37.7986C30.8675 37.7106 32.1027 39.1198 32.0517 40.671C32.0127 41.8502 30.8375 43.3764 29.3513 43.2864V43.2874Z" fill="#653E1A"/>
<path d="M63.737 44.5439C62.9218 43.3757 62.0467 42.2495 61.2435 41.0734C60.8505 40.4983 60.5054 39.9122 60.7685 39.1051C60.9695 38.487 61.7906 37.8029 62.5218 37.8299C63.0068 37.8479 63.0638 37.8089 63.0608 37.3108C63.0548 36.4687 63.0218 35.6276 63.0158 34.7855C63.0138 34.5645 62.9018 34.4454 62.7198 34.4424C62.0747 34.4304 61.4096 34.3494 60.7865 34.4704C59.3052 34.7595 58.2631 35.6776 57.5779 37.0058C57.1779 37.7829 56.9098 38.611 56.8978 39.4832C56.8898 40.0542 56.9598 40.6453 57.1109 41.1954C57.3849 42.1985 58.047 43.0026 58.6381 43.8368C59.3242 44.8039 60.0313 45.756 60.6915 46.7402C60.9955 47.1942 61.1205 47.7333 60.9215 48.2724C60.6114 49.1125 59.9463 49.5126 59.0882 49.5886C58.6171 49.6296 58.14 49.5986 57.666 49.5856C57.4729 49.5806 57.3569 49.6326 57.3459 49.8406C57.3209 50.3067 57.2949 50.7718 57.2689 51.2378C57.2769 51.2378 57.2859 51.2378 57.2939 51.2388C57.2939 51.6039 57.2829 51.9699 57.2979 52.335C57.3099 52.623 57.3439 52.9361 57.674 53.0371C58.085 53.1631 58.5071 53.3091 58.9312 53.3311C59.7483 53.3741 60.5394 53.2721 61.3176 52.9191C62.2057 52.517 62.9778 51.9859 63.5539 51.2258C64.227 50.3357 64.6301 49.3285 64.7391 48.1824C64.8681 46.8202 64.4981 45.632 63.739 44.5439H63.737Z" fill="#653E1A"/>
<path d="M54.5375 34.3554C54.1495 34.3464 53.7614 34.3534 53.3733 34.3534C53.0083 34.3534 52.6432 34.3514 52.2772 34.3534C51.8461 34.3554 51.7661 34.4164 51.7941 34.8545C51.8421 35.6146 51.9231 36.3727 51.9871 37.1328C52.0841 38.29 52.1771 39.4472 52.2751 40.6043C52.2992 40.8874 52.4592 41.0374 52.7462 41.0394C53.1233 41.0424 53.4994 41.0484 53.8764 41.0394C54.2515 41.0294 54.3925 40.8984 54.4315 40.5283C54.4855 40.0082 54.5285 39.4862 54.5775 38.9651C54.7066 37.5949 54.8336 36.2247 54.9676 34.8555C55.0006 34.5144 54.8896 34.3644 54.5385 34.3564L54.5375 34.3554Z" fill="#653E1A"/>
<path d="M43.9162 77C36.295 77 28.6737 77 21.0525 77C19.1692 77 18 75.8408 18 73.9726C18 59.6255 18 45.2795 18 30.9324C18 29.5152 18.7881 28.4271 20.0763 28.1C20.3714 28.025 20.6894 28.017 20.9975 28.017C36.286 28.013 51.5735 28.025 66.8619 28C68.7543 27.997 69.8854 29.4152 69.8824 31.0324C69.8584 45.3565 69.8674 59.6805 69.8704 74.0036C69.8704 75.2988 69.3274 76.2589 68.1192 76.767C67.7311 76.93 67.273 76.99 66.847 76.99C59.2027 77.003 51.5585 76.999 43.9142 76.999L43.9162 77ZM43.9052 75.0517C49.1271 75.0517 54.3499 75.0517 59.5718 75.0517C62.0392 75.0517 64.5076 75.0517 66.975 75.0517C67.5501 75.0517 67.8931 74.7197 67.9171 74.1476C67.9221 74.0336 67.9191 73.9196 67.9191 73.8046C67.9151 67.6937 67.9131 61.5828 67.9071 55.4719C67.8991 47.3508 67.8871 39.2306 67.8761 31.1095C67.8761 30.9724 67.8681 30.8354 67.8601 30.6994C67.8421 30.3653 67.6561 30.1393 67.358 30.0273C67.171 29.9573 66.957 29.9303 66.7549 29.9303C51.5475 29.9263 36.339 29.9263 21.1315 29.9263C20.2974 29.9263 19.9913 30.2263 19.9893 31.0534C19.9783 35.4391 19.9663 39.8247 19.9593 44.2103C19.9523 48.848 19.9493 53.4846 19.9473 58.1223C19.9453 63.4111 19.9473 68.6998 19.9473 73.9886C19.9473 74.7437 20.2564 75.0527 21.0055 75.0527C28.6377 75.0527 36.271 75.0527 43.9032 75.0527L43.9052 75.0517Z" fill="#653E1A"/>
</svg>
