<svg width="932" height="430" viewBox="0 0 932 430" fill="none" xmlns="http://www.w3.org/2000/svg">
<g filter="url(#filter0_b_710_591)">
<g clip-path="url(#clip0_710_591)">
<rect y="430" width="430" height="932" rx="3" transform="rotate(-90 0 430)" fill="#CCBF95"/>
<rect y="267" width="932" height="107" fill="#554435"/>
<rect x="9.5" y="283.5" width="914" height="78" stroke="#785F48" stroke-width="3"/>
<rect x="12.5" y="285.5" width="908" height="74" stroke="#64503E" stroke-width="3"/>
<rect y="372" width="932" height="58" fill="#21494B" fill-opacity="0.59"/>
<rect x="-2" y="263" width="942" height="7" fill="#77604A"/>
<rect width="131.976" height="266.975" transform="matrix(-1 0 0 1 539.976 107)" fill="#6E5643"/>
<path fill-rule="evenodd" clip-rule="evenodd" d="M527.873 119.115H525.858V119.135H422.089V119.115H420.074V374.001H422.089V121.15H525.858V374.001H527.873V119.115Z" fill="#452910" fill-opacity="0.71"/>
<rect x="-2" y="2" width="88.2277" height="105.217" transform="matrix(-1 0 0 1 515.645 250.19)" stroke="#452910" stroke-opacity="0.67" stroke-width="4"/>
<rect x="-2" y="2" width="88.2277" height="100.363" transform="matrix(-1 0 0 1 515.645 123.983)" stroke="#452910" stroke-opacity="0.67" stroke-width="4"/>
<ellipse cx="3.02236" cy="3.02235" rx="3.02236" ry="3.02235" transform="matrix(-1 0 0 1 436.15 237.108)" fill="#E9B42E"/>
<rect width="13.0969" height="2.01491" transform="matrix(-1 0 0 1 446.208 239.104)" fill="#E9B42E"/>
<ellipse cx="3.02236" cy="3.02235" rx="3.02236" ry="3.02235" transform="matrix(-1 0 0 1 436.149 238.115)" fill="#E9B42E" fill-opacity="0.37"/>
<rect width="13.0969" height="2.01491" transform="matrix(-1 0 0 1 446.208 240.112)" fill="#E9B42E" fill-opacity="0.37"/>
<path d="M446.208 238.766H436.675C435.918 238.766 435.186 238.5 434.606 238.015L434.277 237.739C433.161 236.805 431.511 236.897 430.505 237.949V237.949C429.66 238.832 429.496 240.165 430.1 241.227L430.156 241.325C431.012 242.829 432.982 243.26 434.389 242.252L434.663 242.055C435.21 241.663 435.866 241.452 436.539 241.452H446.208" stroke="#CE9E23"/>
<rect width="1.00745" height="2.01491" transform="matrix(-1 0 0 1 446.208 239.104)" fill="#CE9E23"/>
<rect x="408" y="106" width="132" height="1" fill="black"/>
<rect x="407" y="374" width="268" height="1" transform="rotate(-90 407 374)" fill="black"/>
<circle cx="473" cy="176" r="29" fill="#C9C6CA"/>
<path d="M473 147C465.309 147 457.932 150.055 452.494 155.494C447.055 160.932 444 168.309 444 176C444 183.691 447.055 191.068 452.494 196.506C457.932 201.945 465.309 205 473 205L473 176L473 147Z" fill="#AEA8AF"/>
<circle cx="473" cy="176.002" r="26.8781" fill="#F5DCB4"/>
<circle cx="472.647" cy="175.651" r="23.6951" fill="#FAEBC8"/>
<circle cx="472.646" cy="175.652" r="13.7927" fill="#FFF7DC"/>
<rect x="471.585" y="163.979" width="2.12195" height="18.3902" rx="1.06098" fill="#4B3F4E"/>
<rect x="467.342" y="177.086" width="1.78367" height="16.9449" rx="0.891835" transform="rotate(-90 467.342 177.086)" fill="#4B3F4E"/>
<circle cx="472.646" cy="175.657" r="2.47561" fill="#6F6571"/>
<path d="M472.56 153.502C472.071 153.788 472.035 153.955 472.023 155.839C472.023 157.616 472.035 157.676 472.321 157.95C472.5 158.141 472.75 158.248 472.977 158.248C473.204 158.248 473.454 158.141 473.633 157.95C473.919 157.676 473.931 157.616 473.931 155.839C473.919 153.931 473.883 153.764 473.37 153.502C473.049 153.323 472.87 153.323 472.56 153.502Z" fill="#4B3F4E"/>
<path d="M461.517 156.573C461.076 156.931 461.159 157.467 461.815 158.588C462.423 159.626 462.721 159.924 463.175 159.924C463.544 159.924 464.033 159.411 464.033 159.018C464.033 158.612 463.043 156.776 462.686 156.525C462.34 156.287 461.851 156.299 461.517 156.573Z" fill="#4B3F4E"/>
<path d="M483.268 156.525C482.911 156.776 481.921 158.612 481.921 159.018C481.921 159.411 482.41 159.924 482.78 159.924C483.233 159.924 483.531 159.626 484.139 158.588C484.795 157.467 484.878 156.931 484.437 156.573C484.103 156.299 483.614 156.287 483.268 156.525Z" fill="#4B3F4E"/>
<path d="M453.813 164.325C453.312 164.527 453.145 165.243 453.479 165.72C453.718 166.066 455.531 167.067 455.912 167.067C456.628 167.067 457.093 166.28 456.723 165.708C456.52 165.398 454.839 164.372 454.374 164.277C454.207 164.241 453.956 164.265 453.813 164.325Z" fill="#4B3F4E"/>
<path d="M490.984 164.541C489.339 165.4 489.005 165.734 489.136 166.366C489.231 166.771 489.601 167.069 490.042 167.069C490.424 167.069 492.237 166.068 492.475 165.722C492.857 165.173 492.571 164.41 491.939 164.267C491.724 164.219 491.426 164.303 490.984 164.541Z" fill="#4B3F4E"/>
<path d="M450.784 175.22C450.259 175.625 450.224 176.281 450.701 176.734C450.939 176.949 451.118 176.973 452.788 176.973C454.576 176.973 454.636 176.961 454.91 176.675C455.101 176.496 455.208 176.245 455.208 176.019C455.208 175.792 455.101 175.542 454.91 175.363C454.636 175.077 454.576 175.065 452.8 175.065C451.559 175.077 450.915 175.112 450.784 175.22Z" fill="#4B3F4E"/>
<path d="M491.044 175.363C490.853 175.542 490.746 175.792 490.746 176.019C490.746 176.245 490.853 176.496 491.044 176.675C491.318 176.961 491.378 176.973 493.155 176.973C495.075 176.961 495.218 176.925 495.504 176.4C495.695 176.042 495.587 175.625 495.254 175.303C495.015 175.088 494.836 175.065 493.167 175.065C491.378 175.065 491.318 175.077 491.044 175.363Z" fill="#4B3F4E"/>
<path d="M454.648 185.52C454.112 185.818 453.587 186.176 453.48 186.319C453.086 186.892 453.396 187.655 454.076 187.774C454.362 187.834 454.648 187.714 455.483 187.225C456.055 186.892 456.616 186.486 456.711 186.331C457.093 185.771 456.628 184.972 455.924 184.972C455.757 184.972 455.185 185.222 454.648 185.52Z" fill="#4B3F4E"/>
<path d="M489.47 185.15C489.124 185.401 489.005 185.973 489.243 186.331C489.339 186.486 489.899 186.892 490.472 187.225C491.306 187.714 491.593 187.834 491.879 187.774C492.558 187.655 492.869 186.892 492.475 186.319C492.236 185.973 490.388 184.972 490.018 184.972C489.851 184.972 489.613 185.055 489.47 185.15Z" fill="#4B3F4E"/>
<path d="M462.65 192.284C462.221 192.594 461.243 194.371 461.243 194.836C461.243 195.623 462.28 196.004 462.805 195.42C463.199 194.991 464.033 193.381 464.033 193.047C464.033 192.379 463.175 191.914 462.65 192.284Z" fill="#4B3F4E"/>
<path d="M482.434 192.235C482.136 192.355 481.921 192.701 481.921 193.082C481.921 193.38 482.78 195.014 483.149 195.419C483.448 195.753 484.056 195.777 484.437 195.467C484.879 195.109 484.795 194.573 484.139 193.452C483.388 192.176 483.102 191.973 482.434 192.235Z" fill="#4B3F4E"/>
<path d="M472.321 194.084C472.035 194.358 472.023 194.418 472.023 196.206C472.023 197.876 472.047 198.055 472.262 198.293C472.584 198.627 473.001 198.734 473.359 198.544C473.884 198.257 473.919 198.114 473.931 196.194C473.931 194.418 473.919 194.358 473.633 194.084C473.454 193.893 473.204 193.785 472.977 193.785C472.751 193.785 472.5 193.893 472.321 194.084Z" fill="#4B3F4E"/>
</g>
</g>
<defs>
<filter id="filter0_b_710_591" x="-21" y="-21" width="974" height="472" filterUnits="userSpaceOnUse" color-interpolation-filters="sRGB">
<feFlood flood-opacity="0" result="BackgroundImageFix"/>
<feGaussianBlur in="BackgroundImageFix" stdDeviation="10.5"/>
<feComposite in2="SourceAlpha" operator="in" result="effect1_backgroundBlur_710_591"/>
<feBlend mode="normal" in="SourceGraphic" in2="effect1_backgroundBlur_710_591" result="shape"/>
</filter>
<clipPath id="clip0_710_591">
<rect y="430" width="430" height="932" rx="3" transform="rotate(-90 0 430)" fill="white"/>
</clipPath>
</defs>
</svg>
