<svg width="932" height="430" viewBox="0 0 932 430" fill="none" xmlns="http://www.w3.org/2000/svg">
<g filter="url(#filter0_b_380_916)">
<g clip-path="url(#clip0_380_916)">
<rect y="430" width="430" height="932" rx="3" transform="rotate(-90 0 430)" fill="#324204"/>
<rect y="267" width="932" height="107" fill="#6E5643"/>
<rect x="25.5" y="281.5" width="35" height="78" stroke="#785F48" stroke-width="3"/>
<rect x="27.5" y="283.5" width="30.2716" height="74" stroke="#897059" stroke-width="3"/>
<rect x="-23.5" y="281.5" width="35" height="78" stroke="#785F48" stroke-width="3"/>
<rect x="-21.5" y="283.5" width="30.2716" height="74" stroke="#897059" stroke-width="3"/>
<rect x="72.5" y="281.5" width="35" height="78" stroke="#785F48" stroke-width="3"/>
<rect x="74.5" y="283.5" width="30.2716" height="74" stroke="#897059" stroke-width="3"/>
<rect x="119.5" y="281.5" width="35" height="78" stroke="#785F48" stroke-width="3"/>
<rect x="121.5" y="283.5" width="30.2716" height="74" stroke="#897059" stroke-width="3"/>
<rect x="166.5" y="281.5" width="35" height="78" stroke="#785F48" stroke-width="3"/>
<rect x="168.5" y="283.5" width="30.2716" height="74" stroke="#897059" stroke-width="3"/>
<rect x="213.5" y="281.5" width="35" height="78" stroke="#785F48" stroke-width="3"/>
<rect x="215.5" y="283.5" width="30.2716" height="74" stroke="#897059" stroke-width="3"/>
<rect x="260.5" y="281.5" width="35" height="78" stroke="#785F48" stroke-width="3"/>
<rect x="262.5" y="283.5" width="30.2716" height="74" stroke="#897059" stroke-width="3"/>
<rect x="307.5" y="281.5" width="35" height="78" stroke="#785F48" stroke-width="3"/>
<rect x="309.5" y="283.5" width="30.2716" height="74" stroke="#897059" stroke-width="3"/>
<rect x="354.5" y="281.5" width="35" height="78" stroke="#785F48" stroke-width="3"/>
<rect x="356.5" y="283.5" width="30.2716" height="74" stroke="#897059" stroke-width="3"/>
<rect x="401.5" y="281.5" width="35" height="78" stroke="#785F48" stroke-width="3"/>
<rect x="403.5" y="283.5" width="30.2716" height="74" stroke="#897059" stroke-width="3"/>
<rect x="448.5" y="281.5" width="35" height="78" stroke="#785F48" stroke-width="3"/>
<rect x="450.5" y="283.5" width="30.2716" height="74" stroke="#897059" stroke-width="3"/>
<rect x="495.5" y="281.5" width="35" height="78" stroke="#785F48" stroke-width="3"/>
<rect x="497.5" y="283.5" width="30.2716" height="74" stroke="#897059" stroke-width="3"/>
<rect x="542.5" y="281.5" width="35" height="78" stroke="#785F48" stroke-width="3"/>
<rect x="544.5" y="283.5" width="30.2716" height="74" stroke="#897059" stroke-width="3"/>
<rect x="589.5" y="281.5" width="35" height="78" stroke="#785F48" stroke-width="3"/>
<rect x="591.5" y="283.5" width="30.2716" height="74" stroke="#897059" stroke-width="3"/>
<rect x="636.5" y="281.5" width="35" height="78" stroke="#785F48" stroke-width="3"/>
<rect x="638.5" y="283.5" width="30.2716" height="74" stroke="#897059" stroke-width="3"/>
<rect x="683.5" y="281.5" width="35" height="78" stroke="#785F48" stroke-width="3"/>
<rect x="685.5" y="283.5" width="30.2716" height="74" stroke="#897059" stroke-width="3"/>
<rect x="730.5" y="281.5" width="35" height="78" stroke="#785F48" stroke-width="3"/>
<rect x="732.5" y="283.5" width="30.2716" height="74" stroke="#897059" stroke-width="3"/>
<rect x="777.5" y="281.5" width="35" height="78" stroke="#785F48" stroke-width="3"/>
<rect x="779.5" y="283.5" width="30.2716" height="74" stroke="#897059" stroke-width="3"/>
<rect x="824.5" y="281.5" width="35" height="78" stroke="#785F48" stroke-width="3"/>
<rect x="826.5" y="283.5" width="30.2716" height="74" stroke="#897059" stroke-width="3"/>
<rect x="871.5" y="281.5" width="35" height="78" stroke="#785F48" stroke-width="3"/>
<rect x="873.5" y="283.5" width="30.2716" height="74" stroke="#897059" stroke-width="3"/>
<rect x="916.5" y="281.5" width="35" height="78" stroke="#785F48" stroke-width="3"/>
<rect x="918.5" y="283.5" width="30.2716" height="74" stroke="#897059" stroke-width="3"/>
<rect y="267" width="932" height="8" fill="#86674B"/>
<rect y="372" width="932" height="58" fill="#B49D6B"/>
<rect x="393.832" y="99.5391" width="83.5463" height="84.9623" fill="#CBE4E9"/>
<path d="M395.247 157.71H424.63L458.969 137.062L476.669 157.71V183.792H395.247V157.71Z" fill="#2B7651"/>
<path d="M395.247 157.004H418.754L446.225 136.355L460.386 157.004V183.085H395.247V157.004Z" fill="#2F8D5E"/>
<ellipse cx="463.215" cy="115.114" rx="6.37226" ry="6.37226" fill="#EFDCA9"/>
<rect x="391.893" y="187.305" width="3.10226" height="87.9836" transform="rotate(-90 391.893 187.305)" fill="#AC7230"/>
<path d="M391.936 184.199L391.031 183.337H480.91L479.919 184.199H391.936Z" fill="#785731"/>
<path d="M391.941 187.139L391.002 187.967L480.915 188L479.924 187.139H391.941Z" fill="#785731"/>
<path d="M479.84 187.085V184.155L480.917 183.337V187.99L479.84 187.085Z" fill="#0F0D0B"/>
<rect x="476.994" y="98.1016" width="3.10226" height="87.9836" fill="#AC7230"/>
<path d="M479.84 96.8774L480.881 96V187.962L479.84 187.13V96.8774Z" fill="#785731"/>
<path d="M477.136 99.7324H476.304L476.096 184.204H477.136V99.7324Z" fill="#785731"/>
<rect x="391.893" y="99.9668" width="3.10226" height="87.9836" transform="rotate(-90 391.893 99.9668)" fill="#AC7230"/>
<path d="M391.902 99.7441L391.002 100.544L477.139 100.576V99.7441L391.902 99.7441Z" fill="#785731"/>
<path d="M391.805 97.041L391.006 96.0013L480.886 96.0013L479.895 96.863L391.805 97.041Z" fill="#785731"/>
<rect x="391.833" y="97.2559" width="2.91283" height="88.6333" fill="#AC7230"/>
<path d="M394.797 99.9551H395.786L395.659 184.168H394.797V99.9551Z" fill="#785731"/>
<path d="M391.862 96.9173L391 96L391 187.962L392.04 187.118L391.862 96.9173Z" fill="#785731"/>
</g>
</g>
<defs>
<filter id="filter0_b_380_916" x="-21" y="-21" width="974" height="472" filterUnits="userSpaceOnUse" color-interpolation-filters="sRGB">
<feFlood flood-opacity="0" result="BackgroundImageFix"/>
<feGaussianBlur in="BackgroundImageFix" stdDeviation="10.5"/>
<feComposite in2="SourceAlpha" operator="in" result="effect1_backgroundBlur_380_916"/>
<feBlend mode="normal" in="SourceGraphic" in2="effect1_backgroundBlur_380_916" result="shape"/>
</filter>
<clipPath id="clip0_380_916">
<rect y="430" width="430" height="932" rx="3" transform="rotate(-90 0 430)" fill="white"/>
</clipPath>
</defs>
</svg>
