<svg width="932" height="430" viewBox="0 0 932 430" fill="none" xmlns="http://www.w3.org/2000/svg">
<g filter="url(#filter0_b_604_1136)">
<g clip-path="url(#clip0_604_1136)">
<rect y="430" width="430" height="932" rx="3" transform="rotate(-90 0 430)" fill="#324204"/>
<rect y="267" width="932" height="107" fill="#6E5643"/>
<rect x="25.5" y="281.5" width="35" height="78" stroke="#785F48" stroke-width="3"/>
<rect x="27.5" y="283.5" width="30.2716" height="74" stroke="#897059" stroke-width="3"/>
<rect x="-23.5" y="281.5" width="35" height="78" stroke="#785F48" stroke-width="3"/>
<rect x="-21.5" y="283.5" width="30.2716" height="74" stroke="#897059" stroke-width="3"/>
<rect x="72.5" y="281.5" width="35" height="78" stroke="#785F48" stroke-width="3"/>
<rect x="74.5" y="283.5" width="30.2716" height="74" stroke="#897059" stroke-width="3"/>
<rect x="119.5" y="281.5" width="35" height="78" stroke="#785F48" stroke-width="3"/>
<rect x="121.5" y="283.5" width="30.2716" height="74" stroke="#897059" stroke-width="3"/>
<rect x="166.5" y="281.5" width="35" height="78" stroke="#785F48" stroke-width="3"/>
<rect x="168.5" y="283.5" width="30.2716" height="74" stroke="#897059" stroke-width="3"/>
<rect x="213.5" y="281.5" width="35" height="78" stroke="#785F48" stroke-width="3"/>
<rect x="215.5" y="283.5" width="30.2716" height="74" stroke="#897059" stroke-width="3"/>
<rect x="260.5" y="281.5" width="35" height="78" stroke="#785F48" stroke-width="3"/>
<rect x="262.5" y="283.5" width="30.2716" height="74" stroke="#897059" stroke-width="3"/>
<rect x="307.5" y="281.5" width="35" height="78" stroke="#785F48" stroke-width="3"/>
<rect x="309.5" y="283.5" width="30.2716" height="74" stroke="#897059" stroke-width="3"/>
<rect x="354.5" y="281.5" width="35" height="78" stroke="#785F48" stroke-width="3"/>
<rect x="356.5" y="283.5" width="30.2716" height="74" stroke="#897059" stroke-width="3"/>
<rect x="401.5" y="281.5" width="35" height="78" stroke="#785F48" stroke-width="3"/>
<rect x="403.5" y="283.5" width="30.2716" height="74" stroke="#897059" stroke-width="3"/>
<rect x="448.5" y="281.5" width="35" height="78" stroke="#785F48" stroke-width="3"/>
<rect x="450.5" y="283.5" width="30.2716" height="74" stroke="#897059" stroke-width="3"/>
<rect x="495.5" y="281.5" width="35" height="78" stroke="#785F48" stroke-width="3"/>
<rect x="497.5" y="283.5" width="30.2716" height="74" stroke="#897059" stroke-width="3"/>
<rect x="542.5" y="281.5" width="35" height="78" stroke="#785F48" stroke-width="3"/>
<rect x="544.5" y="283.5" width="30.2716" height="74" stroke="#897059" stroke-width="3"/>
<rect x="589.5" y="281.5" width="35" height="78" stroke="#785F48" stroke-width="3"/>
<rect x="591.5" y="283.5" width="30.2716" height="74" stroke="#897059" stroke-width="3"/>
<rect x="636.5" y="281.5" width="35" height="78" stroke="#785F48" stroke-width="3"/>
<rect x="638.5" y="283.5" width="30.2716" height="74" stroke="#897059" stroke-width="3"/>
<rect x="683.5" y="281.5" width="35" height="78" stroke="#785F48" stroke-width="3"/>
<rect x="685.5" y="283.5" width="30.2716" height="74" stroke="#897059" stroke-width="3"/>
<rect x="730.5" y="281.5" width="35" height="78" stroke="#785F48" stroke-width="3"/>
<rect x="732.5" y="283.5" width="30.2716" height="74" stroke="#897059" stroke-width="3"/>
<rect x="777.5" y="281.5" width="35" height="78" stroke="#785F48" stroke-width="3"/>
<rect x="779.5" y="283.5" width="30.2716" height="74" stroke="#897059" stroke-width="3"/>
<rect x="824.5" y="281.5" width="35" height="78" stroke="#785F48" stroke-width="3"/>
<rect x="826.5" y="283.5" width="30.2716" height="74" stroke="#897059" stroke-width="3"/>
<rect x="871.5" y="281.5" width="35" height="78" stroke="#785F48" stroke-width="3"/>
<rect x="873.5" y="283.5" width="30.2716" height="74" stroke="#897059" stroke-width="3"/>
<rect x="916.5" y="281.5" width="35" height="78" stroke="#785F48" stroke-width="3"/>
<rect x="918.5" y="283.5" width="30.2716" height="74" stroke="#897059" stroke-width="3"/>
<rect y="267" width="932" height="8" fill="#86674B"/>
<rect y="372" width="932" height="58" fill="#B49D6B"/>
<rect width="131.976" height="266.975" transform="matrix(-1 0 0 1 876.976 105)" fill="#6E5643"/>
<path fill-rule="evenodd" clip-rule="evenodd" d="M864.873 117.115H862.858V117.135H759.089V117.115H757.074V372.001H759.089V119.15H862.858V372.001H864.873V117.115Z" fill="#452910" fill-opacity="0.71"/>
<rect x="-2" y="2" width="88.2277" height="105.217" transform="matrix(-1 0 0 1 852.645 248.19)" stroke="#452910" stroke-opacity="0.67" stroke-width="4"/>
<rect x="-2" y="2" width="88.2277" height="100.363" transform="matrix(-1 0 0 1 852.645 121.983)" stroke="#452910" stroke-opacity="0.67" stroke-width="4"/>
<ellipse cx="3.02236" cy="3.02235" rx="3.02236" ry="3.02235" transform="matrix(-1 0 0 1 773.15 235.108)" fill="#E9B42E"/>
<rect width="13.0969" height="2.01491" transform="matrix(-1 0 0 1 783.208 237.104)" fill="#E9B42E"/>
<ellipse cx="3.02236" cy="3.02235" rx="3.02236" ry="3.02235" transform="matrix(-1 0 0 1 773.149 236.115)" fill="#E9B42E" fill-opacity="0.37"/>
<rect width="13.0969" height="2.01491" transform="matrix(-1 0 0 1 783.208 238.112)" fill="#E9B42E" fill-opacity="0.37"/>
<path d="M783.208 236.766H773.675C772.918 236.766 772.186 236.5 771.606 236.015L771.277 235.739C770.161 234.805 768.511 234.897 767.505 235.949V235.949C766.66 236.832 766.496 238.165 767.1 239.227L767.156 239.325C768.012 240.829 769.982 241.26 771.389 240.252L771.663 240.055C772.21 239.663 772.866 239.452 773.539 239.452H783.208" stroke="#CE9E23"/>
<rect width="1.00745" height="2.01491" transform="matrix(-1 0 0 1 783.208 237.104)" fill="#CE9E23"/>
<path d="M793.355 166.15H789.268C787.611 166.15 786.268 167.493 786.268 169.15V180.139C786.268 181.796 787.611 183.139 789.268 183.139H791.608C792.814 183.139 793.792 184.117 793.792 185.324C793.792 186.53 794.77 187.508 795.976 187.508H826.148C827.392 187.508 828.402 186.499 828.402 185.254C828.402 184.065 829.325 183.081 830.512 183.005L833.213 182.833C834.793 182.732 836.022 181.422 836.022 179.839V169.15C836.022 167.493 834.679 166.15 833.022 166.15H829.955C828.48 166.15 827.285 164.955 827.285 163.48C827.285 162.006 826.09 160.811 824.615 160.811H798.695C797.22 160.811 796.025 162.006 796.025 163.48C796.025 164.955 794.829 166.15 793.355 166.15Z" fill="#C7A96F"/>
<path d="M798.397 186.295L815.387 160.811H825.095L816.6 187.508H798.397V186.295Z" fill="#C49D51"/>
<rect x="745" y="104" width="132" height="1" fill="black"/>
<rect x="877" y="372" width="268" height="1" transform="rotate(-90 877 372)" fill="black"/>
<rect x="744" y="372" width="268" height="1" transform="rotate(-90 744 372)" fill="black"/>
<rect width="131.976" height="266.975" transform="matrix(-1 0 0 1 362.976 105)" fill="#6E5643"/>
<path fill-rule="evenodd" clip-rule="evenodd" d="M350.873 117.115H348.858V117.135H245.089V117.115H243.074V372.001H245.089V119.15H348.858V372.001H350.873V117.115Z" fill="#452910" fill-opacity="0.71"/>
<rect x="-2" y="2" width="88.2277" height="105.217" transform="matrix(-1 0 0 1 338.645 248.19)" stroke="#452910" stroke-opacity="0.67" stroke-width="4"/>
<rect x="-2" y="2" width="88.2277" height="100.363" transform="matrix(-1 0 0 1 338.645 121.983)" stroke="#452910" stroke-opacity="0.67" stroke-width="4"/>
<ellipse cx="3.02236" cy="3.02235" rx="3.02236" ry="3.02235" transform="matrix(-1 0 0 1 259.15 235.108)" fill="#E9B42E"/>
<rect width="13.0969" height="2.01491" transform="matrix(-1 0 0 1 269.208 237.104)" fill="#E9B42E"/>
<ellipse cx="3.02236" cy="3.02235" rx="3.02236" ry="3.02235" transform="matrix(-1 0 0 1 259.149 236.115)" fill="#E9B42E" fill-opacity="0.37"/>
<rect width="13.0969" height="2.01491" transform="matrix(-1 0 0 1 269.208 238.112)" fill="#E9B42E" fill-opacity="0.37"/>
<path d="M269.208 236.766H259.675C258.918 236.766 258.186 236.5 257.606 236.015L257.277 235.739C256.161 234.805 254.511 234.897 253.505 235.949V235.949C252.66 236.832 252.496 238.165 253.1 239.227L253.156 239.325C254.012 240.829 255.982 241.26 257.389 240.252L257.663 240.055C258.21 239.663 258.866 239.452 259.539 239.452H269.208" stroke="#CE9E23"/>
<rect width="1.00745" height="2.01491" transform="matrix(-1 0 0 1 269.208 237.104)" fill="#CE9E23"/>
<path d="M279.355 166.15H275.268C273.611 166.15 272.268 167.493 272.268 169.15V180.139C272.268 181.796 273.611 183.139 275.268 183.139H277.608C278.814 183.139 279.792 184.117 279.792 185.324C279.792 186.53 280.77 187.508 281.976 187.508H312.148C313.392 187.508 314.402 186.499 314.402 185.254C314.402 184.065 315.325 183.081 316.512 183.005L319.213 182.833C320.793 182.732 322.022 181.422 322.022 179.839V169.15C322.022 167.493 320.679 166.15 319.022 166.15H315.955C314.48 166.15 313.285 164.955 313.285 163.48C313.285 162.006 312.09 160.811 310.615 160.811H284.695C283.22 160.811 282.025 162.006 282.025 163.48C282.025 164.955 280.829 166.15 279.355 166.15Z" fill="#C7A96F"/>
<path d="M284.397 186.295L301.387 160.811H311.095L302.6 187.508H284.397V186.295Z" fill="#C49D51"/>
<rect x="231" y="104" width="132" height="1" fill="black"/>
<rect x="362" y="372" width="268" height="1" transform="rotate(-90 362 372)" fill="black"/>
<rect x="230" y="372" width="268" height="1" transform="rotate(-90 230 372)" fill="black"/>
<rect x="393.832" y="99.54" width="83.5463" height="84.9623" fill="#CBE4E9"/>
<path d="M395.247 157.711H424.63L458.969 137.063L476.669 157.711V183.793H395.247V157.711Z" fill="#2B7651"/>
<path d="M395.247 157.006H418.754L446.225 136.357L460.386 157.006V183.087H395.247V157.006Z" fill="#2F8D5E"/>
<ellipse cx="463.215" cy="115.115" rx="6.37226" ry="6.37226" fill="#EFDCA9"/>
<rect x="391.893" y="187.306" width="3.10226" height="87.9836" transform="rotate(-90 391.893 187.306)" fill="#AC7230"/>
<path d="M391.936 184.199L391.031 183.337H480.91L479.919 184.199H391.936Z" fill="#785731"/>
<path d="M391.941 187.139L391.002 187.967L480.915 188L479.924 187.139H391.941Z" fill="#785731"/>
<path d="M479.84 187.085V184.155L480.917 183.337V187.99L479.84 187.085Z" fill="#0F0D0B"/>
<rect x="476.994" y="98.1006" width="3.10226" height="87.9836" fill="#AC7230"/>
<path d="M479.84 96.8774L480.881 96V187.962L479.84 187.13V96.8774Z" fill="#785731"/>
<path d="M477.136 99.7324H476.304L476.095 184.204H477.136V99.7324Z" fill="#785731"/>
<rect x="391.893" y="99.9668" width="3.10226" height="87.9836" transform="rotate(-90 391.893 99.9668)" fill="#AC7230"/>
<path d="M391.902 99.7441L391.002 100.544L477.139 100.576V99.7441L391.902 99.7441Z" fill="#785731"/>
<path d="M391.805 97.041L391.006 96.0013L480.886 96.0013L479.895 96.863L391.805 97.041Z" fill="#785731"/>
<rect x="391.833" y="97.2549" width="2.91283" height="88.6333" fill="#AC7230"/>
<path d="M394.797 99.9551H395.786L395.659 184.168H394.797V99.9551Z" fill="#785731"/>
<path d="M391.862 96.9173L391 96L391 187.962L392.041 187.118L391.862 96.9173Z" fill="#785731"/>
<path d="M295.297 176.32C295.508 176.352 295.734 176.379 295.977 176.402C296.219 176.418 296.461 176.43 296.703 176.438C296.953 176.445 297.195 176.453 297.43 176.461C297.672 176.461 297.895 176.461 298.098 176.461H298.332C298.449 176.461 298.547 176.445 298.625 176.414C298.703 176.375 298.742 176.285 298.742 176.145C298.742 175.988 298.703 175.836 298.625 175.688C298.555 175.539 298.496 175.391 298.449 175.242C298.363 174.945 298.281 174.645 298.203 174.34C298.133 174.035 298.043 173.746 297.934 173.473C297.934 173.457 297.91 173.41 297.863 173.332C297.816 173.246 297.789 173.195 297.781 173.18C297.773 173.156 297.762 173.109 297.746 173.039C297.738 172.969 297.727 172.891 297.711 172.805C297.695 172.719 297.68 172.641 297.664 172.57C297.656 172.5 297.648 172.453 297.641 172.43C297.641 172.422 297.629 172.391 297.605 172.336C297.582 172.273 297.551 172.207 297.512 172.137C297.48 172.059 297.449 171.98 297.418 171.902C297.387 171.824 297.363 171.762 297.348 171.715C297.348 171.715 297.34 171.699 297.324 171.668C297.309 171.637 297.293 171.605 297.277 171.574C297.262 171.535 297.246 171.504 297.23 171.48C297.215 171.449 297.207 171.43 297.207 171.422C297.168 171.352 297.141 171.273 297.125 171.188C297.109 171.102 297.09 171.02 297.066 170.941C297.051 170.863 297.027 170.789 296.996 170.719C296.965 170.648 296.918 170.59 296.855 170.543H296.797C296.688 170.543 296.594 170.633 296.516 170.812C296.445 170.992 296.383 171.195 296.328 171.422C296.273 171.648 296.227 171.871 296.188 172.09C296.156 172.301 296.129 172.441 296.105 172.512C296.09 172.559 296.066 172.637 296.035 172.746C296.004 172.855 295.98 172.922 295.965 172.945C295.879 173.281 295.785 173.617 295.684 173.953C295.59 174.281 295.508 174.613 295.438 174.949C295.438 174.957 295.434 174.988 295.426 175.043C295.426 175.09 295.422 175.145 295.414 175.207C295.406 175.262 295.398 175.316 295.391 175.371C295.383 175.418 295.379 175.449 295.379 175.465C295.355 175.527 295.328 175.574 295.297 175.605C295.273 175.637 295.25 175.672 295.227 175.711C295.203 175.742 295.184 175.781 295.168 175.828C295.152 175.867 295.145 175.922 295.145 175.992V176.074C295.145 176.137 295.152 176.191 295.168 176.238C295.184 176.277 295.227 176.305 295.297 176.32ZM289.59 182.742C289.59 182.68 289.613 182.613 289.66 182.543C289.707 182.473 289.754 182.422 289.801 182.391C289.816 182.391 289.875 182.387 289.977 182.379C290.078 182.363 290.145 182.348 290.176 182.332C290.363 182.277 290.535 182.211 290.691 182.133C290.848 182.047 291.012 181.961 291.184 181.875C291.355 181.805 291.504 181.75 291.629 181.711C291.754 181.672 291.863 181.625 291.957 181.57C292.059 181.516 292.152 181.441 292.238 181.348C292.332 181.254 292.426 181.121 292.52 180.949C292.574 180.848 292.605 180.719 292.613 180.562C292.629 180.406 292.645 180.285 292.66 180.199C292.66 180.191 292.672 180.172 292.695 180.141C292.727 180.102 292.742 180.078 292.742 180.07C292.75 180.039 292.762 179.996 292.777 179.941C292.801 179.887 292.812 179.852 292.812 179.836C292.812 179.828 292.812 179.801 292.812 179.754C292.82 179.707 292.828 179.66 292.836 179.613C292.844 179.566 292.852 179.523 292.859 179.484C292.867 179.438 292.871 179.41 292.871 179.402C292.879 179.387 292.891 179.367 292.906 179.344C292.914 179.328 292.922 179.312 292.93 179.297C292.938 179.273 292.945 179.254 292.953 179.238C293 179.16 293.051 179.059 293.105 178.934C293.168 178.809 293.227 178.676 293.281 178.535C293.336 178.395 293.387 178.262 293.434 178.137C293.48 178.004 293.516 177.891 293.539 177.797C293.594 177.562 293.664 177.328 293.75 177.094C293.844 176.859 293.926 176.625 293.996 176.391C294.027 176.234 294.059 176.066 294.09 175.887C294.121 175.707 294.156 175.539 294.195 175.383C294.211 175.359 294.234 175.301 294.266 175.207C294.297 175.105 294.32 175.039 294.336 175.008C294.344 174.992 294.371 174.957 294.418 174.902C294.465 174.84 294.488 174.801 294.488 174.785C294.496 174.777 294.5 174.758 294.5 174.727C294.508 174.688 294.516 174.648 294.523 174.609C294.531 174.562 294.535 174.523 294.535 174.492C294.543 174.453 294.547 174.43 294.547 174.422C294.562 174.391 294.578 174.344 294.594 174.281C294.617 174.211 294.637 174.145 294.652 174.082C294.668 174.02 294.68 173.965 294.688 173.918C294.703 173.863 294.711 173.832 294.711 173.824C294.711 173.816 294.723 173.789 294.746 173.742C294.77 173.688 294.793 173.633 294.816 173.578C294.84 173.516 294.859 173.461 294.875 173.414C294.898 173.359 294.914 173.324 294.922 173.309C294.938 173.293 294.961 173.242 294.992 173.156C295.023 173.07 295.055 172.98 295.086 172.887C295.117 172.785 295.145 172.691 295.168 172.605C295.199 172.512 295.215 172.453 295.215 172.43C295.246 172.352 295.277 172.25 295.309 172.125C295.348 172 295.391 171.875 295.438 171.75C295.484 171.617 295.539 171.496 295.602 171.387C295.664 171.27 295.734 171.184 295.812 171.129C295.844 170.934 295.895 170.75 295.965 170.578C296.035 170.398 296.109 170.227 296.188 170.062C296.266 169.891 296.332 169.719 296.387 169.547C296.449 169.367 296.48 169.18 296.48 168.984C296.48 168.82 296.453 168.691 296.398 168.598C296.352 168.504 296.297 168.43 296.234 168.375C296.18 168.312 296.125 168.254 296.07 168.199C296.023 168.145 296 168.07 296 167.977C296 167.961 296.004 167.938 296.012 167.906C296.02 167.867 296.023 167.84 296.023 167.824C296.133 167.762 296.258 167.707 296.398 167.66C296.539 167.613 296.676 167.562 296.809 167.508C296.949 167.445 297.074 167.371 297.184 167.285C297.293 167.191 297.367 167.074 297.406 166.934C297.414 166.918 297.43 166.875 297.453 166.805C297.477 166.734 297.5 166.66 297.523 166.582C297.547 166.504 297.57 166.43 297.594 166.359C297.617 166.289 297.633 166.246 297.641 166.23C297.656 166.16 297.688 166.09 297.734 166.02C297.789 165.949 297.855 165.914 297.934 165.914C297.941 165.914 297.945 165.918 297.945 165.926C297.953 165.926 297.961 165.926 297.969 165.926H297.992C298.016 165.941 298.043 165.969 298.074 166.008C298.113 166.039 298.152 166.074 298.191 166.113C298.238 166.152 298.277 166.191 298.309 166.23C298.34 166.262 298.359 166.285 298.367 166.301C298.383 166.301 298.398 166.328 298.414 166.383C298.438 166.43 298.449 166.469 298.449 166.5C298.449 166.531 298.461 166.598 298.484 166.699C298.508 166.801 298.531 166.91 298.555 167.027C298.578 167.137 298.602 167.242 298.625 167.344C298.648 167.445 298.66 167.508 298.66 167.531C298.668 167.562 298.691 167.637 298.73 167.754C298.77 167.871 298.809 167.996 298.848 168.129C298.895 168.254 298.938 168.375 298.977 168.492C299.016 168.602 299.035 168.672 299.035 168.703C299.105 168.953 299.176 169.223 299.246 169.512C299.316 169.801 299.391 170.07 299.469 170.32C299.469 170.328 299.477 170.355 299.492 170.402C299.516 170.441 299.539 170.488 299.562 170.543C299.594 170.59 299.621 170.637 299.645 170.684C299.676 170.723 299.695 170.746 299.703 170.754C299.766 170.902 299.801 171.062 299.809 171.234C299.824 171.398 299.863 171.559 299.926 171.715C300.082 172.207 300.242 172.684 300.406 173.145C300.57 173.605 300.719 174.082 300.852 174.574C300.859 174.598 300.871 174.645 300.887 174.715C300.902 174.785 300.918 174.863 300.934 174.949C300.949 175.027 300.965 175.102 300.98 175.172C300.996 175.242 301.004 175.285 301.004 175.301C301.012 175.316 301.027 175.352 301.051 175.406C301.074 175.453 301.098 175.504 301.121 175.559C301.152 175.613 301.176 175.664 301.191 175.711C301.215 175.758 301.227 175.785 301.227 175.793C301.227 175.809 301.23 175.844 301.238 175.898C301.246 175.945 301.254 176 301.262 176.062C301.27 176.117 301.277 176.172 301.285 176.227C301.293 176.273 301.297 176.305 301.297 176.32C301.305 176.352 301.32 176.422 301.344 176.531C301.375 176.641 301.406 176.758 301.438 176.883C301.477 177 301.512 177.113 301.543 177.223C301.574 177.332 301.594 177.402 301.602 177.434C301.688 177.746 301.785 178.055 301.895 178.359C302.012 178.664 302.109 178.984 302.188 179.32C302.25 179.617 302.309 179.906 302.363 180.188C302.426 180.461 302.512 180.734 302.621 181.008C302.668 181.125 302.711 181.254 302.75 181.395C302.789 181.527 302.844 181.641 302.914 181.734C303 181.867 303.109 181.977 303.242 182.062C303.383 182.141 303.527 182.203 303.676 182.25C303.832 182.297 303.988 182.332 304.145 182.355C304.309 182.371 304.457 182.383 304.59 182.391C304.707 182.43 304.777 182.492 304.801 182.578C304.832 182.656 304.848 182.746 304.848 182.848C304.848 182.855 304.844 182.867 304.836 182.883C304.836 182.891 304.836 182.902 304.836 182.918C304.828 182.941 304.824 182.961 304.824 182.977L304.672 183.059H304.297H303.781C303.766 183.059 303.727 183.043 303.664 183.012C303.609 182.988 303.578 182.977 303.57 182.977H303.512C303.387 182.977 303.27 182.988 303.16 183.012C303.051 183.043 302.93 183.059 302.797 183.059C302.641 183.059 302.48 183.043 302.316 183.012C302.16 182.988 302 182.977 301.836 182.977C301.75 182.977 301.668 182.988 301.59 183.012C301.512 183.043 301.43 183.059 301.344 183.059C301.133 183.059 300.922 183.043 300.711 183.012C300.508 182.988 300.293 182.977 300.066 182.977C299.738 182.977 299.406 183.004 299.07 183.059C298.742 183.113 298.402 183.141 298.051 183.141H297.699C297.637 183.086 297.582 183.023 297.535 182.953C297.496 182.883 297.477 182.805 297.477 182.719C297.477 182.617 297.531 182.539 297.641 182.484C297.758 182.43 297.902 182.387 298.074 182.355C298.246 182.324 298.438 182.301 298.648 182.285C298.867 182.262 299.078 182.234 299.281 182.203C299.484 182.172 299.668 182.125 299.832 182.062C300.004 182 300.133 181.914 300.219 181.805V181.559V181.312C300.211 181.305 300.199 181.277 300.184 181.23C300.176 181.176 300.164 181.117 300.148 181.055C300.133 180.984 300.117 180.922 300.102 180.867C300.086 180.805 300.074 180.754 300.066 180.715C300.059 180.699 300.043 180.66 300.02 180.598C299.996 180.535 299.969 180.469 299.938 180.398C299.914 180.32 299.891 180.25 299.867 180.188C299.852 180.125 299.844 180.086 299.844 180.07C299.836 180.047 299.82 179.996 299.797 179.918C299.781 179.84 299.762 179.754 299.738 179.66C299.715 179.566 299.691 179.48 299.668 179.402C299.645 179.316 299.633 179.262 299.633 179.238C299.625 179.23 299.609 179.195 299.586 179.133C299.57 179.07 299.547 179.004 299.516 178.934C299.492 178.855 299.469 178.785 299.445 178.723C299.43 178.652 299.418 178.609 299.41 178.594C299.387 178.508 299.363 178.406 299.34 178.289C299.316 178.164 299.285 178.039 299.246 177.914C299.215 177.789 299.176 177.676 299.129 177.574C299.082 177.473 299.023 177.398 298.953 177.352H298.449H297.934C297.918 177.352 297.879 177.367 297.816 177.398C297.754 177.422 297.715 177.434 297.699 177.434H297.676H297.641C297.633 177.434 297.605 177.43 297.559 177.422C297.52 177.414 297.473 177.406 297.418 177.398C297.371 177.383 297.324 177.371 297.277 177.363C297.238 177.355 297.215 177.352 297.207 177.352C297.199 177.352 297.176 177.355 297.137 177.363C297.098 177.371 297.059 177.383 297.02 177.398C296.98 177.406 296.941 177.414 296.902 177.422C296.871 177.43 296.855 177.434 296.855 177.434H295.508C295.477 177.434 295.422 177.438 295.344 177.445C295.273 177.445 295.195 177.449 295.109 177.457C295.023 177.465 294.941 177.473 294.863 177.48C294.793 177.488 294.742 177.496 294.711 177.504C294.695 177.512 294.684 177.52 294.676 177.527C294.66 177.535 294.648 177.543 294.641 177.551C294.641 177.559 294.637 177.562 294.629 177.562C294.473 178.055 294.32 178.555 294.172 179.062C294.031 179.57 293.895 180.074 293.762 180.574C293.73 180.699 293.684 180.832 293.621 180.973C293.566 181.113 293.539 181.25 293.539 181.383C293.539 181.484 293.562 181.586 293.609 181.688C293.664 181.789 293.715 181.879 293.762 181.957C293.785 181.957 293.832 181.961 293.902 181.969C293.973 181.977 294.047 181.988 294.125 182.004C294.203 182.012 294.277 182.02 294.348 182.027C294.418 182.035 294.465 182.039 294.488 182.039C294.496 182.039 294.52 182.047 294.559 182.062C294.605 182.078 294.652 182.094 294.699 182.109C294.754 182.125 294.801 182.141 294.84 182.156C294.887 182.164 294.914 182.168 294.922 182.168C295.023 182.191 295.129 182.207 295.238 182.215C295.355 182.223 295.461 182.238 295.555 182.262C295.648 182.285 295.727 182.328 295.789 182.391C295.852 182.445 295.883 182.535 295.883 182.66C295.883 182.887 295.832 183.023 295.73 183.07C295.637 183.117 295.504 183.141 295.332 183.141H295.18H294.711C294.695 183.141 294.66 183.137 294.605 183.129C294.559 183.121 294.508 183.109 294.453 183.094C294.398 183.086 294.344 183.078 294.289 183.07C294.242 183.062 294.211 183.059 294.195 183.059H292.812C292.797 183.059 292.762 183.055 292.707 183.047C292.66 183.039 292.605 183.027 292.543 183.012C292.488 183.004 292.434 182.996 292.379 182.988C292.332 182.98 292.301 182.977 292.285 182.977H292.086C292.016 182.977 291.953 182.98 291.898 182.988C291.844 182.996 291.777 183.02 291.699 183.059H290.469C290.438 183.074 290.398 183.09 290.352 183.105C290.305 183.129 290.273 183.141 290.258 183.141H290.199C290.16 183.141 290.105 183.129 290.035 183.105C289.973 183.082 289.91 183.051 289.848 183.012C289.777 182.98 289.719 182.941 289.672 182.895C289.617 182.84 289.59 182.789 289.59 182.742Z" fill="black"/>
<path d="M809.164 170.387V171.02C809.164 171.285 809.168 171.547 809.176 171.805C809.184 172.062 809.207 172.316 809.246 172.566C809.254 172.652 809.297 172.723 809.375 172.777C809.461 172.832 809.547 172.859 809.633 172.859C809.836 172.859 810.02 172.824 810.184 172.754C810.348 172.684 810.52 172.621 810.699 172.566C811.074 172.441 811.383 172.324 811.625 172.215C811.875 172.105 812.094 171.98 812.281 171.84C812.469 171.699 812.645 171.531 812.809 171.336C812.98 171.133 813.176 170.883 813.395 170.586C813.48 170.492 813.559 170.391 813.629 170.281C813.707 170.172 813.754 170.062 813.77 169.953V169.73V169.203C813.77 169.188 813.781 169.137 813.805 169.051C813.836 168.965 813.852 168.918 813.852 168.91V168.863V168.828C813.812 168.672 813.773 168.504 813.734 168.324C813.703 168.137 813.664 167.965 813.617 167.809C813.594 167.715 813.547 167.594 813.477 167.445C813.406 167.297 813.328 167.148 813.242 167C813.156 166.852 813.07 166.715 812.984 166.59C812.898 166.465 812.824 166.383 812.762 166.344C812.746 166.336 812.703 166.328 812.633 166.32C812.562 166.305 812.527 166.289 812.527 166.273C812.52 166.258 812.496 166.211 812.457 166.133C812.418 166.047 812.398 165.992 812.398 165.969C812.391 165.969 812.375 165.957 812.352 165.934C812.336 165.926 812.324 165.918 812.316 165.91C812.113 165.816 811.906 165.723 811.695 165.629C811.484 165.535 811.27 165.434 811.051 165.324C811.012 165.316 810.938 165.305 810.828 165.289C810.719 165.273 810.602 165.258 810.477 165.242C810.359 165.227 810.246 165.211 810.137 165.195C810.027 165.18 809.953 165.172 809.914 165.172H809.855C809.652 165.172 809.496 165.242 809.387 165.383C809.277 165.516 809.23 165.691 809.246 165.91C809.254 166.668 809.242 167.414 809.211 168.148C809.18 168.883 809.164 169.629 809.164 170.387ZM809.023 180.207C809.023 180.457 809.051 180.656 809.105 180.805C809.16 180.953 809.25 181.129 809.375 181.332C809.375 181.348 809.387 181.375 809.41 181.414C809.441 181.453 809.457 181.477 809.457 181.484C809.473 181.484 809.516 181.488 809.586 181.496C809.656 181.504 809.699 181.508 809.715 181.508C809.871 181.508 810.008 181.473 810.125 181.402C810.25 181.332 810.391 181.289 810.547 181.273C810.688 181.266 810.816 181.262 810.934 181.262C811.059 181.254 811.18 181.246 811.297 181.238C811.414 181.23 811.531 181.215 811.648 181.191C811.766 181.16 811.891 181.109 812.023 181.039C812.039 181.031 812.066 181.016 812.105 180.992C812.152 180.961 812.199 180.93 812.246 180.898C812.293 180.867 812.336 180.84 812.375 180.816C812.422 180.793 812.453 180.781 812.469 180.781C812.477 180.773 812.5 180.762 812.539 180.746C812.586 180.723 812.633 180.703 812.68 180.688C812.734 180.664 812.781 180.648 812.82 180.641C812.867 180.625 812.895 180.617 812.902 180.617C812.934 180.609 812.984 180.578 813.055 180.523C813.133 180.461 813.18 180.422 813.195 180.406C813.211 180.383 813.25 180.336 813.312 180.266C813.375 180.188 813.445 180.102 813.523 180.008C813.602 179.914 813.676 179.82 813.746 179.727C813.816 179.633 813.871 179.562 813.91 179.516C813.941 179.484 813.973 179.445 814.004 179.398C814.043 179.352 814.062 179.32 814.062 179.305C814.133 179.156 814.184 179 814.215 178.836C814.254 178.664 814.305 178.5 814.367 178.344V177.254C814.328 177.215 814.301 177.168 814.285 177.113C814.27 177.059 814.262 177.008 814.262 176.961C814.262 176.914 814.266 176.867 814.273 176.82C814.281 176.773 814.285 176.734 814.285 176.703V176.668C814.27 176.551 814.227 176.438 814.156 176.328C814.086 176.211 814.051 176.086 814.051 175.953C814.051 175.938 814.051 175.922 814.051 175.906C814.059 175.891 814.062 175.875 814.062 175.859C814.039 175.828 813.992 175.77 813.922 175.684C813.859 175.598 813.785 175.508 813.699 175.414C813.621 175.32 813.543 175.234 813.465 175.156C813.395 175.078 813.344 175.023 813.312 174.992C813.312 174.977 813.281 174.941 813.219 174.887C813.156 174.824 813.125 174.785 813.125 174.77C813.109 174.754 813.094 174.719 813.078 174.664C813.07 174.602 813.066 174.559 813.066 174.535C813.043 174.527 813.012 174.508 812.973 174.477C812.941 174.438 812.918 174.414 812.902 174.406C812.723 174.266 812.527 174.145 812.316 174.043C812.113 173.941 811.902 173.855 811.684 173.785C811.465 173.715 811.242 173.652 811.016 173.598C810.789 173.543 810.566 173.488 810.348 173.434C810.332 173.434 810.301 173.43 810.254 173.422C810.215 173.406 810.172 173.391 810.125 173.375C810.078 173.359 810.031 173.344 809.984 173.328C809.945 173.312 809.922 173.301 809.914 173.293C809.844 173.285 809.766 173.301 809.68 173.34C809.594 173.379 809.512 173.43 809.434 173.492C809.355 173.555 809.289 173.625 809.234 173.703C809.188 173.773 809.164 173.836 809.164 173.891V175.625C809.18 175.656 809.195 175.711 809.211 175.789C809.234 175.859 809.246 175.902 809.246 175.918V175.977V176C809.246 176.008 809.234 176.031 809.211 176.07C809.195 176.109 809.18 176.137 809.164 176.152C809.164 176.285 809.168 176.406 809.176 176.516C809.184 176.625 809.188 176.734 809.188 176.844C809.188 176.961 809.18 177.074 809.164 177.184C809.148 177.293 809.121 177.414 809.082 177.547C809.066 177.562 809.055 177.582 809.047 177.605C809.031 177.652 809.023 177.68 809.023 177.688V177.723C809.023 177.793 809.031 177.859 809.047 177.922C809.07 177.984 809.082 178.059 809.082 178.145V178.262C809.082 178.27 809.07 178.305 809.047 178.367C809.031 178.43 809.023 178.465 809.023 178.473C809.023 178.496 809.031 178.539 809.047 178.602C809.07 178.656 809.082 178.691 809.082 178.707V178.953C809.082 179.156 809.07 179.367 809.047 179.586C809.031 179.797 809.023 180.004 809.023 180.207ZM803.832 181.859C803.832 181.773 803.855 181.695 803.902 181.625C803.957 181.555 804.02 181.492 804.09 181.438C804.168 181.383 804.25 181.336 804.336 181.297C804.422 181.258 804.496 181.223 804.559 181.191C804.816 181.215 805.086 181.227 805.367 181.227C805.516 181.227 805.66 181.219 805.801 181.203C805.941 181.18 806.066 181.137 806.176 181.074C806.285 181.004 806.371 180.91 806.434 180.793C806.496 180.676 806.527 180.52 806.527 180.324V177.547C806.512 177.516 806.496 177.453 806.48 177.359C806.473 177.266 806.469 177.203 806.469 177.172V177.102V177.043C806.469 177.02 806.473 176.969 806.48 176.891C806.488 176.812 806.492 176.727 806.492 176.633C806.5 176.539 806.508 176.453 806.516 176.375C806.523 176.289 806.527 176.234 806.527 176.211C806.527 176.148 806.527 176.027 806.527 175.848C806.535 175.668 806.539 175.48 806.539 175.285C806.547 175.082 806.551 174.891 806.551 174.711C806.559 174.523 806.562 174.395 806.562 174.324V173.949C806.57 173.879 806.574 173.746 806.574 173.551C806.582 173.355 806.586 173.152 806.586 172.941C806.594 172.723 806.598 172.516 806.598 172.32C806.605 172.125 806.609 171.992 806.609 171.922C806.609 171.906 806.605 171.879 806.598 171.84C806.59 171.793 806.578 171.746 806.562 171.699C806.555 171.645 806.547 171.598 806.539 171.559C806.531 171.512 806.527 171.48 806.527 171.465V171.383V171.324C806.527 171.309 806.531 171.277 806.539 171.23C806.547 171.176 806.555 171.121 806.562 171.066C806.57 171.012 806.578 170.961 806.586 170.914C806.594 170.859 806.602 170.82 806.609 170.797V167.434C806.609 167.23 806.633 167.043 806.68 166.871C806.734 166.691 806.762 166.492 806.762 166.273C806.762 166.062 806.73 165.887 806.668 165.746C806.613 165.598 806.492 165.457 806.305 165.324C806.258 165.34 806.172 165.348 806.047 165.348C805.93 165.348 805.809 165.348 805.684 165.348C805.551 165.348 805.426 165.348 805.309 165.348C805.199 165.348 805.125 165.34 805.086 165.324C805.016 165.324 804.926 165.305 804.816 165.266C804.715 165.227 804.609 165.184 804.5 165.137C804.398 165.082 804.305 165.023 804.219 164.961C804.133 164.898 804.074 164.844 804.043 164.797C804.145 164.641 804.254 164.547 804.371 164.516C804.488 164.477 804.617 164.457 804.758 164.457H805.203C805.227 164.457 805.277 164.445 805.355 164.422C805.441 164.391 805.492 164.375 805.508 164.375C805.516 164.375 805.535 164.379 805.566 164.387C805.598 164.395 805.629 164.406 805.66 164.422C805.691 164.43 805.719 164.438 805.742 164.445C805.773 164.453 805.793 164.457 805.801 164.457H807.055C807.109 164.488 807.172 164.512 807.242 164.527C807.312 164.535 807.383 164.539 807.453 164.539H807.723H807.863L807.957 164.562C808.02 164.578 808.055 164.59 808.062 164.598H808.812H809.082C809.105 164.598 809.148 164.602 809.211 164.609C809.281 164.617 809.352 164.625 809.422 164.633C809.492 164.641 809.559 164.648 809.621 164.656C809.684 164.664 809.727 164.672 809.75 164.68L809.914 164.598H811.133C811.164 164.582 811.23 164.57 811.332 164.562C811.434 164.547 811.492 164.539 811.508 164.539L811.555 164.516C811.586 164.5 811.602 164.492 811.602 164.492C812.297 164.492 812.969 164.594 813.617 164.797L813.688 164.867C813.891 165.008 814.102 165.129 814.32 165.23C814.539 165.332 814.75 165.438 814.953 165.547L814.977 165.57C815 165.594 815.02 165.609 815.035 165.617C815.035 165.633 815.055 165.672 815.094 165.734C815.133 165.789 815.156 165.824 815.164 165.84C815.172 165.855 815.184 165.867 815.199 165.875C815.207 165.898 815.223 165.91 815.246 165.91C815.426 166.137 815.59 166.359 815.738 166.578C815.887 166.797 816.016 167.023 816.125 167.258C816.234 167.492 816.316 167.738 816.371 167.996C816.434 168.254 816.465 168.531 816.465 168.828V168.91C816.465 168.926 816.461 168.961 816.453 169.016C816.445 169.07 816.438 169.133 816.43 169.203C816.43 169.266 816.426 169.324 816.418 169.379C816.41 169.434 816.406 169.473 816.406 169.496V169.812V169.953C816.383 170.023 816.355 170.09 816.324 170.152C816.301 170.207 816.273 170.262 816.242 170.316C816.211 170.363 816.188 170.406 816.172 170.445C816.102 170.625 816.023 170.828 815.938 171.055C815.859 171.281 815.754 171.473 815.621 171.629C815.605 171.637 815.562 171.645 815.492 171.652C815.422 171.66 815.387 171.672 815.387 171.688C815.371 171.703 815.332 171.742 815.27 171.805C815.215 171.859 815.18 171.898 815.164 171.922C815.156 171.93 815.121 171.945 815.059 171.969C815.004 171.992 814.941 172.02 814.871 172.051C814.809 172.082 814.746 172.113 814.684 172.145C814.629 172.176 814.594 172.199 814.578 172.215C814.547 172.238 814.496 172.285 814.426 172.355C814.355 172.418 814.281 172.488 814.203 172.566C814.125 172.637 814.051 172.707 813.98 172.777C813.918 172.848 813.875 172.898 813.852 172.93C813.859 172.961 813.887 172.984 813.934 173C813.98 173.016 814.031 173.027 814.086 173.035C814.141 173.035 814.195 173.039 814.25 173.047C814.305 173.047 814.344 173.051 814.367 173.059C814.375 173.082 814.418 173.121 814.496 173.176C814.574 173.223 814.629 173.262 814.66 173.293C814.668 173.309 814.703 173.348 814.766 173.41C814.828 173.465 814.863 173.5 814.871 173.516C814.879 173.523 814.898 173.539 814.93 173.562C814.969 173.578 815.008 173.598 815.047 173.621C815.086 173.645 815.125 173.668 815.164 173.691C815.203 173.715 815.23 173.727 815.246 173.727C815.48 173.914 815.691 174.133 815.879 174.383C816.066 174.633 816.242 174.883 816.406 175.133C816.414 175.141 816.43 175.164 816.453 175.203C816.484 175.234 816.516 175.273 816.547 175.32C816.578 175.359 816.609 175.398 816.641 175.438C816.672 175.477 816.691 175.5 816.699 175.508C816.762 175.609 816.824 175.758 816.887 175.953C816.949 176.148 817.004 176.352 817.051 176.562C817.098 176.773 817.137 176.98 817.168 177.184C817.199 177.379 817.215 177.535 817.215 177.652C817.215 177.762 817.195 177.879 817.156 178.004C817.125 178.129 817.094 178.242 817.062 178.344C817.047 178.391 817.031 178.461 817.016 178.555C817.008 178.641 817.004 178.691 817.004 178.707V179.07C816.98 179.164 816.938 179.277 816.875 179.41C816.812 179.543 816.754 179.652 816.699 179.738C816.637 179.848 816.566 179.969 816.488 180.102C816.41 180.234 816.324 180.363 816.23 180.488C816.137 180.613 816.039 180.73 815.938 180.84C815.836 180.949 815.73 181.039 815.621 181.109C815.598 181.125 815.551 181.152 815.48 181.191C815.41 181.23 815.332 181.273 815.246 181.32C815.16 181.359 815.082 181.398 815.012 181.438C814.941 181.469 814.895 181.484 814.871 181.484C814.801 181.523 814.742 181.559 814.695 181.59C814.656 181.613 814.613 181.637 814.566 181.66C814.52 181.684 814.469 181.707 814.414 181.73C814.359 181.754 814.289 181.773 814.203 181.789C814.117 181.805 814.012 181.824 813.887 181.848C813.762 181.871 813.637 181.895 813.512 181.918C813.371 181.949 813.223 181.977 813.066 182H809.023C809.008 182.008 808.973 182.016 808.918 182.023C808.871 182.031 808.82 182.039 808.766 182.047C808.711 182.055 808.656 182.062 808.602 182.07C808.555 182.078 808.52 182.082 808.496 182.082H806.305C806.195 182.113 806.09 182.133 805.988 182.141C805.895 182.148 805.797 182.152 805.695 182.152H805.203H804.934C804.918 182.152 804.879 182.16 804.816 182.176C804.762 182.199 804.727 182.211 804.711 182.211H804.523C804.477 182.211 804.414 182.207 804.336 182.199C804.258 182.191 804.18 182.172 804.102 182.141C804.031 182.117 803.969 182.082 803.914 182.035C803.859 181.988 803.832 181.93 803.832 181.859Z" fill="black"/>
</g>
</g>
<defs>
<filter id="filter0_b_604_1136" x="-21" y="-21" width="974" height="472" filterUnits="userSpaceOnUse" color-interpolation-filters="sRGB">
<feFlood flood-opacity="0" result="BackgroundImageFix"/>
<feGaussianBlur in="BackgroundImageFix" stdDeviation="10.5"/>
<feComposite in2="SourceAlpha" operator="in" result="effect1_backgroundBlur_604_1136"/>
<feBlend mode="normal" in="SourceGraphic" in2="effect1_backgroundBlur_604_1136" result="shape"/>
</filter>
<clipPath id="clip0_604_1136">
<rect y="430" width="430" height="932" rx="3" transform="rotate(-90 0 430)" fill="white"/>
</clipPath>
</defs>
</svg>
