<svg width="932" height="430" viewBox="0 0 932 430" fill="none" xmlns="http://www.w3.org/2000/svg">
<g clip-path="url(#clip0_607_1694)">
<rect y="430" width="430" height="932" rx="3" transform="rotate(-90 0 430)" fill="#FEFFF3"/>
<rect y="267" width="932" height="107" fill="#554435"/>
<rect x="9.5" y="283.5" width="914" height="78" stroke="#785F48" stroke-width="3"/>
<rect x="12.5" y="285.5" width="908" height="74" stroke="#64503E" stroke-width="3"/>
<rect y="372" width="932" height="58" fill="#ACA08F"/>
<rect x="-2" y="263" width="942" height="7" fill="#77604A"/>
<rect width="117.686" height="238.067" transform="matrix(-1 0 0 1 844.958 135.915)" fill="#6E5643"/>
<path fill-rule="evenodd" clip-rule="evenodd" d="M834.165 146.714H832.368V146.734H739.836V146.714H738.039V374H739.836V148.531H832.368V374H834.165V146.714Z" fill="#452910" fill-opacity="0.71"/>
<rect x="-2" y="2" width="78.2421" height="93.392" transform="matrix(-1 0 0 1 822.83 263.601)" stroke="#452910" stroke-opacity="0.67" stroke-width="4"/>
<rect x="-2" y="2" width="78.2421" height="89.0632" transform="matrix(-1 0 0 1 822.83 151.055)" stroke="#452910" stroke-opacity="0.67" stroke-width="4"/>
<ellipse cx="2.69512" cy="2.69512" rx="2.69512" ry="2.69512" transform="matrix(-1 0 0 1 752.374 251.924)" fill="#E9B42E"/>
<rect width="11.6789" height="1.79675" transform="matrix(-1 0 0 1 761.344 253.704)" fill="#E9B42E"/>
<ellipse cx="2.69512" cy="2.69512" rx="2.69512" ry="2.69512" transform="matrix(-1 0 0 1 752.373 252.828)" fill="#E9B42E" fill-opacity="0.37"/>
<rect width="11.6789" height="1.79675" transform="matrix(-1 0 0 1 761.343 254.602)" fill="#E9B42E" fill-opacity="0.37"/>
<path d="M761.344 253.412H752.842C752.168 253.412 751.515 253.175 750.998 252.742L750.704 252.497C749.708 251.664 748.238 251.746 747.34 252.684V252.684C746.587 253.471 746.441 254.66 746.98 255.607L747.029 255.694C747.793 257.036 749.55 257.42 750.804 256.521L751.048 256.346C751.536 255.996 752.121 255.808 752.721 255.808H761.344" stroke="#CE9E23"/>
<rect width="0.898373" height="1.79675" transform="matrix(-1 0 0 1 761.344 253.704)" fill="#CE9E23"/>
<path d="M770.392 190.438H767.073C765.416 190.438 764.073 191.781 764.073 193.438V202.588C764.073 204.245 765.416 205.588 767.073 205.588H768.834C769.91 205.588 770.782 206.46 770.782 207.536C770.782 208.612 771.654 209.484 772.73 209.484H799.635C800.745 209.484 801.644 208.584 801.644 207.474C801.644 206.414 802.468 205.536 803.527 205.468L805.631 205.334C807.211 205.234 808.44 203.923 808.44 202.34V193.438C808.44 191.781 807.097 190.438 805.44 190.438H803.03C801.715 190.438 800.649 189.372 800.649 188.057C800.649 186.743 799.583 185.677 798.268 185.677H775.154C773.839 185.677 772.773 186.743 772.773 188.057C772.773 189.372 771.707 190.438 770.392 190.438Z" fill="#C7A96F"/>
<path d="M774.889 208.402L790.039 185.677H798.696L791.121 209.484H774.889V208.402Z" fill="#C49D51"/>
<rect x="727.274" y="135" width="117.708" height="0.891729" fill="black"/>
<rect x="844.981" y="373.983" width="238.981" height="0.891719" transform="rotate(-90 844.981 373.983)" fill="black"/>
<rect x="726.381" y="373.983" width="238.981" height="0.891719" transform="rotate(-90 726.381 373.983)" fill="black"/>
<rect width="117.686" height="238.067" transform="matrix(-1 0 0 1 567.577 135.915)" fill="#6E5643"/>
<path fill-rule="evenodd" clip-rule="evenodd" d="M556.784 146.714H554.987V146.734H462.455V146.714H460.658V374H462.455V148.531H554.987V374H556.784V146.714Z" fill="#452910" fill-opacity="0.71"/>
<rect x="-2" y="2" width="78.2421" height="93.392" transform="matrix(-1 0 0 1 545.449 263.601)" stroke="#452910" stroke-opacity="0.67" stroke-width="4"/>
<rect x="-2" y="2" width="78.2421" height="89.0632" transform="matrix(-1 0 0 1 545.449 151.055)" stroke="#452910" stroke-opacity="0.67" stroke-width="4"/>
<ellipse cx="2.69512" cy="2.69512" rx="2.69512" ry="2.69512" transform="matrix(-1 0 0 1 474.993 251.924)" fill="#E9B42E"/>
<rect width="11.6789" height="1.79675" transform="matrix(-1 0 0 1 483.962 253.704)" fill="#E9B42E"/>
<ellipse cx="2.69512" cy="2.69512" rx="2.69512" ry="2.69512" transform="matrix(-1 0 0 1 474.992 252.828)" fill="#E9B42E" fill-opacity="0.37"/>
<rect width="11.6789" height="1.79675" transform="matrix(-1 0 0 1 483.962 254.602)" fill="#E9B42E" fill-opacity="0.37"/>
<path d="M483.962 253.412H475.461C474.786 253.412 474.133 253.175 473.616 252.742L473.323 252.497C472.327 251.664 470.856 251.746 469.959 252.684V252.684C469.206 253.471 469.059 254.66 469.598 255.607L469.648 255.694C470.411 257.036 472.168 257.42 473.422 256.521L473.667 256.346C474.155 255.996 474.74 255.808 475.34 255.808H483.962" stroke="#CE9E23"/>
<rect width="0.898373" height="1.79675" transform="matrix(-1 0 0 1 483.962 253.704)" fill="#CE9E23"/>
<path d="M493.011 190.438H489.691C488.035 190.438 486.691 191.781 486.691 193.438V202.588C486.691 204.245 488.035 205.588 489.691 205.588H491.453C492.529 205.588 493.401 206.46 493.401 207.536C493.401 208.612 494.273 209.484 495.348 209.484H522.253C523.363 209.484 524.263 208.584 524.263 207.474C524.263 206.414 525.087 205.536 526.145 205.468L528.249 205.334C529.829 205.234 531.059 203.923 531.059 202.34V193.438C531.059 191.781 529.716 190.438 528.059 190.438H525.648C524.333 190.438 523.267 189.372 523.267 188.057C523.267 186.743 522.202 185.677 520.887 185.677H497.772C496.458 185.677 495.392 186.743 495.392 188.057C495.392 189.372 494.326 190.438 493.011 190.438Z" fill="#C7A96F"/>
<path d="M497.508 208.402L512.658 185.677H521.315L513.74 209.484H497.508V208.402Z" fill="#C49D51"/>
<rect x="449.892" y="135" width="117.708" height="0.891729" fill="black"/>
<rect x="567.6" y="373.983" width="238.981" height="0.891719" transform="rotate(-90 567.6 373.983)" fill="black"/>
<rect x="449" y="373.983" width="238.981" height="0.891719" transform="rotate(-90 449 373.983)" fill="black"/>
<rect width="117.686" height="238.067" transform="matrix(-1 0 0 1 290.577 135.915)" fill="#6E5643"/>
<path fill-rule="evenodd" clip-rule="evenodd" d="M279.784 146.714H277.987V146.734H185.455V146.714H183.658V374H185.455V148.531H277.987V374H279.784V146.714Z" fill="#452910" fill-opacity="0.71"/>
<rect x="-2" y="2" width="78.2421" height="93.392" transform="matrix(-1 0 0 1 268.449 263.601)" stroke="#452910" stroke-opacity="0.67" stroke-width="4"/>
<rect x="-2" y="2" width="78.2421" height="89.0632" transform="matrix(-1 0 0 1 268.449 151.055)" stroke="#452910" stroke-opacity="0.67" stroke-width="4"/>
<ellipse cx="2.69512" cy="2.69512" rx="2.69512" ry="2.69512" transform="matrix(-1 0 0 1 197.993 251.924)" fill="#E9B42E"/>
<rect width="11.6789" height="1.79675" transform="matrix(-1 0 0 1 206.962 253.704)" fill="#E9B42E"/>
<ellipse cx="2.69512" cy="2.69512" rx="2.69512" ry="2.69512" transform="matrix(-1 0 0 1 197.992 252.828)" fill="#E9B42E" fill-opacity="0.37"/>
<rect width="11.6789" height="1.79675" transform="matrix(-1 0 0 1 206.962 254.602)" fill="#E9B42E" fill-opacity="0.37"/>
<path d="M206.962 253.412H198.461C197.786 253.412 197.133 253.175 196.616 252.742L196.323 252.497C195.327 251.664 193.856 251.746 192.959 252.684V252.684C192.206 253.471 192.059 254.66 192.598 255.607L192.648 255.694C193.411 257.036 195.168 257.42 196.422 256.521L196.667 256.346C197.154 255.996 197.74 255.808 198.34 255.808H206.962" stroke="#CE9E23"/>
<rect width="0.898373" height="1.79675" transform="matrix(-1 0 0 1 206.962 253.704)" fill="#CE9E23"/>
<path d="M216.011 190.438H212.691C211.035 190.438 209.691 191.781 209.691 193.438V202.588C209.691 204.245 211.035 205.588 212.691 205.588H214.453C215.529 205.588 216.401 206.46 216.401 207.536C216.401 208.612 217.273 209.484 218.348 209.484H245.253C246.363 209.484 247.263 208.584 247.263 207.474C247.263 206.414 248.087 205.536 249.145 205.468L251.249 205.334C252.829 205.234 254.059 203.923 254.059 202.34V193.438C254.059 191.781 252.716 190.438 251.059 190.438H248.648C247.333 190.438 246.267 189.372 246.267 188.057C246.267 186.743 245.202 185.677 243.887 185.677H220.772C219.458 185.677 218.392 186.743 218.392 188.057C218.392 189.372 217.326 190.438 216.011 190.438Z" fill="#C7A96F"/>
<path d="M220.508 208.402L235.658 185.677H244.315L236.74 209.484H220.508V208.402Z" fill="#C49D51"/>
<rect x="172.892" y="135" width="117.708" height="0.891729" fill="black"/>
<rect x="290.6" y="373.983" width="238.981" height="0.891719" transform="rotate(-90 290.6 373.983)" fill="black"/>
<rect x="172" y="373.983" width="238.981" height="0.891719" transform="rotate(-90 172 373.983)" fill="black"/>
<path d="M229.414 199.434C229.59 199.46 229.779 199.482 229.98 199.502C230.182 199.515 230.384 199.525 230.586 199.531C230.794 199.538 230.996 199.544 231.191 199.551C231.393 199.551 231.579 199.551 231.748 199.551H231.943C232.041 199.551 232.122 199.538 232.188 199.512C232.253 199.479 232.285 199.404 232.285 199.287C232.285 199.157 232.253 199.03 232.188 198.906C232.129 198.783 232.08 198.659 232.041 198.535C231.969 198.288 231.901 198.037 231.836 197.783C231.777 197.529 231.702 197.288 231.611 197.061C231.611 197.048 231.592 197.008 231.553 196.943C231.514 196.872 231.491 196.829 231.484 196.816C231.478 196.797 231.468 196.758 231.455 196.699C231.449 196.641 231.439 196.576 231.426 196.504C231.413 196.432 231.4 196.367 231.387 196.309C231.38 196.25 231.374 196.211 231.367 196.191C231.367 196.185 231.357 196.159 231.338 196.113C231.318 196.061 231.292 196.006 231.26 195.947C231.234 195.882 231.208 195.817 231.182 195.752C231.156 195.687 231.136 195.635 231.123 195.596C231.123 195.596 231.117 195.583 231.104 195.557C231.09 195.531 231.077 195.505 231.064 195.479C231.051 195.446 231.038 195.42 231.025 195.4C231.012 195.374 231.006 195.358 231.006 195.352C230.973 195.293 230.951 195.228 230.938 195.156C230.924 195.085 230.908 195.016 230.889 194.951C230.876 194.886 230.856 194.824 230.83 194.766C230.804 194.707 230.765 194.658 230.713 194.619H230.664C230.573 194.619 230.495 194.694 230.43 194.844C230.371 194.993 230.319 195.163 230.273 195.352C230.228 195.54 230.189 195.726 230.156 195.908C230.13 196.084 230.107 196.201 230.088 196.26C230.075 196.299 230.055 196.364 230.029 196.455C230.003 196.546 229.984 196.602 229.971 196.621C229.899 196.901 229.821 197.181 229.736 197.461C229.658 197.734 229.59 198.011 229.531 198.291C229.531 198.298 229.528 198.324 229.521 198.369C229.521 198.408 229.518 198.454 229.512 198.506C229.505 198.551 229.499 198.597 229.492 198.643C229.486 198.682 229.482 198.708 229.482 198.721C229.463 198.773 229.44 198.812 229.414 198.838C229.395 198.864 229.375 198.893 229.355 198.926C229.336 198.952 229.32 198.984 229.307 199.023C229.294 199.056 229.287 199.102 229.287 199.16V199.229C229.287 199.281 229.294 199.326 229.307 199.365C229.32 199.398 229.355 199.421 229.414 199.434ZM224.658 204.785C224.658 204.733 224.678 204.678 224.717 204.619C224.756 204.561 224.795 204.518 224.834 204.492C224.847 204.492 224.896 204.489 224.98 204.482C225.065 204.469 225.12 204.456 225.146 204.443C225.303 204.398 225.446 204.342 225.576 204.277C225.706 204.206 225.843 204.134 225.986 204.062C226.13 204.004 226.253 203.958 226.357 203.926C226.462 203.893 226.553 203.854 226.631 203.809C226.715 203.763 226.794 203.701 226.865 203.623C226.943 203.545 227.021 203.434 227.1 203.291C227.145 203.206 227.171 203.099 227.178 202.969C227.191 202.839 227.204 202.738 227.217 202.666C227.217 202.66 227.227 202.643 227.246 202.617C227.272 202.585 227.285 202.565 227.285 202.559C227.292 202.533 227.301 202.497 227.314 202.451C227.334 202.406 227.344 202.376 227.344 202.363C227.344 202.357 227.344 202.334 227.344 202.295C227.35 202.256 227.357 202.217 227.363 202.178C227.37 202.139 227.376 202.103 227.383 202.07C227.389 202.031 227.393 202.008 227.393 202.002C227.399 201.989 227.409 201.973 227.422 201.953C227.428 201.94 227.435 201.927 227.441 201.914C227.448 201.895 227.454 201.878 227.461 201.865C227.5 201.8 227.542 201.715 227.588 201.611C227.64 201.507 227.689 201.396 227.734 201.279C227.78 201.162 227.822 201.051 227.861 200.947C227.9 200.837 227.93 200.742 227.949 200.664C227.995 200.469 228.053 200.273 228.125 200.078C228.203 199.883 228.271 199.688 228.33 199.492C228.356 199.362 228.382 199.222 228.408 199.072C228.434 198.923 228.464 198.783 228.496 198.652C228.509 198.633 228.529 198.584 228.555 198.506C228.581 198.421 228.6 198.366 228.613 198.34C228.62 198.327 228.643 198.298 228.682 198.252C228.721 198.2 228.74 198.167 228.74 198.154C228.747 198.148 228.75 198.132 228.75 198.105C228.757 198.073 228.763 198.04 228.77 198.008C228.776 197.969 228.779 197.936 228.779 197.91C228.786 197.878 228.789 197.858 228.789 197.852C228.802 197.826 228.815 197.786 228.828 197.734C228.848 197.676 228.864 197.62 228.877 197.568C228.89 197.516 228.9 197.471 228.906 197.432C228.919 197.386 228.926 197.36 228.926 197.354C228.926 197.347 228.936 197.324 228.955 197.285C228.975 197.24 228.994 197.194 229.014 197.148C229.033 197.096 229.049 197.051 229.062 197.012C229.082 196.966 229.095 196.937 229.102 196.924C229.115 196.911 229.134 196.868 229.16 196.797C229.186 196.725 229.212 196.65 229.238 196.572C229.264 196.488 229.287 196.41 229.307 196.338C229.333 196.26 229.346 196.211 229.346 196.191C229.372 196.126 229.398 196.042 229.424 195.938C229.456 195.833 229.492 195.729 229.531 195.625C229.57 195.514 229.616 195.413 229.668 195.322C229.72 195.225 229.779 195.153 229.844 195.107C229.87 194.945 229.912 194.792 229.971 194.648C230.029 194.499 230.091 194.355 230.156 194.219C230.221 194.076 230.277 193.932 230.322 193.789C230.374 193.639 230.4 193.483 230.4 193.32C230.4 193.184 230.378 193.076 230.332 192.998C230.293 192.92 230.247 192.858 230.195 192.812C230.15 192.76 230.104 192.712 230.059 192.666C230.02 192.62 230 192.559 230 192.48C230 192.467 230.003 192.448 230.01 192.422C230.016 192.389 230.02 192.367 230.02 192.354C230.111 192.301 230.215 192.256 230.332 192.217C230.449 192.178 230.563 192.135 230.674 192.09C230.791 192.038 230.895 191.976 230.986 191.904C231.077 191.826 231.139 191.729 231.172 191.611C231.178 191.598 231.191 191.562 231.211 191.504C231.23 191.445 231.25 191.383 231.27 191.318C231.289 191.253 231.309 191.191 231.328 191.133C231.348 191.074 231.361 191.038 231.367 191.025C231.38 190.967 231.406 190.908 231.445 190.85C231.491 190.791 231.546 190.762 231.611 190.762C231.618 190.762 231.621 190.765 231.621 190.771C231.628 190.771 231.634 190.771 231.641 190.771H231.66C231.68 190.785 231.702 190.807 231.729 190.84C231.761 190.866 231.794 190.895 231.826 190.928C231.865 190.96 231.898 190.993 231.924 191.025C231.95 191.051 231.966 191.071 231.973 191.084C231.986 191.084 231.999 191.107 232.012 191.152C232.031 191.191 232.041 191.224 232.041 191.25C232.041 191.276 232.051 191.331 232.07 191.416C232.09 191.501 232.109 191.592 232.129 191.689C232.148 191.781 232.168 191.868 232.188 191.953C232.207 192.038 232.217 192.09 232.217 192.109C232.223 192.135 232.243 192.197 232.275 192.295C232.308 192.393 232.34 192.497 232.373 192.607C232.412 192.712 232.448 192.812 232.48 192.91C232.513 193.001 232.529 193.06 232.529 193.086C232.588 193.294 232.646 193.519 232.705 193.76C232.764 194.001 232.826 194.225 232.891 194.434C232.891 194.44 232.897 194.463 232.91 194.502C232.93 194.535 232.949 194.574 232.969 194.619C232.995 194.658 233.018 194.697 233.037 194.736C233.063 194.769 233.079 194.788 233.086 194.795C233.138 194.919 233.167 195.052 233.174 195.195C233.187 195.332 233.219 195.465 233.271 195.596C233.402 196.006 233.535 196.403 233.672 196.787C233.809 197.171 233.932 197.568 234.043 197.979C234.049 197.998 234.059 198.037 234.072 198.096C234.085 198.154 234.098 198.219 234.111 198.291C234.124 198.356 234.137 198.418 234.15 198.477C234.163 198.535 234.17 198.571 234.17 198.584C234.176 198.597 234.189 198.626 234.209 198.672C234.229 198.711 234.248 198.753 234.268 198.799C234.294 198.844 234.313 198.887 234.326 198.926C234.346 198.965 234.355 198.988 234.355 198.994C234.355 199.007 234.359 199.036 234.365 199.082C234.372 199.121 234.378 199.167 234.385 199.219C234.391 199.264 234.398 199.31 234.404 199.355C234.411 199.395 234.414 199.421 234.414 199.434C234.421 199.46 234.434 199.518 234.453 199.609C234.479 199.701 234.505 199.798 234.531 199.902C234.564 200 234.593 200.094 234.619 200.186C234.645 200.277 234.661 200.335 234.668 200.361C234.74 200.622 234.821 200.879 234.912 201.133C235.01 201.387 235.091 201.654 235.156 201.934C235.208 202.181 235.257 202.422 235.303 202.656C235.355 202.884 235.426 203.112 235.518 203.34C235.557 203.438 235.592 203.545 235.625 203.662C235.658 203.773 235.703 203.867 235.762 203.945C235.833 204.056 235.924 204.147 236.035 204.219C236.152 204.284 236.273 204.336 236.396 204.375C236.527 204.414 236.657 204.443 236.787 204.463C236.924 204.476 237.048 204.486 237.158 204.492C237.256 204.525 237.314 204.577 237.334 204.648C237.36 204.714 237.373 204.788 237.373 204.873C237.373 204.88 237.37 204.889 237.363 204.902C237.363 204.909 237.363 204.919 237.363 204.932C237.357 204.951 237.354 204.967 237.354 204.98L237.227 205.049H236.914H236.484C236.471 205.049 236.439 205.036 236.387 205.01C236.341 204.99 236.315 204.98 236.309 204.98H236.26C236.156 204.98 236.058 204.99 235.967 205.01C235.876 205.036 235.775 205.049 235.664 205.049C235.534 205.049 235.4 205.036 235.264 205.01C235.133 204.99 235 204.98 234.863 204.98C234.792 204.98 234.723 204.99 234.658 205.01C234.593 205.036 234.525 205.049 234.453 205.049C234.277 205.049 234.102 205.036 233.926 205.01C233.757 204.99 233.577 204.98 233.389 204.98C233.115 204.98 232.839 205.003 232.559 205.049C232.285 205.094 232.002 205.117 231.709 205.117H231.416C231.364 205.072 231.318 205.02 231.279 204.961C231.247 204.902 231.23 204.837 231.23 204.766C231.23 204.681 231.276 204.616 231.367 204.57C231.465 204.525 231.585 204.489 231.729 204.463C231.872 204.437 232.031 204.417 232.207 204.404C232.389 204.385 232.565 204.362 232.734 204.336C232.904 204.31 233.057 204.271 233.193 204.219C233.337 204.167 233.444 204.095 233.516 204.004V203.799V203.594C233.509 203.587 233.499 203.564 233.486 203.525C233.48 203.48 233.47 203.431 233.457 203.379C233.444 203.32 233.431 203.268 233.418 203.223C233.405 203.171 233.395 203.128 233.389 203.096C233.382 203.083 233.369 203.05 233.35 202.998C233.33 202.946 233.307 202.891 233.281 202.832C233.262 202.767 233.242 202.708 233.223 202.656C233.21 202.604 233.203 202.572 233.203 202.559C233.197 202.539 233.184 202.497 233.164 202.432C233.151 202.367 233.135 202.295 233.115 202.217C233.096 202.139 233.076 202.067 233.057 202.002C233.037 201.93 233.027 201.885 233.027 201.865C233.021 201.859 233.008 201.829 232.988 201.777C232.975 201.725 232.956 201.67 232.93 201.611C232.91 201.546 232.891 201.488 232.871 201.436C232.858 201.377 232.848 201.341 232.842 201.328C232.822 201.257 232.803 201.172 232.783 201.074C232.764 200.97 232.738 200.866 232.705 200.762C232.679 200.658 232.646 200.563 232.607 200.479C232.568 200.394 232.52 200.332 232.461 200.293H232.041H231.611C231.598 200.293 231.566 200.306 231.514 200.332C231.462 200.352 231.429 200.361 231.416 200.361H231.396H231.367C231.361 200.361 231.338 200.358 231.299 200.352C231.266 200.345 231.227 200.339 231.182 200.332C231.143 200.319 231.104 200.309 231.064 200.303C231.032 200.296 231.012 200.293 231.006 200.293C230.999 200.293 230.98 200.296 230.947 200.303C230.915 200.309 230.882 200.319 230.85 200.332C230.817 200.339 230.785 200.345 230.752 200.352C230.726 200.358 230.713 200.361 230.713 200.361H229.59C229.564 200.361 229.518 200.365 229.453 200.371C229.395 200.371 229.329 200.374 229.258 200.381C229.186 200.387 229.118 200.394 229.053 200.4C228.994 200.407 228.952 200.413 228.926 200.42C228.913 200.426 228.903 200.433 228.896 200.439C228.883 200.446 228.874 200.452 228.867 200.459C228.867 200.465 228.864 200.469 228.857 200.469C228.727 200.879 228.6 201.296 228.477 201.719C228.359 202.142 228.245 202.562 228.135 202.979C228.109 203.083 228.07 203.193 228.018 203.311C227.972 203.428 227.949 203.542 227.949 203.652C227.949 203.737 227.969 203.822 228.008 203.906C228.053 203.991 228.096 204.066 228.135 204.131C228.154 204.131 228.193 204.134 228.252 204.141C228.311 204.147 228.372 204.157 228.438 204.17C228.503 204.176 228.564 204.183 228.623 204.189C228.682 204.196 228.721 204.199 228.74 204.199C228.747 204.199 228.766 204.206 228.799 204.219C228.838 204.232 228.877 204.245 228.916 204.258C228.962 204.271 229.001 204.284 229.033 204.297C229.072 204.303 229.095 204.307 229.102 204.307C229.186 204.326 229.274 204.339 229.365 204.346C229.463 204.352 229.551 204.365 229.629 204.385C229.707 204.404 229.772 204.44 229.824 204.492C229.876 204.538 229.902 204.613 229.902 204.717C229.902 204.906 229.86 205.02 229.775 205.059C229.697 205.098 229.587 205.117 229.443 205.117H229.316H228.926C228.913 205.117 228.883 205.114 228.838 205.107C228.799 205.101 228.757 205.091 228.711 205.078C228.665 205.072 228.62 205.065 228.574 205.059C228.535 205.052 228.509 205.049 228.496 205.049H227.344C227.331 205.049 227.301 205.046 227.256 205.039C227.217 205.033 227.171 205.023 227.119 205.01C227.074 205.003 227.028 204.997 226.982 204.99C226.943 204.984 226.917 204.98 226.904 204.98H226.738C226.68 204.98 226.628 204.984 226.582 204.99C226.536 204.997 226.481 205.016 226.416 205.049H225.391C225.365 205.062 225.332 205.075 225.293 205.088C225.254 205.107 225.228 205.117 225.215 205.117H225.166C225.133 205.117 225.088 205.107 225.029 205.088C224.977 205.068 224.925 205.042 224.873 205.01C224.814 204.984 224.766 204.951 224.727 204.912C224.681 204.867 224.658 204.824 224.658 204.785Z" fill="black"/>
<path d="M505.137 195.322V195.85C505.137 196.071 505.14 196.289 505.146 196.504C505.153 196.719 505.173 196.93 505.205 197.139C505.212 197.21 505.247 197.269 505.312 197.314C505.384 197.36 505.456 197.383 505.527 197.383C505.697 197.383 505.85 197.354 505.986 197.295C506.123 197.236 506.266 197.184 506.416 197.139C506.729 197.035 506.986 196.937 507.188 196.846C507.396 196.755 507.578 196.65 507.734 196.533C507.891 196.416 508.037 196.276 508.174 196.113C508.317 195.944 508.48 195.736 508.662 195.488C508.734 195.41 508.799 195.326 508.857 195.234C508.923 195.143 508.962 195.052 508.975 194.961V194.775V194.336C508.975 194.323 508.984 194.281 509.004 194.209C509.03 194.137 509.043 194.098 509.043 194.092V194.053V194.023C509.01 193.893 508.978 193.753 508.945 193.604C508.919 193.447 508.887 193.304 508.848 193.174C508.828 193.096 508.789 192.995 508.73 192.871C508.672 192.747 508.607 192.624 508.535 192.5C508.464 192.376 508.392 192.262 508.32 192.158C508.249 192.054 508.187 191.986 508.135 191.953C508.122 191.947 508.086 191.94 508.027 191.934C507.969 191.921 507.939 191.908 507.939 191.895C507.933 191.882 507.913 191.842 507.881 191.777C507.848 191.706 507.832 191.66 507.832 191.641C507.826 191.641 507.812 191.631 507.793 191.611C507.78 191.605 507.77 191.598 507.764 191.592C507.594 191.514 507.422 191.436 507.246 191.357C507.07 191.279 506.891 191.195 506.709 191.104C506.676 191.097 506.615 191.087 506.523 191.074C506.432 191.061 506.335 191.048 506.23 191.035C506.133 191.022 506.038 191.009 505.947 190.996C505.856 190.983 505.794 190.977 505.762 190.977H505.713C505.544 190.977 505.413 191.035 505.322 191.152C505.231 191.263 505.192 191.41 505.205 191.592C505.212 192.223 505.202 192.845 505.176 193.457C505.15 194.069 505.137 194.691 505.137 195.322ZM505.02 203.506C505.02 203.714 505.042 203.88 505.088 204.004C505.133 204.128 505.208 204.274 505.312 204.443C505.312 204.456 505.322 204.479 505.342 204.512C505.368 204.544 505.381 204.564 505.381 204.57C505.394 204.57 505.43 204.574 505.488 204.58C505.547 204.587 505.583 204.59 505.596 204.59C505.726 204.59 505.84 204.561 505.938 204.502C506.042 204.443 506.159 204.408 506.289 204.395C506.406 204.388 506.514 204.385 506.611 204.385C506.715 204.378 506.816 204.372 506.914 204.365C507.012 204.359 507.109 204.346 507.207 204.326C507.305 204.3 507.409 204.258 507.52 204.199C507.533 204.193 507.555 204.18 507.588 204.16C507.627 204.134 507.666 204.108 507.705 204.082C507.744 204.056 507.78 204.033 507.812 204.014C507.852 203.994 507.878 203.984 507.891 203.984C507.897 203.978 507.917 203.968 507.949 203.955C507.988 203.936 508.027 203.919 508.066 203.906C508.112 203.887 508.151 203.874 508.184 203.867C508.223 203.854 508.245 203.848 508.252 203.848C508.278 203.841 508.32 203.815 508.379 203.77C508.444 203.717 508.483 203.685 508.496 203.672C508.509 203.652 508.542 203.613 508.594 203.555C508.646 203.49 508.704 203.418 508.77 203.34C508.835 203.262 508.896 203.184 508.955 203.105C509.014 203.027 509.059 202.969 509.092 202.93C509.118 202.904 509.144 202.871 509.17 202.832C509.202 202.793 509.219 202.767 509.219 202.754C509.277 202.63 509.32 202.5 509.346 202.363C509.378 202.22 509.421 202.083 509.473 201.953V201.045C509.44 201.012 509.417 200.973 509.404 200.928C509.391 200.882 509.385 200.84 509.385 200.801C509.385 200.762 509.388 200.723 509.395 200.684C509.401 200.645 509.404 200.612 509.404 200.586V200.557C509.391 200.459 509.355 200.365 509.297 200.273C509.238 200.176 509.209 200.072 509.209 199.961C509.209 199.948 509.209 199.935 509.209 199.922C509.215 199.909 509.219 199.896 509.219 199.883C509.199 199.857 509.16 199.808 509.102 199.736C509.049 199.665 508.988 199.59 508.916 199.512C508.851 199.434 508.786 199.362 508.721 199.297C508.662 199.232 508.62 199.186 508.594 199.16C508.594 199.147 508.568 199.118 508.516 199.072C508.464 199.02 508.438 198.988 508.438 198.975C508.424 198.962 508.411 198.932 508.398 198.887C508.392 198.835 508.389 198.799 508.389 198.779C508.369 198.773 508.343 198.757 508.311 198.73C508.285 198.698 508.265 198.678 508.252 198.672C508.102 198.555 507.939 198.454 507.764 198.369C507.594 198.285 507.419 198.213 507.236 198.154C507.054 198.096 506.868 198.044 506.68 197.998C506.491 197.952 506.305 197.907 506.123 197.861C506.11 197.861 506.084 197.858 506.045 197.852C506.012 197.839 505.977 197.826 505.938 197.812C505.898 197.799 505.859 197.786 505.82 197.773C505.788 197.76 505.768 197.751 505.762 197.744C505.703 197.738 505.638 197.751 505.566 197.783C505.495 197.816 505.426 197.858 505.361 197.91C505.296 197.962 505.241 198.021 505.195 198.086C505.156 198.145 505.137 198.197 505.137 198.242V199.688C505.15 199.714 505.163 199.759 505.176 199.824C505.195 199.883 505.205 199.919 505.205 199.932V199.98V200C505.205 200.007 505.195 200.026 505.176 200.059C505.163 200.091 505.15 200.114 505.137 200.127C505.137 200.238 505.14 200.339 505.146 200.43C505.153 200.521 505.156 200.612 505.156 200.703C505.156 200.801 505.15 200.895 505.137 200.986C505.124 201.077 505.101 201.178 505.068 201.289C505.055 201.302 505.046 201.318 505.039 201.338C505.026 201.377 505.02 201.4 505.02 201.406V201.436C505.02 201.494 505.026 201.549 505.039 201.602C505.059 201.654 505.068 201.715 505.068 201.787V201.885C505.068 201.891 505.059 201.921 505.039 201.973C505.026 202.025 505.02 202.054 505.02 202.061C505.02 202.08 505.026 202.116 505.039 202.168C505.059 202.214 505.068 202.243 505.068 202.256V202.461C505.068 202.63 505.059 202.806 505.039 202.988C505.026 203.164 505.02 203.337 505.02 203.506ZM500.693 204.883C500.693 204.811 500.713 204.746 500.752 204.688C500.798 204.629 500.85 204.577 500.908 204.531C500.973 204.486 501.042 204.447 501.113 204.414C501.185 204.382 501.247 204.352 501.299 204.326C501.514 204.346 501.738 204.355 501.973 204.355C502.096 204.355 502.217 204.349 502.334 204.336C502.451 204.316 502.555 204.281 502.646 204.229C502.738 204.17 502.809 204.092 502.861 203.994C502.913 203.896 502.939 203.766 502.939 203.604V201.289C502.926 201.263 502.913 201.211 502.9 201.133C502.894 201.055 502.891 201.003 502.891 200.977V200.918V200.869C502.891 200.85 502.894 200.807 502.9 200.742C502.907 200.677 502.91 200.605 502.91 200.527C502.917 200.449 502.923 200.378 502.93 200.312C502.936 200.241 502.939 200.195 502.939 200.176C502.939 200.124 502.939 200.023 502.939 199.873C502.946 199.723 502.949 199.567 502.949 199.404C502.956 199.235 502.959 199.076 502.959 198.926C502.965 198.77 502.969 198.662 502.969 198.604V198.291C502.975 198.232 502.979 198.122 502.979 197.959C502.985 197.796 502.988 197.627 502.988 197.451C502.995 197.269 502.998 197.096 502.998 196.934C503.005 196.771 503.008 196.66 503.008 196.602C503.008 196.589 503.005 196.566 502.998 196.533C502.992 196.494 502.982 196.455 502.969 196.416C502.962 196.37 502.956 196.331 502.949 196.299C502.943 196.26 502.939 196.234 502.939 196.221V196.152V196.104C502.939 196.09 502.943 196.064 502.949 196.025C502.956 195.98 502.962 195.934 502.969 195.889C502.975 195.843 502.982 195.801 502.988 195.762C502.995 195.716 503.001 195.684 503.008 195.664V192.861C503.008 192.692 503.027 192.536 503.066 192.393C503.112 192.243 503.135 192.077 503.135 191.895C503.135 191.719 503.109 191.572 503.057 191.455C503.011 191.331 502.91 191.214 502.754 191.104C502.715 191.117 502.643 191.123 502.539 191.123C502.441 191.123 502.34 191.123 502.236 191.123C502.126 191.123 502.021 191.123 501.924 191.123C501.833 191.123 501.771 191.117 501.738 191.104C501.68 191.104 501.605 191.087 501.514 191.055C501.429 191.022 501.341 190.986 501.25 190.947C501.165 190.902 501.087 190.853 501.016 190.801C500.944 190.749 500.895 190.703 500.869 190.664C500.954 190.534 501.045 190.456 501.143 190.43C501.24 190.397 501.348 190.381 501.465 190.381H501.836C501.855 190.381 501.898 190.371 501.963 190.352C502.035 190.326 502.077 190.312 502.09 190.312C502.096 190.312 502.113 190.316 502.139 190.322C502.165 190.329 502.191 190.339 502.217 190.352C502.243 190.358 502.266 190.365 502.285 190.371C502.311 190.378 502.327 190.381 502.334 190.381H503.379C503.424 190.407 503.477 190.426 503.535 190.439C503.594 190.446 503.652 190.449 503.711 190.449H503.936H504.053L504.131 190.469C504.183 190.482 504.212 190.492 504.219 190.498H504.844H505.068C505.088 190.498 505.124 190.501 505.176 190.508C505.234 190.514 505.293 190.521 505.352 190.527C505.41 190.534 505.465 190.54 505.518 190.547C505.57 190.553 505.605 190.56 505.625 190.566L505.762 190.498H506.777C506.803 190.485 506.859 190.475 506.943 190.469C507.028 190.456 507.077 190.449 507.09 190.449L507.129 190.43C507.155 190.417 507.168 190.41 507.168 190.41C507.747 190.41 508.307 190.495 508.848 190.664L508.906 190.723C509.076 190.84 509.251 190.941 509.434 191.025C509.616 191.11 509.792 191.198 509.961 191.289L509.98 191.309C510 191.328 510.016 191.341 510.029 191.348C510.029 191.361 510.046 191.393 510.078 191.445C510.111 191.491 510.13 191.52 510.137 191.533C510.143 191.546 510.153 191.556 510.166 191.562C510.173 191.582 510.186 191.592 510.205 191.592C510.355 191.781 510.492 191.966 510.615 192.148C510.739 192.331 510.846 192.52 510.938 192.715C511.029 192.91 511.097 193.115 511.143 193.33C511.195 193.545 511.221 193.776 511.221 194.023V194.092C511.221 194.105 511.217 194.134 511.211 194.18C511.204 194.225 511.198 194.277 511.191 194.336C511.191 194.388 511.188 194.437 511.182 194.482C511.175 194.528 511.172 194.561 511.172 194.58V194.844V194.961C511.152 195.02 511.13 195.075 511.104 195.127C511.084 195.173 511.061 195.218 511.035 195.264C511.009 195.303 510.99 195.339 510.977 195.371C510.918 195.521 510.853 195.69 510.781 195.879C510.716 196.068 510.628 196.227 510.518 196.357C510.505 196.364 510.469 196.37 510.41 196.377C510.352 196.383 510.322 196.393 510.322 196.406C510.309 196.419 510.277 196.452 510.225 196.504C510.179 196.549 510.15 196.582 510.137 196.602C510.13 196.608 510.101 196.621 510.049 196.641C510.003 196.66 509.951 196.683 509.893 196.709C509.84 196.735 509.788 196.761 509.736 196.787C509.691 196.813 509.661 196.833 509.648 196.846C509.622 196.865 509.58 196.904 509.521 196.963C509.463 197.015 509.401 197.074 509.336 197.139C509.271 197.197 509.209 197.256 509.15 197.314C509.098 197.373 509.062 197.415 509.043 197.441C509.049 197.467 509.072 197.487 509.111 197.5C509.15 197.513 509.193 197.523 509.238 197.529C509.284 197.529 509.329 197.533 509.375 197.539C509.421 197.539 509.453 197.542 509.473 197.549C509.479 197.568 509.515 197.601 509.58 197.646C509.645 197.686 509.691 197.718 509.717 197.744C509.723 197.757 509.753 197.79 509.805 197.842C509.857 197.887 509.886 197.917 509.893 197.93C509.899 197.936 509.915 197.949 509.941 197.969C509.974 197.982 510.007 197.998 510.039 198.018C510.072 198.037 510.104 198.057 510.137 198.076C510.169 198.096 510.192 198.105 510.205 198.105C510.4 198.262 510.576 198.444 510.732 198.652C510.889 198.861 511.035 199.069 511.172 199.277C511.178 199.284 511.191 199.303 511.211 199.336C511.237 199.362 511.263 199.395 511.289 199.434C511.315 199.466 511.341 199.499 511.367 199.531C511.393 199.564 511.41 199.583 511.416 199.59C511.468 199.674 511.52 199.798 511.572 199.961C511.624 200.124 511.67 200.293 511.709 200.469C511.748 200.645 511.781 200.817 511.807 200.986C511.833 201.149 511.846 201.279 511.846 201.377C511.846 201.468 511.829 201.566 511.797 201.67C511.771 201.774 511.745 201.868 511.719 201.953C511.706 201.992 511.693 202.051 511.68 202.129C511.673 202.201 511.67 202.243 511.67 202.256V202.559C511.65 202.637 511.615 202.731 511.562 202.842C511.51 202.952 511.462 203.044 511.416 203.115C511.364 203.206 511.305 203.307 511.24 203.418C511.175 203.529 511.104 203.636 511.025 203.74C510.947 203.844 510.866 203.942 510.781 204.033C510.697 204.124 510.609 204.199 510.518 204.258C510.498 204.271 510.459 204.294 510.4 204.326C510.342 204.359 510.277 204.395 510.205 204.434C510.133 204.466 510.068 204.499 510.01 204.531C509.951 204.557 509.912 204.57 509.893 204.57C509.834 204.603 509.785 204.632 509.746 204.658C509.714 204.678 509.678 204.697 509.639 204.717C509.6 204.736 509.557 204.756 509.512 204.775C509.466 204.795 509.408 204.811 509.336 204.824C509.264 204.837 509.176 204.854 509.072 204.873C508.968 204.893 508.864 204.912 508.76 204.932C508.643 204.958 508.519 204.98 508.389 205H505.02C505.007 205.007 504.977 205.013 504.932 205.02C504.893 205.026 504.85 205.033 504.805 205.039C504.759 205.046 504.714 205.052 504.668 205.059C504.629 205.065 504.6 205.068 504.58 205.068H502.754C502.663 205.094 502.575 205.111 502.49 205.117C502.412 205.124 502.331 205.127 502.246 205.127H501.836H501.611C501.598 205.127 501.566 205.133 501.514 205.146C501.468 205.166 501.439 205.176 501.426 205.176H501.27C501.23 205.176 501.178 205.173 501.113 205.166C501.048 205.16 500.983 205.143 500.918 205.117C500.859 205.098 500.807 205.068 500.762 205.029C500.716 204.99 500.693 204.941 500.693 204.883Z" fill="black"/>
<path d="M782.508 204.805C782.345 204.714 782.176 204.635 782 204.57C781.831 204.505 781.661 204.417 781.492 204.307C781.479 204.307 781.456 204.297 781.424 204.277C781.391 204.251 781.359 204.225 781.326 204.199C781.294 204.173 781.261 204.147 781.229 204.121C781.202 204.095 781.186 204.076 781.18 204.062C781.095 204.01 781.01 203.965 780.926 203.926C780.841 203.887 780.763 203.841 780.691 203.789L780.066 203.164C780.053 203.151 780.021 203.128 779.969 203.096C779.923 203.063 779.897 203.047 779.891 203.047C779.891 203.001 779.868 202.979 779.822 202.979C779.731 202.848 779.63 202.721 779.52 202.598C779.415 202.467 779.318 202.327 779.227 202.178C779.22 202.178 779.201 202.145 779.168 202.08C779.142 202.015 779.126 201.966 779.119 201.934C778.813 201.335 778.543 200.726 778.309 200.107C778.302 200.101 778.279 200.062 778.24 199.99C778.201 199.919 778.182 199.876 778.182 199.863V199.492C778.162 199.284 778.136 199.085 778.104 198.896C778.077 198.701 778.064 198.499 778.064 198.291V197.979C778.071 197.913 778.077 197.799 778.084 197.637C778.097 197.467 778.11 197.288 778.123 197.1C778.136 196.911 778.146 196.735 778.152 196.572C778.165 196.403 778.175 196.283 778.182 196.211C778.195 196.029 778.234 195.859 778.299 195.703C778.37 195.547 778.436 195.387 778.494 195.225C778.494 195.218 778.497 195.202 778.504 195.176C778.51 195.15 778.517 195.12 778.523 195.088C778.53 195.049 778.536 195.016 778.543 194.99C778.549 194.958 778.553 194.935 778.553 194.922C778.559 194.909 778.569 194.88 778.582 194.834C778.602 194.782 778.621 194.73 778.641 194.678C778.667 194.626 778.686 194.577 778.699 194.531C778.719 194.479 778.732 194.447 778.738 194.434C778.738 194.427 778.742 194.411 778.748 194.385C778.755 194.352 778.761 194.32 778.768 194.287C778.774 194.248 778.781 194.215 778.787 194.189C778.794 194.157 778.8 194.134 778.807 194.121C778.807 194.115 778.82 194.098 778.846 194.072C778.878 194.046 778.911 194.017 778.943 193.984C778.982 193.945 779.018 193.913 779.051 193.887C779.083 193.854 779.106 193.835 779.119 193.828C779.269 193.646 779.412 193.46 779.549 193.271C779.692 193.083 779.848 192.9 780.018 192.725C780.33 192.386 780.652 192.077 780.984 191.797C781.316 191.517 781.704 191.302 782.146 191.152C782.192 191.133 782.244 191.107 782.303 191.074C782.368 191.042 782.433 191.009 782.498 190.977C782.563 190.944 782.628 190.915 782.693 190.889C782.765 190.863 782.83 190.846 782.889 190.84H783.133C783.146 190.84 783.182 190.833 783.24 190.82C783.299 190.801 783.344 190.785 783.377 190.771C783.403 190.765 783.449 190.752 783.514 190.732C783.585 190.706 783.66 190.68 783.738 190.654C783.816 190.628 783.891 190.605 783.963 190.586C784.035 190.56 784.087 190.54 784.119 190.527H785.32C785.516 190.527 785.675 190.531 785.799 190.537C785.923 190.544 786.023 190.55 786.102 190.557C786.18 190.563 786.238 190.57 786.277 190.576C786.316 190.583 786.346 190.589 786.365 190.596C786.398 190.602 786.482 190.625 786.619 190.664C786.756 190.697 786.902 190.736 787.059 190.781C787.215 190.82 787.361 190.859 787.498 190.898C787.635 190.931 787.723 190.951 787.762 190.957C787.788 190.957 787.843 190.967 787.928 190.986C788.012 190.999 788.061 191.012 788.074 191.025C788.081 191.025 788.1 191.038 788.133 191.064C788.172 191.09 788.211 191.12 788.25 191.152C788.289 191.178 788.325 191.204 788.357 191.23C788.396 191.25 788.423 191.263 788.436 191.27C788.449 191.27 788.488 191.279 788.553 191.299C788.624 191.318 788.667 191.331 788.68 191.338C788.732 191.377 788.781 191.426 788.826 191.484C788.872 191.536 788.917 191.589 788.963 191.641C789.015 191.693 789.067 191.738 789.119 191.777C789.178 191.81 789.246 191.826 789.324 191.826C789.402 191.826 789.467 191.771 789.52 191.66C789.578 191.549 789.633 191.429 789.686 191.299C789.738 191.169 789.793 191.048 789.852 190.938C789.91 190.827 789.985 190.771 790.076 190.771C790.141 190.771 790.193 190.807 790.232 190.879C790.278 190.944 790.311 191.022 790.33 191.113C790.356 191.204 790.372 191.296 790.379 191.387C790.385 191.478 790.389 191.543 790.389 191.582C790.389 191.641 790.385 191.689 790.379 191.729C790.372 191.761 790.353 191.803 790.32 191.855V194.678C790.32 194.808 790.294 194.928 790.242 195.039C790.197 195.143 790.102 195.205 789.959 195.225C789.926 195.231 789.894 195.221 789.861 195.195C789.829 195.169 789.799 195.14 789.773 195.107C789.747 195.068 789.721 195.033 789.695 195C789.676 194.961 789.66 194.935 789.646 194.922C789.646 194.909 789.617 194.88 789.559 194.834C789.507 194.782 789.477 194.746 789.471 194.727C789.451 194.701 789.419 194.658 789.373 194.6C789.334 194.541 789.292 194.482 789.246 194.424C789.207 194.359 789.168 194.297 789.129 194.238C789.09 194.18 789.067 194.141 789.061 194.121C788.976 193.997 788.914 193.861 788.875 193.711C788.842 193.555 788.777 193.411 788.68 193.281C788.569 193.132 788.458 193.008 788.348 192.91C788.243 192.812 788.13 192.708 788.006 192.598C787.863 192.474 787.739 192.363 787.635 192.266C787.531 192.161 787.426 192.07 787.322 191.992C787.218 191.914 787.101 191.846 786.971 191.787C786.847 191.722 786.691 191.663 786.502 191.611C786.255 191.553 785.997 191.497 785.73 191.445C785.47 191.393 785.216 191.367 784.969 191.367C784.839 191.367 784.712 191.39 784.588 191.436C784.471 191.481 784.354 191.54 784.236 191.611C784.119 191.676 784.002 191.751 783.885 191.836C783.774 191.914 783.667 191.986 783.562 192.051C783.471 192.109 783.377 192.148 783.279 192.168C783.182 192.188 783.09 192.233 783.006 192.305C782.83 192.454 782.667 192.62 782.518 192.803C782.374 192.985 782.208 193.145 782.02 193.281C782.007 193.294 781.987 193.317 781.961 193.35C781.935 193.376 781.915 193.392 781.902 193.398C781.902 193.411 781.883 193.46 781.844 193.545C781.805 193.63 781.782 193.685 781.775 193.711C781.749 193.757 781.71 193.812 781.658 193.877C781.613 193.936 781.564 193.997 781.512 194.062C781.466 194.121 781.421 194.183 781.375 194.248C781.336 194.313 781.31 194.375 781.297 194.434C781.258 194.603 781.232 194.769 781.219 194.932C781.206 195.088 781.173 195.251 781.121 195.42C781.069 195.557 781.02 195.693 780.975 195.83C780.929 195.96 780.893 196.107 780.867 196.27C780.854 196.354 780.844 196.462 780.838 196.592C780.838 196.722 780.812 196.833 780.76 196.924C780.747 196.969 780.737 197.048 780.73 197.158C780.724 197.269 780.717 197.386 780.711 197.51C780.704 197.633 780.698 197.751 780.691 197.861C780.691 197.972 780.691 198.05 780.691 198.096C780.691 198.291 780.708 198.496 780.74 198.711C780.779 198.926 780.825 199.144 780.877 199.365C780.936 199.587 780.997 199.805 781.062 200.02C781.128 200.228 781.189 200.423 781.248 200.605C781.248 200.612 781.251 200.638 781.258 200.684C781.271 200.729 781.284 200.781 781.297 200.84C781.31 200.892 781.323 200.944 781.336 200.996C781.349 201.042 781.359 201.074 781.365 201.094C781.365 201.113 781.382 201.149 781.414 201.201C781.453 201.253 781.492 201.312 781.531 201.377C781.577 201.436 781.619 201.491 781.658 201.543C781.697 201.589 781.723 201.615 781.736 201.621C781.743 201.634 781.756 201.663 781.775 201.709C781.801 201.748 781.824 201.794 781.844 201.846C781.87 201.891 781.893 201.937 781.912 201.982C781.938 202.021 781.951 202.048 781.951 202.061C782.042 202.171 782.13 202.269 782.215 202.354C782.299 202.438 782.384 202.516 782.469 202.588C782.56 202.66 782.651 202.731 782.742 202.803C782.84 202.874 782.947 202.956 783.064 203.047L783.25 203.232C783.361 203.285 783.497 203.356 783.66 203.447C783.829 203.532 783.96 203.646 784.051 203.789C784.35 203.815 784.64 203.864 784.92 203.936C785.206 204.001 785.503 204.033 785.809 204.033H786.004C786.095 204.033 786.183 204.03 786.268 204.023C786.352 204.017 786.447 203.991 786.551 203.945C786.557 203.945 786.57 203.942 786.59 203.936C786.616 203.923 786.642 203.91 786.668 203.896C786.694 203.877 786.717 203.864 786.736 203.857C786.756 203.844 786.769 203.838 786.775 203.838C786.795 203.831 786.84 203.818 786.912 203.799C786.99 203.779 787.068 203.76 787.146 203.74C787.231 203.721 787.309 203.704 787.381 203.691C787.452 203.672 787.498 203.659 787.518 203.652C787.524 203.652 787.55 203.636 787.596 203.604C787.648 203.571 787.68 203.548 787.693 203.535C787.7 203.529 787.716 203.516 787.742 203.496C787.768 203.47 787.794 203.447 787.82 203.428C787.853 203.402 787.879 203.382 787.898 203.369C787.924 203.35 787.938 203.34 787.938 203.34C787.957 203.333 787.99 203.324 788.035 203.311C788.087 203.298 788.123 203.291 788.143 203.291C788.149 203.278 788.156 203.268 788.162 203.262L788.191 203.232C788.217 203.2 788.253 203.151 788.299 203.086C788.351 203.021 788.403 202.956 788.455 202.891C788.507 202.826 788.553 202.767 788.592 202.715C788.637 202.656 788.667 202.62 788.68 202.607C788.686 202.601 788.706 202.578 788.738 202.539C788.771 202.493 788.803 202.448 788.836 202.402C788.868 202.35 788.901 202.305 788.934 202.266C788.966 202.22 788.986 202.191 788.992 202.178C788.999 202.171 789.012 202.158 789.031 202.139C789.057 202.119 789.083 202.096 789.109 202.07C789.135 202.044 789.158 202.018 789.178 201.992C789.204 201.966 789.217 201.947 789.217 201.934C789.23 201.934 789.243 201.908 789.256 201.855C789.275 201.797 789.285 201.761 789.285 201.748C789.292 201.735 789.308 201.702 789.334 201.65C789.36 201.598 789.386 201.543 789.412 201.484C789.438 201.419 789.461 201.361 789.48 201.309C789.507 201.257 789.523 201.224 789.529 201.211C789.536 201.198 789.546 201.169 789.559 201.123C789.572 201.071 789.585 201.019 789.598 200.967C789.611 200.915 789.62 200.866 789.627 200.82C789.64 200.768 789.646 200.736 789.646 200.723C789.66 200.697 789.676 200.664 789.695 200.625C789.715 200.579 789.734 200.537 789.754 200.498C789.78 200.459 789.809 200.426 789.842 200.4C789.881 200.374 789.92 200.361 789.959 200.361C789.992 200.361 790.024 200.365 790.057 200.371C790.096 200.371 790.125 200.387 790.145 200.42C790.158 200.439 790.174 200.469 790.193 200.508C790.213 200.547 790.232 200.586 790.252 200.625C790.271 200.664 790.288 200.7 790.301 200.732C790.314 200.758 790.32 200.775 790.32 200.781C790.32 200.794 790.314 200.827 790.301 200.879C790.294 200.931 790.285 200.99 790.271 201.055C790.258 201.12 790.245 201.182 790.232 201.24C790.219 201.292 790.21 201.325 790.203 201.338C790.184 201.449 790.161 201.579 790.135 201.729C790.109 201.872 790.083 202.021 790.057 202.178C790.037 202.334 790.018 202.49 789.998 202.646C789.979 202.796 789.965 202.93 789.959 203.047V203.477V203.652C789.946 203.698 789.93 203.737 789.91 203.77C789.897 203.802 789.884 203.835 789.871 203.867C789.858 203.9 789.845 203.926 789.832 203.945C789.812 204.004 789.799 204.043 789.793 204.062C789.793 204.076 789.767 204.082 789.715 204.082C789.656 204.082 789.607 204.046 789.568 203.975C789.536 203.903 789.5 203.825 789.461 203.74C789.428 203.649 789.386 203.568 789.334 203.496C789.288 203.424 789.223 203.389 789.139 203.389C789.074 203.389 789.041 203.392 789.041 203.398C789.048 203.405 789.031 203.431 788.992 203.477C788.725 203.698 788.452 203.896 788.172 204.072C787.892 204.242 787.592 204.382 787.273 204.492C787.13 204.557 786.993 204.629 786.863 204.707C786.733 204.785 786.59 204.84 786.434 204.873C786.323 204.886 786.209 204.899 786.092 204.912C785.975 204.919 785.88 204.964 785.809 205.049L784.402 205.176C784.103 205.065 783.79 204.987 783.465 204.941C783.139 204.889 782.82 204.844 782.508 204.805Z" fill="black"/>
</g>
<defs>
<clipPath id="clip0_607_1694">
<rect y="430" width="430" height="932" rx="3" transform="rotate(-90 0 430)" fill="white"/>
</clipPath>
</defs>
</svg>
