<svg width="932" height="430" viewBox="0 0 932 430" fill="none" xmlns="http://www.w3.org/2000/svg">
<g clip-path="url(#clip0_607_1694)">
<rect y="430" width="430" height="932" rx="3" transform="rotate(-90 0 430)" fill="#CCBF95"/>
<rect y="267" width="932" height="107" fill="#554435"/>
<rect x="9.5" y="283.5" width="914" height="78" stroke="#785F48" stroke-width="3"/>
<rect x="12.5" y="285.5" width="908" height="74" stroke="#64503E" stroke-width="3"/>
<rect y="372" width="932" height="58" fill="#21494B" fill-opacity="0.59"/>
<rect x="-2" y="263" width="942" height="7" fill="#77604A"/>
<rect width="95.5273" height="193.242" transform="matrix(-1 0 0 1 900.251 177.742)" fill="#6E5643"/>
<path fill-rule="evenodd" clip-rule="evenodd" d="M891.49 186.508H890.031V186.524H814.921V186.508H813.463V371H814.921V187.982H890.031V370.999H891.49V186.508Z" fill="#452910" fill-opacity="0.71"/>
<rect x="-2" y="2" width="62.7572" height="75.0546" transform="matrix(-1 0 0 1 881.536 281.387)" stroke="#452910" stroke-opacity="0.67" stroke-width="4"/>
<rect x="-2" y="2" width="62.7572" height="71.5409" transform="matrix(-1 0 0 1 881.536 190.031)" stroke="#452910" stroke-opacity="0.67" stroke-width="4"/>
<ellipse cx="2.18767" cy="2.18767" rx="2.18767" ry="2.18767" transform="matrix(-1 0 0 1 825.099 271.908)" fill="#E9B42E"/>
<rect width="9.4799" height="1.45845" transform="matrix(-1 0 0 1 832.379 273.354)" fill="#E9B42E"/>
<ellipse cx="2.18767" cy="2.18767" rx="2.18767" ry="2.18767" transform="matrix(-1 0 0 1 825.098 272.643)" fill="#E9B42E" fill-opacity="0.37"/>
<rect width="9.4799" height="1.45845" transform="matrix(-1 0 0 1 832.379 274.082)" fill="#E9B42E" fill-opacity="0.37"/>
<path d="M832.379 273.116H825.479C824.931 273.116 824.401 272.924 823.981 272.573L823.743 272.373C822.935 271.697 821.741 271.764 821.013 272.525V272.525C820.401 273.165 820.282 274.129 820.72 274.898L820.76 274.969C821.38 276.058 822.806 276.37 823.824 275.64L824.022 275.498C824.418 275.214 824.893 275.061 825.38 275.061H832.379" stroke="#CE9E23"/>
<rect width="0.729223" height="1.45845" transform="matrix(-1 0 0 1 832.379 273.354)" fill="#CE9E23"/>
<path d="M839.724 222H837.595C835.938 222 834.595 223.343 834.595 225V231.574C834.595 233.078 835.814 234.297 837.318 234.297H838.46C839.333 234.297 840.041 235.005 840.041 235.878C840.041 236.751 840.749 237.459 841.622 237.459H863.461C864.362 237.459 865.092 236.729 865.092 235.828C865.092 234.967 865.761 234.254 866.62 234.2L867.85 234.121C869.401 234.023 870.608 232.736 870.608 231.182V225C870.608 223.343 869.265 222 867.608 222H866.216C865.149 222 864.284 221.134 864.284 220.067C864.284 219 863.419 218.135 862.352 218.135H843.589C842.522 218.135 841.657 219 841.657 220.067C841.657 221.134 840.792 222 839.724 222Z" fill="#C7A96F"/>
<path d="M843.374 236.581L855.672 218.135H862.699L856.55 237.459H843.374V236.581Z" fill="#C49D51"/>
<rect x="804.724" y="177" width="95.5456" height="0.72383" fill="black"/>
<rect x="900.269" y="370.986" width="193.984" height="0.723822" transform="rotate(-90 900.269 370.986)" fill="black"/>
<rect x="804" y="370.986" width="193.984" height="0.723822" transform="rotate(-90 804 370.986)" fill="black"/>
<rect width="95.5273" height="193.242" transform="matrix(-1 0 0 1 676.251 177.742)" fill="#6E5643"/>
<path fill-rule="evenodd" clip-rule="evenodd" d="M667.49 186.508H666.031V186.524H590.921V186.508H589.463V371H590.921V187.982H666.031V370.999H667.49V186.508Z" fill="#452910" fill-opacity="0.71"/>
<rect x="-2" y="2" width="62.7572" height="75.0546" transform="matrix(-1 0 0 1 657.536 281.387)" stroke="#452910" stroke-opacity="0.67" stroke-width="4"/>
<rect x="-2" y="2" width="62.7572" height="71.5409" transform="matrix(-1 0 0 1 657.536 190.031)" stroke="#452910" stroke-opacity="0.67" stroke-width="4"/>
<ellipse cx="2.18767" cy="2.18767" rx="2.18767" ry="2.18767" transform="matrix(-1 0 0 1 601.099 271.908)" fill="#E9B42E"/>
<rect width="9.4799" height="1.45845" transform="matrix(-1 0 0 1 608.379 273.354)" fill="#E9B42E"/>
<ellipse cx="2.18767" cy="2.18767" rx="2.18767" ry="2.18767" transform="matrix(-1 0 0 1 601.098 272.643)" fill="#E9B42E" fill-opacity="0.37"/>
<rect width="9.4799" height="1.45845" transform="matrix(-1 0 0 1 608.379 274.082)" fill="#E9B42E" fill-opacity="0.37"/>
<path d="M608.379 273.116H601.478C600.931 273.116 600.401 272.924 599.981 272.573L599.743 272.373C598.935 271.697 597.741 271.764 597.013 272.525V272.525C596.401 273.165 596.282 274.129 596.72 274.898L596.76 274.969C597.38 276.058 598.806 276.37 599.824 275.64L600.022 275.498C600.418 275.214 600.893 275.061 601.38 275.061H608.379" stroke="#CE9E23"/>
<rect width="0.729223" height="1.45845" transform="matrix(-1 0 0 1 608.379 273.354)" fill="#CE9E23"/>
<path d="M615.724 222H613.595C611.938 222 610.595 223.343 610.595 225V231.574C610.595 233.078 611.814 234.297 613.318 234.297H614.46C615.333 234.297 616.041 235.005 616.041 235.878C616.041 236.751 616.749 237.459 617.622 237.459H639.461C640.362 237.459 641.092 236.729 641.092 235.828C641.092 234.967 641.761 234.254 642.62 234.2L643.85 234.121C645.401 234.023 646.608 232.736 646.608 231.182V225C646.608 223.343 645.265 222 643.608 222H642.216C641.149 222 640.284 221.134 640.284 220.067C640.284 219 639.419 218.135 638.352 218.135H619.589C618.522 218.135 617.657 219 617.657 220.067C617.657 221.134 616.792 222 615.724 222Z" fill="#C7A96F"/>
<path d="M619.374 236.581L631.672 218.135H638.699L632.55 237.459H619.374V236.581Z" fill="#C49D51"/>
<rect x="580.724" y="177" width="95.5456" height="0.72383" fill="black"/>
<rect x="676.269" y="370.986" width="193.984" height="0.723822" transform="rotate(-90 676.269 370.986)" fill="black"/>
<rect x="580" y="370.986" width="193.984" height="0.723822" transform="rotate(-90 580 370.986)" fill="black"/>
<rect width="95.5273" height="193.242" transform="matrix(-1 0 0 1 445.251 177.742)" fill="#6E5643"/>
<path fill-rule="evenodd" clip-rule="evenodd" d="M436.49 186.508H435.031V186.524H359.921V186.508H358.463V371H359.921V187.982H435.031V370.999H436.49V186.508Z" fill="#452910" fill-opacity="0.71"/>
<rect x="-2" y="2" width="62.7572" height="75.0546" transform="matrix(-1 0 0 1 426.536 281.387)" stroke="#452910" stroke-opacity="0.67" stroke-width="4"/>
<rect x="-2" y="2" width="62.7572" height="71.5409" transform="matrix(-1 0 0 1 426.536 190.031)" stroke="#452910" stroke-opacity="0.67" stroke-width="4"/>
<ellipse cx="2.18767" cy="2.18767" rx="2.18767" ry="2.18767" transform="matrix(-1 0 0 1 370.099 271.908)" fill="#E9B42E"/>
<rect width="9.4799" height="1.45845" transform="matrix(-1 0 0 1 377.379 273.354)" fill="#E9B42E"/>
<ellipse cx="2.18767" cy="2.18767" rx="2.18767" ry="2.18767" transform="matrix(-1 0 0 1 370.098 272.643)" fill="#E9B42E" fill-opacity="0.37"/>
<rect width="9.4799" height="1.45845" transform="matrix(-1 0 0 1 377.379 274.082)" fill="#E9B42E" fill-opacity="0.37"/>
<path d="M377.379 273.116H370.478C369.931 273.116 369.401 272.924 368.981 272.573L368.743 272.373C367.935 271.697 366.741 271.764 366.013 272.525V272.525C365.401 273.165 365.282 274.129 365.72 274.898L365.76 274.969C366.38 276.058 367.806 276.37 368.824 275.64L369.022 275.498C369.418 275.214 369.893 275.061 370.38 275.061H377.379" stroke="#CE9E23"/>
<rect width="0.729223" height="1.45845" transform="matrix(-1 0 0 1 377.379 273.354)" fill="#CE9E23"/>
<path d="M384.724 222H382.595C380.938 222 379.595 223.343 379.595 225V231.574C379.595 233.078 380.814 234.297 382.318 234.297H383.46C384.333 234.297 385.041 235.005 385.041 235.878C385.041 236.751 385.749 237.459 386.622 237.459H408.461C409.362 237.459 410.092 236.729 410.092 235.828C410.092 234.967 410.761 234.254 411.62 234.2L412.85 234.121C414.401 234.023 415.608 232.736 415.608 231.182V225C415.608 223.343 414.265 222 412.608 222H411.216C410.149 222 409.284 221.134 409.284 220.067C409.284 219 408.419 218.135 407.352 218.135H388.589C387.522 218.135 386.657 219 386.657 220.067C386.657 221.134 385.792 222 384.724 222Z" fill="#C7A96F"/>
<path d="M388.374 236.581L400.672 218.135H407.699L401.55 237.459H388.374V236.581Z" fill="#C49D51"/>
<rect x="349.724" y="177" width="95.5456" height="0.72383" fill="black"/>
<rect x="445.269" y="370.986" width="193.984" height="0.723822" transform="rotate(-90 445.269 370.986)" fill="black"/>
<rect x="349" y="370.986" width="193.984" height="0.723822" transform="rotate(-90 349 370.986)" fill="black"/>
<rect width="95.5273" height="193.242" transform="matrix(-1 0 0 1 226.251 177.742)" fill="#6E5643"/>
<path fill-rule="evenodd" clip-rule="evenodd" d="M217.49 186.508H216.031V186.524H140.921V186.508H139.463V371H140.921V187.982H216.031V370.999H217.49V186.508Z" fill="#452910" fill-opacity="0.71"/>
<rect x="-2" y="2" width="62.7572" height="75.0546" transform="matrix(-1 0 0 1 207.536 281.387)" stroke="#452910" stroke-opacity="0.67" stroke-width="4"/>
<rect x="-2" y="2" width="62.7572" height="71.5409" transform="matrix(-1 0 0 1 207.536 190.031)" stroke="#452910" stroke-opacity="0.67" stroke-width="4"/>
<ellipse cx="2.18767" cy="2.18767" rx="2.18767" ry="2.18767" transform="matrix(-1 0 0 1 151.099 271.908)" fill="#E9B42E"/>
<rect width="9.4799" height="1.45845" transform="matrix(-1 0 0 1 158.379 273.354)" fill="#E9B42E"/>
<ellipse cx="2.18767" cy="2.18767" rx="2.18767" ry="2.18767" transform="matrix(-1 0 0 1 151.098 272.643)" fill="#E9B42E" fill-opacity="0.37"/>
<rect width="9.4799" height="1.45845" transform="matrix(-1 0 0 1 158.379 274.082)" fill="#E9B42E" fill-opacity="0.37"/>
<path d="M158.379 273.116H151.478C150.931 273.116 150.401 272.924 149.981 272.573L149.743 272.373C148.935 271.697 147.741 271.764 147.013 272.525V272.525C146.401 273.165 146.282 274.129 146.72 274.898L146.76 274.969C147.38 276.058 148.806 276.37 149.824 275.64L150.022 275.498C150.418 275.214 150.893 275.061 151.38 275.061H158.379" stroke="#CE9E23"/>
<rect width="0.729223" height="1.45845" transform="matrix(-1 0 0 1 158.379 273.354)" fill="#CE9E23"/>
<path d="M165.724 222H163.595C161.938 222 160.595 223.343 160.595 225V231.574C160.595 233.078 161.814 234.297 163.318 234.297H164.46C165.333 234.297 166.041 235.005 166.041 235.878C166.041 236.751 166.749 237.459 167.622 237.459H189.461C190.362 237.459 191.092 236.729 191.092 235.828C191.092 234.967 191.761 234.254 192.62 234.2L193.85 234.121C195.401 234.023 196.608 232.736 196.608 231.182V225C196.608 223.343 195.265 222 193.608 222H192.216C191.149 222 190.284 221.134 190.284 220.067C190.284 219 189.419 218.135 188.352 218.135H169.589C168.522 218.135 167.657 219 167.657 220.067C167.657 221.134 166.792 222 165.724 222Z" fill="#C7A96F"/>
<path d="M169.374 236.581L181.672 218.135H188.699L182.55 237.459H169.374V236.581Z" fill="#C49D51"/>
<rect x="130.724" y="177" width="95.5456" height="0.72383" fill="black"/>
<rect x="226.269" y="370.986" width="193.984" height="0.723822" transform="rotate(-90 226.269 370.986)" fill="black"/>
<rect x="130" y="370.986" width="193.984" height="0.723822" transform="rotate(-90 130 370.986)" fill="black"/>
<path d="M176.414 228.434C176.59 228.46 176.779 228.482 176.98 228.502C177.182 228.515 177.384 228.525 177.586 228.531C177.794 228.538 177.996 228.544 178.191 228.551C178.393 228.551 178.579 228.551 178.748 228.551H178.943C179.041 228.551 179.122 228.538 179.188 228.512C179.253 228.479 179.285 228.404 179.285 228.287C179.285 228.157 179.253 228.03 179.188 227.906C179.129 227.783 179.08 227.659 179.041 227.535C178.969 227.288 178.901 227.037 178.836 226.783C178.777 226.529 178.702 226.288 178.611 226.061C178.611 226.048 178.592 226.008 178.553 225.943C178.514 225.872 178.491 225.829 178.484 225.816C178.478 225.797 178.468 225.758 178.455 225.699C178.449 225.641 178.439 225.576 178.426 225.504C178.413 225.432 178.4 225.367 178.387 225.309C178.38 225.25 178.374 225.211 178.367 225.191C178.367 225.185 178.357 225.159 178.338 225.113C178.318 225.061 178.292 225.006 178.26 224.947C178.234 224.882 178.208 224.817 178.182 224.752C178.156 224.687 178.136 224.635 178.123 224.596C178.123 224.596 178.117 224.583 178.104 224.557C178.09 224.531 178.077 224.505 178.064 224.479C178.051 224.446 178.038 224.42 178.025 224.4C178.012 224.374 178.006 224.358 178.006 224.352C177.973 224.293 177.951 224.228 177.938 224.156C177.924 224.085 177.908 224.016 177.889 223.951C177.876 223.886 177.856 223.824 177.83 223.766C177.804 223.707 177.765 223.658 177.713 223.619H177.664C177.573 223.619 177.495 223.694 177.43 223.844C177.371 223.993 177.319 224.163 177.273 224.352C177.228 224.54 177.189 224.726 177.156 224.908C177.13 225.084 177.107 225.201 177.088 225.26C177.075 225.299 177.055 225.364 177.029 225.455C177.003 225.546 176.984 225.602 176.971 225.621C176.899 225.901 176.821 226.181 176.736 226.461C176.658 226.734 176.59 227.011 176.531 227.291C176.531 227.298 176.528 227.324 176.521 227.369C176.521 227.408 176.518 227.454 176.512 227.506C176.505 227.551 176.499 227.597 176.492 227.643C176.486 227.682 176.482 227.708 176.482 227.721C176.463 227.773 176.44 227.812 176.414 227.838C176.395 227.864 176.375 227.893 176.355 227.926C176.336 227.952 176.32 227.984 176.307 228.023C176.294 228.056 176.287 228.102 176.287 228.16V228.229C176.287 228.281 176.294 228.326 176.307 228.365C176.32 228.398 176.355 228.421 176.414 228.434ZM171.658 233.785C171.658 233.733 171.678 233.678 171.717 233.619C171.756 233.561 171.795 233.518 171.834 233.492C171.847 233.492 171.896 233.489 171.98 233.482C172.065 233.469 172.12 233.456 172.146 233.443C172.303 233.398 172.446 233.342 172.576 233.277C172.706 233.206 172.843 233.134 172.986 233.062C173.13 233.004 173.253 232.958 173.357 232.926C173.462 232.893 173.553 232.854 173.631 232.809C173.715 232.763 173.794 232.701 173.865 232.623C173.943 232.545 174.021 232.434 174.1 232.291C174.145 232.206 174.171 232.099 174.178 231.969C174.191 231.839 174.204 231.738 174.217 231.666C174.217 231.66 174.227 231.643 174.246 231.617C174.272 231.585 174.285 231.565 174.285 231.559C174.292 231.533 174.301 231.497 174.314 231.451C174.334 231.406 174.344 231.376 174.344 231.363C174.344 231.357 174.344 231.334 174.344 231.295C174.35 231.256 174.357 231.217 174.363 231.178C174.37 231.139 174.376 231.103 174.383 231.07C174.389 231.031 174.393 231.008 174.393 231.002C174.399 230.989 174.409 230.973 174.422 230.953C174.428 230.94 174.435 230.927 174.441 230.914C174.448 230.895 174.454 230.878 174.461 230.865C174.5 230.8 174.542 230.715 174.588 230.611C174.64 230.507 174.689 230.396 174.734 230.279C174.78 230.162 174.822 230.051 174.861 229.947C174.9 229.837 174.93 229.742 174.949 229.664C174.995 229.469 175.053 229.273 175.125 229.078C175.203 228.883 175.271 228.688 175.33 228.492C175.356 228.362 175.382 228.222 175.408 228.072C175.434 227.923 175.464 227.783 175.496 227.652C175.509 227.633 175.529 227.584 175.555 227.506C175.581 227.421 175.6 227.366 175.613 227.34C175.62 227.327 175.643 227.298 175.682 227.252C175.721 227.2 175.74 227.167 175.74 227.154C175.747 227.148 175.75 227.132 175.75 227.105C175.757 227.073 175.763 227.04 175.77 227.008C175.776 226.969 175.779 226.936 175.779 226.91C175.786 226.878 175.789 226.858 175.789 226.852C175.802 226.826 175.815 226.786 175.828 226.734C175.848 226.676 175.864 226.62 175.877 226.568C175.89 226.516 175.9 226.471 175.906 226.432C175.919 226.386 175.926 226.36 175.926 226.354C175.926 226.347 175.936 226.324 175.955 226.285C175.975 226.24 175.994 226.194 176.014 226.148C176.033 226.096 176.049 226.051 176.062 226.012C176.082 225.966 176.095 225.937 176.102 225.924C176.115 225.911 176.134 225.868 176.16 225.797C176.186 225.725 176.212 225.65 176.238 225.572C176.264 225.488 176.287 225.41 176.307 225.338C176.333 225.26 176.346 225.211 176.346 225.191C176.372 225.126 176.398 225.042 176.424 224.938C176.456 224.833 176.492 224.729 176.531 224.625C176.57 224.514 176.616 224.413 176.668 224.322C176.72 224.225 176.779 224.153 176.844 224.107C176.87 223.945 176.912 223.792 176.971 223.648C177.029 223.499 177.091 223.355 177.156 223.219C177.221 223.076 177.277 222.932 177.322 222.789C177.374 222.639 177.4 222.483 177.4 222.32C177.4 222.184 177.378 222.076 177.332 221.998C177.293 221.92 177.247 221.858 177.195 221.812C177.15 221.76 177.104 221.712 177.059 221.666C177.02 221.62 177 221.559 177 221.48C177 221.467 177.003 221.448 177.01 221.422C177.016 221.389 177.02 221.367 177.02 221.354C177.111 221.301 177.215 221.256 177.332 221.217C177.449 221.178 177.563 221.135 177.674 221.09C177.791 221.038 177.895 220.976 177.986 220.904C178.077 220.826 178.139 220.729 178.172 220.611C178.178 220.598 178.191 220.562 178.211 220.504C178.23 220.445 178.25 220.383 178.27 220.318C178.289 220.253 178.309 220.191 178.328 220.133C178.348 220.074 178.361 220.038 178.367 220.025C178.38 219.967 178.406 219.908 178.445 219.85C178.491 219.791 178.546 219.762 178.611 219.762C178.618 219.762 178.621 219.765 178.621 219.771C178.628 219.771 178.634 219.771 178.641 219.771H178.66C178.68 219.785 178.702 219.807 178.729 219.84C178.761 219.866 178.794 219.895 178.826 219.928C178.865 219.96 178.898 219.993 178.924 220.025C178.95 220.051 178.966 220.071 178.973 220.084C178.986 220.084 178.999 220.107 179.012 220.152C179.031 220.191 179.041 220.224 179.041 220.25C179.041 220.276 179.051 220.331 179.07 220.416C179.09 220.501 179.109 220.592 179.129 220.689C179.148 220.781 179.168 220.868 179.188 220.953C179.207 221.038 179.217 221.09 179.217 221.109C179.223 221.135 179.243 221.197 179.275 221.295C179.308 221.393 179.34 221.497 179.373 221.607C179.412 221.712 179.448 221.812 179.48 221.91C179.513 222.001 179.529 222.06 179.529 222.086C179.588 222.294 179.646 222.519 179.705 222.76C179.764 223.001 179.826 223.225 179.891 223.434C179.891 223.44 179.897 223.463 179.91 223.502C179.93 223.535 179.949 223.574 179.969 223.619C179.995 223.658 180.018 223.697 180.037 223.736C180.063 223.769 180.079 223.788 180.086 223.795C180.138 223.919 180.167 224.052 180.174 224.195C180.187 224.332 180.219 224.465 180.271 224.596C180.402 225.006 180.535 225.403 180.672 225.787C180.809 226.171 180.932 226.568 181.043 226.979C181.049 226.998 181.059 227.037 181.072 227.096C181.085 227.154 181.098 227.219 181.111 227.291C181.124 227.356 181.137 227.418 181.15 227.477C181.163 227.535 181.17 227.571 181.17 227.584C181.176 227.597 181.189 227.626 181.209 227.672C181.229 227.711 181.248 227.753 181.268 227.799C181.294 227.844 181.313 227.887 181.326 227.926C181.346 227.965 181.355 227.988 181.355 227.994C181.355 228.007 181.359 228.036 181.365 228.082C181.372 228.121 181.378 228.167 181.385 228.219C181.391 228.264 181.398 228.31 181.404 228.355C181.411 228.395 181.414 228.421 181.414 228.434C181.421 228.46 181.434 228.518 181.453 228.609C181.479 228.701 181.505 228.798 181.531 228.902C181.564 229 181.593 229.094 181.619 229.186C181.645 229.277 181.661 229.335 181.668 229.361C181.74 229.622 181.821 229.879 181.912 230.133C182.01 230.387 182.091 230.654 182.156 230.934C182.208 231.181 182.257 231.422 182.303 231.656C182.355 231.884 182.426 232.112 182.518 232.34C182.557 232.438 182.592 232.545 182.625 232.662C182.658 232.773 182.703 232.867 182.762 232.945C182.833 233.056 182.924 233.147 183.035 233.219C183.152 233.284 183.273 233.336 183.396 233.375C183.527 233.414 183.657 233.443 183.787 233.463C183.924 233.476 184.048 233.486 184.158 233.492C184.256 233.525 184.314 233.577 184.334 233.648C184.36 233.714 184.373 233.788 184.373 233.873C184.373 233.88 184.37 233.889 184.363 233.902C184.363 233.909 184.363 233.919 184.363 233.932C184.357 233.951 184.354 233.967 184.354 233.98L184.227 234.049H183.914H183.484C183.471 234.049 183.439 234.036 183.387 234.01C183.341 233.99 183.315 233.98 183.309 233.98H183.26C183.156 233.98 183.058 233.99 182.967 234.01C182.876 234.036 182.775 234.049 182.664 234.049C182.534 234.049 182.4 234.036 182.264 234.01C182.133 233.99 182 233.98 181.863 233.98C181.792 233.98 181.723 233.99 181.658 234.01C181.593 234.036 181.525 234.049 181.453 234.049C181.277 234.049 181.102 234.036 180.926 234.01C180.757 233.99 180.577 233.98 180.389 233.98C180.115 233.98 179.839 234.003 179.559 234.049C179.285 234.094 179.002 234.117 178.709 234.117H178.416C178.364 234.072 178.318 234.02 178.279 233.961C178.247 233.902 178.23 233.837 178.23 233.766C178.23 233.681 178.276 233.616 178.367 233.57C178.465 233.525 178.585 233.489 178.729 233.463C178.872 233.437 179.031 233.417 179.207 233.404C179.389 233.385 179.565 233.362 179.734 233.336C179.904 233.31 180.057 233.271 180.193 233.219C180.337 233.167 180.444 233.095 180.516 233.004V232.799V232.594C180.509 232.587 180.499 232.564 180.486 232.525C180.48 232.48 180.47 232.431 180.457 232.379C180.444 232.32 180.431 232.268 180.418 232.223C180.405 232.171 180.395 232.128 180.389 232.096C180.382 232.083 180.369 232.05 180.35 231.998C180.33 231.946 180.307 231.891 180.281 231.832C180.262 231.767 180.242 231.708 180.223 231.656C180.21 231.604 180.203 231.572 180.203 231.559C180.197 231.539 180.184 231.497 180.164 231.432C180.151 231.367 180.135 231.295 180.115 231.217C180.096 231.139 180.076 231.067 180.057 231.002C180.037 230.93 180.027 230.885 180.027 230.865C180.021 230.859 180.008 230.829 179.988 230.777C179.975 230.725 179.956 230.67 179.93 230.611C179.91 230.546 179.891 230.488 179.871 230.436C179.858 230.377 179.848 230.341 179.842 230.328C179.822 230.257 179.803 230.172 179.783 230.074C179.764 229.97 179.738 229.866 179.705 229.762C179.679 229.658 179.646 229.563 179.607 229.479C179.568 229.394 179.52 229.332 179.461 229.293H179.041H178.611C178.598 229.293 178.566 229.306 178.514 229.332C178.462 229.352 178.429 229.361 178.416 229.361H178.396H178.367C178.361 229.361 178.338 229.358 178.299 229.352C178.266 229.345 178.227 229.339 178.182 229.332C178.143 229.319 178.104 229.309 178.064 229.303C178.032 229.296 178.012 229.293 178.006 229.293C177.999 229.293 177.98 229.296 177.947 229.303C177.915 229.309 177.882 229.319 177.85 229.332C177.817 229.339 177.785 229.345 177.752 229.352C177.726 229.358 177.713 229.361 177.713 229.361H176.59C176.564 229.361 176.518 229.365 176.453 229.371C176.395 229.371 176.329 229.374 176.258 229.381C176.186 229.387 176.118 229.394 176.053 229.4C175.994 229.407 175.952 229.413 175.926 229.42C175.913 229.426 175.903 229.433 175.896 229.439C175.883 229.446 175.874 229.452 175.867 229.459C175.867 229.465 175.864 229.469 175.857 229.469C175.727 229.879 175.6 230.296 175.477 230.719C175.359 231.142 175.245 231.562 175.135 231.979C175.109 232.083 175.07 232.193 175.018 232.311C174.972 232.428 174.949 232.542 174.949 232.652C174.949 232.737 174.969 232.822 175.008 232.906C175.053 232.991 175.096 233.066 175.135 233.131C175.154 233.131 175.193 233.134 175.252 233.141C175.311 233.147 175.372 233.157 175.438 233.17C175.503 233.176 175.564 233.183 175.623 233.189C175.682 233.196 175.721 233.199 175.74 233.199C175.747 233.199 175.766 233.206 175.799 233.219C175.838 233.232 175.877 233.245 175.916 233.258C175.962 233.271 176.001 233.284 176.033 233.297C176.072 233.303 176.095 233.307 176.102 233.307C176.186 233.326 176.274 233.339 176.365 233.346C176.463 233.352 176.551 233.365 176.629 233.385C176.707 233.404 176.772 233.44 176.824 233.492C176.876 233.538 176.902 233.613 176.902 233.717C176.902 233.906 176.86 234.02 176.775 234.059C176.697 234.098 176.587 234.117 176.443 234.117H176.316H175.926C175.913 234.117 175.883 234.114 175.838 234.107C175.799 234.101 175.757 234.091 175.711 234.078C175.665 234.072 175.62 234.065 175.574 234.059C175.535 234.052 175.509 234.049 175.496 234.049H174.344C174.331 234.049 174.301 234.046 174.256 234.039C174.217 234.033 174.171 234.023 174.119 234.01C174.074 234.003 174.028 233.997 173.982 233.99C173.943 233.984 173.917 233.98 173.904 233.98H173.738C173.68 233.98 173.628 233.984 173.582 233.99C173.536 233.997 173.481 234.016 173.416 234.049H172.391C172.365 234.062 172.332 234.075 172.293 234.088C172.254 234.107 172.228 234.117 172.215 234.117H172.166C172.133 234.117 172.088 234.107 172.029 234.088C171.977 234.068 171.925 234.042 171.873 234.01C171.814 233.984 171.766 233.951 171.727 233.912C171.681 233.867 171.658 233.824 171.658 233.785Z" fill="black"/>
<path d="M397.137 225.322V225.85C397.137 226.071 397.14 226.289 397.146 226.504C397.153 226.719 397.173 226.93 397.205 227.139C397.212 227.21 397.247 227.269 397.312 227.314C397.384 227.36 397.456 227.383 397.527 227.383C397.697 227.383 397.85 227.354 397.986 227.295C398.123 227.236 398.266 227.184 398.416 227.139C398.729 227.035 398.986 226.937 399.188 226.846C399.396 226.755 399.578 226.65 399.734 226.533C399.891 226.416 400.037 226.276 400.174 226.113C400.317 225.944 400.48 225.736 400.662 225.488C400.734 225.41 400.799 225.326 400.857 225.234C400.923 225.143 400.962 225.052 400.975 224.961V224.775V224.336C400.975 224.323 400.984 224.281 401.004 224.209C401.03 224.137 401.043 224.098 401.043 224.092V224.053V224.023C401.01 223.893 400.978 223.753 400.945 223.604C400.919 223.447 400.887 223.304 400.848 223.174C400.828 223.096 400.789 222.995 400.73 222.871C400.672 222.747 400.607 222.624 400.535 222.5C400.464 222.376 400.392 222.262 400.32 222.158C400.249 222.054 400.187 221.986 400.135 221.953C400.122 221.947 400.086 221.94 400.027 221.934C399.969 221.921 399.939 221.908 399.939 221.895C399.933 221.882 399.913 221.842 399.881 221.777C399.848 221.706 399.832 221.66 399.832 221.641C399.826 221.641 399.812 221.631 399.793 221.611C399.78 221.605 399.77 221.598 399.764 221.592C399.594 221.514 399.422 221.436 399.246 221.357C399.07 221.279 398.891 221.195 398.709 221.104C398.676 221.097 398.615 221.087 398.523 221.074C398.432 221.061 398.335 221.048 398.23 221.035C398.133 221.022 398.038 221.009 397.947 220.996C397.856 220.983 397.794 220.977 397.762 220.977H397.713C397.544 220.977 397.413 221.035 397.322 221.152C397.231 221.263 397.192 221.41 397.205 221.592C397.212 222.223 397.202 222.845 397.176 223.457C397.15 224.069 397.137 224.691 397.137 225.322ZM397.02 233.506C397.02 233.714 397.042 233.88 397.088 234.004C397.133 234.128 397.208 234.274 397.312 234.443C397.312 234.456 397.322 234.479 397.342 234.512C397.368 234.544 397.381 234.564 397.381 234.57C397.394 234.57 397.43 234.574 397.488 234.58C397.547 234.587 397.583 234.59 397.596 234.59C397.726 234.59 397.84 234.561 397.938 234.502C398.042 234.443 398.159 234.408 398.289 234.395C398.406 234.388 398.514 234.385 398.611 234.385C398.715 234.378 398.816 234.372 398.914 234.365C399.012 234.359 399.109 234.346 399.207 234.326C399.305 234.3 399.409 234.258 399.52 234.199C399.533 234.193 399.555 234.18 399.588 234.16C399.627 234.134 399.666 234.108 399.705 234.082C399.744 234.056 399.78 234.033 399.812 234.014C399.852 233.994 399.878 233.984 399.891 233.984C399.897 233.978 399.917 233.968 399.949 233.955C399.988 233.936 400.027 233.919 400.066 233.906C400.112 233.887 400.151 233.874 400.184 233.867C400.223 233.854 400.245 233.848 400.252 233.848C400.278 233.841 400.32 233.815 400.379 233.77C400.444 233.717 400.483 233.685 400.496 233.672C400.509 233.652 400.542 233.613 400.594 233.555C400.646 233.49 400.704 233.418 400.77 233.34C400.835 233.262 400.896 233.184 400.955 233.105C401.014 233.027 401.059 232.969 401.092 232.93C401.118 232.904 401.144 232.871 401.17 232.832C401.202 232.793 401.219 232.767 401.219 232.754C401.277 232.63 401.32 232.5 401.346 232.363C401.378 232.22 401.421 232.083 401.473 231.953V231.045C401.44 231.012 401.417 230.973 401.404 230.928C401.391 230.882 401.385 230.84 401.385 230.801C401.385 230.762 401.388 230.723 401.395 230.684C401.401 230.645 401.404 230.612 401.404 230.586V230.557C401.391 230.459 401.355 230.365 401.297 230.273C401.238 230.176 401.209 230.072 401.209 229.961C401.209 229.948 401.209 229.935 401.209 229.922C401.215 229.909 401.219 229.896 401.219 229.883C401.199 229.857 401.16 229.808 401.102 229.736C401.049 229.665 400.988 229.59 400.916 229.512C400.851 229.434 400.786 229.362 400.721 229.297C400.662 229.232 400.62 229.186 400.594 229.16C400.594 229.147 400.568 229.118 400.516 229.072C400.464 229.02 400.438 228.988 400.438 228.975C400.424 228.962 400.411 228.932 400.398 228.887C400.392 228.835 400.389 228.799 400.389 228.779C400.369 228.773 400.343 228.757 400.311 228.73C400.285 228.698 400.265 228.678 400.252 228.672C400.102 228.555 399.939 228.454 399.764 228.369C399.594 228.285 399.419 228.213 399.236 228.154C399.054 228.096 398.868 228.044 398.68 227.998C398.491 227.952 398.305 227.907 398.123 227.861C398.11 227.861 398.084 227.858 398.045 227.852C398.012 227.839 397.977 227.826 397.938 227.812C397.898 227.799 397.859 227.786 397.82 227.773C397.788 227.76 397.768 227.751 397.762 227.744C397.703 227.738 397.638 227.751 397.566 227.783C397.495 227.816 397.426 227.858 397.361 227.91C397.296 227.962 397.241 228.021 397.195 228.086C397.156 228.145 397.137 228.197 397.137 228.242V229.688C397.15 229.714 397.163 229.759 397.176 229.824C397.195 229.883 397.205 229.919 397.205 229.932V229.98V230C397.205 230.007 397.195 230.026 397.176 230.059C397.163 230.091 397.15 230.114 397.137 230.127C397.137 230.238 397.14 230.339 397.146 230.43C397.153 230.521 397.156 230.612 397.156 230.703C397.156 230.801 397.15 230.895 397.137 230.986C397.124 231.077 397.101 231.178 397.068 231.289C397.055 231.302 397.046 231.318 397.039 231.338C397.026 231.377 397.02 231.4 397.02 231.406V231.436C397.02 231.494 397.026 231.549 397.039 231.602C397.059 231.654 397.068 231.715 397.068 231.787V231.885C397.068 231.891 397.059 231.921 397.039 231.973C397.026 232.025 397.02 232.054 397.02 232.061C397.02 232.08 397.026 232.116 397.039 232.168C397.059 232.214 397.068 232.243 397.068 232.256V232.461C397.068 232.63 397.059 232.806 397.039 232.988C397.026 233.164 397.02 233.337 397.02 233.506ZM392.693 234.883C392.693 234.811 392.713 234.746 392.752 234.688C392.798 234.629 392.85 234.577 392.908 234.531C392.973 234.486 393.042 234.447 393.113 234.414C393.185 234.382 393.247 234.352 393.299 234.326C393.514 234.346 393.738 234.355 393.973 234.355C394.096 234.355 394.217 234.349 394.334 234.336C394.451 234.316 394.555 234.281 394.646 234.229C394.738 234.17 394.809 234.092 394.861 233.994C394.913 233.896 394.939 233.766 394.939 233.604V231.289C394.926 231.263 394.913 231.211 394.9 231.133C394.894 231.055 394.891 231.003 394.891 230.977V230.918V230.869C394.891 230.85 394.894 230.807 394.9 230.742C394.907 230.677 394.91 230.605 394.91 230.527C394.917 230.449 394.923 230.378 394.93 230.312C394.936 230.241 394.939 230.195 394.939 230.176C394.939 230.124 394.939 230.023 394.939 229.873C394.946 229.723 394.949 229.567 394.949 229.404C394.956 229.235 394.959 229.076 394.959 228.926C394.965 228.77 394.969 228.662 394.969 228.604V228.291C394.975 228.232 394.979 228.122 394.979 227.959C394.985 227.796 394.988 227.627 394.988 227.451C394.995 227.269 394.998 227.096 394.998 226.934C395.005 226.771 395.008 226.66 395.008 226.602C395.008 226.589 395.005 226.566 394.998 226.533C394.992 226.494 394.982 226.455 394.969 226.416C394.962 226.37 394.956 226.331 394.949 226.299C394.943 226.26 394.939 226.234 394.939 226.221V226.152V226.104C394.939 226.09 394.943 226.064 394.949 226.025C394.956 225.98 394.962 225.934 394.969 225.889C394.975 225.843 394.982 225.801 394.988 225.762C394.995 225.716 395.001 225.684 395.008 225.664V222.861C395.008 222.692 395.027 222.536 395.066 222.393C395.112 222.243 395.135 222.077 395.135 221.895C395.135 221.719 395.109 221.572 395.057 221.455C395.011 221.331 394.91 221.214 394.754 221.104C394.715 221.117 394.643 221.123 394.539 221.123C394.441 221.123 394.34 221.123 394.236 221.123C394.126 221.123 394.021 221.123 393.924 221.123C393.833 221.123 393.771 221.117 393.738 221.104C393.68 221.104 393.605 221.087 393.514 221.055C393.429 221.022 393.341 220.986 393.25 220.947C393.165 220.902 393.087 220.853 393.016 220.801C392.944 220.749 392.895 220.703 392.869 220.664C392.954 220.534 393.045 220.456 393.143 220.43C393.24 220.397 393.348 220.381 393.465 220.381H393.836C393.855 220.381 393.898 220.371 393.963 220.352C394.035 220.326 394.077 220.312 394.09 220.312C394.096 220.312 394.113 220.316 394.139 220.322C394.165 220.329 394.191 220.339 394.217 220.352C394.243 220.358 394.266 220.365 394.285 220.371C394.311 220.378 394.327 220.381 394.334 220.381H395.379C395.424 220.407 395.477 220.426 395.535 220.439C395.594 220.446 395.652 220.449 395.711 220.449H395.936H396.053L396.131 220.469C396.183 220.482 396.212 220.492 396.219 220.498H396.844H397.068C397.088 220.498 397.124 220.501 397.176 220.508C397.234 220.514 397.293 220.521 397.352 220.527C397.41 220.534 397.465 220.54 397.518 220.547C397.57 220.553 397.605 220.56 397.625 220.566L397.762 220.498H398.777C398.803 220.485 398.859 220.475 398.943 220.469C399.028 220.456 399.077 220.449 399.09 220.449L399.129 220.43C399.155 220.417 399.168 220.41 399.168 220.41C399.747 220.41 400.307 220.495 400.848 220.664L400.906 220.723C401.076 220.84 401.251 220.941 401.434 221.025C401.616 221.11 401.792 221.198 401.961 221.289L401.98 221.309C402 221.328 402.016 221.341 402.029 221.348C402.029 221.361 402.046 221.393 402.078 221.445C402.111 221.491 402.13 221.52 402.137 221.533C402.143 221.546 402.153 221.556 402.166 221.562C402.173 221.582 402.186 221.592 402.205 221.592C402.355 221.781 402.492 221.966 402.615 222.148C402.739 222.331 402.846 222.52 402.938 222.715C403.029 222.91 403.097 223.115 403.143 223.33C403.195 223.545 403.221 223.776 403.221 224.023V224.092C403.221 224.105 403.217 224.134 403.211 224.18C403.204 224.225 403.198 224.277 403.191 224.336C403.191 224.388 403.188 224.437 403.182 224.482C403.175 224.528 403.172 224.561 403.172 224.58V224.844V224.961C403.152 225.02 403.13 225.075 403.104 225.127C403.084 225.173 403.061 225.218 403.035 225.264C403.009 225.303 402.99 225.339 402.977 225.371C402.918 225.521 402.853 225.69 402.781 225.879C402.716 226.068 402.628 226.227 402.518 226.357C402.505 226.364 402.469 226.37 402.41 226.377C402.352 226.383 402.322 226.393 402.322 226.406C402.309 226.419 402.277 226.452 402.225 226.504C402.179 226.549 402.15 226.582 402.137 226.602C402.13 226.608 402.101 226.621 402.049 226.641C402.003 226.66 401.951 226.683 401.893 226.709C401.84 226.735 401.788 226.761 401.736 226.787C401.691 226.813 401.661 226.833 401.648 226.846C401.622 226.865 401.58 226.904 401.521 226.963C401.463 227.015 401.401 227.074 401.336 227.139C401.271 227.197 401.209 227.256 401.15 227.314C401.098 227.373 401.062 227.415 401.043 227.441C401.049 227.467 401.072 227.487 401.111 227.5C401.15 227.513 401.193 227.523 401.238 227.529C401.284 227.529 401.329 227.533 401.375 227.539C401.421 227.539 401.453 227.542 401.473 227.549C401.479 227.568 401.515 227.601 401.58 227.646C401.645 227.686 401.691 227.718 401.717 227.744C401.723 227.757 401.753 227.79 401.805 227.842C401.857 227.887 401.886 227.917 401.893 227.93C401.899 227.936 401.915 227.949 401.941 227.969C401.974 227.982 402.007 227.998 402.039 228.018C402.072 228.037 402.104 228.057 402.137 228.076C402.169 228.096 402.192 228.105 402.205 228.105C402.4 228.262 402.576 228.444 402.732 228.652C402.889 228.861 403.035 229.069 403.172 229.277C403.178 229.284 403.191 229.303 403.211 229.336C403.237 229.362 403.263 229.395 403.289 229.434C403.315 229.466 403.341 229.499 403.367 229.531C403.393 229.564 403.41 229.583 403.416 229.59C403.468 229.674 403.52 229.798 403.572 229.961C403.624 230.124 403.67 230.293 403.709 230.469C403.748 230.645 403.781 230.817 403.807 230.986C403.833 231.149 403.846 231.279 403.846 231.377C403.846 231.468 403.829 231.566 403.797 231.67C403.771 231.774 403.745 231.868 403.719 231.953C403.706 231.992 403.693 232.051 403.68 232.129C403.673 232.201 403.67 232.243 403.67 232.256V232.559C403.65 232.637 403.615 232.731 403.562 232.842C403.51 232.952 403.462 233.044 403.416 233.115C403.364 233.206 403.305 233.307 403.24 233.418C403.175 233.529 403.104 233.636 403.025 233.74C402.947 233.844 402.866 233.942 402.781 234.033C402.697 234.124 402.609 234.199 402.518 234.258C402.498 234.271 402.459 234.294 402.4 234.326C402.342 234.359 402.277 234.395 402.205 234.434C402.133 234.466 402.068 234.499 402.01 234.531C401.951 234.557 401.912 234.57 401.893 234.57C401.834 234.603 401.785 234.632 401.746 234.658C401.714 234.678 401.678 234.697 401.639 234.717C401.6 234.736 401.557 234.756 401.512 234.775C401.466 234.795 401.408 234.811 401.336 234.824C401.264 234.837 401.176 234.854 401.072 234.873C400.968 234.893 400.864 234.912 400.76 234.932C400.643 234.958 400.519 234.98 400.389 235H397.02C397.007 235.007 396.977 235.013 396.932 235.02C396.893 235.026 396.85 235.033 396.805 235.039C396.759 235.046 396.714 235.052 396.668 235.059C396.629 235.065 396.6 235.068 396.58 235.068H394.754C394.663 235.094 394.575 235.111 394.49 235.117C394.412 235.124 394.331 235.127 394.246 235.127H393.836H393.611C393.598 235.127 393.566 235.133 393.514 235.146C393.468 235.166 393.439 235.176 393.426 235.176H393.27C393.23 235.176 393.178 235.173 393.113 235.166C393.048 235.16 392.983 235.143 392.918 235.117C392.859 235.098 392.807 235.068 392.762 235.029C392.716 234.99 392.693 234.941 392.693 234.883Z" fill="black"/>
<path d="M626.508 234.805C626.345 234.714 626.176 234.635 626 234.57C625.831 234.505 625.661 234.417 625.492 234.307C625.479 234.307 625.456 234.297 625.424 234.277C625.391 234.251 625.359 234.225 625.326 234.199C625.294 234.173 625.261 234.147 625.229 234.121C625.202 234.095 625.186 234.076 625.18 234.062C625.095 234.01 625.01 233.965 624.926 233.926C624.841 233.887 624.763 233.841 624.691 233.789L624.066 233.164C624.053 233.151 624.021 233.128 623.969 233.096C623.923 233.063 623.897 233.047 623.891 233.047C623.891 233.001 623.868 232.979 623.822 232.979C623.731 232.848 623.63 232.721 623.52 232.598C623.415 232.467 623.318 232.327 623.227 232.178C623.22 232.178 623.201 232.145 623.168 232.08C623.142 232.015 623.126 231.966 623.119 231.934C622.813 231.335 622.543 230.726 622.309 230.107C622.302 230.101 622.279 230.062 622.24 229.99C622.201 229.919 622.182 229.876 622.182 229.863V229.492C622.162 229.284 622.136 229.085 622.104 228.896C622.077 228.701 622.064 228.499 622.064 228.291V227.979C622.071 227.913 622.077 227.799 622.084 227.637C622.097 227.467 622.11 227.288 622.123 227.1C622.136 226.911 622.146 226.735 622.152 226.572C622.165 226.403 622.175 226.283 622.182 226.211C622.195 226.029 622.234 225.859 622.299 225.703C622.37 225.547 622.436 225.387 622.494 225.225C622.494 225.218 622.497 225.202 622.504 225.176C622.51 225.15 622.517 225.12 622.523 225.088C622.53 225.049 622.536 225.016 622.543 224.99C622.549 224.958 622.553 224.935 622.553 224.922C622.559 224.909 622.569 224.88 622.582 224.834C622.602 224.782 622.621 224.73 622.641 224.678C622.667 224.626 622.686 224.577 622.699 224.531C622.719 224.479 622.732 224.447 622.738 224.434C622.738 224.427 622.742 224.411 622.748 224.385C622.755 224.352 622.761 224.32 622.768 224.287C622.774 224.248 622.781 224.215 622.787 224.189C622.794 224.157 622.8 224.134 622.807 224.121C622.807 224.115 622.82 224.098 622.846 224.072C622.878 224.046 622.911 224.017 622.943 223.984C622.982 223.945 623.018 223.913 623.051 223.887C623.083 223.854 623.106 223.835 623.119 223.828C623.269 223.646 623.412 223.46 623.549 223.271C623.692 223.083 623.848 222.9 624.018 222.725C624.33 222.386 624.652 222.077 624.984 221.797C625.316 221.517 625.704 221.302 626.146 221.152C626.192 221.133 626.244 221.107 626.303 221.074C626.368 221.042 626.433 221.009 626.498 220.977C626.563 220.944 626.628 220.915 626.693 220.889C626.765 220.863 626.83 220.846 626.889 220.84H627.133C627.146 220.84 627.182 220.833 627.24 220.82C627.299 220.801 627.344 220.785 627.377 220.771C627.403 220.765 627.449 220.752 627.514 220.732C627.585 220.706 627.66 220.68 627.738 220.654C627.816 220.628 627.891 220.605 627.963 220.586C628.035 220.56 628.087 220.54 628.119 220.527H629.32C629.516 220.527 629.675 220.531 629.799 220.537C629.923 220.544 630.023 220.55 630.102 220.557C630.18 220.563 630.238 220.57 630.277 220.576C630.316 220.583 630.346 220.589 630.365 220.596C630.398 220.602 630.482 220.625 630.619 220.664C630.756 220.697 630.902 220.736 631.059 220.781C631.215 220.82 631.361 220.859 631.498 220.898C631.635 220.931 631.723 220.951 631.762 220.957C631.788 220.957 631.843 220.967 631.928 220.986C632.012 220.999 632.061 221.012 632.074 221.025C632.081 221.025 632.1 221.038 632.133 221.064C632.172 221.09 632.211 221.12 632.25 221.152C632.289 221.178 632.325 221.204 632.357 221.23C632.396 221.25 632.423 221.263 632.436 221.27C632.449 221.27 632.488 221.279 632.553 221.299C632.624 221.318 632.667 221.331 632.68 221.338C632.732 221.377 632.781 221.426 632.826 221.484C632.872 221.536 632.917 221.589 632.963 221.641C633.015 221.693 633.067 221.738 633.119 221.777C633.178 221.81 633.246 221.826 633.324 221.826C633.402 221.826 633.467 221.771 633.52 221.66C633.578 221.549 633.633 221.429 633.686 221.299C633.738 221.169 633.793 221.048 633.852 220.938C633.91 220.827 633.985 220.771 634.076 220.771C634.141 220.771 634.193 220.807 634.232 220.879C634.278 220.944 634.311 221.022 634.33 221.113C634.356 221.204 634.372 221.296 634.379 221.387C634.385 221.478 634.389 221.543 634.389 221.582C634.389 221.641 634.385 221.689 634.379 221.729C634.372 221.761 634.353 221.803 634.32 221.855V224.678C634.32 224.808 634.294 224.928 634.242 225.039C634.197 225.143 634.102 225.205 633.959 225.225C633.926 225.231 633.894 225.221 633.861 225.195C633.829 225.169 633.799 225.14 633.773 225.107C633.747 225.068 633.721 225.033 633.695 225C633.676 224.961 633.66 224.935 633.646 224.922C633.646 224.909 633.617 224.88 633.559 224.834C633.507 224.782 633.477 224.746 633.471 224.727C633.451 224.701 633.419 224.658 633.373 224.6C633.334 224.541 633.292 224.482 633.246 224.424C633.207 224.359 633.168 224.297 633.129 224.238C633.09 224.18 633.067 224.141 633.061 224.121C632.976 223.997 632.914 223.861 632.875 223.711C632.842 223.555 632.777 223.411 632.68 223.281C632.569 223.132 632.458 223.008 632.348 222.91C632.243 222.812 632.13 222.708 632.006 222.598C631.863 222.474 631.739 222.363 631.635 222.266C631.531 222.161 631.426 222.07 631.322 221.992C631.218 221.914 631.101 221.846 630.971 221.787C630.847 221.722 630.691 221.663 630.502 221.611C630.255 221.553 629.997 221.497 629.73 221.445C629.47 221.393 629.216 221.367 628.969 221.367C628.839 221.367 628.712 221.39 628.588 221.436C628.471 221.481 628.354 221.54 628.236 221.611C628.119 221.676 628.002 221.751 627.885 221.836C627.774 221.914 627.667 221.986 627.562 222.051C627.471 222.109 627.377 222.148 627.279 222.168C627.182 222.188 627.09 222.233 627.006 222.305C626.83 222.454 626.667 222.62 626.518 222.803C626.374 222.985 626.208 223.145 626.02 223.281C626.007 223.294 625.987 223.317 625.961 223.35C625.935 223.376 625.915 223.392 625.902 223.398C625.902 223.411 625.883 223.46 625.844 223.545C625.805 223.63 625.782 223.685 625.775 223.711C625.749 223.757 625.71 223.812 625.658 223.877C625.613 223.936 625.564 223.997 625.512 224.062C625.466 224.121 625.421 224.183 625.375 224.248C625.336 224.313 625.31 224.375 625.297 224.434C625.258 224.603 625.232 224.769 625.219 224.932C625.206 225.088 625.173 225.251 625.121 225.42C625.069 225.557 625.02 225.693 624.975 225.83C624.929 225.96 624.893 226.107 624.867 226.27C624.854 226.354 624.844 226.462 624.838 226.592C624.838 226.722 624.812 226.833 624.76 226.924C624.747 226.969 624.737 227.048 624.73 227.158C624.724 227.269 624.717 227.386 624.711 227.51C624.704 227.633 624.698 227.751 624.691 227.861C624.691 227.972 624.691 228.05 624.691 228.096C624.691 228.291 624.708 228.496 624.74 228.711C624.779 228.926 624.825 229.144 624.877 229.365C624.936 229.587 624.997 229.805 625.062 230.02C625.128 230.228 625.189 230.423 625.248 230.605C625.248 230.612 625.251 230.638 625.258 230.684C625.271 230.729 625.284 230.781 625.297 230.84C625.31 230.892 625.323 230.944 625.336 230.996C625.349 231.042 625.359 231.074 625.365 231.094C625.365 231.113 625.382 231.149 625.414 231.201C625.453 231.253 625.492 231.312 625.531 231.377C625.577 231.436 625.619 231.491 625.658 231.543C625.697 231.589 625.723 231.615 625.736 231.621C625.743 231.634 625.756 231.663 625.775 231.709C625.801 231.748 625.824 231.794 625.844 231.846C625.87 231.891 625.893 231.937 625.912 231.982C625.938 232.021 625.951 232.048 625.951 232.061C626.042 232.171 626.13 232.269 626.215 232.354C626.299 232.438 626.384 232.516 626.469 232.588C626.56 232.66 626.651 232.731 626.742 232.803C626.84 232.874 626.947 232.956 627.064 233.047L627.25 233.232C627.361 233.285 627.497 233.356 627.66 233.447C627.829 233.532 627.96 233.646 628.051 233.789C628.35 233.815 628.64 233.864 628.92 233.936C629.206 234.001 629.503 234.033 629.809 234.033H630.004C630.095 234.033 630.183 234.03 630.268 234.023C630.352 234.017 630.447 233.991 630.551 233.945C630.557 233.945 630.57 233.942 630.59 233.936C630.616 233.923 630.642 233.91 630.668 233.896C630.694 233.877 630.717 233.864 630.736 233.857C630.756 233.844 630.769 233.838 630.775 233.838C630.795 233.831 630.84 233.818 630.912 233.799C630.99 233.779 631.068 233.76 631.146 233.74C631.231 233.721 631.309 233.704 631.381 233.691C631.452 233.672 631.498 233.659 631.518 233.652C631.524 233.652 631.55 233.636 631.596 233.604C631.648 233.571 631.68 233.548 631.693 233.535C631.7 233.529 631.716 233.516 631.742 233.496C631.768 233.47 631.794 233.447 631.82 233.428C631.853 233.402 631.879 233.382 631.898 233.369C631.924 233.35 631.938 233.34 631.938 233.34C631.957 233.333 631.99 233.324 632.035 233.311C632.087 233.298 632.123 233.291 632.143 233.291C632.149 233.278 632.156 233.268 632.162 233.262L632.191 233.232C632.217 233.2 632.253 233.151 632.299 233.086C632.351 233.021 632.403 232.956 632.455 232.891C632.507 232.826 632.553 232.767 632.592 232.715C632.637 232.656 632.667 232.62 632.68 232.607C632.686 232.601 632.706 232.578 632.738 232.539C632.771 232.493 632.803 232.448 632.836 232.402C632.868 232.35 632.901 232.305 632.934 232.266C632.966 232.22 632.986 232.191 632.992 232.178C632.999 232.171 633.012 232.158 633.031 232.139C633.057 232.119 633.083 232.096 633.109 232.07C633.135 232.044 633.158 232.018 633.178 231.992C633.204 231.966 633.217 231.947 633.217 231.934C633.23 231.934 633.243 231.908 633.256 231.855C633.275 231.797 633.285 231.761 633.285 231.748C633.292 231.735 633.308 231.702 633.334 231.65C633.36 231.598 633.386 231.543 633.412 231.484C633.438 231.419 633.461 231.361 633.48 231.309C633.507 231.257 633.523 231.224 633.529 231.211C633.536 231.198 633.546 231.169 633.559 231.123C633.572 231.071 633.585 231.019 633.598 230.967C633.611 230.915 633.62 230.866 633.627 230.82C633.64 230.768 633.646 230.736 633.646 230.723C633.66 230.697 633.676 230.664 633.695 230.625C633.715 230.579 633.734 230.537 633.754 230.498C633.78 230.459 633.809 230.426 633.842 230.4C633.881 230.374 633.92 230.361 633.959 230.361C633.992 230.361 634.024 230.365 634.057 230.371C634.096 230.371 634.125 230.387 634.145 230.42C634.158 230.439 634.174 230.469 634.193 230.508C634.213 230.547 634.232 230.586 634.252 230.625C634.271 230.664 634.288 230.7 634.301 230.732C634.314 230.758 634.32 230.775 634.32 230.781C634.32 230.794 634.314 230.827 634.301 230.879C634.294 230.931 634.285 230.99 634.271 231.055C634.258 231.12 634.245 231.182 634.232 231.24C634.219 231.292 634.21 231.325 634.203 231.338C634.184 231.449 634.161 231.579 634.135 231.729C634.109 231.872 634.083 232.021 634.057 232.178C634.037 232.334 634.018 232.49 633.998 232.646C633.979 232.796 633.965 232.93 633.959 233.047V233.477V233.652C633.946 233.698 633.93 233.737 633.91 233.77C633.897 233.802 633.884 233.835 633.871 233.867C633.858 233.9 633.845 233.926 633.832 233.945C633.812 234.004 633.799 234.043 633.793 234.062C633.793 234.076 633.767 234.082 633.715 234.082C633.656 234.082 633.607 234.046 633.568 233.975C633.536 233.903 633.5 233.825 633.461 233.74C633.428 233.649 633.386 233.568 633.334 233.496C633.288 233.424 633.223 233.389 633.139 233.389C633.074 233.389 633.041 233.392 633.041 233.398C633.048 233.405 633.031 233.431 632.992 233.477C632.725 233.698 632.452 233.896 632.172 234.072C631.892 234.242 631.592 234.382 631.273 234.492C631.13 234.557 630.993 234.629 630.863 234.707C630.733 234.785 630.59 234.84 630.434 234.873C630.323 234.886 630.209 234.899 630.092 234.912C629.975 234.919 629.88 234.964 629.809 235.049L628.402 235.176C628.103 235.065 627.79 234.987 627.465 234.941C627.139 234.889 626.82 234.844 626.508 234.805Z" fill="black"/>
<path d="M850.137 229.434V233.945C850.137 233.997 850.169 234.049 850.234 234.102C850.306 234.147 850.387 234.189 850.479 234.229C850.57 234.261 850.658 234.29 850.742 234.316C850.827 234.336 850.885 234.346 850.918 234.346C851.107 234.346 851.302 234.329 851.504 234.297C851.706 234.258 851.901 234.225 852.09 234.199C852.096 234.199 852.135 234.202 852.207 234.209C852.279 234.209 852.34 234.209 852.393 234.209C852.464 234.209 852.503 234.206 852.51 234.199C852.529 234.199 852.559 234.199 852.598 234.199C852.643 234.193 852.689 234.186 852.734 234.18C852.78 234.173 852.822 234.167 852.861 234.16C852.9 234.154 852.926 234.15 852.939 234.15C853.089 234.124 853.226 234.072 853.35 233.994C853.48 233.91 853.61 233.841 853.74 233.789C853.844 233.75 853.955 233.714 854.072 233.682C854.189 233.643 854.307 233.604 854.424 233.564C854.548 233.519 854.665 233.473 854.775 233.428C854.886 233.376 854.984 233.314 855.068 233.242C855.094 233.223 855.14 233.184 855.205 233.125C855.27 233.06 855.339 232.992 855.41 232.92C855.482 232.848 855.55 232.78 855.615 232.715C855.68 232.643 855.729 232.591 855.762 232.559C855.768 232.552 855.778 232.536 855.791 232.51C855.811 232.484 855.83 232.454 855.85 232.422C855.869 232.383 855.889 232.35 855.908 232.324C855.928 232.292 855.938 232.269 855.938 232.256C856.068 232.074 856.201 231.908 856.338 231.758C856.481 231.602 856.589 231.426 856.66 231.23C856.673 231.204 856.683 231.182 856.689 231.162C856.696 231.149 856.702 231.133 856.709 231.113C856.917 230.801 857.103 230.465 857.266 230.107C857.435 229.749 857.539 229.388 857.578 229.023C857.585 228.945 857.598 228.818 857.617 228.643C857.637 228.46 857.656 228.275 857.676 228.086C857.695 227.891 857.712 227.708 857.725 227.539C857.744 227.37 857.757 227.253 857.764 227.188V227.041C857.764 226.885 857.744 226.748 857.705 226.631C857.666 226.507 857.624 226.37 857.578 226.221C857.539 226.064 857.503 225.905 857.471 225.742C857.438 225.579 857.399 225.42 857.354 225.264C857.314 225.107 857.262 224.954 857.197 224.805C857.139 224.655 857.061 224.515 856.963 224.385C856.956 224.372 856.95 224.355 856.943 224.336C856.937 224.323 856.93 224.31 856.924 224.297C856.917 224.284 856.911 224.271 856.904 224.258C856.904 224.251 856.898 224.229 856.885 224.189C856.872 224.144 856.859 224.098 856.846 224.053C856.833 224.007 856.82 223.965 856.807 223.926C856.794 223.887 856.784 223.861 856.777 223.848C856.777 223.841 856.768 223.825 856.748 223.799C856.735 223.773 856.715 223.747 856.689 223.721C856.67 223.688 856.65 223.662 856.631 223.643C856.618 223.617 856.611 223.6 856.611 223.594C856.442 223.359 856.289 223.154 856.152 222.979C856.016 222.796 855.84 222.614 855.625 222.432C855.488 222.321 855.345 222.191 855.195 222.041C855.046 221.891 854.883 221.781 854.707 221.709C854.701 221.702 854.652 221.689 854.561 221.67C854.476 221.65 854.421 221.641 854.395 221.641C854.388 221.634 854.359 221.605 854.307 221.553C854.261 221.494 854.232 221.465 854.219 221.465C854.219 221.452 854.206 221.439 854.18 221.426C854.154 221.406 854.134 221.396 854.121 221.396C854.108 221.396 854.092 221.393 854.072 221.387C854.059 221.38 854.04 221.374 854.014 221.367C853.988 221.361 853.958 221.354 853.926 221.348C853.841 221.309 853.77 221.276 853.711 221.25C853.659 221.224 853.607 221.201 853.555 221.182C853.503 221.162 853.447 221.146 853.389 221.133C853.337 221.12 853.268 221.11 853.184 221.104C853.177 221.104 853.158 221.1 853.125 221.094C853.092 221.087 853.057 221.081 853.018 221.074C852.979 221.061 852.939 221.051 852.9 221.045C852.868 221.038 852.842 221.035 852.822 221.035C852.653 220.996 852.477 220.957 852.295 220.918C852.119 220.879 851.94 220.859 851.758 220.859H851.543C851.497 220.866 851.419 220.876 851.309 220.889C851.198 220.902 851.081 220.918 850.957 220.938C850.833 220.957 850.716 220.977 850.605 220.996C850.495 221.009 850.42 221.022 850.381 221.035C850.329 221.068 850.283 221.133 850.244 221.23C850.212 221.328 850.195 221.406 850.195 221.465V224.678C850.215 224.762 850.228 224.837 850.234 224.902C850.241 224.961 850.247 225.016 850.254 225.068C850.26 225.12 850.264 225.176 850.264 225.234C850.264 225.286 850.264 225.348 850.264 225.42V225.664C850.264 225.677 850.26 225.71 850.254 225.762C850.247 225.807 850.238 225.856 850.225 225.908C850.218 225.96 850.212 226.012 850.205 226.064C850.199 226.11 850.195 226.139 850.195 226.152C850.195 226.217 850.192 226.331 850.186 226.494C850.179 226.65 850.173 226.82 850.166 227.002C850.16 227.184 850.153 227.357 850.146 227.52C850.14 227.682 850.137 227.796 850.137 227.861C850.104 227.933 850.085 228.014 850.078 228.105C850.072 228.197 850.068 228.281 850.068 228.359V228.516C850.068 228.691 850.072 228.848 850.078 228.984C850.085 229.115 850.104 229.264 850.137 229.434ZM845.684 234.805C845.684 234.746 845.703 234.694 845.742 234.648C845.781 234.596 845.83 234.554 845.889 234.521C845.947 234.489 846.006 234.463 846.064 234.443C846.13 234.417 846.188 234.401 846.24 234.395C846.37 234.375 846.517 234.368 846.68 234.375C846.842 234.375 847.005 234.372 847.168 234.365C847.331 234.352 847.48 234.323 847.617 234.277C847.754 234.225 847.861 234.137 847.939 234.014V233.691C847.939 233.574 847.93 233.47 847.91 233.379C847.891 233.281 847.881 233.18 847.881 233.076V233.047C847.881 233.034 847.884 233.005 847.891 232.959C847.897 232.907 847.904 232.855 847.91 232.803C847.917 232.751 847.923 232.702 847.93 232.656C847.936 232.604 847.939 232.572 847.939 232.559V232.471C847.939 232.334 847.93 232.201 847.91 232.07C847.891 231.934 847.881 231.79 847.881 231.641V231.523C847.881 231.517 847.884 231.494 847.891 231.455C847.897 231.416 847.904 231.377 847.91 231.338C847.917 231.299 847.923 231.263 847.93 231.23C847.936 231.191 847.939 231.169 847.939 231.162V230.293C847.939 229.889 847.93 229.492 847.91 229.102C847.891 228.704 847.881 228.307 847.881 227.91V227.061C847.881 227.041 847.884 226.986 847.891 226.895C847.897 226.803 847.904 226.709 847.91 226.611C847.917 226.507 847.923 226.41 847.93 226.318C847.936 226.227 847.939 226.172 847.939 226.152V224.434C847.939 224.421 847.943 224.398 847.949 224.365C847.956 224.326 847.962 224.284 847.969 224.238C847.975 224.193 847.982 224.15 847.988 224.111C847.995 224.072 847.998 224.043 847.998 224.023V221.592C847.998 221.559 847.982 221.51 847.949 221.445C847.923 221.374 847.9 221.322 847.881 221.289C847.868 221.257 847.845 221.221 847.812 221.182C847.786 221.143 847.767 221.117 847.754 221.104C847.721 221.058 847.653 221.019 847.549 220.986C847.445 220.954 847.321 220.928 847.178 220.908C847.041 220.889 846.895 220.869 846.738 220.85C846.582 220.83 846.439 220.811 846.309 220.791C846.185 220.765 846.081 220.732 845.996 220.693C845.911 220.654 845.869 220.605 845.869 220.547C845.869 220.456 845.911 220.394 845.996 220.361C846.087 220.322 846.169 220.303 846.24 220.303H846.689H847.148C847.201 220.335 847.266 220.358 847.344 220.371C847.422 220.378 847.5 220.381 847.578 220.381C847.643 220.381 847.702 220.378 847.754 220.371C847.806 220.365 847.848 220.361 847.881 220.361C848.271 220.381 848.656 220.407 849.033 220.439C849.417 220.465 849.805 220.479 850.195 220.479H850.312C850.326 220.479 850.358 220.469 850.41 220.449C850.462 220.423 850.495 220.41 850.508 220.41C850.892 220.384 851.273 220.371 851.65 220.371C852.035 220.365 852.419 220.361 852.803 220.361H853.252C853.434 220.374 853.61 220.4 853.779 220.439C853.949 220.472 854.115 220.511 854.277 220.557C854.447 220.602 854.616 220.648 854.785 220.693C854.954 220.732 855.133 220.765 855.322 220.791C855.42 220.876 855.531 220.934 855.654 220.967C855.778 220.999 855.895 221.045 856.006 221.104C856.273 221.227 856.549 221.351 856.836 221.475C857.122 221.598 857.37 221.755 857.578 221.943C858.034 222.347 858.431 222.754 858.77 223.164C859.108 223.574 859.388 224.004 859.609 224.453C859.831 224.896 859.997 225.371 860.107 225.879C860.218 226.387 860.273 226.94 860.273 227.539C860.273 228.158 860.218 228.727 860.107 229.248C859.997 229.769 859.827 230.26 859.6 230.723C859.372 231.178 859.085 231.618 858.74 232.041C858.395 232.458 857.988 232.874 857.52 233.291C857.415 233.363 857.295 233.415 857.158 233.447C857.028 233.48 856.901 233.532 856.777 233.604C856.647 233.688 856.514 233.786 856.377 233.896C856.24 234.007 856.094 234.092 855.938 234.15C855.547 234.281 855.153 234.404 854.756 234.521C854.365 234.639 853.968 234.74 853.564 234.824H853.428C853.167 234.837 852.904 234.87 852.637 234.922C852.37 234.974 852.109 235 851.855 235C851.725 235 851.618 234.997 851.533 234.99C851.455 234.984 851.338 234.964 851.182 234.932C851.169 234.932 851.136 234.935 851.084 234.941C851.038 234.948 851.012 234.951 851.006 234.951H850.938H850.869C850.863 234.958 850.843 234.964 850.811 234.971C850.785 234.971 850.752 234.974 850.713 234.98C850.68 234.98 850.648 234.984 850.615 234.99C850.589 234.99 850.57 234.993 850.557 235H848.496C848.158 235.013 847.816 235.036 847.471 235.068C847.126 235.107 846.784 235.127 846.445 235.127C846.38 235.127 846.302 235.127 846.211 235.127C846.126 235.127 846.045 235.117 845.967 235.098C845.889 235.078 845.82 235.046 845.762 235C845.71 234.954 845.684 234.889 845.684 234.805Z" fill="black"/>
</g>
<defs>
<clipPath id="clip0_607_1694">
<rect y="430" width="430" height="932" rx="3" transform="rotate(-90 0 430)" fill="white"/>
</clipPath>
</defs>
</svg>
