<svg width="932" height="430" viewBox="0 0 932 430" fill="none" xmlns="http://www.w3.org/2000/svg">
<g clip-path="url(#clip0_623_1268)">
<rect y="430" width="430" height="932" rx="3" transform="rotate(-90 0 430)" fill="#DBC7AB"/>
<rect y="267" width="932" height="107" fill="#6E5643"/>
<rect x="-17.5" y="311.5" width="948" height="3" stroke="#785F48" stroke-width="3"/>
<rect x="-18.25" y="314.75" width="949.5" height="1.5" stroke="#897059" stroke-width="1.5"/>
<rect x="-17.5" y="338.5" width="948" height="3" stroke="#785F48" stroke-width="3"/>
<rect x="-18.25" y="341.75" width="949.5" height="1.5" stroke="#897059" stroke-width="1.5"/>
<rect y="267" width="932" height="8" fill="#86674B"/>
<rect y="372" width="932" height="58" fill="#965C5D"/>
<rect x="-9.5" y="298.5" width="948" height="3" stroke="#785F48" stroke-width="3"/>
<rect x="-10.25" y="301.75" width="949.5" height="1.5" stroke="#897059" stroke-width="1.5"/>
<rect x="-9.5" y="325.5" width="948" height="3" stroke="#785F48" stroke-width="3"/>
<rect x="-10.25" y="328.75" width="949.5" height="1.5" stroke="#897059" stroke-width="1.5"/>
<rect width="131.976" height="266.975" transform="matrix(-1 0 0 1 451.976 106)" fill="#6E5643"/>
<path fill-rule="evenodd" clip-rule="evenodd" d="M439.873 118.115H437.858V118.135H334.089V118.115H332.074V373.001H334.089V120.15H437.858V373.001H439.873V118.115Z" fill="#452910" fill-opacity="0.71"/>
<rect x="-2" y="2" width="88.2277" height="105.217" transform="matrix(-1 0 0 1 427.645 249.189)" stroke="#452910" stroke-opacity="0.67" stroke-width="4"/>
<rect x="-2" y="2" width="88.2277" height="100.363" transform="matrix(-1 0 0 1 427.645 122.984)" stroke="#452910" stroke-opacity="0.67" stroke-width="4"/>
<ellipse cx="3.02236" cy="3.02235" rx="3.02236" ry="3.02235" transform="matrix(-1 0 0 1 348.149 236.107)" fill="#E9B42E"/>
<rect width="13.0969" height="2.01491" transform="matrix(-1 0 0 1 358.208 238.104)" fill="#E9B42E"/>
<ellipse cx="3.02236" cy="3.02235" rx="3.02236" ry="3.02235" transform="matrix(-1 0 0 1 348.149 237.115)" fill="#E9B42E" fill-opacity="0.37"/>
<rect width="13.0969" height="2.01491" transform="matrix(-1 0 0 1 358.208 239.111)" fill="#E9B42E" fill-opacity="0.37"/>
<path d="M358.208 237.765H348.675C347.918 237.765 347.186 237.499 346.606 237.014L346.277 236.738C345.161 235.804 343.511 235.896 342.505 236.948V236.948C341.66 237.831 341.496 239.164 342.1 240.226L342.156 240.324C343.012 241.828 344.982 242.259 346.389 241.251L346.663 241.054C347.21 240.662 347.866 240.451 348.539 240.451H358.208" stroke="#CE9E23"/>
<rect width="1.00745" height="2.01491" transform="matrix(-1 0 0 1 358.208 238.104)" fill="#CE9E23"/>
<rect x="320" y="105" width="132" height="1" fill="black"/>
<rect x="452" y="373" width="268" height="1" transform="rotate(-90 452 373)" fill="black"/>
<rect x="319" y="373" width="268" height="1" transform="rotate(-90 319 373)" fill="black"/>
<rect width="131.976" height="266.975" transform="matrix(-1 0 0 1 234.976 106)" fill="#6E5643"/>
<path fill-rule="evenodd" clip-rule="evenodd" d="M222.873 118.115H220.858V118.135H117.089V118.115H115.074V373.001H117.089V120.15H220.858V373.001H222.873V118.115Z" fill="#452910" fill-opacity="0.71"/>
<rect x="-2" y="2" width="88.2277" height="105.217" transform="matrix(-1 0 0 1 210.645 249.189)" stroke="#452910" stroke-opacity="0.67" stroke-width="4"/>
<rect x="-2" y="2" width="88.2277" height="100.363" transform="matrix(-1 0 0 1 210.645 122.984)" stroke="#452910" stroke-opacity="0.67" stroke-width="4"/>
<ellipse cx="3.02236" cy="3.02235" rx="3.02236" ry="3.02235" transform="matrix(-1 0 0 1 131.149 236.107)" fill="#E9B42E"/>
<rect width="13.0969" height="2.01491" transform="matrix(-1 0 0 1 141.208 238.104)" fill="#E9B42E"/>
<ellipse cx="3.02236" cy="3.02235" rx="3.02236" ry="3.02235" transform="matrix(-1 0 0 1 131.149 237.115)" fill="#E9B42E" fill-opacity="0.37"/>
<rect width="13.0969" height="2.01491" transform="matrix(-1 0 0 1 141.208 239.111)" fill="#E9B42E" fill-opacity="0.37"/>
<path d="M141.208 237.765H131.674C130.918 237.765 130.186 237.499 129.606 237.014L129.277 236.738C128.16 235.804 126.511 235.896 125.505 236.948V236.948C124.66 237.831 124.496 239.164 125.1 240.226L125.156 240.324C126.012 241.828 127.982 242.259 129.389 241.251L129.663 241.054C130.21 240.662 130.866 240.451 131.539 240.451H141.208" stroke="#CE9E23"/>
<rect width="1.00745" height="2.01491" transform="matrix(-1 0 0 1 141.208 238.104)" fill="#CE9E23"/>
<rect x="103" y="105" width="132" height="1" fill="black"/>
<rect x="234" y="373" width="268" height="1" transform="rotate(-90 234 373)" fill="black"/>
<rect x="102" y="373" width="268" height="1" transform="rotate(-90 102 373)" fill="black"/>
<rect width="131.976" height="266.975" transform="matrix(-1 0 0 1 886.976 106)" fill="#6E5643"/>
<path fill-rule="evenodd" clip-rule="evenodd" d="M874.873 118.115H872.858V118.135H769.089V118.115H767.074V373.001H769.089V120.15H872.858V373.001H874.873V118.115Z" fill="#452910" fill-opacity="0.71"/>
<rect x="-2" y="2" width="88.2277" height="105.217" transform="matrix(-1 0 0 1 862.645 249.189)" stroke="#452910" stroke-opacity="0.67" stroke-width="4"/>
<rect x="-2" y="2" width="88.2277" height="100.363" transform="matrix(-1 0 0 1 862.645 122.984)" stroke="#452910" stroke-opacity="0.67" stroke-width="4"/>
<ellipse cx="3.02236" cy="3.02235" rx="3.02236" ry="3.02235" transform="matrix(-1 0 0 1 783.149 236.107)" fill="#E9B42E"/>
<rect width="13.0969" height="2.01491" transform="matrix(-1 0 0 1 793.208 238.104)" fill="#E9B42E"/>
<ellipse cx="3.02236" cy="3.02235" rx="3.02236" ry="3.02235" transform="matrix(-1 0 0 1 783.149 237.115)" fill="#E9B42E" fill-opacity="0.37"/>
<rect width="13.0969" height="2.01491" transform="matrix(-1 0 0 1 793.208 239.111)" fill="#E9B42E" fill-opacity="0.37"/>
<path d="M793.208 237.765H783.675C782.918 237.765 782.186 237.499 781.606 237.014L781.277 236.738C780.161 235.804 778.511 235.896 777.505 236.948V236.948C776.66 237.831 776.496 239.164 777.1 240.226L777.156 240.324C778.012 241.828 779.982 242.259 781.389 241.251L781.663 241.054C782.21 240.662 782.866 240.451 783.539 240.451H793.208" stroke="#CE9E23"/>
<rect width="1.00745" height="2.01491" transform="matrix(-1 0 0 1 793.208 238.104)" fill="#CE9E23"/>
<rect x="755" y="105" width="132" height="1" fill="black"/>
<rect x="887" y="373" width="268" height="1" transform="rotate(-90 887 373)" fill="black"/>
<rect x="754" y="373" width="268" height="1" transform="rotate(-90 754 373)" fill="black"/>
<rect width="131.976" height="266.975" transform="matrix(-1 0 0 1 669.976 105)" fill="#6E5643"/>
<path fill-rule="evenodd" clip-rule="evenodd" d="M657.873 117.115H655.858V117.135H552.089V117.115H550.074V372.001H552.089V119.15H655.858V372.001H657.873V117.115Z" fill="#452910" fill-opacity="0.71"/>
<rect x="-2" y="2" width="88.2277" height="105.217" transform="matrix(-1 0 0 1 645.645 248.189)" stroke="#452910" stroke-opacity="0.67" stroke-width="4"/>
<rect x="-2" y="2" width="88.2277" height="100.363" transform="matrix(-1 0 0 1 645.645 121.984)" stroke="#452910" stroke-opacity="0.67" stroke-width="4"/>
<ellipse cx="3.02236" cy="3.02235" rx="3.02236" ry="3.02235" transform="matrix(-1 0 0 1 566.149 235.107)" fill="#E9B42E"/>
<rect width="13.0969" height="2.01491" transform="matrix(-1 0 0 1 576.208 237.104)" fill="#E9B42E"/>
<ellipse cx="3.02236" cy="3.02235" rx="3.02236" ry="3.02235" transform="matrix(-1 0 0 1 566.149 236.115)" fill="#E9B42E" fill-opacity="0.37"/>
<rect width="13.0969" height="2.01491" transform="matrix(-1 0 0 1 576.208 238.111)" fill="#E9B42E" fill-opacity="0.37"/>
<path d="M576.208 236.765H566.675C565.918 236.765 565.186 236.499 564.606 236.014L564.277 235.738C563.161 234.804 561.511 234.896 560.505 235.948V235.948C559.66 236.831 559.496 238.164 560.1 239.226L560.156 239.324C561.012 240.828 562.982 241.259 564.389 240.251L564.663 240.054C565.21 239.662 565.866 239.451 566.539 239.451H576.208" stroke="#CE9E23"/>
<rect width="1.00745" height="2.01491" transform="matrix(-1 0 0 1 576.208 237.104)" fill="#CE9E23"/>
<rect x="538" y="104" width="132" height="1" fill="black"/>
<rect x="669" y="372" width="268" height="1" transform="rotate(-90 669 372)" fill="black"/>
<rect x="537" y="372" width="268" height="1" transform="rotate(-90 537 372)" fill="black"/>
</g>
<defs>
<clipPath id="clip0_623_1268">
<rect y="430" width="430" height="932" rx="3" transform="rotate(-90 0 430)" fill="white"/>
</clipPath>
</defs>
</svg>
