<svg width="932" height="430" viewBox="0 0 932 430" fill="none" xmlns="http://www.w3.org/2000/svg">
<g filter="url(#filter0_b_461_2829)">
<g clip-path="url(#clip0_461_2829)">
<rect y="430" width="430" height="932" rx="3" transform="rotate(-90 0 430)" fill="#9F9881"/>
<rect y="267" width="932" height="107" fill="#554435"/>
<rect x="-10.5" y="283.5" width="955" height="78" stroke="#785F48" stroke-width="3"/>
<rect x="-7.5" y="285.5" width="949" height="74" stroke="#64503E" stroke-width="3"/>
<rect y="372" width="932" height="58" fill="#303E34" fill-opacity="0.59"/>
<rect x="-2" y="263" width="942" height="7" fill="#77604A"/>
<rect x="-18.5" y="311.5" width="948" height="3" stroke="#785F48" stroke-width="3"/>
<rect x="-19.25" y="314.75" width="949.5" height="1.5" stroke="#897059" stroke-width="1.5"/>
<rect x="-18.5" y="338.5" width="948" height="3" stroke="#785F48" stroke-width="3"/>
<rect x="-19.25" y="341.75" width="949.5" height="1.5" stroke="#897059" stroke-width="1.5"/>
<rect x="-10.5" y="298.5" width="948" height="3" stroke="#785F48" stroke-width="3"/>
<rect x="-11.25" y="301.75" width="949.5" height="1.5" stroke="#897059" stroke-width="1.5"/>
<rect x="-10.5" y="325.5" width="948" height="3" stroke="#785F48" stroke-width="3"/>
<rect x="-11.25" y="328.75" width="949.5" height="1.5" stroke="#897059" stroke-width="1.5"/>
</g>
</g>
<defs>
<filter id="filter0_b_461_2829" x="-21" y="-21" width="974" height="472" filterUnits="userSpaceOnUse" color-interpolation-filters="sRGB">
<feFlood flood-opacity="0" result="BackgroundImageFix"/>
<feGaussianBlur in="BackgroundImageFix" stdDeviation="10.5"/>
<feComposite in2="SourceAlpha" operator="in" result="effect1_backgroundBlur_461_2829"/>
<feBlend mode="normal" in="SourceGraphic" in2="effect1_backgroundBlur_461_2829" result="shape"/>
</filter>
<clipPath id="clip0_461_2829">
<rect y="430" width="430" height="932" rx="3" transform="rotate(-90 0 430)" fill="white"/>
</clipPath>
</defs>
</svg>
