<svg width="932" height="430" viewBox="0 0 932 430" fill="none" xmlns="http://www.w3.org/2000/svg">
<g filter="url(#filter0_b_435_2318)">
<g clip-path="url(#clip0_435_2318)">
<rect y="430" width="430" height="932" rx="3" transform="rotate(-90 0 430)" fill="#42403D"/>
<rect y="267" width="932" height="107" fill="#42250E"/>
<rect x="25.5" y="281.5" width="35" height="78" stroke="#785F48" stroke-width="3"/>
<rect x="27.5" y="283.5" width="30.2716" height="74" stroke="#694C30" stroke-width="3"/>
<rect x="-25.5" y="281.5" width="35" height="78" stroke="#785F48" stroke-width="3"/>
<rect x="-23.5" y="283.5" width="30.2716" height="74" stroke="#694C30" stroke-width="3"/>
<rect x="72.5" y="281.5" width="35" height="78" stroke="#785F48" stroke-width="3"/>
<rect x="74.5" y="283.5" width="30.2716" height="74" stroke="#694C30" stroke-width="3"/>
<rect x="119.5" y="281.5" width="35" height="78" stroke="#785F48" stroke-width="3"/>
<rect x="121.5" y="283.5" width="30.2716" height="74" stroke="#694C30" stroke-width="3"/>
<rect x="166.5" y="281.5" width="35" height="78" stroke="#785F48" stroke-width="3"/>
<rect x="168.5" y="283.5" width="30.2716" height="74" stroke="#694C30" stroke-width="3"/>
<rect x="213.5" y="281.5" width="35" height="78" stroke="#785F48" stroke-width="3"/>
<rect x="215.5" y="283.5" width="30.2716" height="74" stroke="#694C30" stroke-width="3"/>
<rect x="260.5" y="281.5" width="35" height="78" stroke="#785F48" stroke-width="3"/>
<rect x="262.5" y="283.5" width="30.2716" height="74" stroke="#694C30" stroke-width="3"/>
<rect x="307.5" y="281.5" width="35" height="78" stroke="#785F48" stroke-width="3"/>
<rect x="309.5" y="283.5" width="30.2716" height="74" stroke="#694C30" stroke-width="3"/>
<rect x="354.5" y="281.5" width="35" height="78" stroke="#785F48" stroke-width="3"/>
<rect x="356.5" y="283.5" width="30.2716" height="74" stroke="#694C30" stroke-width="3"/>
<rect x="401.5" y="281.5" width="35" height="78" stroke="#785F48" stroke-width="3"/>
<rect x="403.5" y="283.5" width="30.2716" height="74" stroke="#694C30" stroke-width="3"/>
<rect x="448.5" y="281.5" width="35" height="78" stroke="#785F48" stroke-width="3"/>
<rect x="450.5" y="283.5" width="30.2716" height="74" stroke="#694C30" stroke-width="3"/>
<rect x="495.5" y="281.5" width="35" height="78" stroke="#785F48" stroke-width="3"/>
<rect x="497.5" y="283.5" width="30.2716" height="74" stroke="#694C30" stroke-width="3"/>
<rect x="542.5" y="281.5" width="35" height="78" stroke="#785F48" stroke-width="3"/>
<rect x="544.5" y="283.5" width="30.2716" height="74" stroke="#694C30" stroke-width="3"/>
<rect x="589.5" y="281.5" width="35" height="78" stroke="#785F48" stroke-width="3"/>
<rect x="591.5" y="283.5" width="30.2716" height="74" stroke="#694C30" stroke-width="3"/>
<rect x="636.5" y="281.5" width="35" height="78" stroke="#785F48" stroke-width="3"/>
<rect x="638.5" y="283.5" width="30.2716" height="74" stroke="#694C30" stroke-width="3"/>
<rect x="683.5" y="281.5" width="35" height="78" stroke="#785F48" stroke-width="3"/>
<rect x="685.5" y="283.5" width="30.2716" height="74" stroke="#694C30" stroke-width="3"/>
<rect x="730.5" y="281.5" width="35" height="78" stroke="#785F48" stroke-width="3"/>
<rect x="732.5" y="283.5" width="30.2716" height="74" stroke="#694C30" stroke-width="3"/>
<rect x="777.5" y="281.5" width="35" height="78" stroke="#785F48" stroke-width="3"/>
<rect x="779.5" y="283.5" width="30.2716" height="74" stroke="#694C30" stroke-width="3"/>
<rect x="824.5" y="281.5" width="35" height="78" stroke="#785F48" stroke-width="3"/>
<rect x="826.5" y="283.5" width="30.2716" height="74" stroke="#694C30" stroke-width="3"/>
<rect x="871.5" y="281.5" width="35" height="78" stroke="#785F48" stroke-width="3"/>
<rect x="873.5" y="283.5" width="30.2716" height="74" stroke="#694C30" stroke-width="3"/>
<rect x="916.5" y="281.5" width="35" height="78" stroke="#785F48" stroke-width="3"/>
<rect x="918.5" y="283.5" width="30.2716" height="74" stroke="#694C30" stroke-width="3"/>
<rect y="267" width="932" height="8" fill="#593E29"/>
<rect y="372" width="932" height="58" fill="#636262"/>
<rect x="594.832" y="81.54" width="83.5463" height="84.9623" fill="#8C8586"/>
<path d="M596.247 139.711H625.63L659.969 119.063L677.669 139.711V165.793H596.247V139.711Z" fill="#626262"/>
<path d="M596.247 139.006H619.754L647.225 118.357L661.386 139.006V165.087H596.247V139.006Z" fill="#3E3E3E"/>
<ellipse cx="664.215" cy="97.1154" rx="6.37226" ry="6.37226" fill="#4B4943"/>
<rect x="592.893" y="169.306" width="3.10226" height="87.9836" transform="rotate(-90 592.893 169.306)" fill="#80262B"/>
<path d="M592.936 166.199L592.031 165.337H681.91L680.919 166.199H592.936Z" fill="#E49499"/>
<path d="M592.941 169.139L592.002 169.967L681.915 170L680.924 169.139H592.941Z" fill="#E49499"/>
<path d="M680.84 169.085V166.155L681.917 165.337V169.99L680.84 169.085Z" fill="#0F0D0B"/>
<rect x="677.994" y="80.1006" width="3.10226" height="87.9836" fill="#80262B"/>
<path d="M680.84 78.8774L681.881 78V169.962L680.84 169.13V78.8774Z" fill="#E49499"/>
<path d="M678.136 81.7324H677.304L677.095 166.204H678.136V81.7324Z" fill="#E49499"/>
<rect x="592.893" y="81.9668" width="3.10226" height="87.9836" transform="rotate(-90 592.893 81.9668)" fill="#80262B"/>
<path d="M592.902 81.7441L592.002 82.544L678.139 82.5764V81.7441L592.902 81.7441Z" fill="#E49499"/>
<path d="M592.805 79.041L592.006 78.0013L681.886 78.0013L680.895 78.863L592.805 79.041Z" fill="#E49499"/>
<rect x="592.833" y="79.2549" width="2.91283" height="88.6333" fill="#80262B"/>
<path d="M595.797 81.9551H596.786L596.659 166.168H595.797V81.9551Z" fill="#E49499"/>
<path d="M592.862 78.9173L592 78L592 169.962L593.041 169.118L592.862 78.9173Z" fill="#E49499"/>
<path d="M761.749 376.25L762.94 376.012C765.223 375.555 766.187 372.824 764.697 371.036C763.03 369.036 764.452 366 767.055 366H818.5H826.957C828.305 366 829.64 366.27 830.883 366.793L835.825 368.874C837.382 369.529 838.262 371.19 837.931 372.846C837.667 374.166 836.68 375.224 835.381 375.578L828.008 377.589C824.265 378.61 822.233 382.651 823.647 386.265L823.726 386.465C824.769 389.132 823.867 392.166 821.538 393.83L818.002 396.355C816.479 397.443 816.388 399.674 817.817 400.883C820.177 402.88 818.146 406.685 815.173 405.835L807.213 403.561C805.06 402.946 802.774 403.951 801.773 405.954L799.774 409.951C798.074 413.352 794.598 415.5 790.796 415.5H782.776C781.595 415.5 780.416 415.388 779.256 415.165L771.398 413.653C769.314 413.253 767.632 411.714 767.05 409.673C766.022 406.078 768.772 402.5 772.511 402.5C776.55 402.5 779.368 398.421 777.868 394.671L776.386 390.965C775.034 387.585 771.33 385.791 767.84 386.825L766.596 387.194C763.314 388.166 759.901 386.127 759.203 382.776L758.78 380.743C758.35 378.681 759.683 376.663 761.749 376.25Z" fill="#B80B0B"/>
<path d="M818.062 374.63L818.418 372.493C818.461 372.235 818.262 372 818 372H828H838C838.279 373.672 837.18 375.264 835.518 375.596L829.025 376.895C824.764 377.747 822.214 382.141 823.588 386.264L823.857 387.071C824.558 389.173 824.011 391.489 822.444 393.056C822.149 393.351 821.823 393.614 821.471 393.84L818.282 395.89C816.608 396.966 816.381 399.323 817.817 400.699C820.147 402.933 817.904 406.79 814.81 405.869L807.169 403.593C805.003 402.948 802.674 403.834 801.485 405.755L797.258 412.583C797.088 412.857 796.856 413.086 796.58 413.252C795.497 413.902 794.092 413.411 793.648 412.229L793.106 410.782C793.036 410.596 793 410.398 793 410.198C793 409.752 793.18 409.324 793.498 409.011L797.879 404.713C798.596 404.01 799 403.047 799 402.043C799 399.727 801.084 397.967 803.367 398.355L805.171 398.661C810.667 399.594 815.574 395.108 815.136 389.55L814.686 383.858C814.565 382.319 814.889 380.777 815.622 379.417L817.822 375.33C817.94 375.111 818.021 374.875 818.062 374.63Z" fill="#8F1919" fill-opacity="0.4"/>
</g>
</g>
<defs>
<filter id="filter0_b_435_2318" x="-21" y="-21" width="974" height="472" filterUnits="userSpaceOnUse" color-interpolation-filters="sRGB">
<feFlood flood-opacity="0" result="BackgroundImageFix"/>
<feGaussianBlur in="BackgroundImageFix" stdDeviation="10.5"/>
<feComposite in2="SourceAlpha" operator="in" result="effect1_backgroundBlur_435_2318"/>
<feBlend mode="normal" in="SourceGraphic" in2="effect1_backgroundBlur_435_2318" result="shape"/>
</filter>
<clipPath id="clip0_435_2318">
<rect y="430" width="430" height="932" rx="3" transform="rotate(-90 0 430)" fill="white"/>
</clipPath>
</defs>
</svg>
