<svg width="932" height="430" viewBox="0 0 932 430" fill="none" xmlns="http://www.w3.org/2000/svg">
<g filter="url(#filter0_b_617_995)">
<g clip-path="url(#clip0_617_995)">
<rect y="430" width="430" height="932" rx="3" transform="rotate(-90 0 430)" fill="#42403D"/>
<rect y="267" width="932" height="107" fill="#42250E"/>
<rect x="25.5" y="281.5" width="35" height="78" stroke="#785F48" stroke-width="3"/>
<rect x="27.5" y="283.5" width="30.2716" height="74" stroke="#694C30" stroke-width="3"/>
<rect x="-25.5" y="281.5" width="35" height="78" stroke="#785F48" stroke-width="3"/>
<rect x="-23.5" y="283.5" width="30.2716" height="74" stroke="#694C30" stroke-width="3"/>
<rect x="72.5" y="281.5" width="35" height="78" stroke="#785F48" stroke-width="3"/>
<rect x="74.5" y="283.5" width="30.2716" height="74" stroke="#694C30" stroke-width="3"/>
<rect x="119.5" y="281.5" width="35" height="78" stroke="#785F48" stroke-width="3"/>
<rect x="121.5" y="283.5" width="30.2716" height="74" stroke="#694C30" stroke-width="3"/>
<rect x="166.5" y="281.5" width="35" height="78" stroke="#785F48" stroke-width="3"/>
<rect x="168.5" y="283.5" width="30.2716" height="74" stroke="#694C30" stroke-width="3"/>
<rect x="213.5" y="281.5" width="35" height="78" stroke="#785F48" stroke-width="3"/>
<rect x="215.5" y="283.5" width="30.2716" height="74" stroke="#694C30" stroke-width="3"/>
<rect x="260.5" y="281.5" width="35" height="78" stroke="#785F48" stroke-width="3"/>
<rect x="262.5" y="283.5" width="30.2716" height="74" stroke="#694C30" stroke-width="3"/>
<rect x="307.5" y="281.5" width="35" height="78" stroke="#785F48" stroke-width="3"/>
<rect x="309.5" y="283.5" width="30.2716" height="74" stroke="#694C30" stroke-width="3"/>
<rect x="354.5" y="281.5" width="35" height="78" stroke="#785F48" stroke-width="3"/>
<rect x="356.5" y="283.5" width="30.2716" height="74" stroke="#694C30" stroke-width="3"/>
<rect x="401.5" y="281.5" width="35" height="78" stroke="#785F48" stroke-width="3"/>
<rect x="403.5" y="283.5" width="30.2716" height="74" stroke="#694C30" stroke-width="3"/>
<rect x="448.5" y="281.5" width="35" height="78" stroke="#785F48" stroke-width="3"/>
<rect x="450.5" y="283.5" width="30.2716" height="74" stroke="#694C30" stroke-width="3"/>
<rect x="495.5" y="281.5" width="35" height="78" stroke="#785F48" stroke-width="3"/>
<rect x="497.5" y="283.5" width="30.2716" height="74" stroke="#694C30" stroke-width="3"/>
<rect x="542.5" y="281.5" width="35" height="78" stroke="#785F48" stroke-width="3"/>
<rect x="544.5" y="283.5" width="30.2716" height="74" stroke="#694C30" stroke-width="3"/>
<rect x="589.5" y="281.5" width="35" height="78" stroke="#785F48" stroke-width="3"/>
<rect x="591.5" y="283.5" width="30.2716" height="74" stroke="#694C30" stroke-width="3"/>
<rect x="636.5" y="281.5" width="35" height="78" stroke="#785F48" stroke-width="3"/>
<rect x="638.5" y="283.5" width="30.2716" height="74" stroke="#694C30" stroke-width="3"/>
<rect x="683.5" y="281.5" width="35" height="78" stroke="#785F48" stroke-width="3"/>
<rect x="685.5" y="283.5" width="30.2716" height="74" stroke="#694C30" stroke-width="3"/>
<rect x="730.5" y="281.5" width="35" height="78" stroke="#785F48" stroke-width="3"/>
<rect x="732.5" y="283.5" width="30.2716" height="74" stroke="#694C30" stroke-width="3"/>
<rect x="777.5" y="281.5" width="35" height="78" stroke="#785F48" stroke-width="3"/>
<rect x="779.5" y="283.5" width="30.2716" height="74" stroke="#694C30" stroke-width="3"/>
<rect x="824.5" y="281.5" width="35" height="78" stroke="#785F48" stroke-width="3"/>
<rect x="826.5" y="283.5" width="30.2716" height="74" stroke="#694C30" stroke-width="3"/>
<rect x="871.5" y="281.5" width="35" height="78" stroke="#785F48" stroke-width="3"/>
<rect x="873.5" y="283.5" width="30.2716" height="74" stroke="#694C30" stroke-width="3"/>
<rect x="916.5" y="281.5" width="35" height="78" stroke="#785F48" stroke-width="3"/>
<rect x="918.5" y="283.5" width="30.2716" height="74" stroke="#694C30" stroke-width="3"/>
<rect y="267" width="932" height="8" fill="#593E29"/>
<rect y="372" width="932" height="58" fill="#636262"/>
<rect x="730" y="104" width="132" height="1" fill="black"/>
<rect x="862" y="372" width="268" height="1" transform="rotate(-90 862 372)" fill="black"/>
<rect x="729" y="372" width="268" height="1" transform="rotate(-90 729 372)" fill="black"/>
<rect width="131.976" height="266.975" transform="matrix(-1 0 0 1 341.976 105)" fill="#6E5643"/>
<path fill-rule="evenodd" clip-rule="evenodd" d="M329.873 117.115H327.858V117.135H224.089V117.115H222.074V372.001H224.089V119.15H327.858V372.001H329.873V117.115Z" fill="#452910" fill-opacity="0.71"/>
<rect x="-2" y="2" width="88.2277" height="105.217" transform="matrix(-1 0 0 1 317.645 248.19)" stroke="#452910" stroke-opacity="0.67" stroke-width="4"/>
<rect x="-2" y="2" width="88.2277" height="100.363" transform="matrix(-1 0 0 1 317.645 121.983)" stroke="#452910" stroke-opacity="0.67" stroke-width="4"/>
<ellipse cx="3.02236" cy="3.02235" rx="3.02236" ry="3.02235" transform="matrix(-1 0 0 1 238.149 235.108)" fill="#E9B42E"/>
<rect width="13.0969" height="2.01491" transform="matrix(-1 0 0 1 248.208 237.104)" fill="#E9B42E"/>
<ellipse cx="3.02236" cy="3.02235" rx="3.02236" ry="3.02235" transform="matrix(-1 0 0 1 238.149 236.115)" fill="#E9B42E" fill-opacity="0.37"/>
<rect width="13.0969" height="2.01491" transform="matrix(-1 0 0 1 248.208 238.112)" fill="#E9B42E" fill-opacity="0.37"/>
<path d="M248.208 236.766H238.674C237.918 236.766 237.186 236.5 236.606 236.015L236.277 235.739C235.16 234.805 233.511 234.897 232.505 235.949V235.949C231.66 236.832 231.496 238.165 232.1 239.227L232.156 239.325C233.012 240.829 234.982 241.26 236.389 240.252L236.663 240.055C237.21 239.663 237.866 239.452 238.539 239.452H248.208" stroke="#CE9E23"/>
<rect width="1.00745" height="2.01491" transform="matrix(-1 0 0 1 248.208 237.104)" fill="#CE9E23"/>
<path d="M258.355 166.15H254.268C252.611 166.15 251.268 167.493 251.268 169.15V180.139C251.268 181.796 252.611 183.139 254.268 183.139H256.608C257.814 183.139 258.792 184.117 258.792 185.324C258.792 186.53 259.77 187.508 260.976 187.508H291.148C292.392 187.508 293.402 186.499 293.402 185.254C293.402 184.065 294.325 183.081 295.512 183.005L298.213 182.833C299.793 182.732 301.022 181.422 301.022 179.839V169.15C301.022 167.493 299.679 166.15 298.022 166.15H294.955C293.48 166.15 292.285 164.955 292.285 163.48C292.285 162.006 291.09 160.811 289.615 160.811H263.695C262.22 160.811 261.025 162.006 261.025 163.48C261.025 164.955 259.829 166.15 258.355 166.15Z" fill="#C7A96F"/>
<path d="M263.397 186.295L280.387 160.811H290.095L281.6 187.508H263.397V186.295Z" fill="#C49D51"/>
<path d="M273.414 175.434C273.59 175.46 273.779 175.482 273.98 175.502C274.182 175.515 274.384 175.525 274.586 175.531C274.794 175.538 274.996 175.544 275.191 175.551C275.393 175.551 275.579 175.551 275.748 175.551H275.943C276.041 175.551 276.122 175.538 276.188 175.512C276.253 175.479 276.285 175.404 276.285 175.287C276.285 175.157 276.253 175.03 276.188 174.906C276.129 174.783 276.08 174.659 276.041 174.535C275.969 174.288 275.901 174.037 275.836 173.783C275.777 173.529 275.702 173.288 275.611 173.061C275.611 173.048 275.592 173.008 275.553 172.943C275.514 172.872 275.491 172.829 275.484 172.816C275.478 172.797 275.468 172.758 275.455 172.699C275.449 172.641 275.439 172.576 275.426 172.504C275.413 172.432 275.4 172.367 275.387 172.309C275.38 172.25 275.374 172.211 275.367 172.191C275.367 172.185 275.357 172.159 275.338 172.113C275.318 172.061 275.292 172.006 275.26 171.947C275.234 171.882 275.208 171.817 275.182 171.752C275.156 171.687 275.136 171.635 275.123 171.596C275.123 171.596 275.117 171.583 275.104 171.557C275.09 171.531 275.077 171.505 275.064 171.479C275.051 171.446 275.038 171.42 275.025 171.4C275.012 171.374 275.006 171.358 275.006 171.352C274.973 171.293 274.951 171.228 274.938 171.156C274.924 171.085 274.908 171.016 274.889 170.951C274.876 170.886 274.856 170.824 274.83 170.766C274.804 170.707 274.765 170.658 274.713 170.619H274.664C274.573 170.619 274.495 170.694 274.43 170.844C274.371 170.993 274.319 171.163 274.273 171.352C274.228 171.54 274.189 171.726 274.156 171.908C274.13 172.084 274.107 172.201 274.088 172.26C274.075 172.299 274.055 172.364 274.029 172.455C274.003 172.546 273.984 172.602 273.971 172.621C273.899 172.901 273.821 173.181 273.736 173.461C273.658 173.734 273.59 174.011 273.531 174.291C273.531 174.298 273.528 174.324 273.521 174.369C273.521 174.408 273.518 174.454 273.512 174.506C273.505 174.551 273.499 174.597 273.492 174.643C273.486 174.682 273.482 174.708 273.482 174.721C273.463 174.773 273.44 174.812 273.414 174.838C273.395 174.864 273.375 174.893 273.355 174.926C273.336 174.952 273.32 174.984 273.307 175.023C273.294 175.056 273.287 175.102 273.287 175.16V175.229C273.287 175.281 273.294 175.326 273.307 175.365C273.32 175.398 273.355 175.421 273.414 175.434ZM268.658 180.785C268.658 180.733 268.678 180.678 268.717 180.619C268.756 180.561 268.795 180.518 268.834 180.492C268.847 180.492 268.896 180.489 268.98 180.482C269.065 180.469 269.12 180.456 269.146 180.443C269.303 180.398 269.446 180.342 269.576 180.277C269.706 180.206 269.843 180.134 269.986 180.062C270.13 180.004 270.253 179.958 270.357 179.926C270.462 179.893 270.553 179.854 270.631 179.809C270.715 179.763 270.794 179.701 270.865 179.623C270.943 179.545 271.021 179.434 271.1 179.291C271.145 179.206 271.171 179.099 271.178 178.969C271.191 178.839 271.204 178.738 271.217 178.666C271.217 178.66 271.227 178.643 271.246 178.617C271.272 178.585 271.285 178.565 271.285 178.559C271.292 178.533 271.301 178.497 271.314 178.451C271.334 178.406 271.344 178.376 271.344 178.363C271.344 178.357 271.344 178.334 271.344 178.295C271.35 178.256 271.357 178.217 271.363 178.178C271.37 178.139 271.376 178.103 271.383 178.07C271.389 178.031 271.393 178.008 271.393 178.002C271.399 177.989 271.409 177.973 271.422 177.953C271.428 177.94 271.435 177.927 271.441 177.914C271.448 177.895 271.454 177.878 271.461 177.865C271.5 177.8 271.542 177.715 271.588 177.611C271.64 177.507 271.689 177.396 271.734 177.279C271.78 177.162 271.822 177.051 271.861 176.947C271.9 176.837 271.93 176.742 271.949 176.664C271.995 176.469 272.053 176.273 272.125 176.078C272.203 175.883 272.271 175.688 272.33 175.492C272.356 175.362 272.382 175.222 272.408 175.072C272.434 174.923 272.464 174.783 272.496 174.652C272.509 174.633 272.529 174.584 272.555 174.506C272.581 174.421 272.6 174.366 272.613 174.34C272.62 174.327 272.643 174.298 272.682 174.252C272.721 174.2 272.74 174.167 272.74 174.154C272.747 174.148 272.75 174.132 272.75 174.105C272.757 174.073 272.763 174.04 272.77 174.008C272.776 173.969 272.779 173.936 272.779 173.91C272.786 173.878 272.789 173.858 272.789 173.852C272.802 173.826 272.815 173.786 272.828 173.734C272.848 173.676 272.864 173.62 272.877 173.568C272.89 173.516 272.9 173.471 272.906 173.432C272.919 173.386 272.926 173.36 272.926 173.354C272.926 173.347 272.936 173.324 272.955 173.285C272.975 173.24 272.994 173.194 273.014 173.148C273.033 173.096 273.049 173.051 273.062 173.012C273.082 172.966 273.095 172.937 273.102 172.924C273.115 172.911 273.134 172.868 273.16 172.797C273.186 172.725 273.212 172.65 273.238 172.572C273.264 172.488 273.287 172.41 273.307 172.338C273.333 172.26 273.346 172.211 273.346 172.191C273.372 172.126 273.398 172.042 273.424 171.938C273.456 171.833 273.492 171.729 273.531 171.625C273.57 171.514 273.616 171.413 273.668 171.322C273.72 171.225 273.779 171.153 273.844 171.107C273.87 170.945 273.912 170.792 273.971 170.648C274.029 170.499 274.091 170.355 274.156 170.219C274.221 170.076 274.277 169.932 274.322 169.789C274.374 169.639 274.4 169.483 274.4 169.32C274.4 169.184 274.378 169.076 274.332 168.998C274.293 168.92 274.247 168.858 274.195 168.812C274.15 168.76 274.104 168.712 274.059 168.666C274.02 168.62 274 168.559 274 168.48C274 168.467 274.003 168.448 274.01 168.422C274.016 168.389 274.02 168.367 274.02 168.354C274.111 168.301 274.215 168.256 274.332 168.217C274.449 168.178 274.563 168.135 274.674 168.09C274.791 168.038 274.895 167.976 274.986 167.904C275.077 167.826 275.139 167.729 275.172 167.611C275.178 167.598 275.191 167.562 275.211 167.504C275.23 167.445 275.25 167.383 275.27 167.318C275.289 167.253 275.309 167.191 275.328 167.133C275.348 167.074 275.361 167.038 275.367 167.025C275.38 166.967 275.406 166.908 275.445 166.85C275.491 166.791 275.546 166.762 275.611 166.762C275.618 166.762 275.621 166.765 275.621 166.771C275.628 166.771 275.634 166.771 275.641 166.771H275.66C275.68 166.785 275.702 166.807 275.729 166.84C275.761 166.866 275.794 166.895 275.826 166.928C275.865 166.96 275.898 166.993 275.924 167.025C275.95 167.051 275.966 167.071 275.973 167.084C275.986 167.084 275.999 167.107 276.012 167.152C276.031 167.191 276.041 167.224 276.041 167.25C276.041 167.276 276.051 167.331 276.07 167.416C276.09 167.501 276.109 167.592 276.129 167.689C276.148 167.781 276.168 167.868 276.188 167.953C276.207 168.038 276.217 168.09 276.217 168.109C276.223 168.135 276.243 168.197 276.275 168.295C276.308 168.393 276.34 168.497 276.373 168.607C276.412 168.712 276.448 168.812 276.48 168.91C276.513 169.001 276.529 169.06 276.529 169.086C276.588 169.294 276.646 169.519 276.705 169.76C276.764 170.001 276.826 170.225 276.891 170.434C276.891 170.44 276.897 170.463 276.91 170.502C276.93 170.535 276.949 170.574 276.969 170.619C276.995 170.658 277.018 170.697 277.037 170.736C277.063 170.769 277.079 170.788 277.086 170.795C277.138 170.919 277.167 171.052 277.174 171.195C277.187 171.332 277.219 171.465 277.271 171.596C277.402 172.006 277.535 172.403 277.672 172.787C277.809 173.171 277.932 173.568 278.043 173.979C278.049 173.998 278.059 174.037 278.072 174.096C278.085 174.154 278.098 174.219 278.111 174.291C278.124 174.356 278.137 174.418 278.15 174.477C278.163 174.535 278.17 174.571 278.17 174.584C278.176 174.597 278.189 174.626 278.209 174.672C278.229 174.711 278.248 174.753 278.268 174.799C278.294 174.844 278.313 174.887 278.326 174.926C278.346 174.965 278.355 174.988 278.355 174.994C278.355 175.007 278.359 175.036 278.365 175.082C278.372 175.121 278.378 175.167 278.385 175.219C278.391 175.264 278.398 175.31 278.404 175.355C278.411 175.395 278.414 175.421 278.414 175.434C278.421 175.46 278.434 175.518 278.453 175.609C278.479 175.701 278.505 175.798 278.531 175.902C278.564 176 278.593 176.094 278.619 176.186C278.645 176.277 278.661 176.335 278.668 176.361C278.74 176.622 278.821 176.879 278.912 177.133C279.01 177.387 279.091 177.654 279.156 177.934C279.208 178.181 279.257 178.422 279.303 178.656C279.355 178.884 279.426 179.112 279.518 179.34C279.557 179.438 279.592 179.545 279.625 179.662C279.658 179.773 279.703 179.867 279.762 179.945C279.833 180.056 279.924 180.147 280.035 180.219C280.152 180.284 280.273 180.336 280.396 180.375C280.527 180.414 280.657 180.443 280.787 180.463C280.924 180.476 281.048 180.486 281.158 180.492C281.256 180.525 281.314 180.577 281.334 180.648C281.36 180.714 281.373 180.788 281.373 180.873C281.373 180.88 281.37 180.889 281.363 180.902C281.363 180.909 281.363 180.919 281.363 180.932C281.357 180.951 281.354 180.967 281.354 180.98L281.227 181.049H280.914H280.484C280.471 181.049 280.439 181.036 280.387 181.01C280.341 180.99 280.315 180.98 280.309 180.98H280.26C280.156 180.98 280.058 180.99 279.967 181.01C279.876 181.036 279.775 181.049 279.664 181.049C279.534 181.049 279.4 181.036 279.264 181.01C279.133 180.99 279 180.98 278.863 180.98C278.792 180.98 278.723 180.99 278.658 181.01C278.593 181.036 278.525 181.049 278.453 181.049C278.277 181.049 278.102 181.036 277.926 181.01C277.757 180.99 277.577 180.98 277.389 180.98C277.115 180.98 276.839 181.003 276.559 181.049C276.285 181.094 276.002 181.117 275.709 181.117H275.416C275.364 181.072 275.318 181.02 275.279 180.961C275.247 180.902 275.23 180.837 275.23 180.766C275.23 180.681 275.276 180.616 275.367 180.57C275.465 180.525 275.585 180.489 275.729 180.463C275.872 180.437 276.031 180.417 276.207 180.404C276.389 180.385 276.565 180.362 276.734 180.336C276.904 180.31 277.057 180.271 277.193 180.219C277.337 180.167 277.444 180.095 277.516 180.004V179.799V179.594C277.509 179.587 277.499 179.564 277.486 179.525C277.48 179.48 277.47 179.431 277.457 179.379C277.444 179.32 277.431 179.268 277.418 179.223C277.405 179.171 277.395 179.128 277.389 179.096C277.382 179.083 277.369 179.05 277.35 178.998C277.33 178.946 277.307 178.891 277.281 178.832C277.262 178.767 277.242 178.708 277.223 178.656C277.21 178.604 277.203 178.572 277.203 178.559C277.197 178.539 277.184 178.497 277.164 178.432C277.151 178.367 277.135 178.295 277.115 178.217C277.096 178.139 277.076 178.067 277.057 178.002C277.037 177.93 277.027 177.885 277.027 177.865C277.021 177.859 277.008 177.829 276.988 177.777C276.975 177.725 276.956 177.67 276.93 177.611C276.91 177.546 276.891 177.488 276.871 177.436C276.858 177.377 276.848 177.341 276.842 177.328C276.822 177.257 276.803 177.172 276.783 177.074C276.764 176.97 276.738 176.866 276.705 176.762C276.679 176.658 276.646 176.563 276.607 176.479C276.568 176.394 276.52 176.332 276.461 176.293H276.041H275.611C275.598 176.293 275.566 176.306 275.514 176.332C275.462 176.352 275.429 176.361 275.416 176.361H275.396H275.367C275.361 176.361 275.338 176.358 275.299 176.352C275.266 176.345 275.227 176.339 275.182 176.332C275.143 176.319 275.104 176.309 275.064 176.303C275.032 176.296 275.012 176.293 275.006 176.293C274.999 176.293 274.98 176.296 274.947 176.303C274.915 176.309 274.882 176.319 274.85 176.332C274.817 176.339 274.785 176.345 274.752 176.352C274.726 176.358 274.713 176.361 274.713 176.361H273.59C273.564 176.361 273.518 176.365 273.453 176.371C273.395 176.371 273.329 176.374 273.258 176.381C273.186 176.387 273.118 176.394 273.053 176.4C272.994 176.407 272.952 176.413 272.926 176.42C272.913 176.426 272.903 176.433 272.896 176.439C272.883 176.446 272.874 176.452 272.867 176.459C272.867 176.465 272.864 176.469 272.857 176.469C272.727 176.879 272.6 177.296 272.477 177.719C272.359 178.142 272.245 178.562 272.135 178.979C272.109 179.083 272.07 179.193 272.018 179.311C271.972 179.428 271.949 179.542 271.949 179.652C271.949 179.737 271.969 179.822 272.008 179.906C272.053 179.991 272.096 180.066 272.135 180.131C272.154 180.131 272.193 180.134 272.252 180.141C272.311 180.147 272.372 180.157 272.438 180.17C272.503 180.176 272.564 180.183 272.623 180.189C272.682 180.196 272.721 180.199 272.74 180.199C272.747 180.199 272.766 180.206 272.799 180.219C272.838 180.232 272.877 180.245 272.916 180.258C272.962 180.271 273.001 180.284 273.033 180.297C273.072 180.303 273.095 180.307 273.102 180.307C273.186 180.326 273.274 180.339 273.365 180.346C273.463 180.352 273.551 180.365 273.629 180.385C273.707 180.404 273.772 180.44 273.824 180.492C273.876 180.538 273.902 180.613 273.902 180.717C273.902 180.906 273.86 181.02 273.775 181.059C273.697 181.098 273.587 181.117 273.443 181.117H273.316H272.926C272.913 181.117 272.883 181.114 272.838 181.107C272.799 181.101 272.757 181.091 272.711 181.078C272.665 181.072 272.62 181.065 272.574 181.059C272.535 181.052 272.509 181.049 272.496 181.049H271.344C271.331 181.049 271.301 181.046 271.256 181.039C271.217 181.033 271.171 181.023 271.119 181.01C271.074 181.003 271.028 180.997 270.982 180.99C270.943 180.984 270.917 180.98 270.904 180.98H270.738C270.68 180.98 270.628 180.984 270.582 180.99C270.536 180.997 270.481 181.016 270.416 181.049H269.391C269.365 181.062 269.332 181.075 269.293 181.088C269.254 181.107 269.228 181.117 269.215 181.117H269.166C269.133 181.117 269.088 181.107 269.029 181.088C268.977 181.068 268.925 181.042 268.873 181.01C268.814 180.984 268.766 180.951 268.727 180.912C268.681 180.867 268.658 180.824 268.658 180.785Z" fill="black"/>
<rect x="210" y="104" width="132" height="1" fill="black"/>
<rect x="341" y="372" width="268" height="1" transform="rotate(-90 341 372)" fill="black"/>
<rect x="209" y="372" width="268" height="1" transform="rotate(-90 209 372)" fill="black"/>
<rect x="594.832" y="81.54" width="83.5463" height="84.9623" fill="#8C8586"/>
<path d="M596.247 139.711H625.63L659.969 119.063L677.669 139.711V165.793H596.247V139.711Z" fill="#626262"/>
<path d="M596.247 139.006H619.754L647.225 118.357L661.386 139.006V165.087H596.247V139.006Z" fill="#3E3E3E"/>
<ellipse cx="664.216" cy="97.1154" rx="6.37226" ry="6.37226" fill="#4B4943"/>
<rect x="592.893" y="169.306" width="3.10226" height="87.9836" transform="rotate(-90 592.893 169.306)" fill="#80262B"/>
<path d="M592.936 166.199L592.031 165.337H681.91L680.919 166.199H592.936Z" fill="#E49499"/>
<path d="M592.941 169.139L592.002 169.967L681.915 170L680.924 169.139H592.941Z" fill="#E49499"/>
<path d="M680.84 169.085V166.155L681.917 165.337V169.99L680.84 169.085Z" fill="#0F0D0B"/>
<rect x="677.994" y="80.1006" width="3.10226" height="87.9836" fill="#80262B"/>
<path d="M680.84 78.8774L681.881 78V169.962L680.84 169.13V78.8774Z" fill="#E49499"/>
<path d="M678.136 81.7324H677.304L677.095 166.204H678.136V81.7324Z" fill="#E49499"/>
<rect x="592.893" y="81.9668" width="3.10226" height="87.9836" transform="rotate(-90 592.893 81.9668)" fill="#80262B"/>
<path d="M592.902 81.7441L592.002 82.544L678.139 82.5764V81.7441L592.902 81.7441Z" fill="#E49499"/>
<path d="M592.805 79.041L592.006 78.0013L681.886 78.0013L680.895 78.863L592.805 79.041Z" fill="#E49499"/>
<rect x="592.833" y="79.2549" width="2.91283" height="88.6333" fill="#80262B"/>
<path d="M595.797 81.9551H596.786L596.659 166.168H595.797V81.9551Z" fill="#E49499"/>
<path d="M592.862 78.9173L592 78L592 169.962L593.041 169.118L592.862 78.9173Z" fill="#E49499"/>
<path d="M761.749 376.25L762.94 376.012C765.223 375.555 766.187 372.824 764.697 371.036C763.03 369.036 764.452 366 767.055 366H818.5H826.957C828.305 366 829.64 366.27 830.883 366.793L835.825 368.874C837.382 369.529 838.262 371.19 837.931 372.846C837.667 374.166 836.68 375.224 835.381 375.578L828.008 377.589C824.265 378.61 822.233 382.651 823.647 386.265L823.726 386.465C824.769 389.132 823.867 392.166 821.538 393.83L818.002 396.355C816.479 397.443 816.388 399.674 817.817 400.883C820.177 402.88 818.146 406.685 815.173 405.835L807.213 403.561C805.06 402.946 802.774 403.951 801.773 405.954L799.774 409.951C798.074 413.352 794.598 415.5 790.796 415.5H782.776C781.595 415.5 780.416 415.388 779.256 415.165L771.398 413.653C769.314 413.253 767.632 411.714 767.05 409.673C766.022 406.078 768.772 402.5 772.511 402.5C776.55 402.5 779.368 398.421 777.868 394.671L776.386 390.965C775.034 387.585 771.33 385.791 767.84 386.825L766.596 387.194C763.314 388.166 759.901 386.127 759.203 382.776L758.78 380.743C758.35 378.681 759.683 376.663 761.749 376.25Z" fill="#B80B0B"/>
<rect width="131.976" height="266.975" transform="matrix(-1 0 0 1 861.976 105)" fill="#6E5643"/>
<path fill-rule="evenodd" clip-rule="evenodd" d="M849.873 117.115H847.858V117.135H744.089V117.115H742.074V372.001H744.089V119.15H847.858V372.001H849.873V117.115Z" fill="#452910" fill-opacity="0.71"/>
<rect x="-2" y="2" width="88.2277" height="105.217" transform="matrix(-1 0 0 1 837.645 248.189)" stroke="#452910" stroke-opacity="0.67" stroke-width="4"/>
<rect x="-2" y="2" width="88.2277" height="100.363" transform="matrix(-1 0 0 1 837.645 121.984)" stroke="#452910" stroke-opacity="0.67" stroke-width="4"/>
<ellipse cx="3.02236" cy="3.02235" rx="3.02236" ry="3.02235" transform="matrix(-1 0 0 1 758.149 235.107)" fill="#E9B42E"/>
<rect width="13.0969" height="2.01491" transform="matrix(-1 0 0 1 768.208 237.104)" fill="#E9B42E"/>
<ellipse cx="3.02236" cy="3.02235" rx="3.02236" ry="3.02235" transform="matrix(-1 0 0 1 758.149 236.115)" fill="#E9B42E" fill-opacity="0.37"/>
<rect width="13.0969" height="2.01491" transform="matrix(-1 0 0 1 768.208 238.111)" fill="#E9B42E" fill-opacity="0.37"/>
<path d="M768.208 236.765H758.674C757.918 236.765 757.186 236.499 756.606 236.014L756.277 235.738C755.16 234.804 753.511 234.896 752.505 235.948V235.948C751.66 236.831 751.496 238.164 752.1 239.226L752.156 239.324C753.012 240.828 754.982 241.259 756.389 240.251L756.663 240.054C757.21 239.662 757.866 239.451 758.539 239.451H768.208" stroke="#CE9E23"/>
<rect width="1.00745" height="2.01491" transform="matrix(-1 0 0 1 768.208 237.104)" fill="#CE9E23"/>
<path d="M818.062 374.63L818.418 372.493C818.461 372.235 818.262 372 818 372H828H838C838.279 373.672 837.18 375.264 835.518 375.596L829.025 376.895C824.764 377.747 822.214 382.141 823.588 386.264L823.857 387.071C824.558 389.173 824.011 391.489 822.444 393.056C822.149 393.351 821.823 393.614 821.471 393.84L818.282 395.89C816.608 396.966 816.381 399.323 817.817 400.699C820.147 402.933 817.904 406.79 814.81 405.869L807.169 403.593C805.003 402.948 802.674 403.834 801.485 405.755L797.258 412.583C797.088 412.857 796.856 413.086 796.58 413.252C795.497 413.902 794.092 413.411 793.648 412.229L793.106 410.782C793.036 410.596 793 410.398 793 410.198C793 409.752 793.18 409.324 793.498 409.011L797.879 404.713C798.596 404.01 799 403.047 799 402.043C799 399.727 801.084 397.967 803.367 398.355L805.171 398.661C810.667 399.594 815.574 395.108 815.136 389.55L814.686 383.858C814.565 382.319 814.889 380.777 815.622 379.417L817.822 375.33C817.94 375.111 818.021 374.875 818.062 374.63Z" fill="#8F1919" fill-opacity="0.4"/>
</g>
</g>
<defs>
<filter id="filter0_b_617_995" x="-21" y="-21" width="974" height="472" filterUnits="userSpaceOnUse" color-interpolation-filters="sRGB">
<feFlood flood-opacity="0" result="BackgroundImageFix"/>
<feGaussianBlur in="BackgroundImageFix" stdDeviation="10.5"/>
<feComposite in2="SourceAlpha" operator="in" result="effect1_backgroundBlur_617_995"/>
<feBlend mode="normal" in="SourceGraphic" in2="effect1_backgroundBlur_617_995" result="shape"/>
</filter>
<clipPath id="clip0_617_995">
<rect y="430" width="430" height="932" rx="3" transform="rotate(-90 0 430)" fill="white"/>
</clipPath>
</defs>
</svg>
