<svg width="932" height="430" viewBox="0 0 932 430" fill="none" xmlns="http://www.w3.org/2000/svg">
<g clip-path="url(#clip0_372_2349)">
<rect y="430" width="430" height="932" rx="3" transform="rotate(-90 0 430)" fill="#423904"/>
<rect y="267" width="932" height="107" fill="#6E5643"/>
<rect x="25.5" y="281.5" width="35" height="78" stroke="#785F48" stroke-width="3"/>
<rect x="27.5" y="283.5" width="30.2716" height="74" stroke="#897059" stroke-width="3"/>
<rect x="-23.5" y="281.5" width="35" height="78" stroke="#785F48" stroke-width="3"/>
<rect x="-21.5" y="283.5" width="30.2716" height="74" stroke="#897059" stroke-width="3"/>
<rect x="72.5" y="281.5" width="35" height="78" stroke="#785F48" stroke-width="3"/>
<rect x="74.5" y="283.5" width="30.2716" height="74" stroke="#897059" stroke-width="3"/>
<rect x="119.5" y="281.5" width="35" height="78" stroke="#785F48" stroke-width="3"/>
<rect x="121.5" y="283.5" width="30.2716" height="74" stroke="#897059" stroke-width="3"/>
<rect x="166.5" y="281.5" width="35" height="78" stroke="#785F48" stroke-width="3"/>
<rect x="168.5" y="283.5" width="30.2716" height="74" stroke="#897059" stroke-width="3"/>
<rect x="213.5" y="281.5" width="35" height="78" stroke="#785F48" stroke-width="3"/>
<rect x="215.5" y="283.5" width="30.2716" height="74" stroke="#897059" stroke-width="3"/>
<rect x="260.5" y="281.5" width="35" height="78" stroke="#785F48" stroke-width="3"/>
<rect x="262.5" y="283.5" width="30.2716" height="74" stroke="#897059" stroke-width="3"/>
<rect x="307.5" y="281.5" width="35" height="78" stroke="#785F48" stroke-width="3"/>
<rect x="309.5" y="283.5" width="30.2716" height="74" stroke="#897059" stroke-width="3"/>
<rect x="354.5" y="281.5" width="35" height="78" stroke="#785F48" stroke-width="3"/>
<rect x="356.5" y="283.5" width="30.2716" height="74" stroke="#897059" stroke-width="3"/>
<rect x="401.5" y="281.5" width="35" height="78" stroke="#785F48" stroke-width="3"/>
<rect x="403.5" y="283.5" width="30.2716" height="74" stroke="#897059" stroke-width="3"/>
<rect x="448.5" y="281.5" width="35" height="78" stroke="#785F48" stroke-width="3"/>
<rect x="450.5" y="283.5" width="30.2716" height="74" stroke="#897059" stroke-width="3"/>
<rect x="495.5" y="281.5" width="35" height="78" stroke="#785F48" stroke-width="3"/>
<rect x="497.5" y="283.5" width="30.2716" height="74" stroke="#897059" stroke-width="3"/>
<rect x="542.5" y="281.5" width="35" height="78" stroke="#785F48" stroke-width="3"/>
<rect x="544.5" y="283.5" width="30.2716" height="74" stroke="#897059" stroke-width="3"/>
<rect x="589.5" y="281.5" width="35" height="78" stroke="#785F48" stroke-width="3"/>
<rect x="591.5" y="283.5" width="30.2716" height="74" stroke="#897059" stroke-width="3"/>
<rect x="636.5" y="281.5" width="35" height="78" stroke="#785F48" stroke-width="3"/>
<rect x="638.5" y="283.5" width="30.2716" height="74" stroke="#897059" stroke-width="3"/>
<rect x="683.5" y="281.5" width="35" height="78" stroke="#785F48" stroke-width="3"/>
<rect x="685.5" y="283.5" width="30.2716" height="74" stroke="#897059" stroke-width="3"/>
<rect x="730.5" y="281.5" width="35" height="78" stroke="#785F48" stroke-width="3"/>
<rect x="732.5" y="283.5" width="30.2716" height="74" stroke="#897059" stroke-width="3"/>
<rect x="777.5" y="281.5" width="35" height="78" stroke="#785F48" stroke-width="3"/>
<rect x="779.5" y="283.5" width="30.2716" height="74" stroke="#897059" stroke-width="3"/>
<rect x="824.5" y="281.5" width="35" height="78" stroke="#785F48" stroke-width="3"/>
<rect x="826.5" y="283.5" width="30.2716" height="74" stroke="#897059" stroke-width="3"/>
<rect x="871.5" y="281.5" width="35" height="78" stroke="#785F48" stroke-width="3"/>
<rect x="873.5" y="283.5" width="30.2716" height="74" stroke="#897059" stroke-width="3"/>
<rect x="916.5" y="281.5" width="35" height="78" stroke="#785F48" stroke-width="3"/>
<rect x="918.5" y="283.5" width="30.2716" height="74" stroke="#897059" stroke-width="3"/>
<rect y="267" width="932" height="8" fill="#86674B"/>
<rect y="372" width="932" height="58" fill="#5B3E27"/>
<rect width="131.976" height="266.975" transform="matrix(-1 0 0 1 362.976 105)" fill="#6E5643"/>
<path fill-rule="evenodd" clip-rule="evenodd" d="M350.873 117.115H348.858V117.135H245.089V117.115H243.074V372.001H245.089V119.15H348.858V372.001H350.873V117.115Z" fill="#452910" fill-opacity="0.71"/>
<rect x="-2" y="2" width="88.2277" height="105.217" transform="matrix(-1 0 0 1 338.645 248.19)" stroke="#452910" stroke-opacity="0.67" stroke-width="4"/>
<rect x="-2" y="2" width="88.2277" height="100.363" transform="matrix(-1 0 0 1 338.645 121.983)" stroke="#452910" stroke-opacity="0.67" stroke-width="4"/>
<ellipse cx="3.02236" cy="3.02235" rx="3.02236" ry="3.02235" transform="matrix(-1 0 0 1 259.149 235.108)" fill="#E9B42E"/>
<rect width="13.0969" height="2.01491" transform="matrix(-1 0 0 1 269.208 237.104)" fill="#E9B42E"/>
<ellipse cx="3.02236" cy="3.02235" rx="3.02236" ry="3.02235" transform="matrix(-1 0 0 1 259.149 236.115)" fill="#E9B42E" fill-opacity="0.37"/>
<rect width="13.0969" height="2.01491" transform="matrix(-1 0 0 1 269.208 238.112)" fill="#E9B42E" fill-opacity="0.37"/>
<path d="M269.208 236.766H259.674C258.918 236.766 258.186 236.5 257.606 236.015L257.277 235.739C256.16 234.805 254.511 234.897 253.505 235.949V235.949C252.66 236.832 252.496 238.165 253.1 239.227L253.156 239.325C254.012 240.829 255.982 241.26 257.389 240.252L257.663 240.055C258.21 239.663 258.866 239.452 259.539 239.452H269.208" stroke="#CE9E23"/>
<rect width="1.00745" height="2.01491" transform="matrix(-1 0 0 1 269.208 237.104)" fill="#CE9E23"/>
<path d="M279.355 166.15H275.268C273.611 166.15 272.268 167.493 272.268 169.15V180.139C272.268 181.796 273.611 183.139 275.268 183.139H277.608C278.814 183.139 279.792 184.117 279.792 185.324C279.792 186.53 280.77 187.508 281.976 187.508H312.148C313.392 187.508 314.402 186.499 314.402 185.254C314.402 184.065 315.325 183.081 316.512 183.005L319.213 182.833C320.793 182.732 322.022 181.422 322.022 179.839V169.15C322.022 167.493 320.679 166.15 319.022 166.15H315.955C314.48 166.15 313.285 164.955 313.285 163.48C313.285 162.006 312.09 160.811 310.615 160.811H284.695C283.22 160.811 282.025 162.006 282.025 163.48C282.025 164.955 280.829 166.15 279.355 166.15Z" fill="#C7A96F"/>
<path d="M284.397 186.295L301.387 160.811H311.095L302.6 187.508H284.397V186.295Z" fill="#C49D51"/>
<rect x="231" y="104" width="132" height="1" fill="black"/>
<rect x="362" y="372" width="268" height="1" transform="rotate(-90 362 372)" fill="black"/>
<rect x="230" y="372" width="268" height="1" transform="rotate(-90 230 372)" fill="black"/>
<rect width="131.976" height="266.975" transform="matrix(-1 0 0 1 593.976 105)" fill="#6E5643"/>
<path fill-rule="evenodd" clip-rule="evenodd" d="M581.873 117.115H579.858V117.135H476.089V117.115H474.074V372.001H476.089V119.15H579.858V372.001H581.873V117.115Z" fill="#452910" fill-opacity="0.71"/>
<rect x="-2" y="2" width="88.2277" height="105.217" transform="matrix(-1 0 0 1 569.645 248.19)" stroke="#452910" stroke-opacity="0.67" stroke-width="4"/>
<rect x="-2" y="2" width="88.2277" height="100.363" transform="matrix(-1 0 0 1 569.645 121.983)" stroke="#452910" stroke-opacity="0.67" stroke-width="4"/>
<ellipse cx="3.02236" cy="3.02235" rx="3.02236" ry="3.02235" transform="matrix(-1 0 0 1 490.149 235.108)" fill="#E9B42E"/>
<rect width="13.0969" height="2.01491" transform="matrix(-1 0 0 1 500.208 237.104)" fill="#E9B42E"/>
<ellipse cx="3.02236" cy="3.02235" rx="3.02236" ry="3.02235" transform="matrix(-1 0 0 1 490.149 236.115)" fill="#E9B42E" fill-opacity="0.37"/>
<rect width="13.0969" height="2.01491" transform="matrix(-1 0 0 1 500.208 238.112)" fill="#E9B42E" fill-opacity="0.37"/>
<path d="M500.208 236.766H490.674C489.918 236.766 489.186 236.5 488.606 236.015L488.277 235.739C487.16 234.805 485.511 234.897 484.505 235.949V235.949C483.66 236.832 483.496 238.165 484.1 239.227L484.156 239.325C485.012 240.829 486.982 241.26 488.389 240.252L488.663 240.055C489.21 239.663 489.866 239.452 490.539 239.452H500.208" stroke="#CE9E23"/>
<rect width="1.00745" height="2.01491" transform="matrix(-1 0 0 1 500.208 237.104)" fill="#CE9E23"/>
<path d="M510.355 166.15H506.268C504.611 166.15 503.268 167.493 503.268 169.15V180.139C503.268 181.796 504.611 183.139 506.268 183.139H508.608C509.814 183.139 510.792 184.117 510.792 185.324C510.792 186.53 511.77 187.508 512.976 187.508H543.148C544.392 187.508 545.402 186.499 545.402 185.254C545.402 184.065 546.325 183.081 547.512 183.005L550.213 182.833C551.793 182.732 553.022 181.422 553.022 179.839V169.15C553.022 167.493 551.679 166.15 550.022 166.15H546.955C545.48 166.15 544.285 164.955 544.285 163.48C544.285 162.006 543.09 160.811 541.615 160.811H515.695C514.22 160.811 513.025 162.006 513.025 163.48C513.025 164.955 511.829 166.15 510.355 166.15Z" fill="#C7A96F"/>
<path d="M515.397 186.295L532.387 160.811H542.095L533.6 187.508H515.397V186.295Z" fill="#C49D51"/>
<rect x="462" y="104" width="132" height="1" fill="black"/>
<rect x="593" y="372" width="268" height="1" transform="rotate(-90 593 372)" fill="black"/>
<rect width="131.976" height="266.975" transform="matrix(-1 0 0 1 845.976 105)" fill="#6E5643"/>
<path fill-rule="evenodd" clip-rule="evenodd" d="M833.873 117.115H831.858V117.135H728.089V117.115H726.074V372.001H728.089V119.15H831.858V372.001H833.873V117.115Z" fill="#452910" fill-opacity="0.71"/>
<rect x="-2" y="2" width="88.2277" height="105.217" transform="matrix(-1 0 0 1 821.645 248.19)" stroke="#452910" stroke-opacity="0.67" stroke-width="4"/>
<rect x="-2" y="2" width="88.2277" height="100.363" transform="matrix(-1 0 0 1 821.645 121.983)" stroke="#452910" stroke-opacity="0.67" stroke-width="4"/>
<ellipse cx="3.02236" cy="3.02235" rx="3.02236" ry="3.02235" transform="matrix(-1 0 0 1 742.149 235.108)" fill="#E9B42E"/>
<rect width="13.0969" height="2.01491" transform="matrix(-1 0 0 1 752.208 237.104)" fill="#E9B42E"/>
<ellipse cx="3.02236" cy="3.02235" rx="3.02236" ry="3.02235" transform="matrix(-1 0 0 1 742.149 236.115)" fill="#E9B42E" fill-opacity="0.37"/>
<rect width="13.0969" height="2.01491" transform="matrix(-1 0 0 1 752.208 238.112)" fill="#E9B42E" fill-opacity="0.37"/>
<path d="M752.208 236.766H742.674C741.918 236.766 741.186 236.5 740.606 236.015L740.277 235.739C739.16 234.805 737.511 234.897 736.505 235.949V235.949C735.66 236.832 735.496 238.165 736.1 239.227L736.156 239.325C737.012 240.829 738.982 241.26 740.389 240.252L740.663 240.055C741.21 239.663 741.866 239.452 742.539 239.452H752.208" stroke="#CE9E23"/>
<rect width="1.00745" height="2.01491" transform="matrix(-1 0 0 1 752.208 237.104)" fill="#CE9E23"/>
<path d="M762.355 166.15H758.268C756.611 166.15 755.268 167.493 755.268 169.15V180.139C755.268 181.796 756.611 183.139 758.268 183.139H760.608C761.814 183.139 762.792 184.117 762.792 185.324C762.792 186.53 763.77 187.508 764.976 187.508H795.148C796.392 187.508 797.402 186.499 797.402 185.254C797.402 184.065 798.325 183.081 799.512 183.005L802.213 182.833C803.793 182.732 805.022 181.422 805.022 179.839V169.15C805.022 167.493 803.679 166.15 802.022 166.15H798.955C797.48 166.15 796.285 164.955 796.285 163.48C796.285 162.006 795.09 160.811 793.615 160.811H767.695C766.22 160.811 765.025 162.006 765.025 163.48C765.025 164.955 763.829 166.15 762.355 166.15Z" fill="#C7A96F"/>
<path d="M767.397 186.295L784.387 160.811H794.095L785.6 187.508H767.397V186.295Z" fill="#C49D51"/>
<rect x="714" y="104" width="132" height="1" fill="black"/>
<rect x="845" y="372" width="268" height="1" transform="rotate(-90 845 372)" fill="black"/>
<path d="M294.297 175.32C294.508 175.352 294.734 175.379 294.977 175.402C295.219 175.418 295.461 175.43 295.703 175.438C295.953 175.445 296.195 175.453 296.43 175.461C296.672 175.461 296.895 175.461 297.098 175.461H297.332C297.449 175.461 297.547 175.445 297.625 175.414C297.703 175.375 297.742 175.285 297.742 175.145C297.742 174.988 297.703 174.836 297.625 174.688C297.555 174.539 297.496 174.391 297.449 174.242C297.363 173.945 297.281 173.645 297.203 173.34C297.133 173.035 297.043 172.746 296.934 172.473C296.934 172.457 296.91 172.41 296.863 172.332C296.816 172.246 296.789 172.195 296.781 172.18C296.773 172.156 296.762 172.109 296.746 172.039C296.738 171.969 296.727 171.891 296.711 171.805C296.695 171.719 296.68 171.641 296.664 171.57C296.656 171.5 296.648 171.453 296.641 171.43C296.641 171.422 296.629 171.391 296.605 171.336C296.582 171.273 296.551 171.207 296.512 171.137C296.48 171.059 296.449 170.98 296.418 170.902C296.387 170.824 296.363 170.762 296.348 170.715C296.348 170.715 296.34 170.699 296.324 170.668C296.309 170.637 296.293 170.605 296.277 170.574C296.262 170.535 296.246 170.504 296.23 170.48C296.215 170.449 296.207 170.43 296.207 170.422C296.168 170.352 296.141 170.273 296.125 170.188C296.109 170.102 296.09 170.02 296.066 169.941C296.051 169.863 296.027 169.789 295.996 169.719C295.965 169.648 295.918 169.59 295.855 169.543H295.797C295.688 169.543 295.594 169.633 295.516 169.812C295.445 169.992 295.383 170.195 295.328 170.422C295.273 170.648 295.227 170.871 295.188 171.09C295.156 171.301 295.129 171.441 295.105 171.512C295.09 171.559 295.066 171.637 295.035 171.746C295.004 171.855 294.98 171.922 294.965 171.945C294.879 172.281 294.785 172.617 294.684 172.953C294.59 173.281 294.508 173.613 294.438 173.949C294.438 173.957 294.434 173.988 294.426 174.043C294.426 174.09 294.422 174.145 294.414 174.207C294.406 174.262 294.398 174.316 294.391 174.371C294.383 174.418 294.379 174.449 294.379 174.465C294.355 174.527 294.328 174.574 294.297 174.605C294.273 174.637 294.25 174.672 294.227 174.711C294.203 174.742 294.184 174.781 294.168 174.828C294.152 174.867 294.145 174.922 294.145 174.992V175.074C294.145 175.137 294.152 175.191 294.168 175.238C294.184 175.277 294.227 175.305 294.297 175.32ZM288.59 181.742C288.59 181.68 288.613 181.613 288.66 181.543C288.707 181.473 288.754 181.422 288.801 181.391C288.816 181.391 288.875 181.387 288.977 181.379C289.078 181.363 289.145 181.348 289.176 181.332C289.363 181.277 289.535 181.211 289.691 181.133C289.848 181.047 290.012 180.961 290.184 180.875C290.355 180.805 290.504 180.75 290.629 180.711C290.754 180.672 290.863 180.625 290.957 180.57C291.059 180.516 291.152 180.441 291.238 180.348C291.332 180.254 291.426 180.121 291.52 179.949C291.574 179.848 291.605 179.719 291.613 179.562C291.629 179.406 291.645 179.285 291.66 179.199C291.66 179.191 291.672 179.172 291.695 179.141C291.727 179.102 291.742 179.078 291.742 179.07C291.75 179.039 291.762 178.996 291.777 178.941C291.801 178.887 291.812 178.852 291.812 178.836C291.812 178.828 291.812 178.801 291.812 178.754C291.82 178.707 291.828 178.66 291.836 178.613C291.844 178.566 291.852 178.523 291.859 178.484C291.867 178.438 291.871 178.41 291.871 178.402C291.879 178.387 291.891 178.367 291.906 178.344C291.914 178.328 291.922 178.312 291.93 178.297C291.938 178.273 291.945 178.254 291.953 178.238C292 178.16 292.051 178.059 292.105 177.934C292.168 177.809 292.227 177.676 292.281 177.535C292.336 177.395 292.387 177.262 292.434 177.137C292.48 177.004 292.516 176.891 292.539 176.797C292.594 176.562 292.664 176.328 292.75 176.094C292.844 175.859 292.926 175.625 292.996 175.391C293.027 175.234 293.059 175.066 293.09 174.887C293.121 174.707 293.156 174.539 293.195 174.383C293.211 174.359 293.234 174.301 293.266 174.207C293.297 174.105 293.32 174.039 293.336 174.008C293.344 173.992 293.371 173.957 293.418 173.902C293.465 173.84 293.488 173.801 293.488 173.785C293.496 173.777 293.5 173.758 293.5 173.727C293.508 173.688 293.516 173.648 293.523 173.609C293.531 173.562 293.535 173.523 293.535 173.492C293.543 173.453 293.547 173.43 293.547 173.422C293.562 173.391 293.578 173.344 293.594 173.281C293.617 173.211 293.637 173.145 293.652 173.082C293.668 173.02 293.68 172.965 293.688 172.918C293.703 172.863 293.711 172.832 293.711 172.824C293.711 172.816 293.723 172.789 293.746 172.742C293.77 172.688 293.793 172.633 293.816 172.578C293.84 172.516 293.859 172.461 293.875 172.414C293.898 172.359 293.914 172.324 293.922 172.309C293.938 172.293 293.961 172.242 293.992 172.156C294.023 172.07 294.055 171.98 294.086 171.887C294.117 171.785 294.145 171.691 294.168 171.605C294.199 171.512 294.215 171.453 294.215 171.43C294.246 171.352 294.277 171.25 294.309 171.125C294.348 171 294.391 170.875 294.438 170.75C294.484 170.617 294.539 170.496 294.602 170.387C294.664 170.27 294.734 170.184 294.812 170.129C294.844 169.934 294.895 169.75 294.965 169.578C295.035 169.398 295.109 169.227 295.188 169.062C295.266 168.891 295.332 168.719 295.387 168.547C295.449 168.367 295.48 168.18 295.48 167.984C295.48 167.82 295.453 167.691 295.398 167.598C295.352 167.504 295.297 167.43 295.234 167.375C295.18 167.312 295.125 167.254 295.07 167.199C295.023 167.145 295 167.07 295 166.977C295 166.961 295.004 166.938 295.012 166.906C295.02 166.867 295.023 166.84 295.023 166.824C295.133 166.762 295.258 166.707 295.398 166.66C295.539 166.613 295.676 166.562 295.809 166.508C295.949 166.445 296.074 166.371 296.184 166.285C296.293 166.191 296.367 166.074 296.406 165.934C296.414 165.918 296.43 165.875 296.453 165.805C296.477 165.734 296.5 165.66 296.523 165.582C296.547 165.504 296.57 165.43 296.594 165.359C296.617 165.289 296.633 165.246 296.641 165.23C296.656 165.16 296.688 165.09 296.734 165.02C296.789 164.949 296.855 164.914 296.934 164.914C296.941 164.914 296.945 164.918 296.945 164.926C296.953 164.926 296.961 164.926 296.969 164.926H296.992C297.016 164.941 297.043 164.969 297.074 165.008C297.113 165.039 297.152 165.074 297.191 165.113C297.238 165.152 297.277 165.191 297.309 165.23C297.34 165.262 297.359 165.285 297.367 165.301C297.383 165.301 297.398 165.328 297.414 165.383C297.438 165.43 297.449 165.469 297.449 165.5C297.449 165.531 297.461 165.598 297.484 165.699C297.508 165.801 297.531 165.91 297.555 166.027C297.578 166.137 297.602 166.242 297.625 166.344C297.648 166.445 297.66 166.508 297.66 166.531C297.668 166.562 297.691 166.637 297.73 166.754C297.77 166.871 297.809 166.996 297.848 167.129C297.895 167.254 297.938 167.375 297.977 167.492C298.016 167.602 298.035 167.672 298.035 167.703C298.105 167.953 298.176 168.223 298.246 168.512C298.316 168.801 298.391 169.07 298.469 169.32C298.469 169.328 298.477 169.355 298.492 169.402C298.516 169.441 298.539 169.488 298.562 169.543C298.594 169.59 298.621 169.637 298.645 169.684C298.676 169.723 298.695 169.746 298.703 169.754C298.766 169.902 298.801 170.062 298.809 170.234C298.824 170.398 298.863 170.559 298.926 170.715C299.082 171.207 299.242 171.684 299.406 172.145C299.57 172.605 299.719 173.082 299.852 173.574C299.859 173.598 299.871 173.645 299.887 173.715C299.902 173.785 299.918 173.863 299.934 173.949C299.949 174.027 299.965 174.102 299.98 174.172C299.996 174.242 300.004 174.285 300.004 174.301C300.012 174.316 300.027 174.352 300.051 174.406C300.074 174.453 300.098 174.504 300.121 174.559C300.152 174.613 300.176 174.664 300.191 174.711C300.215 174.758 300.227 174.785 300.227 174.793C300.227 174.809 300.23 174.844 300.238 174.898C300.246 174.945 300.254 175 300.262 175.062C300.27 175.117 300.277 175.172 300.285 175.227C300.293 175.273 300.297 175.305 300.297 175.32C300.305 175.352 300.32 175.422 300.344 175.531C300.375 175.641 300.406 175.758 300.438 175.883C300.477 176 300.512 176.113 300.543 176.223C300.574 176.332 300.594 176.402 300.602 176.434C300.688 176.746 300.785 177.055 300.895 177.359C301.012 177.664 301.109 177.984 301.188 178.32C301.25 178.617 301.309 178.906 301.363 179.188C301.426 179.461 301.512 179.734 301.621 180.008C301.668 180.125 301.711 180.254 301.75 180.395C301.789 180.527 301.844 180.641 301.914 180.734C302 180.867 302.109 180.977 302.242 181.062C302.383 181.141 302.527 181.203 302.676 181.25C302.832 181.297 302.988 181.332 303.145 181.355C303.309 181.371 303.457 181.383 303.59 181.391C303.707 181.43 303.777 181.492 303.801 181.578C303.832 181.656 303.848 181.746 303.848 181.848C303.848 181.855 303.844 181.867 303.836 181.883C303.836 181.891 303.836 181.902 303.836 181.918C303.828 181.941 303.824 181.961 303.824 181.977L303.672 182.059H303.297H302.781C302.766 182.059 302.727 182.043 302.664 182.012C302.609 181.988 302.578 181.977 302.57 181.977H302.512C302.387 181.977 302.27 181.988 302.16 182.012C302.051 182.043 301.93 182.059 301.797 182.059C301.641 182.059 301.48 182.043 301.316 182.012C301.16 181.988 301 181.977 300.836 181.977C300.75 181.977 300.668 181.988 300.59 182.012C300.512 182.043 300.43 182.059 300.344 182.059C300.133 182.059 299.922 182.043 299.711 182.012C299.508 181.988 299.293 181.977 299.066 181.977C298.738 181.977 298.406 182.004 298.07 182.059C297.742 182.113 297.402 182.141 297.051 182.141H296.699C296.637 182.086 296.582 182.023 296.535 181.953C296.496 181.883 296.477 181.805 296.477 181.719C296.477 181.617 296.531 181.539 296.641 181.484C296.758 181.43 296.902 181.387 297.074 181.355C297.246 181.324 297.438 181.301 297.648 181.285C297.867 181.262 298.078 181.234 298.281 181.203C298.484 181.172 298.668 181.125 298.832 181.062C299.004 181 299.133 180.914 299.219 180.805V180.559V180.312C299.211 180.305 299.199 180.277 299.184 180.23C299.176 180.176 299.164 180.117 299.148 180.055C299.133 179.984 299.117 179.922 299.102 179.867C299.086 179.805 299.074 179.754 299.066 179.715C299.059 179.699 299.043 179.66 299.02 179.598C298.996 179.535 298.969 179.469 298.938 179.398C298.914 179.32 298.891 179.25 298.867 179.188C298.852 179.125 298.844 179.086 298.844 179.07C298.836 179.047 298.82 178.996 298.797 178.918C298.781 178.84 298.762 178.754 298.738 178.66C298.715 178.566 298.691 178.48 298.668 178.402C298.645 178.316 298.633 178.262 298.633 178.238C298.625 178.23 298.609 178.195 298.586 178.133C298.57 178.07 298.547 178.004 298.516 177.934C298.492 177.855 298.469 177.785 298.445 177.723C298.43 177.652 298.418 177.609 298.41 177.594C298.387 177.508 298.363 177.406 298.34 177.289C298.316 177.164 298.285 177.039 298.246 176.914C298.215 176.789 298.176 176.676 298.129 176.574C298.082 176.473 298.023 176.398 297.953 176.352H297.449H296.934C296.918 176.352 296.879 176.367 296.816 176.398C296.754 176.422 296.715 176.434 296.699 176.434H296.676H296.641C296.633 176.434 296.605 176.43 296.559 176.422C296.52 176.414 296.473 176.406 296.418 176.398C296.371 176.383 296.324 176.371 296.277 176.363C296.238 176.355 296.215 176.352 296.207 176.352C296.199 176.352 296.176 176.355 296.137 176.363C296.098 176.371 296.059 176.383 296.02 176.398C295.98 176.406 295.941 176.414 295.902 176.422C295.871 176.43 295.855 176.434 295.855 176.434H294.508C294.477 176.434 294.422 176.438 294.344 176.445C294.273 176.445 294.195 176.449 294.109 176.457C294.023 176.465 293.941 176.473 293.863 176.48C293.793 176.488 293.742 176.496 293.711 176.504C293.695 176.512 293.684 176.52 293.676 176.527C293.66 176.535 293.648 176.543 293.641 176.551C293.641 176.559 293.637 176.562 293.629 176.562C293.473 177.055 293.32 177.555 293.172 178.062C293.031 178.57 292.895 179.074 292.762 179.574C292.73 179.699 292.684 179.832 292.621 179.973C292.566 180.113 292.539 180.25 292.539 180.383C292.539 180.484 292.562 180.586 292.609 180.688C292.664 180.789 292.715 180.879 292.762 180.957C292.785 180.957 292.832 180.961 292.902 180.969C292.973 180.977 293.047 180.988 293.125 181.004C293.203 181.012 293.277 181.02 293.348 181.027C293.418 181.035 293.465 181.039 293.488 181.039C293.496 181.039 293.52 181.047 293.559 181.062C293.605 181.078 293.652 181.094 293.699 181.109C293.754 181.125 293.801 181.141 293.84 181.156C293.887 181.164 293.914 181.168 293.922 181.168C294.023 181.191 294.129 181.207 294.238 181.215C294.355 181.223 294.461 181.238 294.555 181.262C294.648 181.285 294.727 181.328 294.789 181.391C294.852 181.445 294.883 181.535 294.883 181.66C294.883 181.887 294.832 182.023 294.73 182.07C294.637 182.117 294.504 182.141 294.332 182.141H294.18H293.711C293.695 182.141 293.66 182.137 293.605 182.129C293.559 182.121 293.508 182.109 293.453 182.094C293.398 182.086 293.344 182.078 293.289 182.07C293.242 182.062 293.211 182.059 293.195 182.059H291.812C291.797 182.059 291.762 182.055 291.707 182.047C291.66 182.039 291.605 182.027 291.543 182.012C291.488 182.004 291.434 181.996 291.379 181.988C291.332 181.98 291.301 181.977 291.285 181.977H291.086C291.016 181.977 290.953 181.98 290.898 181.988C290.844 181.996 290.777 182.02 290.699 182.059H289.469C289.438 182.074 289.398 182.09 289.352 182.105C289.305 182.129 289.273 182.141 289.258 182.141H289.199C289.16 182.141 289.105 182.129 289.035 182.105C288.973 182.082 288.91 182.051 288.848 182.012C288.777 181.98 288.719 181.941 288.672 181.895C288.617 181.84 288.59 181.789 288.59 181.742Z" fill="black"/>
<path d="M526.164 170.387V171.02C526.164 171.285 526.168 171.547 526.176 171.805C526.184 172.062 526.207 172.316 526.246 172.566C526.254 172.652 526.297 172.723 526.375 172.777C526.461 172.832 526.547 172.859 526.633 172.859C526.836 172.859 527.02 172.824 527.184 172.754C527.348 172.684 527.52 172.621 527.699 172.566C528.074 172.441 528.383 172.324 528.625 172.215C528.875 172.105 529.094 171.98 529.281 171.84C529.469 171.699 529.645 171.531 529.809 171.336C529.98 171.133 530.176 170.883 530.395 170.586C530.48 170.492 530.559 170.391 530.629 170.281C530.707 170.172 530.754 170.062 530.77 169.953V169.73V169.203C530.77 169.188 530.781 169.137 530.805 169.051C530.836 168.965 530.852 168.918 530.852 168.91V168.863V168.828C530.812 168.672 530.773 168.504 530.734 168.324C530.703 168.137 530.664 167.965 530.617 167.809C530.594 167.715 530.547 167.594 530.477 167.445C530.406 167.297 530.328 167.148 530.242 167C530.156 166.852 530.07 166.715 529.984 166.59C529.898 166.465 529.824 166.383 529.762 166.344C529.746 166.336 529.703 166.328 529.633 166.32C529.562 166.305 529.527 166.289 529.527 166.273C529.52 166.258 529.496 166.211 529.457 166.133C529.418 166.047 529.398 165.992 529.398 165.969C529.391 165.969 529.375 165.957 529.352 165.934C529.336 165.926 529.324 165.918 529.316 165.91C529.113 165.816 528.906 165.723 528.695 165.629C528.484 165.535 528.27 165.434 528.051 165.324C528.012 165.316 527.938 165.305 527.828 165.289C527.719 165.273 527.602 165.258 527.477 165.242C527.359 165.227 527.246 165.211 527.137 165.195C527.027 165.18 526.953 165.172 526.914 165.172H526.855C526.652 165.172 526.496 165.242 526.387 165.383C526.277 165.516 526.23 165.691 526.246 165.91C526.254 166.668 526.242 167.414 526.211 168.148C526.18 168.883 526.164 169.629 526.164 170.387ZM526.023 180.207C526.023 180.457 526.051 180.656 526.105 180.805C526.16 180.953 526.25 181.129 526.375 181.332C526.375 181.348 526.387 181.375 526.41 181.414C526.441 181.453 526.457 181.477 526.457 181.484C526.473 181.484 526.516 181.488 526.586 181.496C526.656 181.504 526.699 181.508 526.715 181.508C526.871 181.508 527.008 181.473 527.125 181.402C527.25 181.332 527.391 181.289 527.547 181.273C527.688 181.266 527.816 181.262 527.934 181.262C528.059 181.254 528.18 181.246 528.297 181.238C528.414 181.23 528.531 181.215 528.648 181.191C528.766 181.16 528.891 181.109 529.023 181.039C529.039 181.031 529.066 181.016 529.105 180.992C529.152 180.961 529.199 180.93 529.246 180.898C529.293 180.867 529.336 180.84 529.375 180.816C529.422 180.793 529.453 180.781 529.469 180.781C529.477 180.773 529.5 180.762 529.539 180.746C529.586 180.723 529.633 180.703 529.68 180.688C529.734 180.664 529.781 180.648 529.82 180.641C529.867 180.625 529.895 180.617 529.902 180.617C529.934 180.609 529.984 180.578 530.055 180.523C530.133 180.461 530.18 180.422 530.195 180.406C530.211 180.383 530.25 180.336 530.312 180.266C530.375 180.188 530.445 180.102 530.523 180.008C530.602 179.914 530.676 179.82 530.746 179.727C530.816 179.633 530.871 179.562 530.91 179.516C530.941 179.484 530.973 179.445 531.004 179.398C531.043 179.352 531.062 179.32 531.062 179.305C531.133 179.156 531.184 179 531.215 178.836C531.254 178.664 531.305 178.5 531.367 178.344V177.254C531.328 177.215 531.301 177.168 531.285 177.113C531.27 177.059 531.262 177.008 531.262 176.961C531.262 176.914 531.266 176.867 531.273 176.82C531.281 176.773 531.285 176.734 531.285 176.703V176.668C531.27 176.551 531.227 176.438 531.156 176.328C531.086 176.211 531.051 176.086 531.051 175.953C531.051 175.938 531.051 175.922 531.051 175.906C531.059 175.891 531.062 175.875 531.062 175.859C531.039 175.828 530.992 175.77 530.922 175.684C530.859 175.598 530.785 175.508 530.699 175.414C530.621 175.32 530.543 175.234 530.465 175.156C530.395 175.078 530.344 175.023 530.312 174.992C530.312 174.977 530.281 174.941 530.219 174.887C530.156 174.824 530.125 174.785 530.125 174.77C530.109 174.754 530.094 174.719 530.078 174.664C530.07 174.602 530.066 174.559 530.066 174.535C530.043 174.527 530.012 174.508 529.973 174.477C529.941 174.438 529.918 174.414 529.902 174.406C529.723 174.266 529.527 174.145 529.316 174.043C529.113 173.941 528.902 173.855 528.684 173.785C528.465 173.715 528.242 173.652 528.016 173.598C527.789 173.543 527.566 173.488 527.348 173.434C527.332 173.434 527.301 173.43 527.254 173.422C527.215 173.406 527.172 173.391 527.125 173.375C527.078 173.359 527.031 173.344 526.984 173.328C526.945 173.312 526.922 173.301 526.914 173.293C526.844 173.285 526.766 173.301 526.68 173.34C526.594 173.379 526.512 173.43 526.434 173.492C526.355 173.555 526.289 173.625 526.234 173.703C526.188 173.773 526.164 173.836 526.164 173.891V175.625C526.18 175.656 526.195 175.711 526.211 175.789C526.234 175.859 526.246 175.902 526.246 175.918V175.977V176C526.246 176.008 526.234 176.031 526.211 176.07C526.195 176.109 526.18 176.137 526.164 176.152C526.164 176.285 526.168 176.406 526.176 176.516C526.184 176.625 526.188 176.734 526.188 176.844C526.188 176.961 526.18 177.074 526.164 177.184C526.148 177.293 526.121 177.414 526.082 177.547C526.066 177.562 526.055 177.582 526.047 177.605C526.031 177.652 526.023 177.68 526.023 177.688V177.723C526.023 177.793 526.031 177.859 526.047 177.922C526.07 177.984 526.082 178.059 526.082 178.145V178.262C526.082 178.27 526.07 178.305 526.047 178.367C526.031 178.43 526.023 178.465 526.023 178.473C526.023 178.496 526.031 178.539 526.047 178.602C526.07 178.656 526.082 178.691 526.082 178.707V178.953C526.082 179.156 526.07 179.367 526.047 179.586C526.031 179.797 526.023 180.004 526.023 180.207ZM520.832 181.859C520.832 181.773 520.855 181.695 520.902 181.625C520.957 181.555 521.02 181.492 521.09 181.438C521.168 181.383 521.25 181.336 521.336 181.297C521.422 181.258 521.496 181.223 521.559 181.191C521.816 181.215 522.086 181.227 522.367 181.227C522.516 181.227 522.66 181.219 522.801 181.203C522.941 181.18 523.066 181.137 523.176 181.074C523.285 181.004 523.371 180.91 523.434 180.793C523.496 180.676 523.527 180.52 523.527 180.324V177.547C523.512 177.516 523.496 177.453 523.48 177.359C523.473 177.266 523.469 177.203 523.469 177.172V177.102V177.043C523.469 177.02 523.473 176.969 523.48 176.891C523.488 176.812 523.492 176.727 523.492 176.633C523.5 176.539 523.508 176.453 523.516 176.375C523.523 176.289 523.527 176.234 523.527 176.211C523.527 176.148 523.527 176.027 523.527 175.848C523.535 175.668 523.539 175.48 523.539 175.285C523.547 175.082 523.551 174.891 523.551 174.711C523.559 174.523 523.562 174.395 523.562 174.324V173.949C523.57 173.879 523.574 173.746 523.574 173.551C523.582 173.355 523.586 173.152 523.586 172.941C523.594 172.723 523.598 172.516 523.598 172.32C523.605 172.125 523.609 171.992 523.609 171.922C523.609 171.906 523.605 171.879 523.598 171.84C523.59 171.793 523.578 171.746 523.562 171.699C523.555 171.645 523.547 171.598 523.539 171.559C523.531 171.512 523.527 171.48 523.527 171.465V171.383V171.324C523.527 171.309 523.531 171.277 523.539 171.23C523.547 171.176 523.555 171.121 523.562 171.066C523.57 171.012 523.578 170.961 523.586 170.914C523.594 170.859 523.602 170.82 523.609 170.797V167.434C523.609 167.23 523.633 167.043 523.68 166.871C523.734 166.691 523.762 166.492 523.762 166.273C523.762 166.062 523.73 165.887 523.668 165.746C523.613 165.598 523.492 165.457 523.305 165.324C523.258 165.34 523.172 165.348 523.047 165.348C522.93 165.348 522.809 165.348 522.684 165.348C522.551 165.348 522.426 165.348 522.309 165.348C522.199 165.348 522.125 165.34 522.086 165.324C522.016 165.324 521.926 165.305 521.816 165.266C521.715 165.227 521.609 165.184 521.5 165.137C521.398 165.082 521.305 165.023 521.219 164.961C521.133 164.898 521.074 164.844 521.043 164.797C521.145 164.641 521.254 164.547 521.371 164.516C521.488 164.477 521.617 164.457 521.758 164.457H522.203C522.227 164.457 522.277 164.445 522.355 164.422C522.441 164.391 522.492 164.375 522.508 164.375C522.516 164.375 522.535 164.379 522.566 164.387C522.598 164.395 522.629 164.406 522.66 164.422C522.691 164.43 522.719 164.438 522.742 164.445C522.773 164.453 522.793 164.457 522.801 164.457H524.055C524.109 164.488 524.172 164.512 524.242 164.527C524.312 164.535 524.383 164.539 524.453 164.539H524.723H524.863L524.957 164.562C525.02 164.578 525.055 164.59 525.062 164.598H525.812H526.082C526.105 164.598 526.148 164.602 526.211 164.609C526.281 164.617 526.352 164.625 526.422 164.633C526.492 164.641 526.559 164.648 526.621 164.656C526.684 164.664 526.727 164.672 526.75 164.68L526.914 164.598H528.133C528.164 164.582 528.23 164.57 528.332 164.562C528.434 164.547 528.492 164.539 528.508 164.539L528.555 164.516C528.586 164.5 528.602 164.492 528.602 164.492C529.297 164.492 529.969 164.594 530.617 164.797L530.688 164.867C530.891 165.008 531.102 165.129 531.32 165.23C531.539 165.332 531.75 165.438 531.953 165.547L531.977 165.57C532 165.594 532.02 165.609 532.035 165.617C532.035 165.633 532.055 165.672 532.094 165.734C532.133 165.789 532.156 165.824 532.164 165.84C532.172 165.855 532.184 165.867 532.199 165.875C532.207 165.898 532.223 165.91 532.246 165.91C532.426 166.137 532.59 166.359 532.738 166.578C532.887 166.797 533.016 167.023 533.125 167.258C533.234 167.492 533.316 167.738 533.371 167.996C533.434 168.254 533.465 168.531 533.465 168.828V168.91C533.465 168.926 533.461 168.961 533.453 169.016C533.445 169.07 533.438 169.133 533.43 169.203C533.43 169.266 533.426 169.324 533.418 169.379C533.41 169.434 533.406 169.473 533.406 169.496V169.812V169.953C533.383 170.023 533.355 170.09 533.324 170.152C533.301 170.207 533.273 170.262 533.242 170.316C533.211 170.363 533.188 170.406 533.172 170.445C533.102 170.625 533.023 170.828 532.938 171.055C532.859 171.281 532.754 171.473 532.621 171.629C532.605 171.637 532.562 171.645 532.492 171.652C532.422 171.66 532.387 171.672 532.387 171.688C532.371 171.703 532.332 171.742 532.27 171.805C532.215 171.859 532.18 171.898 532.164 171.922C532.156 171.93 532.121 171.945 532.059 171.969C532.004 171.992 531.941 172.02 531.871 172.051C531.809 172.082 531.746 172.113 531.684 172.145C531.629 172.176 531.594 172.199 531.578 172.215C531.547 172.238 531.496 172.285 531.426 172.355C531.355 172.418 531.281 172.488 531.203 172.566C531.125 172.637 531.051 172.707 530.98 172.777C530.918 172.848 530.875 172.898 530.852 172.93C530.859 172.961 530.887 172.984 530.934 173C530.98 173.016 531.031 173.027 531.086 173.035C531.141 173.035 531.195 173.039 531.25 173.047C531.305 173.047 531.344 173.051 531.367 173.059C531.375 173.082 531.418 173.121 531.496 173.176C531.574 173.223 531.629 173.262 531.66 173.293C531.668 173.309 531.703 173.348 531.766 173.41C531.828 173.465 531.863 173.5 531.871 173.516C531.879 173.523 531.898 173.539 531.93 173.562C531.969 173.578 532.008 173.598 532.047 173.621C532.086 173.645 532.125 173.668 532.164 173.691C532.203 173.715 532.23 173.727 532.246 173.727C532.48 173.914 532.691 174.133 532.879 174.383C533.066 174.633 533.242 174.883 533.406 175.133C533.414 175.141 533.43 175.164 533.453 175.203C533.484 175.234 533.516 175.273 533.547 175.32C533.578 175.359 533.609 175.398 533.641 175.438C533.672 175.477 533.691 175.5 533.699 175.508C533.762 175.609 533.824 175.758 533.887 175.953C533.949 176.148 534.004 176.352 534.051 176.562C534.098 176.773 534.137 176.98 534.168 177.184C534.199 177.379 534.215 177.535 534.215 177.652C534.215 177.762 534.195 177.879 534.156 178.004C534.125 178.129 534.094 178.242 534.062 178.344C534.047 178.391 534.031 178.461 534.016 178.555C534.008 178.641 534.004 178.691 534.004 178.707V179.07C533.98 179.164 533.938 179.277 533.875 179.41C533.812 179.543 533.754 179.652 533.699 179.738C533.637 179.848 533.566 179.969 533.488 180.102C533.41 180.234 533.324 180.363 533.23 180.488C533.137 180.613 533.039 180.73 532.938 180.84C532.836 180.949 532.73 181.039 532.621 181.109C532.598 181.125 532.551 181.152 532.48 181.191C532.41 181.23 532.332 181.273 532.246 181.32C532.16 181.359 532.082 181.398 532.012 181.438C531.941 181.469 531.895 181.484 531.871 181.484C531.801 181.523 531.742 181.559 531.695 181.59C531.656 181.613 531.613 181.637 531.566 181.66C531.52 181.684 531.469 181.707 531.414 181.73C531.359 181.754 531.289 181.773 531.203 181.789C531.117 181.805 531.012 181.824 530.887 181.848C530.762 181.871 530.637 181.895 530.512 181.918C530.371 181.949 530.223 181.977 530.066 182H526.023C526.008 182.008 525.973 182.016 525.918 182.023C525.871 182.031 525.82 182.039 525.766 182.047C525.711 182.055 525.656 182.062 525.602 182.07C525.555 182.078 525.52 182.082 525.496 182.082H523.305C523.195 182.113 523.09 182.133 522.988 182.141C522.895 182.148 522.797 182.152 522.695 182.152H522.203H521.934C521.918 182.152 521.879 182.16 521.816 182.176C521.762 182.199 521.727 182.211 521.711 182.211H521.523C521.477 182.211 521.414 182.207 521.336 182.199C521.258 182.191 521.18 182.172 521.102 182.141C521.031 182.117 520.969 182.082 520.914 182.035C520.859 181.988 520.832 181.93 520.832 181.859Z" fill="black"/>
<path d="M778.609 181.766C778.414 181.656 778.211 181.562 778 181.484C777.797 181.406 777.594 181.301 777.391 181.168C777.375 181.168 777.348 181.156 777.309 181.133C777.27 181.102 777.23 181.07 777.191 181.039C777.152 181.008 777.113 180.977 777.074 180.945C777.043 180.914 777.023 180.891 777.016 180.875C776.914 180.812 776.812 180.758 776.711 180.711C776.609 180.664 776.516 180.609 776.43 180.547L775.68 179.797C775.664 179.781 775.625 179.754 775.562 179.715C775.508 179.676 775.477 179.656 775.469 179.656C775.469 179.602 775.441 179.574 775.387 179.574C775.277 179.418 775.156 179.266 775.023 179.117C774.898 178.961 774.781 178.793 774.672 178.613C774.664 178.613 774.641 178.574 774.602 178.496C774.57 178.418 774.551 178.359 774.543 178.32C774.176 177.602 773.852 176.871 773.57 176.129C773.562 176.121 773.535 176.074 773.488 175.988C773.441 175.902 773.418 175.852 773.418 175.836V175.391C773.395 175.141 773.363 174.902 773.324 174.676C773.293 174.441 773.277 174.199 773.277 173.949V173.574C773.285 173.496 773.293 173.359 773.301 173.164C773.316 172.961 773.332 172.746 773.348 172.52C773.363 172.293 773.375 172.082 773.383 171.887C773.398 171.684 773.41 171.539 773.418 171.453C773.434 171.234 773.48 171.031 773.559 170.844C773.645 170.656 773.723 170.465 773.793 170.27C773.793 170.262 773.797 170.242 773.805 170.211C773.812 170.18 773.82 170.145 773.828 170.105C773.836 170.059 773.844 170.02 773.852 169.988C773.859 169.949 773.863 169.922 773.863 169.906C773.871 169.891 773.883 169.855 773.898 169.801C773.922 169.738 773.945 169.676 773.969 169.613C774 169.551 774.023 169.492 774.039 169.438C774.062 169.375 774.078 169.336 774.086 169.32C774.086 169.312 774.09 169.293 774.098 169.262C774.105 169.223 774.113 169.184 774.121 169.145C774.129 169.098 774.137 169.059 774.145 169.027C774.152 168.988 774.16 168.961 774.168 168.945C774.168 168.938 774.184 168.918 774.215 168.887C774.254 168.855 774.293 168.82 774.332 168.781C774.379 168.734 774.422 168.695 774.461 168.664C774.5 168.625 774.527 168.602 774.543 168.594C774.723 168.375 774.895 168.152 775.059 167.926C775.23 167.699 775.418 167.48 775.621 167.27C775.996 166.863 776.383 166.492 776.781 166.156C777.18 165.82 777.645 165.562 778.176 165.383C778.23 165.359 778.293 165.328 778.363 165.289C778.441 165.25 778.52 165.211 778.598 165.172C778.676 165.133 778.754 165.098 778.832 165.066C778.918 165.035 778.996 165.016 779.066 165.008H779.359C779.375 165.008 779.418 165 779.488 164.984C779.559 164.961 779.613 164.941 779.652 164.926C779.684 164.918 779.738 164.902 779.816 164.879C779.902 164.848 779.992 164.816 780.086 164.785C780.18 164.754 780.27 164.727 780.355 164.703C780.441 164.672 780.504 164.648 780.543 164.633H781.984C782.219 164.633 782.41 164.637 782.559 164.645C782.707 164.652 782.828 164.66 782.922 164.668C783.016 164.676 783.086 164.684 783.133 164.691C783.18 164.699 783.215 164.707 783.238 164.715C783.277 164.723 783.379 164.75 783.543 164.797C783.707 164.836 783.883 164.883 784.07 164.938C784.258 164.984 784.434 165.031 784.598 165.078C784.762 165.117 784.867 165.141 784.914 165.148C784.945 165.148 785.012 165.16 785.113 165.184C785.215 165.199 785.273 165.215 785.289 165.23C785.297 165.23 785.32 165.246 785.359 165.277C785.406 165.309 785.453 165.344 785.5 165.383C785.547 165.414 785.59 165.445 785.629 165.477C785.676 165.5 785.707 165.516 785.723 165.523C785.738 165.523 785.785 165.535 785.863 165.559C785.949 165.582 786 165.598 786.016 165.605C786.078 165.652 786.137 165.711 786.191 165.781C786.246 165.844 786.301 165.906 786.355 165.969C786.418 166.031 786.48 166.086 786.543 166.133C786.613 166.172 786.695 166.191 786.789 166.191C786.883 166.191 786.961 166.125 787.023 165.992C787.094 165.859 787.16 165.715 787.223 165.559C787.285 165.402 787.352 165.258 787.422 165.125C787.492 164.992 787.582 164.926 787.691 164.926C787.77 164.926 787.832 164.969 787.879 165.055C787.934 165.133 787.973 165.227 787.996 165.336C788.027 165.445 788.047 165.555 788.055 165.664C788.062 165.773 788.066 165.852 788.066 165.898C788.066 165.969 788.062 166.027 788.055 166.074C788.047 166.113 788.023 166.164 787.984 166.227V169.613C787.984 169.77 787.953 169.914 787.891 170.047C787.836 170.172 787.723 170.246 787.551 170.27C787.512 170.277 787.473 170.266 787.434 170.234C787.395 170.203 787.359 170.168 787.328 170.129C787.297 170.082 787.266 170.039 787.234 170C787.211 169.953 787.191 169.922 787.176 169.906C787.176 169.891 787.141 169.855 787.07 169.801C787.008 169.738 786.973 169.695 786.965 169.672C786.941 169.641 786.902 169.59 786.848 169.52C786.801 169.449 786.75 169.379 786.695 169.309C786.648 169.23 786.602 169.156 786.555 169.086C786.508 169.016 786.48 168.969 786.473 168.945C786.371 168.797 786.297 168.633 786.25 168.453C786.211 168.266 786.133 168.094 786.016 167.938C785.883 167.758 785.75 167.609 785.617 167.492C785.492 167.375 785.355 167.25 785.207 167.117C785.035 166.969 784.887 166.836 784.762 166.719C784.637 166.594 784.512 166.484 784.387 166.391C784.262 166.297 784.121 166.215 783.965 166.145C783.816 166.066 783.629 165.996 783.402 165.934C783.105 165.863 782.797 165.797 782.477 165.734C782.164 165.672 781.859 165.641 781.562 165.641C781.406 165.641 781.254 165.668 781.105 165.723C780.965 165.777 780.824 165.848 780.684 165.934C780.543 166.012 780.402 166.102 780.262 166.203C780.129 166.297 780 166.383 779.875 166.461C779.766 166.531 779.652 166.578 779.535 166.602C779.418 166.625 779.309 166.68 779.207 166.766C778.996 166.945 778.801 167.145 778.621 167.363C778.449 167.582 778.25 167.773 778.023 167.938C778.008 167.953 777.984 167.98 777.953 168.02C777.922 168.051 777.898 168.07 777.883 168.078C777.883 168.094 777.859 168.152 777.812 168.254C777.766 168.355 777.738 168.422 777.73 168.453C777.699 168.508 777.652 168.574 777.59 168.652C777.535 168.723 777.477 168.797 777.414 168.875C777.359 168.945 777.305 169.02 777.25 169.098C777.203 169.176 777.172 169.25 777.156 169.32C777.109 169.523 777.078 169.723 777.062 169.918C777.047 170.105 777.008 170.301 776.945 170.504C776.883 170.668 776.824 170.832 776.77 170.996C776.715 171.152 776.672 171.328 776.641 171.523C776.625 171.625 776.613 171.754 776.605 171.91C776.605 172.066 776.574 172.199 776.512 172.309C776.496 172.363 776.484 172.457 776.477 172.59C776.469 172.723 776.461 172.863 776.453 173.012C776.445 173.16 776.438 173.301 776.43 173.434C776.43 173.566 776.43 173.66 776.43 173.715C776.43 173.949 776.449 174.195 776.488 174.453C776.535 174.711 776.59 174.973 776.652 175.238C776.723 175.504 776.797 175.766 776.875 176.023C776.953 176.273 777.027 176.508 777.098 176.727C777.098 176.734 777.102 176.766 777.109 176.82C777.125 176.875 777.141 176.938 777.156 177.008C777.172 177.07 777.188 177.133 777.203 177.195C777.219 177.25 777.23 177.289 777.238 177.312C777.238 177.336 777.258 177.379 777.297 177.441C777.344 177.504 777.391 177.574 777.438 177.652C777.492 177.723 777.543 177.789 777.59 177.852C777.637 177.906 777.668 177.938 777.684 177.945C777.691 177.961 777.707 177.996 777.73 178.051C777.762 178.098 777.789 178.152 777.812 178.215C777.844 178.27 777.871 178.324 777.895 178.379C777.926 178.426 777.941 178.457 777.941 178.473C778.051 178.605 778.156 178.723 778.258 178.824C778.359 178.926 778.461 179.02 778.562 179.105C778.672 179.191 778.781 179.277 778.891 179.363C779.008 179.449 779.137 179.547 779.277 179.656L779.5 179.879C779.633 179.941 779.797 180.027 779.992 180.137C780.195 180.238 780.352 180.375 780.461 180.547C780.82 180.578 781.168 180.637 781.504 180.723C781.848 180.801 782.203 180.84 782.57 180.84H782.805C782.914 180.84 783.02 180.836 783.121 180.828C783.223 180.82 783.336 180.789 783.461 180.734C783.469 180.734 783.484 180.73 783.508 180.723C783.539 180.707 783.57 180.691 783.602 180.676C783.633 180.652 783.66 180.637 783.684 180.629C783.707 180.613 783.723 180.605 783.73 180.605C783.754 180.598 783.809 180.582 783.895 180.559C783.988 180.535 784.082 180.512 784.176 180.488C784.277 180.465 784.371 180.445 784.457 180.43C784.543 180.406 784.598 180.391 784.621 180.383C784.629 180.383 784.66 180.363 784.715 180.324C784.777 180.285 784.816 180.258 784.832 180.242C784.84 180.234 784.859 180.219 784.891 180.195C784.922 180.164 784.953 180.137 784.984 180.113C785.023 180.082 785.055 180.059 785.078 180.043C785.109 180.02 785.125 180.008 785.125 180.008C785.148 180 785.188 179.988 785.242 179.973C785.305 179.957 785.348 179.949 785.371 179.949C785.379 179.934 785.387 179.922 785.395 179.914L785.43 179.879C785.461 179.84 785.504 179.781 785.559 179.703C785.621 179.625 785.684 179.547 785.746 179.469C785.809 179.391 785.863 179.32 785.91 179.258C785.965 179.188 786 179.145 786.016 179.129C786.023 179.121 786.047 179.094 786.086 179.047C786.125 178.992 786.164 178.938 786.203 178.883C786.242 178.82 786.281 178.766 786.32 178.719C786.359 178.664 786.383 178.629 786.391 178.613C786.398 178.605 786.414 178.59 786.438 178.566C786.469 178.543 786.5 178.516 786.531 178.484C786.562 178.453 786.59 178.422 786.613 178.391C786.645 178.359 786.66 178.336 786.66 178.32C786.676 178.32 786.691 178.289 786.707 178.227C786.73 178.156 786.742 178.113 786.742 178.098C786.75 178.082 786.77 178.043 786.801 177.98C786.832 177.918 786.863 177.852 786.895 177.781C786.926 177.703 786.953 177.633 786.977 177.57C787.008 177.508 787.027 177.469 787.035 177.453C787.043 177.438 787.055 177.402 787.07 177.348C787.086 177.285 787.102 177.223 787.117 177.16C787.133 177.098 787.145 177.039 787.152 176.984C787.168 176.922 787.176 176.883 787.176 176.867C787.191 176.836 787.211 176.797 787.234 176.75C787.258 176.695 787.281 176.645 787.305 176.598C787.336 176.551 787.371 176.512 787.41 176.48C787.457 176.449 787.504 176.434 787.551 176.434C787.59 176.434 787.629 176.438 787.668 176.445C787.715 176.445 787.75 176.465 787.773 176.504C787.789 176.527 787.809 176.562 787.832 176.609C787.855 176.656 787.879 176.703 787.902 176.75C787.926 176.797 787.945 176.84 787.961 176.879C787.977 176.91 787.984 176.93 787.984 176.938C787.984 176.953 787.977 176.992 787.961 177.055C787.953 177.117 787.941 177.188 787.926 177.266C787.91 177.344 787.895 177.418 787.879 177.488C787.863 177.551 787.852 177.59 787.844 177.605C787.82 177.738 787.793 177.895 787.762 178.074C787.73 178.246 787.699 178.426 787.668 178.613C787.645 178.801 787.621 178.988 787.598 179.176C787.574 179.355 787.559 179.516 787.551 179.656V180.172V180.383C787.535 180.438 787.516 180.484 787.492 180.523C787.477 180.562 787.461 180.602 787.445 180.641C787.43 180.68 787.414 180.711 787.398 180.734C787.375 180.805 787.359 180.852 787.352 180.875C787.352 180.891 787.32 180.898 787.258 180.898C787.188 180.898 787.129 180.855 787.082 180.77C787.043 180.684 787 180.59 786.953 180.488C786.914 180.379 786.863 180.281 786.801 180.195C786.746 180.109 786.668 180.066 786.566 180.066C786.488 180.066 786.449 180.07 786.449 180.078C786.457 180.086 786.438 180.117 786.391 180.172C786.07 180.438 785.742 180.676 785.406 180.887C785.07 181.09 784.711 181.258 784.328 181.391C784.156 181.469 783.992 181.555 783.836 181.648C783.68 181.742 783.508 181.809 783.32 181.848C783.188 181.863 783.051 181.879 782.91 181.895C782.77 181.902 782.656 181.957 782.57 182.059L780.883 182.211C780.523 182.078 780.148 181.984 779.758 181.93C779.367 181.867 778.984 181.812 778.609 181.766Z" fill="black"/>
</g>
<defs>
<clipPath id="clip0_372_2349">
<rect y="430" width="430" height="932" rx="3" transform="rotate(-90 0 430)" fill="white"/>
</clipPath>
</defs>
</svg>
