<svg width="932" height="430" viewBox="0 0 932 430" fill="none" xmlns="http://www.w3.org/2000/svg">
<g filter="url(#filter0_b_669_599)">
<g clip-path="url(#clip0_669_599)">
<rect y="430" width="430" height="932" rx="3" transform="rotate(-90 0 430)" fill="#9F9881"/>
<rect y="267" width="932" height="107" fill="#554435"/>
<rect x="-10.5" y="283.5" width="955" height="78" stroke="#785F48" stroke-width="3"/>
<rect x="-7.5" y="285.5" width="949" height="74" stroke="#64503E" stroke-width="3"/>
<rect y="372" width="932" height="58" fill="#303E34" fill-opacity="0.59"/>
<rect x="-2" y="263" width="942" height="7" fill="#77604A"/>
<rect x="-18.5" y="311.5" width="948" height="3" stroke="#785F48" stroke-width="3"/>
<rect x="-19.25" y="314.75" width="949.5" height="1.5" stroke="#897059" stroke-width="1.5"/>
<rect x="-18.5" y="338.5" width="948" height="3" stroke="#785F48" stroke-width="3"/>
<rect x="-19.25" y="341.75" width="949.5" height="1.5" stroke="#897059" stroke-width="1.5"/>
<rect x="-10.5" y="298.5" width="948" height="3" stroke="#785F48" stroke-width="3"/>
<rect x="-11.25" y="301.75" width="949.5" height="1.5" stroke="#897059" stroke-width="1.5"/>
<rect x="-10.5" y="325.5" width="948" height="3" stroke="#785F48" stroke-width="3"/>
<rect x="-11.25" y="328.75" width="949.5" height="1.5" stroke="#897059" stroke-width="1.5"/>
<rect width="95.5273" height="193.242" transform="matrix(-1 0 0 1 742.251 177.742)" fill="#6E5643"/>
<path fill-rule="evenodd" clip-rule="evenodd" d="M733.49 186.508H732.031V186.524H656.921V186.508H655.463V371H656.921V187.982H732.031V370.999H733.49V186.508Z" fill="#452910" fill-opacity="0.71"/>
<rect x="-2" y="2" width="62.7572" height="75.0546" transform="matrix(-1 0 0 1 723.536 281.387)" stroke="#452910" stroke-opacity="0.67" stroke-width="4"/>
<rect x="-2" y="2" width="62.7572" height="71.5409" transform="matrix(-1 0 0 1 723.536 190.031)" stroke="#452910" stroke-opacity="0.67" stroke-width="4"/>
<ellipse cx="2.18767" cy="2.18767" rx="2.18767" ry="2.18767" transform="matrix(-1 0 0 1 667.099 271.908)" fill="#E9B42E"/>
<rect width="9.4799" height="1.45845" transform="matrix(-1 0 0 1 674.379 273.354)" fill="#E9B42E"/>
<ellipse cx="2.18767" cy="2.18767" rx="2.18767" ry="2.18767" transform="matrix(-1 0 0 1 667.098 272.643)" fill="#E9B42E" fill-opacity="0.37"/>
<rect width="9.4799" height="1.45845" transform="matrix(-1 0 0 1 674.379 274.082)" fill="#E9B42E" fill-opacity="0.37"/>
<path d="M674.379 273.116H667.479C666.931 273.116 666.401 272.924 665.982 272.573L665.743 272.373C664.935 271.697 663.741 271.764 663.013 272.525V272.525C662.402 273.165 662.282 274.129 662.72 274.898L662.76 274.969C663.38 276.058 664.806 276.37 665.824 275.64L666.023 275.498C666.418 275.214 666.893 275.061 667.381 275.061H674.379" stroke="#CE9E23"/>
<rect width="0.729223" height="1.45845" transform="matrix(-1 0 0 1 674.379 273.354)" fill="#CE9E23"/>
<path d="M681.724 222H679.595C677.938 222 676.595 223.343 676.595 225V231.574C676.595 233.078 677.814 234.297 679.318 234.297H680.46C681.333 234.297 682.041 235.005 682.041 235.878C682.041 236.751 682.749 237.459 683.622 237.459H705.461C706.362 237.459 707.092 236.729 707.092 235.828C707.092 234.967 707.761 234.254 708.62 234.2L709.85 234.121C711.401 234.023 712.608 232.736 712.608 231.182V225C712.608 223.343 711.265 222 709.608 222H708.217C707.149 222 706.284 221.134 706.284 220.067C706.284 219 705.419 218.135 704.352 218.135H685.589C684.522 218.135 683.657 219 683.657 220.067C683.657 221.134 682.792 222 681.724 222Z" fill="#C7A96F"/>
<path d="M685.375 236.581L697.672 218.135H704.699L698.55 237.459H685.375V236.581Z" fill="#C49D51"/>
<rect x="646.724" y="177" width="95.5456" height="0.72383" fill="black"/>
<rect x="742.269" y="370.986" width="193.984" height="0.723822" transform="rotate(-90 742.269 370.986)" fill="black"/>
<rect x="646" y="370.986" width="193.984" height="0.723822" transform="rotate(-90 646 370.986)" fill="black"/>
<rect width="95.5273" height="193.242" transform="matrix(-1 0 0 1 511.251 177.742)" fill="#6E5643"/>
<path fill-rule="evenodd" clip-rule="evenodd" d="M502.49 186.508H501.031V186.524H425.921V186.508H424.463V371H425.921V187.982H501.031V370.999H502.49V186.508Z" fill="#452910" fill-opacity="0.71"/>
<rect x="-2" y="2" width="62.7572" height="75.0546" transform="matrix(-1 0 0 1 492.536 281.387)" stroke="#452910" stroke-opacity="0.67" stroke-width="4"/>
<rect x="-2" y="2" width="62.7572" height="71.5409" transform="matrix(-1 0 0 1 492.536 190.031)" stroke="#452910" stroke-opacity="0.67" stroke-width="4"/>
<ellipse cx="2.18767" cy="2.18767" rx="2.18767" ry="2.18767" transform="matrix(-1 0 0 1 436.099 271.908)" fill="#E9B42E"/>
<rect width="9.4799" height="1.45845" transform="matrix(-1 0 0 1 443.379 273.354)" fill="#E9B42E"/>
<ellipse cx="2.18767" cy="2.18767" rx="2.18767" ry="2.18767" transform="matrix(-1 0 0 1 436.098 272.643)" fill="#E9B42E" fill-opacity="0.37"/>
<rect width="9.4799" height="1.45845" transform="matrix(-1 0 0 1 443.379 274.082)" fill="#E9B42E" fill-opacity="0.37"/>
<path d="M443.379 273.116H436.479C435.931 273.116 435.401 272.924 434.982 272.573L434.743 272.373C433.935 271.697 432.741 271.764 432.013 272.525V272.525C431.402 273.165 431.282 274.129 431.72 274.898L431.76 274.969C432.38 276.058 433.806 276.37 434.824 275.64L435.023 275.498C435.418 275.214 435.893 275.061 436.381 275.061H443.379" stroke="#CE9E23"/>
<rect width="0.729223" height="1.45845" transform="matrix(-1 0 0 1 443.379 273.354)" fill="#CE9E23"/>
<path d="M450.724 222H448.595C446.938 222 445.595 223.343 445.595 225V231.574C445.595 233.078 446.814 234.297 448.318 234.297H449.46C450.333 234.297 451.041 235.005 451.041 235.878C451.041 236.751 451.749 237.459 452.622 237.459H474.461C475.362 237.459 476.092 236.729 476.092 235.828C476.092 234.967 476.761 234.254 477.62 234.2L478.85 234.121C480.401 234.023 481.608 232.736 481.608 231.182V225C481.608 223.343 480.265 222 478.608 222H477.217C476.149 222 475.284 221.134 475.284 220.067C475.284 219 474.419 218.135 473.352 218.135H454.589C453.522 218.135 452.657 219 452.657 220.067C452.657 221.134 451.792 222 450.724 222Z" fill="#C7A96F"/>
<path d="M454.375 236.581L466.672 218.135H473.699L467.55 237.459H454.375V236.581Z" fill="#C49D51"/>
<rect x="415.724" y="177" width="95.5456" height="0.72383" fill="black"/>
<rect x="511.269" y="370.986" width="193.984" height="0.723822" transform="rotate(-90 511.269 370.986)" fill="black"/>
<rect x="415" y="370.986" width="193.984" height="0.723822" transform="rotate(-90 415 370.986)" fill="black"/>
<rect width="95.5273" height="193.242" transform="matrix(-1 0 0 1 292.251 177.742)" fill="#6E5643"/>
<path fill-rule="evenodd" clip-rule="evenodd" d="M283.49 186.508H282.031V186.524H206.921V186.508H205.463V371H206.921V187.982H282.031V370.999H283.49V186.508Z" fill="#452910" fill-opacity="0.71"/>
<rect x="-2" y="2" width="62.7572" height="75.0546" transform="matrix(-1 0 0 1 273.536 281.387)" stroke="#452910" stroke-opacity="0.67" stroke-width="4"/>
<rect x="-2" y="2" width="62.7572" height="71.5409" transform="matrix(-1 0 0 1 273.536 190.031)" stroke="#452910" stroke-opacity="0.67" stroke-width="4"/>
<ellipse cx="2.18767" cy="2.18767" rx="2.18767" ry="2.18767" transform="matrix(-1 0 0 1 217.099 271.908)" fill="#E9B42E"/>
<rect width="9.4799" height="1.45845" transform="matrix(-1 0 0 1 224.379 273.354)" fill="#E9B42E"/>
<ellipse cx="2.18767" cy="2.18767" rx="2.18767" ry="2.18767" transform="matrix(-1 0 0 1 217.098 272.643)" fill="#E9B42E" fill-opacity="0.37"/>
<rect width="9.4799" height="1.45845" transform="matrix(-1 0 0 1 224.379 274.082)" fill="#E9B42E" fill-opacity="0.37"/>
<path d="M224.379 273.116H217.479C216.931 273.116 216.401 272.924 215.982 272.573L215.743 272.373C214.935 271.697 213.741 271.764 213.013 272.525V272.525C212.402 273.165 212.282 274.129 212.72 274.898L212.76 274.969C213.38 276.058 214.806 276.37 215.824 275.64L216.023 275.498C216.418 275.214 216.893 275.061 217.381 275.061H224.379" stroke="#CE9E23"/>
<rect width="0.729223" height="1.45845" transform="matrix(-1 0 0 1 224.379 273.354)" fill="#CE9E23"/>
<path d="M231.724 222H229.595C227.938 222 226.595 223.343 226.595 225V231.574C226.595 233.078 227.814 234.297 229.318 234.297H230.46C231.333 234.297 232.041 235.005 232.041 235.878C232.041 236.751 232.749 237.459 233.622 237.459H255.461C256.362 237.459 257.092 236.729 257.092 235.828C257.092 234.967 257.761 234.254 258.62 234.2L259.85 234.121C261.401 234.023 262.608 232.736 262.608 231.182V225C262.608 223.343 261.265 222 259.608 222H258.217C257.149 222 256.284 221.134 256.284 220.067C256.284 219 255.419 218.135 254.352 218.135H235.589C234.522 218.135 233.657 219 233.657 220.067C233.657 221.134 232.792 222 231.724 222Z" fill="#C7A96F"/>
<path d="M235.375 236.581L247.672 218.135H254.699L248.55 237.459H235.375V236.581Z" fill="#C49D51"/>
<rect x="196.724" y="177" width="95.5456" height="0.72383" fill="black"/>
<rect x="292.269" y="370.986" width="193.984" height="0.723822" transform="rotate(-90 292.269 370.986)" fill="black"/>
<rect x="196" y="370.986" width="193.984" height="0.723822" transform="rotate(-90 196 370.986)" fill="black"/>
</g>
</g>
<defs>
<filter id="filter0_b_669_599" x="-21" y="-21" width="974" height="472" filterUnits="userSpaceOnUse" color-interpolation-filters="sRGB">
<feFlood flood-opacity="0" result="BackgroundImageFix"/>
<feGaussianBlur in="BackgroundImageFix" stdDeviation="10.5"/>
<feComposite in2="SourceAlpha" operator="in" result="effect1_backgroundBlur_669_599"/>
<feBlend mode="normal" in="SourceGraphic" in2="effect1_backgroundBlur_669_599" result="shape"/>
</filter>
<clipPath id="clip0_669_599">
<rect y="430" width="430" height="932" rx="3" transform="rotate(-90 0 430)" fill="white"/>
</clipPath>
</defs>
</svg>
