<svg width="79" height="18" viewBox="0 0 79 18" fill="none" xmlns="http://www.w3.org/2000/svg">
<path d="M0.618408 3.36096e-08H4.10042V16.9605H0.618408V3.36096e-08ZM6.23155 16.9605H8.19189V3.36096e-08H6.23155V16.9605ZM9.60488 16.9605H11.5613V3.36096e-08H9.60488V16.9605ZM14.135 16.9605H18.4205V3.36096e-08H14.135V16.9605ZM21.8521 16.9605H23.9949V3.36096e-08H21.8521V16.9605ZM27.3177 16.9605L30.0849 16.9605V0L27.3177 3.36096e-08V16.9605ZM50.4613 16.9605H53.3804V3.36096e-08H50.4613V16.9605ZM55.9269 3.36096e-08V16.9605H59.9058V3.36096e-08H55.9269ZM39.7629 16.9605H41.6728V3.36096e-08H39.7629V16.9605ZM44.4095 16.9605H46.3194V3.36096e-08H44.4095V16.9605Z" fill="#030104"/>
<path d="M19.2954 0.0576172H22.7774V17.0181H19.2954V0.0576172ZM24.9086 17.0181H26.8689V0.0576172H24.9086V17.0181ZM28.2819 17.0181H30.2383V0.0576172H28.2819V17.0181ZM32.812 17.0181H37.0975V0.0576172H32.812V17.0181ZM40.5291 17.0181H42.6719V0.0576172H40.5291V17.0181ZM45.9947 17.0181L48.7619 17.0181V0.0576172L45.9947 0.0576172V17.0181ZM69.1383 17.0181H72.0574V0.0576172H69.1383V17.0181ZM74.6039 0.0576172V17.0181H78.5828V0.0576172H74.6039ZM58.4399 17.0181H60.3498V0.0576172H58.4399V17.0181ZM63.0865 17.0181H64.9964V0.0576172H63.0865V17.0181Z" fill="#030104"/>
</svg>
