<svg width="242" height="242" viewBox="0 0 242 242" fill="none" xmlns="http://www.w3.org/2000/svg">
<circle cx="121" cy="121" r="121" fill="#C9C6CA"/>
<path d="M121 0C88.9088 -3.82684e-07 58.132 12.7482 35.4401 35.4401C12.7482 58.132 2.8055e-06 88.9088 0 121C-2.8055e-06 153.091 12.7482 183.868 35.4401 206.56C58.132 229.252 88.9088 242 121 242L121 121L121 0Z" fill="#AEA8AF"/>
<circle cx="120.999" cy="120.993" r="112.146" fill="#F5DCB4"/>
<circle cx="119.525" cy="119.529" r="98.8658" fill="#FAEBC8"/>
<circle cx="119.524" cy="119.548" r="57.5488" fill="#FFF7DC"/>
<rect x="145.491" y="59.7197" width="8.85366" height="79.2476" rx="2" transform="rotate(25 145.491 59.7197)" fill="#4B3F4E"/>
<rect x="97" y="126" width="8" height="67" rx="2" transform="rotate(-90 97 126)" fill="#4B3F4E"/>
<circle cx="119.524" cy="119.561" r="10.3293" fill="#6F6571"/>
<path d="M119.163 27.15C117.123 28.3441 116.974 29.0407 116.924 36.9023C116.924 44.316 116.974 44.5648 118.168 45.7092C118.914 46.5053 119.959 46.9531 120.905 46.9531C121.85 46.9531 122.895 46.5053 123.641 45.7092C124.836 44.5648 124.885 44.316 124.885 36.9023C124.836 28.9412 124.686 28.2446 122.547 27.15C121.203 26.4036 120.457 26.4036 119.163 27.15Z" fill="#4B3F4E"/>
<path d="M73.0886 39.9451C71.2476 41.4378 71.5959 43.6769 74.3325 48.354C76.8701 52.6828 78.114 53.9268 80.0048 53.9268C81.5472 53.9268 83.5873 51.7872 83.5873 50.1452C83.5873 48.4535 79.4574 40.791 77.9647 39.7461C76.5218 38.751 74.4818 38.8007 73.0886 39.9451Z" fill="#4B3F4E"/>
<path d="M163.847 39.7461C162.354 40.791 158.224 48.4535 158.224 50.1452C158.224 51.7872 160.264 53.9268 161.807 53.9268C163.697 53.9268 164.941 52.6828 167.479 48.354C170.216 43.6769 170.564 41.4378 168.723 39.9451C167.33 38.8007 165.29 38.751 163.847 39.7461Z" fill="#4B3F4E"/>
<path d="M40.9462 72.3001C38.8564 73.146 38.1598 76.1314 39.553 78.1216C40.5481 79.5646 48.1111 83.7441 49.7034 83.7441C52.6888 83.7441 54.6293 80.4602 53.0868 78.0719C52.2409 76.7782 45.2253 72.4991 43.2848 72.1011C42.5882 71.9518 41.5433 72.0513 40.9462 72.3001Z" fill="#4B3F4E"/>
<path d="M196.04 73.2035C189.174 76.786 187.781 78.1792 188.328 80.8163C188.726 82.508 190.269 83.752 192.11 83.752C193.702 83.752 201.265 79.5724 202.26 78.1294C203.852 75.8406 202.658 72.6562 200.021 72.0591C199.125 71.8601 197.881 72.2084 196.04 73.2035Z" fill="#4B3F4E"/>
<path d="M28.3075 117.772C26.1182 119.463 25.969 122.2 27.9592 124.091C28.9544 124.986 29.7007 125.086 36.6666 125.086C44.1301 125.086 44.3789 125.036 45.5233 123.842C46.3194 123.096 46.7672 122.051 46.7672 121.105C46.7672 120.16 46.3194 119.115 45.5233 118.369C44.3789 117.175 44.1301 117.125 36.7164 117.125C31.5417 117.175 28.8548 117.324 28.3075 117.772Z" fill="#4B3F4E"/>
<path d="M196.289 118.369C195.493 119.115 195.045 120.16 195.045 121.105C195.045 122.051 195.493 123.096 196.289 123.842C197.433 125.036 197.682 125.086 205.096 125.086C213.106 125.036 213.704 124.887 214.898 122.698C215.694 121.205 215.246 119.463 213.853 118.12C212.858 117.224 212.111 117.125 205.145 117.125C197.682 117.125 197.433 117.175 196.289 118.369Z" fill="#4B3F4E"/>
<path d="M44.431 160.726C42.1919 161.969 40.0026 163.462 39.5548 164.059C37.9128 166.448 39.2065 169.632 42.0426 170.13C43.2368 170.378 44.431 169.881 47.9139 167.841C50.3022 166.448 52.6408 164.756 53.0389 164.109C54.6311 161.77 52.6906 158.437 49.7549 158.437C49.0583 158.437 46.67 159.482 44.431 160.726Z" fill="#4B3F4E"/>
<path d="M189.721 159.183C188.278 160.228 187.78 162.616 188.775 164.109C189.173 164.756 191.512 166.448 193.9 167.841C197.383 169.881 198.577 170.378 199.771 170.13C202.608 169.632 203.901 166.448 202.259 164.059C201.264 162.616 193.552 158.437 192.009 158.437C191.313 158.437 190.318 158.785 189.721 159.183Z" fill="#4B3F4E"/>
<path d="M77.8175 188.952C76.0263 190.246 71.9462 197.66 71.9462 199.6C71.9462 202.884 76.2751 204.477 78.4644 202.038C80.1063 200.247 83.5893 193.53 83.5893 192.137C83.5893 189.35 80.0068 187.41 77.8175 188.952Z" fill="#4B3F4E"/>
<path d="M160.364 188.753C159.12 189.251 158.224 190.694 158.224 192.286C158.224 193.53 161.807 200.347 163.349 202.038C164.593 203.431 167.131 203.531 168.723 202.237C170.564 200.745 170.216 198.506 167.479 193.828C164.344 188.504 163.15 187.659 160.364 188.753Z" fill="#4B3F4E"/>
<path d="M118.17 196.466C116.976 197.611 116.926 197.859 116.926 205.323C116.926 212.289 117.025 213.035 117.921 214.03C119.264 215.424 121.006 215.871 122.499 215.075C124.688 213.881 124.837 213.284 124.887 205.273C124.887 197.859 124.837 197.611 123.643 196.466C122.897 195.67 121.852 195.222 120.906 195.222C119.961 195.222 118.916 195.67 118.17 196.466Z" fill="#4B3F4E"/>
</svg>
