<svg width="242" height="242" viewBox="0 0 242 242" fill="none" xmlns="http://www.w3.org/2000/svg">
<g clip-path="url(#clip0_476_4640)">
<path d="M121 242C187.826 242 242 187.826 242 121C242 54.1735 187.826 0 121 0C54.1735 0 0 54.1735 0 121C0 187.826 54.1735 242 121 242Z" fill="#C9C6CA"/>
<path d="M121 0C88.9088 -3.82684e-07 58.132 12.7482 35.4401 35.4401C12.7482 58.132 2.8055e-06 88.9088 0 121C-2.8055e-06 153.091 12.7482 183.868 35.4401 206.56C58.132 229.252 88.9088 242 121 242V121V0Z" fill="#AEA8AF"/>
<path d="M120.999 233.139C182.936 233.139 233.145 182.929 233.145 120.993C233.145 59.0561 182.936 8.84668 120.999 8.84668C59.0625 8.84668 8.85303 59.0561 8.85303 120.993C8.85303 182.929 59.0625 233.139 120.999 233.139Z" fill="#F5DCB4"/>
<path d="M119.525 218.395C174.127 218.395 218.391 174.131 218.391 119.529C218.391 64.9268 174.127 20.6631 119.525 20.6631C64.9229 20.6631 20.6592 64.9268 20.6592 119.529C20.6592 174.131 64.9229 218.395 119.525 218.395Z" fill="#FAEBC8"/>
<path d="M119.524 177.097C151.307 177.097 177.073 151.331 177.073 119.548C177.073 87.7645 151.307 61.999 119.524 61.999C87.7407 61.999 61.9752 87.7645 61.9752 119.548C61.9752 151.331 87.7407 177.097 119.524 177.097Z" fill="#FFF7DC"/>
<path d="M151.704 62.6162L147.305 60.565C146.304 60.0982 145.114 60.5313 144.647 61.5323L112.846 129.73C112.379 130.731 112.812 131.921 113.813 132.388L118.212 134.439C119.213 134.906 120.403 134.473 120.87 133.472L152.671 65.2741C153.138 64.273 152.705 63.083 151.704 62.6162Z" fill="#4B3F4E"/>
<path d="M107.377 106.798C106.893 105.805 107.305 104.607 108.298 104.123L111.893 102.37C112.886 101.886 114.083 102.298 114.567 103.291L142.184 159.915C142.669 160.907 142.256 162.105 141.264 162.589L137.668 164.342C136.676 164.827 135.478 164.414 134.994 163.422L107.377 106.798Z" fill="#4B3F4E"/>
<path d="M119.524 129.89C125.229 129.89 129.853 125.265 129.853 119.561C129.853 113.856 125.229 109.231 119.524 109.231C113.819 109.231 109.195 113.856 109.195 119.561C109.195 125.265 113.819 129.89 119.524 129.89Z" fill="#6F6571"/>
<path d="M119.163 27.1496C117.123 28.3437 116.974 29.0403 116.924 36.9019C116.924 44.3156 116.974 44.5644 118.168 45.7088C118.914 46.5049 119.959 46.9527 120.905 46.9527C121.85 46.9527 122.895 46.5049 123.641 45.7088C124.836 44.5644 124.885 44.3156 124.885 36.9019C124.836 28.9408 124.686 28.2442 122.547 27.1496C121.203 26.4032 120.457 26.4032 119.163 27.1496Z" fill="#4B3F4E"/>
<path d="M73.0886 39.9455C71.2476 41.4382 71.5959 43.6773 74.3325 48.3544C76.8701 52.6832 78.114 53.9272 80.0048 53.9272C81.5472 53.9272 83.5873 51.7876 83.5873 50.1456C83.5873 48.4539 79.4574 40.7914 77.9647 39.7465C76.5218 38.7514 74.4818 38.8011 73.0886 39.9455Z" fill="#4B3F4E"/>
<path d="M163.847 39.7465C162.354 40.7914 158.224 48.4539 158.224 50.1456C158.224 51.7876 160.264 53.9272 161.807 53.9272C163.697 53.9272 164.941 52.6832 167.479 48.3544C170.216 43.6773 170.564 41.4382 168.723 39.9455C167.33 38.8011 165.29 38.7514 163.847 39.7465Z" fill="#4B3F4E"/>
<path d="M40.9462 72.3004C38.8564 73.1463 38.1598 76.1317 39.553 78.1219C40.5481 79.5649 48.1111 83.7444 49.7034 83.7444C52.6888 83.7444 54.6293 80.4605 53.0868 78.0722C52.2409 76.7785 45.2253 72.4994 43.2848 72.1014C42.5882 71.9521 41.5433 72.0516 40.9462 72.3004Z" fill="#4B3F4E"/>
<path d="M196.04 73.2039C189.174 76.7864 187.781 78.1796 188.328 80.8167C188.726 82.5084 190.269 83.7524 192.11 83.7524C193.702 83.7524 201.265 79.5728 202.26 78.1298C203.852 75.841 202.658 72.6566 200.021 72.0595C199.125 71.8605 197.881 72.2088 196.04 73.2039Z" fill="#4B3F4E"/>
<path d="M28.3075 117.772C26.1182 119.463 25.969 122.2 27.9592 124.091C28.9544 124.986 29.7007 125.086 36.6666 125.086C44.1301 125.086 44.3789 125.036 45.5233 123.842C46.3194 123.096 46.7672 122.051 46.7672 121.105C46.7672 120.16 46.3194 119.115 45.5233 118.369C44.3789 117.175 44.1301 117.125 36.7164 117.125C31.5417 117.175 28.8548 117.324 28.3075 117.772Z" fill="#4B3F4E"/>
<path d="M196.289 118.369C195.493 119.115 195.045 120.16 195.045 121.105C195.045 122.051 195.493 123.096 196.289 123.842C197.433 125.036 197.682 125.086 205.096 125.086C213.106 125.036 213.704 124.887 214.898 122.698C215.694 121.205 215.246 119.463 213.853 118.12C212.858 117.224 212.111 117.125 205.145 117.125C197.682 117.125 197.433 117.175 196.289 118.369Z" fill="#4B3F4E"/>
<path d="M44.431 160.726C42.1919 161.969 40.0026 163.462 39.5548 164.059C37.9128 166.448 39.2065 169.632 42.0426 170.13C43.2368 170.378 44.431 169.881 47.9139 167.841C50.3022 166.448 52.6408 164.756 53.0389 164.109C54.6311 161.77 52.6906 158.437 49.7549 158.437C49.0583 158.437 46.67 159.482 44.431 160.726Z" fill="#4B3F4E"/>
<path d="M189.721 159.183C188.278 160.228 187.78 162.616 188.775 164.109C189.173 164.756 191.512 166.448 193.9 167.841C197.383 169.881 198.577 170.378 199.771 170.13C202.608 169.632 203.901 166.448 202.259 164.059C201.264 162.616 193.552 158.437 192.009 158.437C191.313 158.437 190.318 158.785 189.721 159.183Z" fill="#4B3F4E"/>
<path d="M77.8175 188.952C76.0263 190.246 71.9462 197.66 71.9462 199.6C71.9462 202.884 76.2751 204.477 78.4644 202.038C80.1063 200.247 83.5893 193.53 83.5893 192.137C83.5893 189.35 80.0068 187.41 77.8175 188.952Z" fill="#4B3F4E"/>
<path d="M160.364 188.753C159.12 189.251 158.224 190.694 158.224 192.286C158.224 193.53 161.807 200.347 163.349 202.038C164.593 203.431 167.131 203.531 168.723 202.237C170.564 200.745 170.216 198.506 167.479 193.828C164.344 188.504 163.15 187.659 160.364 188.753Z" fill="#4B3F4E"/>
<path d="M118.17 196.466C116.976 197.611 116.926 197.859 116.926 205.323C116.926 212.289 117.025 213.035 117.921 214.03C119.264 215.424 121.006 215.871 122.499 215.075C124.688 213.881 124.837 213.284 124.887 205.273C124.887 197.859 124.837 197.611 123.643 196.466C122.897 195.67 121.852 195.222 120.906 195.222C119.961 195.222 118.916 195.67 118.17 196.466Z" fill="#4B3F4E"/>
</g>
<defs>
<clipPath id="clip0_476_4640">
<rect width="242" height="242" fill="white"/>
</clipPath>
</defs>
</svg>
