<svg width="132" height="267" viewBox="0 0 132 267" fill="none" xmlns="http://www.w3.org/2000/svg">
<rect width="131.989" height="267" transform="matrix(-1 0 0 1 131.989 0)" fill="#664E39"/>
<path fill-rule="evenodd" clip-rule="evenodd" d="M119.885 12.0781H117.87V12.0809H14.0916V12.0781H12.0765V266.988H14.0916V14.096H117.87V266.988H119.885V12.0781Z" fill="#38210B"/>
<rect x="-2" y="2" width="88.2364" height="105.227" transform="matrix(-1 0 0 1 107.653 143.211)" stroke="#3C230D" stroke-opacity="0.49" stroke-width="4"/>
<rect x="-2" y="2" width="88.2364" height="100.373" transform="matrix(-1 0 0 1 107.653 16.998)" stroke="#3C230D" stroke-opacity="0.49" stroke-width="4"/>
<circle cx="3.02264" cy="3.02264" r="3.02264" transform="matrix(-1 0 0 1 28.1389 130.107)" fill="#E9B42E"/>
<rect width="13.0981" height="2.01509" transform="matrix(-1 0 0 1 38.2012 132.125)" fill="#E9B42E"/>
<circle cx="3.02264" cy="3.02264" r="3.02264" transform="matrix(-1 0 0 1 28.1389 131.105)" fill="#E9B42E" fill-opacity="0.37"/>
<rect width="13.0981" height="2.01509" transform="matrix(-1 0 0 1 38.2012 133.121)" fill="#E9B42E" fill-opacity="0.37"/>
<path d="M38.2012 131.774H28.6667C27.9104 131.774 27.1782 131.508 26.5981 131.023L26.2688 130.747C25.1522 129.813 23.5025 129.905 22.4964 130.957V130.957C21.6517 131.84 21.4872 133.173 22.0918 134.235L22.1474 134.333C23.0036 135.837 24.9741 136.269 26.3806 135.26L26.6548 135.064C27.2018 134.671 27.858 134.461 28.5311 134.461H38.2012" stroke="#CE9E23"/>
<rect width="1.00755" height="2.01509" transform="matrix(-1 0 0 1 38.2012 132.125)" fill="#CE9E23"/>
<path d="M48.3471 61.1584H44.2595C42.6027 61.1584 41.2595 62.5015 41.2595 64.1584V75.1493C41.2595 76.8061 42.6027 78.1493 44.2595 78.1493H46.5995C47.806 78.1493 48.7841 79.1274 48.7841 80.3338C48.7841 81.5403 49.7621 82.5184 50.9686 82.5184H81.1429C82.3878 82.5184 83.397 81.5092 83.397 80.2643C83.397 79.0751 84.3209 78.0904 85.5077 78.0149L88.2093 77.8428C89.7889 77.7422 91.0186 76.4317 91.0186 74.8488V64.1584C91.0186 62.5015 89.6754 61.1584 88.0186 61.1584H84.9504C83.4758 61.1584 82.2804 59.963 82.2804 58.4884C82.2804 57.0138 81.085 55.8184 79.6104 55.8184H53.6872C52.2126 55.8184 51.0172 57.0138 51.0172 58.4884C51.0172 59.963 49.8218 61.1584 48.3471 61.1584Z" fill="#C7A96F"/>
<path d="M53.3923 81.3048L70.3832 55.8184H80.0923L71.5968 82.5184H53.3923V81.3048Z" fill="#C49D51"/>
<path d="M63.6992 70.4336C63.875 70.4596 64.0638 70.4824 64.2656 70.502C64.4674 70.515 64.6693 70.5247 64.8711 70.5312C65.0794 70.5378 65.2812 70.5443 65.4766 70.5508C65.6784 70.5508 65.8639 70.5508 66.0332 70.5508H66.2285C66.3262 70.5508 66.4076 70.5378 66.4727 70.5117C66.5378 70.4792 66.5703 70.4043 66.5703 70.2871C66.5703 70.1569 66.5378 70.0299 66.4727 69.9062C66.4141 69.7826 66.3652 69.6589 66.3262 69.5352C66.2546 69.2878 66.1862 69.0371 66.1211 68.7832C66.0625 68.5293 65.9876 68.2884 65.8965 68.0605C65.8965 68.0475 65.877 68.0085 65.8379 67.9434C65.7988 67.8717 65.776 67.8294 65.7695 67.8164C65.763 67.7969 65.7533 67.7578 65.7402 67.6992C65.7337 67.6406 65.724 67.5755 65.7109 67.5039C65.6979 67.4323 65.6849 67.3672 65.6719 67.3086C65.6654 67.25 65.6589 67.2109 65.6523 67.1914C65.6523 67.1849 65.6426 67.1589 65.623 67.1133C65.6035 67.0612 65.5775 67.0059 65.5449 66.9473C65.5189 66.8822 65.4928 66.8171 65.4668 66.752C65.4408 66.6868 65.4212 66.6348 65.4082 66.5957C65.4082 66.5957 65.4017 66.5827 65.3887 66.5566C65.3757 66.5306 65.3626 66.5046 65.3496 66.4785C65.3366 66.446 65.3236 66.4199 65.3105 66.4004C65.2975 66.3743 65.291 66.3581 65.291 66.3516C65.2585 66.293 65.2357 66.2279 65.2227 66.1562C65.2096 66.0846 65.1934 66.0163 65.1738 65.9512C65.1608 65.8861 65.1413 65.8242 65.1152 65.7656C65.0892 65.707 65.0501 65.6582 64.998 65.6191H64.9492C64.8581 65.6191 64.7799 65.694 64.7148 65.8438C64.6562 65.9935 64.6042 66.1628 64.5586 66.3516C64.513 66.5404 64.474 66.7259 64.4414 66.9082C64.4154 67.084 64.3926 67.2012 64.373 67.2598C64.36 67.2988 64.3405 67.3639 64.3145 67.4551C64.2884 67.5462 64.2689 67.6016 64.2559 67.6211C64.1842 67.901 64.1061 68.181 64.0215 68.4609C63.9434 68.7344 63.875 69.0111 63.8164 69.291C63.8164 69.2975 63.8132 69.3236 63.8066 69.3691C63.8066 69.4082 63.8034 69.4538 63.7969 69.5059C63.7904 69.5514 63.7839 69.597 63.7773 69.6426C63.7708 69.6816 63.7676 69.7077 63.7676 69.7207C63.748 69.7728 63.7253 69.8118 63.6992 69.8379C63.6797 69.8639 63.6602 69.8932 63.6406 69.9258C63.6211 69.9518 63.6048 69.9844 63.5918 70.0234C63.5788 70.056 63.5723 70.1016 63.5723 70.1602V70.2285C63.5723 70.2806 63.5788 70.3262 63.5918 70.3652C63.6048 70.3978 63.6406 70.4206 63.6992 70.4336ZM58.9434 75.7852C58.9434 75.7331 58.9629 75.6777 59.002 75.6191C59.041 75.5605 59.0801 75.5182 59.1191 75.4922C59.1322 75.4922 59.181 75.4889 59.2656 75.4824C59.3503 75.4694 59.4056 75.4564 59.4316 75.4434C59.5879 75.3978 59.7311 75.3424 59.8613 75.2773C59.9915 75.2057 60.1283 75.1341 60.2715 75.0625C60.4147 75.0039 60.5384 74.9583 60.6426 74.9258C60.7467 74.8932 60.8379 74.8542 60.916 74.8086C61.0007 74.763 61.0788 74.7012 61.1504 74.623C61.2285 74.5449 61.3066 74.4342 61.3848 74.291C61.4303 74.2064 61.4564 74.099 61.4629 73.9688C61.4759 73.8385 61.4889 73.7376 61.502 73.666C61.502 73.6595 61.5117 73.6432 61.5312 73.6172C61.5573 73.5846 61.5703 73.5651 61.5703 73.5586C61.5768 73.5326 61.5866 73.4967 61.5996 73.4512C61.6191 73.4056 61.6289 73.3763 61.6289 73.3633C61.6289 73.3568 61.6289 73.334 61.6289 73.2949C61.6354 73.2559 61.6419 73.2168 61.6484 73.1777C61.6549 73.1387 61.6615 73.1029 61.668 73.0703C61.6745 73.0312 61.6777 73.0085 61.6777 73.002C61.6842 72.9889 61.694 72.9727 61.707 72.9531C61.7135 72.9401 61.7201 72.9271 61.7266 72.9141C61.7331 72.8945 61.7396 72.8783 61.7461 72.8652C61.7852 72.8001 61.8275 72.7155 61.873 72.6113C61.9251 72.5072 61.974 72.3965 62.0195 72.2793C62.0651 72.1621 62.1074 72.0514 62.1465 71.9473C62.1855 71.8366 62.2148 71.7422 62.2344 71.6641C62.2799 71.4688 62.3385 71.2734 62.4102 71.0781C62.4883 70.8828 62.5566 70.6875 62.6152 70.4922C62.6413 70.362 62.6673 70.222 62.6934 70.0723C62.7194 69.9225 62.7487 69.7826 62.7812 69.6523C62.7943 69.6328 62.8138 69.584 62.8398 69.5059C62.8659 69.4212 62.8854 69.3659 62.8984 69.3398C62.9049 69.3268 62.9277 69.2975 62.9668 69.252C63.0059 69.1999 63.0254 69.1673 63.0254 69.1543C63.0319 69.1478 63.0352 69.1315 63.0352 69.1055C63.0417 69.0729 63.0482 69.0404 63.0547 69.0078C63.0612 68.9688 63.0645 68.9362 63.0645 68.9102C63.071 68.8776 63.0742 68.8581 63.0742 68.8516C63.0872 68.8255 63.1003 68.7865 63.1133 68.7344C63.1328 68.6758 63.1491 68.6204 63.1621 68.5684C63.1751 68.5163 63.1849 68.4707 63.1914 68.4316C63.2044 68.3861 63.2109 68.36 63.2109 68.3535C63.2109 68.347 63.2207 68.3242 63.2402 68.2852C63.2598 68.2396 63.2793 68.194 63.2988 68.1484C63.3184 68.0964 63.3346 68.0508 63.3477 68.0117C63.3672 67.9661 63.3802 67.9368 63.3867 67.9238C63.3997 67.9108 63.4193 67.8685 63.4453 67.7969C63.4714 67.7253 63.4974 67.6504 63.5234 67.5723C63.5495 67.4876 63.5723 67.4095 63.5918 67.3379C63.6178 67.2598 63.6309 67.2109 63.6309 67.1914C63.6569 67.1263 63.6829 67.0417 63.709 66.9375C63.7415 66.8333 63.7773 66.7292 63.8164 66.625C63.8555 66.5143 63.901 66.4134 63.9531 66.3223C64.0052 66.2246 64.0638 66.153 64.1289 66.1074C64.1549 65.9447 64.1973 65.7917 64.2559 65.6484C64.3145 65.4987 64.3763 65.3555 64.4414 65.2188C64.5065 65.0755 64.5618 64.9323 64.6074 64.7891C64.6595 64.6393 64.6855 64.4831 64.6855 64.3203C64.6855 64.1836 64.6628 64.0762 64.6172 63.998C64.5781 63.9199 64.5326 63.8581 64.4805 63.8125C64.4349 63.7604 64.3893 63.7116 64.3438 63.666C64.3047 63.6204 64.2852 63.5586 64.2852 63.4805C64.2852 63.4674 64.2884 63.4479 64.2949 63.4219C64.3014 63.3893 64.3047 63.3665 64.3047 63.3535C64.3958 63.3014 64.5 63.2559 64.6172 63.2168C64.7344 63.1777 64.8483 63.1354 64.959 63.0898C65.0762 63.0378 65.1803 62.9759 65.2715 62.9043C65.3626 62.8262 65.4245 62.7285 65.457 62.6113C65.4635 62.5983 65.4766 62.5625 65.4961 62.5039C65.5156 62.4453 65.5352 62.3835 65.5547 62.3184C65.5742 62.2533 65.5938 62.1914 65.6133 62.1328C65.6328 62.0742 65.6458 62.0384 65.6523 62.0254C65.6654 61.9668 65.6914 61.9082 65.7305 61.8496C65.776 61.791 65.8314 61.7617 65.8965 61.7617C65.903 61.7617 65.9062 61.765 65.9062 61.7715C65.9128 61.7715 65.9193 61.7715 65.9258 61.7715H65.9453C65.9648 61.7845 65.9876 61.8073 66.0137 61.8398C66.0462 61.8659 66.0788 61.8952 66.1113 61.9277C66.1504 61.9603 66.1829 61.9928 66.209 62.0254C66.235 62.0514 66.2513 62.071 66.2578 62.084C66.2708 62.084 66.2839 62.1068 66.2969 62.1523C66.3164 62.1914 66.3262 62.224 66.3262 62.25C66.3262 62.276 66.3359 62.3314 66.3555 62.416C66.375 62.5007 66.3945 62.5918 66.4141 62.6895C66.4336 62.7806 66.4531 62.8685 66.4727 62.9531C66.4922 63.0378 66.502 63.0898 66.502 63.1094C66.5085 63.1354 66.528 63.1973 66.5605 63.2949C66.5931 63.3926 66.6257 63.4967 66.6582 63.6074C66.6973 63.7116 66.7331 63.8125 66.7656 63.9102C66.7982 64.0013 66.8145 64.0599 66.8145 64.0859C66.873 64.2943 66.9316 64.5189 66.9902 64.7598C67.0488 65.0007 67.1107 65.2253 67.1758 65.4336C67.1758 65.4401 67.1823 65.4629 67.1953 65.502C67.2148 65.5345 67.2344 65.5736 67.2539 65.6191C67.2799 65.6582 67.3027 65.6973 67.3223 65.7363C67.3483 65.7689 67.3646 65.7884 67.3711 65.7949C67.4232 65.9186 67.4525 66.0521 67.459 66.1953C67.472 66.332 67.5046 66.4655 67.5566 66.5957C67.6868 67.0059 67.8203 67.403 67.957 67.7871C68.0938 68.1712 68.2174 68.5684 68.3281 68.9785C68.3346 68.998 68.3444 69.0371 68.3574 69.0957C68.3704 69.1543 68.3835 69.2194 68.3965 69.291C68.4095 69.3561 68.4225 69.418 68.4355 69.4766C68.4486 69.5352 68.4551 69.571 68.4551 69.584C68.4616 69.597 68.4746 69.6263 68.4941 69.6719C68.5137 69.7109 68.5332 69.7533 68.5527 69.7988C68.5788 69.8444 68.5983 69.8867 68.6113 69.9258C68.6309 69.9648 68.6406 69.9876 68.6406 69.9941C68.6406 70.0072 68.6439 70.0365 68.6504 70.082C68.6569 70.1211 68.6634 70.1667 68.6699 70.2188C68.6764 70.2643 68.6829 70.3099 68.6895 70.3555C68.696 70.3945 68.6992 70.4206 68.6992 70.4336C68.7057 70.4596 68.7188 70.5182 68.7383 70.6094C68.7643 70.7005 68.7904 70.7982 68.8164 70.9023C68.849 71 68.8783 71.0944 68.9043 71.1855C68.9303 71.2767 68.9466 71.3353 68.9531 71.3613C69.0247 71.6217 69.1061 71.8789 69.1973 72.1328C69.2949 72.3867 69.3763 72.6536 69.4414 72.9336C69.4935 73.181 69.5423 73.4219 69.5879 73.6562C69.64 73.8841 69.7116 74.112 69.8027 74.3398C69.8418 74.4375 69.8776 74.5449 69.9102 74.6621C69.9427 74.7728 69.9883 74.8672 70.0469 74.9453C70.1185 75.056 70.2096 75.1471 70.3203 75.2188C70.4375 75.2839 70.5579 75.3359 70.6816 75.375C70.8118 75.4141 70.9421 75.4434 71.0723 75.4629C71.209 75.4759 71.3327 75.4857 71.4434 75.4922C71.541 75.5247 71.5996 75.5768 71.6191 75.6484C71.6452 75.7135 71.6582 75.7884 71.6582 75.873C71.6582 75.8796 71.6549 75.8893 71.6484 75.9023C71.6484 75.9089 71.6484 75.9186 71.6484 75.9316C71.6419 75.9512 71.6387 75.9674 71.6387 75.9805L71.5117 76.0488H71.1992H70.7695C70.7565 76.0488 70.724 76.0358 70.6719 76.0098C70.6263 75.9902 70.6003 75.9805 70.5938 75.9805H70.5449C70.4408 75.9805 70.3431 75.9902 70.252 76.0098C70.1608 76.0358 70.0599 76.0488 69.9492 76.0488C69.819 76.0488 69.6855 76.0358 69.5488 76.0098C69.4186 75.9902 69.2852 75.9805 69.1484 75.9805C69.0768 75.9805 69.0085 75.9902 68.9434 76.0098C68.8783 76.0358 68.8099 76.0488 68.7383 76.0488C68.5625 76.0488 68.3867 76.0358 68.2109 76.0098C68.0417 75.9902 67.8626 75.9805 67.6738 75.9805C67.4004 75.9805 67.1237 76.0033 66.8438 76.0488C66.5703 76.0944 66.2871 76.1172 65.9941 76.1172H65.7012C65.6491 76.0716 65.6035 76.0195 65.5645 75.9609C65.5319 75.9023 65.5156 75.8372 65.5156 75.7656C65.5156 75.681 65.5612 75.6159 65.6523 75.5703C65.75 75.5247 65.8704 75.4889 66.0137 75.4629C66.1569 75.4368 66.3164 75.4173 66.4922 75.4043C66.6745 75.3848 66.8503 75.362 67.0195 75.3359C67.1888 75.3099 67.3418 75.2708 67.4785 75.2188C67.6217 75.1667 67.7292 75.0951 67.8008 75.0039V74.7988V74.5938C67.7943 74.5872 67.7845 74.5645 67.7715 74.5254C67.765 74.4798 67.7552 74.431 67.7422 74.3789C67.7292 74.3203 67.7161 74.2682 67.7031 74.2227C67.6901 74.1706 67.6803 74.1283 67.6738 74.0957C67.6673 74.0827 67.6543 74.0501 67.6348 73.998C67.6152 73.946 67.5924 73.8906 67.5664 73.832C67.5469 73.7669 67.5273 73.7083 67.5078 73.6562C67.4948 73.6042 67.4883 73.5716 67.4883 73.5586C67.4818 73.5391 67.4688 73.4967 67.4492 73.4316C67.4362 73.3665 67.4199 73.2949 67.4004 73.2168C67.3809 73.1387 67.3613 73.0671 67.3418 73.002C67.3223 72.9303 67.3125 72.8848 67.3125 72.8652C67.306 72.8587 67.293 72.8294 67.2734 72.7773C67.2604 72.7253 67.2409 72.6699 67.2148 72.6113C67.1953 72.5462 67.1758 72.4876 67.1562 72.4355C67.1432 72.377 67.1335 72.3411 67.127 72.3281C67.1074 72.2565 67.0879 72.1719 67.0684 72.0742C67.0488 71.9701 67.0228 71.8659 66.9902 71.7617C66.9642 71.6576 66.9316 71.5632 66.8926 71.4785C66.8535 71.3939 66.8047 71.332 66.7461 71.293H66.3262H65.8965C65.8835 71.293 65.8509 71.306 65.7988 71.332C65.7467 71.3516 65.7142 71.3613 65.7012 71.3613H65.6816H65.6523C65.6458 71.3613 65.623 71.3581 65.584 71.3516C65.5514 71.3451 65.5124 71.3385 65.4668 71.332C65.4277 71.319 65.3887 71.3092 65.3496 71.3027C65.3171 71.2962 65.2975 71.293 65.291 71.293C65.2845 71.293 65.265 71.2962 65.2324 71.3027C65.1999 71.3092 65.1673 71.319 65.1348 71.332C65.1022 71.3385 65.0697 71.3451 65.0371 71.3516C65.0111 71.3581 64.998 71.3613 64.998 71.3613H63.875C63.849 71.3613 63.8034 71.3646 63.7383 71.3711C63.6797 71.3711 63.6146 71.3743 63.543 71.3809C63.4714 71.3874 63.403 71.3939 63.3379 71.4004C63.2793 71.4069 63.237 71.4134 63.2109 71.4199C63.1979 71.4264 63.1882 71.4329 63.1816 71.4395C63.1686 71.446 63.1589 71.4525 63.1523 71.459C63.1523 71.4655 63.1491 71.4688 63.1426 71.4688C63.0124 71.8789 62.8854 72.2956 62.7617 72.7188C62.6445 73.1419 62.5306 73.5618 62.4199 73.9785C62.3939 74.0827 62.3548 74.1934 62.3027 74.3105C62.2572 74.4277 62.2344 74.5417 62.2344 74.6523C62.2344 74.737 62.2539 74.8216 62.293 74.9062C62.3385 74.9909 62.3809 75.0658 62.4199 75.1309C62.4395 75.1309 62.4785 75.1341 62.5371 75.1406C62.5957 75.1471 62.6576 75.1569 62.7227 75.1699C62.7878 75.1764 62.8496 75.1829 62.9082 75.1895C62.9668 75.196 63.0059 75.1992 63.0254 75.1992C63.0319 75.1992 63.0514 75.2057 63.084 75.2188C63.123 75.2318 63.1621 75.2448 63.2012 75.2578C63.2467 75.2708 63.2858 75.2839 63.3184 75.2969C63.3574 75.3034 63.3802 75.3066 63.3867 75.3066C63.4714 75.3262 63.5592 75.3392 63.6504 75.3457C63.748 75.3522 63.8359 75.3652 63.9141 75.3848C63.9922 75.4043 64.0573 75.4401 64.1094 75.4922C64.1615 75.5378 64.1875 75.6126 64.1875 75.7168C64.1875 75.9056 64.1452 76.0195 64.0605 76.0586C63.9824 76.0977 63.8717 76.1172 63.7285 76.1172H63.6016H63.2109C63.1979 76.1172 63.1686 76.1139 63.123 76.1074C63.084 76.1009 63.0417 76.0911 62.9961 76.0781C62.9505 76.0716 62.9049 76.0651 62.8594 76.0586C62.8203 76.0521 62.7943 76.0488 62.7812 76.0488H61.6289C61.6159 76.0488 61.5866 76.0456 61.541 76.0391C61.502 76.0326 61.4564 76.0228 61.4043 76.0098C61.3587 76.0033 61.3132 75.9967 61.2676 75.9902C61.2285 75.9837 61.2025 75.9805 61.1895 75.9805H61.0234C60.9648 75.9805 60.9128 75.9837 60.8672 75.9902C60.8216 75.9967 60.7663 76.0163 60.7012 76.0488H59.6758C59.6497 76.0618 59.6172 76.0749 59.5781 76.0879C59.5391 76.1074 59.513 76.1172 59.5 76.1172H59.4512C59.4186 76.1172 59.373 76.1074 59.3145 76.0879C59.2624 76.0684 59.2103 76.0423 59.1582 76.0098C59.0996 75.9837 59.0508 75.9512 59.0117 75.9121C58.9661 75.8665 58.9434 75.8242 58.9434 75.7852Z" fill="#1D1515"/>
</svg>
