<svg width="132" height="267" viewBox="0 0 132 267" fill="none" xmlns="http://www.w3.org/2000/svg">
<rect width="131.989" height="267" transform="matrix(-1 0 0 1 131.989 0)" fill="#664E39"/>
<path fill-rule="evenodd" clip-rule="evenodd" d="M119.885 12.0781H117.87V12.0809H14.0916V12.0781H12.0765V266.988H14.0916V14.096H117.87V266.988H119.885V12.0781Z" fill="#38210B"/>
<rect x="-2" y="2" width="88.2364" height="105.227" transform="matrix(-1 0 0 1 107.653 143.211)" stroke="#3C230D" stroke-opacity="0.49" stroke-width="4"/>
<rect x="-2" y="2" width="88.2364" height="100.373" transform="matrix(-1 0 0 1 107.653 16.998)" stroke="#3C230D" stroke-opacity="0.49" stroke-width="4"/>
<circle cx="3.02264" cy="3.02264" r="3.02264" transform="matrix(-1 0 0 1 28.1389 130.107)" fill="#E9B42E"/>
<rect width="13.0981" height="2.01509" transform="matrix(-1 0 0 1 38.2012 132.125)" fill="#E9B42E"/>
<circle cx="3.02264" cy="3.02264" r="3.02264" transform="matrix(-1 0 0 1 28.1389 131.105)" fill="#E9B42E" fill-opacity="0.37"/>
<rect width="13.0981" height="2.01509" transform="matrix(-1 0 0 1 38.2012 133.121)" fill="#E9B42E" fill-opacity="0.37"/>
<path d="M38.2012 131.774H28.6667C27.9104 131.774 27.1782 131.508 26.5981 131.023L26.2688 130.747C25.1522 129.813 23.5025 129.905 22.4964 130.957V130.957C21.6517 131.84 21.4872 133.173 22.0918 134.235L22.1474 134.333C23.0036 135.837 24.9741 136.269 26.3806 135.26L26.6548 135.064C27.2018 134.671 27.858 134.461 28.5311 134.461H38.2012" stroke="#CE9E23"/>
<rect width="1.00755" height="2.01509" transform="matrix(-1 0 0 1 38.2012 132.125)" fill="#CE9E23"/>
<path d="M48.3471 61.1584H44.2595C42.6027 61.1584 41.2595 62.5015 41.2595 64.1584V75.1493C41.2595 76.8061 42.6027 78.1493 44.2595 78.1493H46.5995C47.806 78.1493 48.7841 79.1274 48.7841 80.3338C48.7841 81.5403 49.7621 82.5184 50.9686 82.5184H81.1429C82.3878 82.5184 83.397 81.5092 83.397 80.2643C83.397 79.0751 84.3209 78.0904 85.5077 78.0149L88.2093 77.8428C89.7889 77.7422 91.0186 76.4317 91.0186 74.8488V64.1584C91.0186 62.5015 89.6754 61.1584 88.0186 61.1584H84.9504C83.4758 61.1584 82.2804 59.963 82.2804 58.4884C82.2804 57.0138 81.085 55.8184 79.6104 55.8184H53.6872C52.2126 55.8184 51.0172 57.0138 51.0172 58.4884C51.0172 59.963 49.8218 61.1584 48.3471 61.1584Z" fill="#C7A96F"/>
<path d="M53.3923 81.3048L70.3832 55.8184H80.0923L71.5968 82.5184H53.3923V81.3048Z" fill="#C49D51"/>
<path d="M62.8594 75.8047C62.6966 75.7135 62.5273 75.6354 62.3516 75.5703C62.1823 75.5052 62.013 75.4173 61.8438 75.3066C61.8307 75.3066 61.8079 75.2969 61.7754 75.2773C61.7428 75.2513 61.7103 75.2253 61.6777 75.1992C61.6452 75.1732 61.6126 75.1471 61.5801 75.1211C61.554 75.0951 61.5378 75.0755 61.5312 75.0625C61.4466 75.0104 61.362 74.9648 61.2773 74.9258C61.1927 74.8867 61.1146 74.8411 61.043 74.7891L60.418 74.1641C60.4049 74.151 60.3724 74.1283 60.3203 74.0957C60.2747 74.0632 60.2487 74.0469 60.2422 74.0469C60.2422 74.0013 60.2194 73.9785 60.1738 73.9785C60.0827 73.8483 59.9818 73.7214 59.8711 73.5977C59.7669 73.4674 59.6693 73.3275 59.5781 73.1777C59.5716 73.1777 59.5521 73.1452 59.5195 73.0801C59.4935 73.015 59.4772 72.9661 59.4707 72.9336C59.1647 72.3346 58.8945 71.7259 58.6602 71.1074C58.6536 71.1009 58.6309 71.0618 58.5918 70.9902C58.5527 70.9186 58.5332 70.8763 58.5332 70.8633V70.4922C58.5137 70.2839 58.4876 70.0853 58.4551 69.8965C58.429 69.7012 58.416 69.4993 58.416 69.291V68.9785C58.4225 68.9134 58.429 68.7995 58.4355 68.6367C58.4486 68.4674 58.4616 68.2884 58.4746 68.0996C58.4876 67.9108 58.4974 67.735 58.5039 67.5723C58.5169 67.403 58.5267 67.2826 58.5332 67.2109C58.5462 67.0286 58.5853 66.8594 58.6504 66.7031C58.722 66.5469 58.7871 66.3874 58.8457 66.2246C58.8457 66.2181 58.849 66.2018 58.8555 66.1758C58.862 66.1497 58.8685 66.1204 58.875 66.0879C58.8815 66.0488 58.888 66.0163 58.8945 65.9902C58.901 65.9577 58.9043 65.9349 58.9043 65.9219C58.9108 65.9089 58.9206 65.8796 58.9336 65.834C58.9531 65.7819 58.9727 65.7298 58.9922 65.6777C59.0182 65.6257 59.0378 65.5768 59.0508 65.5312C59.0703 65.4792 59.0833 65.4466 59.0898 65.4336C59.0898 65.4271 59.0931 65.4108 59.0996 65.3848C59.1061 65.3522 59.1126 65.3197 59.1191 65.2871C59.1257 65.248 59.1322 65.2155 59.1387 65.1895C59.1452 65.1569 59.1517 65.1341 59.1582 65.1211C59.1582 65.1146 59.1712 65.0983 59.1973 65.0723C59.2298 65.0462 59.2624 65.0169 59.2949 64.9844C59.334 64.9453 59.3698 64.9128 59.4023 64.8867C59.4349 64.8542 59.4577 64.8346 59.4707 64.8281C59.6204 64.6458 59.7637 64.4603 59.9004 64.2715C60.0436 64.0827 60.1999 63.9004 60.3691 63.7246C60.6816 63.3861 61.0039 63.0768 61.3359 62.7969C61.668 62.5169 62.0553 62.3021 62.498 62.1523C62.5436 62.1328 62.5957 62.1068 62.6543 62.0742C62.7194 62.0417 62.7845 62.0091 62.8496 61.9766C62.9147 61.944 62.9798 61.9147 63.0449 61.8887C63.1165 61.8626 63.1816 61.8464 63.2402 61.8398H63.4844C63.4974 61.8398 63.5332 61.8333 63.5918 61.8203C63.6504 61.8008 63.696 61.7845 63.7285 61.7715C63.7546 61.765 63.8001 61.752 63.8652 61.7324C63.9368 61.7064 64.0117 61.6803 64.0898 61.6543C64.168 61.6283 64.2428 61.6055 64.3145 61.5859C64.3861 61.5599 64.4382 61.5404 64.4707 61.5273H65.6719C65.8672 61.5273 66.0267 61.5306 66.1504 61.5371C66.2741 61.5436 66.375 61.5501 66.4531 61.5566C66.5312 61.5632 66.5898 61.5697 66.6289 61.5762C66.668 61.5827 66.6973 61.5892 66.7168 61.5957C66.7493 61.6022 66.834 61.625 66.9707 61.6641C67.1074 61.6966 67.2539 61.7357 67.4102 61.7812C67.5664 61.8203 67.7129 61.8594 67.8496 61.8984C67.9863 61.931 68.0742 61.9505 68.1133 61.957C68.1393 61.957 68.1947 61.9668 68.2793 61.9863C68.3639 61.9993 68.4128 62.0124 68.4258 62.0254C68.4323 62.0254 68.4518 62.0384 68.4844 62.0645C68.5234 62.0905 68.5625 62.1198 68.6016 62.1523C68.6406 62.1784 68.6764 62.2044 68.709 62.2305C68.748 62.25 68.7741 62.263 68.7871 62.2695C68.8001 62.2695 68.8392 62.2793 68.9043 62.2988C68.9759 62.3184 69.0182 62.3314 69.0312 62.3379C69.0833 62.377 69.1322 62.4258 69.1777 62.4844C69.2233 62.5365 69.2689 62.5885 69.3145 62.6406C69.3665 62.6927 69.4186 62.7383 69.4707 62.7773C69.5293 62.8099 69.5977 62.8262 69.6758 62.8262C69.7539 62.8262 69.819 62.7708 69.8711 62.6602C69.9297 62.5495 69.985 62.429 70.0371 62.2988C70.0892 62.1686 70.1445 62.0482 70.2031 61.9375C70.2617 61.8268 70.3366 61.7715 70.4277 61.7715C70.4928 61.7715 70.5449 61.8073 70.584 61.8789C70.6296 61.944 70.6621 62.0221 70.6816 62.1133C70.7077 62.2044 70.724 62.2956 70.7305 62.3867C70.737 62.4779 70.7402 62.543 70.7402 62.582C70.7402 62.6406 70.737 62.6895 70.7305 62.7285C70.724 62.7611 70.7044 62.8034 70.6719 62.8555V65.6777C70.6719 65.8079 70.6458 65.9284 70.5938 66.0391C70.5482 66.1432 70.4538 66.2051 70.3105 66.2246C70.278 66.2311 70.2454 66.2214 70.2129 66.1953C70.1803 66.1693 70.151 66.14 70.125 66.1074C70.099 66.0684 70.0729 66.0326 70.0469 66C70.0273 65.9609 70.0111 65.9349 69.998 65.9219C69.998 65.9089 69.9688 65.8796 69.9102 65.834C69.8581 65.7819 69.8288 65.7461 69.8223 65.7266C69.8027 65.7005 69.7702 65.6582 69.7246 65.5996C69.6855 65.541 69.6432 65.4824 69.5977 65.4238C69.5586 65.3587 69.5195 65.2969 69.4805 65.2383C69.4414 65.1797 69.4186 65.1406 69.4121 65.1211C69.3275 64.9974 69.2656 64.8607 69.2266 64.7109C69.194 64.5547 69.1289 64.4115 69.0312 64.2812C68.9206 64.1315 68.8099 64.0078 68.6992 63.9102C68.5951 63.8125 68.4811 63.7083 68.3574 63.5977C68.2142 63.474 68.0905 63.3633 67.9863 63.2656C67.8822 63.1615 67.778 63.0703 67.6738 62.9922C67.5697 62.9141 67.4525 62.8457 67.3223 62.7871C67.1986 62.722 67.0423 62.6634 66.8535 62.6113C66.6061 62.5527 66.349 62.4974 66.082 62.4453C65.8216 62.3932 65.5677 62.3672 65.3203 62.3672C65.1901 62.3672 65.0632 62.39 64.9395 62.4355C64.8223 62.4811 64.7051 62.5397 64.5879 62.6113C64.4707 62.6764 64.3535 62.7513 64.2363 62.8359C64.1257 62.9141 64.0182 62.9857 63.9141 63.0508C63.8229 63.1094 63.7285 63.1484 63.6309 63.168C63.5332 63.1875 63.4421 63.2331 63.3574 63.3047C63.1816 63.4544 63.0189 63.6204 62.8691 63.8027C62.7259 63.985 62.5599 64.1445 62.3711 64.2812C62.3581 64.2943 62.3385 64.3171 62.3125 64.3496C62.2865 64.3757 62.2669 64.3919 62.2539 64.3984C62.2539 64.4115 62.2344 64.4603 62.1953 64.5449C62.1562 64.6296 62.1335 64.6849 62.127 64.7109C62.1009 64.7565 62.0618 64.8118 62.0098 64.877C61.9642 64.9355 61.9154 64.9974 61.8633 65.0625C61.8177 65.1211 61.7721 65.1829 61.7266 65.248C61.6875 65.3132 61.6615 65.375 61.6484 65.4336C61.6094 65.6029 61.5833 65.7689 61.5703 65.9316C61.5573 66.0879 61.5247 66.2507 61.4727 66.4199C61.4206 66.5566 61.3717 66.6934 61.3262 66.8301C61.2806 66.9603 61.2448 67.1068 61.2188 67.2695C61.2057 67.3542 61.196 67.4616 61.1895 67.5918C61.1895 67.722 61.1634 67.8327 61.1113 67.9238C61.0983 67.9694 61.0885 68.0475 61.082 68.1582C61.0755 68.2689 61.069 68.3861 61.0625 68.5098C61.056 68.6335 61.0495 68.7507 61.043 68.8613C61.043 68.972 61.043 69.0501 61.043 69.0957C61.043 69.291 61.0592 69.4961 61.0918 69.7109C61.1309 69.9258 61.1764 70.1439 61.2285 70.3652C61.2871 70.5866 61.349 70.8047 61.4141 71.0195C61.4792 71.2279 61.541 71.4232 61.5996 71.6055C61.5996 71.612 61.6029 71.638 61.6094 71.6836C61.6224 71.7292 61.6354 71.7812 61.6484 71.8398C61.6615 71.8919 61.6745 71.944 61.6875 71.9961C61.7005 72.0417 61.7103 72.0742 61.7168 72.0938C61.7168 72.1133 61.7331 72.1491 61.7656 72.2012C61.8047 72.2533 61.8438 72.3118 61.8828 72.377C61.9284 72.4355 61.9707 72.4909 62.0098 72.543C62.0488 72.5885 62.0749 72.6146 62.0879 72.6211C62.0944 72.6341 62.1074 72.6634 62.127 72.709C62.153 72.748 62.1758 72.7936 62.1953 72.8457C62.2214 72.8913 62.2441 72.9368 62.2637 72.9824C62.2897 73.0215 62.3027 73.0475 62.3027 73.0605C62.3939 73.1712 62.4818 73.2689 62.5664 73.3535C62.651 73.4382 62.7357 73.5163 62.8203 73.5879C62.9115 73.6595 63.0026 73.7311 63.0938 73.8027C63.1914 73.8743 63.2988 73.9557 63.416 74.0469L63.6016 74.2324C63.7122 74.2845 63.849 74.3561 64.0117 74.4473C64.181 74.5319 64.3112 74.6458 64.4023 74.7891C64.7018 74.8151 64.9915 74.8639 65.2715 74.9355C65.5579 75.0007 65.8542 75.0332 66.1602 75.0332H66.3555C66.4466 75.0332 66.5345 75.0299 66.6191 75.0234C66.7038 75.0169 66.7982 74.9909 66.9023 74.9453C66.9089 74.9453 66.9219 74.9421 66.9414 74.9355C66.9674 74.9225 66.9935 74.9095 67.0195 74.8965C67.0456 74.877 67.0684 74.8639 67.0879 74.8574C67.1074 74.8444 67.1204 74.8379 67.127 74.8379C67.1465 74.8314 67.1921 74.8184 67.2637 74.7988C67.3418 74.7793 67.4199 74.7598 67.498 74.7402C67.5827 74.7207 67.6608 74.7044 67.7324 74.6914C67.804 74.6719 67.8496 74.6589 67.8691 74.6523C67.8757 74.6523 67.9017 74.6361 67.9473 74.6035C67.9993 74.571 68.0319 74.5482 68.0449 74.5352C68.0514 74.5286 68.0677 74.5156 68.0938 74.4961C68.1198 74.4701 68.1458 74.4473 68.1719 74.4277C68.2044 74.4017 68.2305 74.3822 68.25 74.3691C68.276 74.3496 68.2891 74.3398 68.2891 74.3398C68.3086 74.3333 68.3411 74.3236 68.3867 74.3105C68.4388 74.2975 68.4746 74.291 68.4941 74.291C68.5007 74.278 68.5072 74.2682 68.5137 74.2617L68.543 74.2324C68.569 74.1999 68.6048 74.151 68.6504 74.0859C68.7025 74.0208 68.7546 73.9557 68.8066 73.8906C68.8587 73.8255 68.9043 73.7669 68.9434 73.7148C68.9889 73.6562 69.0182 73.6204 69.0312 73.6074C69.0378 73.6009 69.0573 73.5781 69.0898 73.5391C69.1224 73.4935 69.1549 73.4479 69.1875 73.4023C69.2201 73.3503 69.2526 73.3047 69.2852 73.2656C69.3177 73.2201 69.3372 73.1908 69.3438 73.1777C69.3503 73.1712 69.3633 73.1582 69.3828 73.1387C69.4089 73.1191 69.4349 73.0964 69.4609 73.0703C69.487 73.0443 69.5098 73.0182 69.5293 72.9922C69.5553 72.9661 69.5684 72.9466 69.5684 72.9336C69.5814 72.9336 69.5944 72.9076 69.6074 72.8555C69.627 72.7969 69.6367 72.7611 69.6367 72.748C69.6432 72.735 69.6595 72.7025 69.6855 72.6504C69.7116 72.5983 69.7376 72.543 69.7637 72.4844C69.7897 72.4193 69.8125 72.3607 69.832 72.3086C69.8581 72.2565 69.8743 72.224 69.8809 72.2109C69.8874 72.1979 69.8971 72.1686 69.9102 72.123C69.9232 72.071 69.9362 72.0189 69.9492 71.9668C69.9622 71.9147 69.972 71.8659 69.9785 71.8203C69.9915 71.7682 69.998 71.7357 69.998 71.7227C70.0111 71.6966 70.0273 71.6641 70.0469 71.625C70.0664 71.5794 70.0859 71.5371 70.1055 71.498C70.1315 71.459 70.1608 71.4264 70.1934 71.4004C70.2324 71.3743 70.2715 71.3613 70.3105 71.3613C70.3431 71.3613 70.3757 71.3646 70.4082 71.3711C70.4473 71.3711 70.4766 71.3874 70.4961 71.4199C70.5091 71.4395 70.5254 71.4688 70.5449 71.5078C70.5645 71.5469 70.584 71.5859 70.6035 71.625C70.623 71.6641 70.6393 71.6999 70.6523 71.7324C70.6654 71.7585 70.6719 71.7747 70.6719 71.7812C70.6719 71.7943 70.6654 71.8268 70.6523 71.8789C70.6458 71.931 70.6361 71.9896 70.623 72.0547C70.61 72.1198 70.597 72.1816 70.584 72.2402C70.571 72.2923 70.5612 72.3249 70.5547 72.3379C70.5352 72.4486 70.5124 72.5788 70.4863 72.7285C70.4603 72.8717 70.4342 73.0215 70.4082 73.1777C70.3887 73.334 70.3691 73.4902 70.3496 73.6465C70.3301 73.7962 70.3171 73.9297 70.3105 74.0469V74.4766V74.6523C70.2975 74.6979 70.2812 74.737 70.2617 74.7695C70.2487 74.8021 70.2357 74.8346 70.2227 74.8672C70.2096 74.8997 70.1966 74.9258 70.1836 74.9453C70.1641 75.0039 70.151 75.043 70.1445 75.0625C70.1445 75.0755 70.1185 75.082 70.0664 75.082C70.0078 75.082 69.959 75.0462 69.9199 74.9746C69.8874 74.903 69.8516 74.8249 69.8125 74.7402C69.7799 74.6491 69.7376 74.5677 69.6855 74.4961C69.64 74.4245 69.5749 74.3887 69.4902 74.3887C69.4251 74.3887 69.3926 74.3919 69.3926 74.3984C69.3991 74.4049 69.3828 74.431 69.3438 74.4766C69.0768 74.6979 68.8034 74.8965 68.5234 75.0723C68.2435 75.2415 67.944 75.3815 67.625 75.4922C67.4818 75.5573 67.3451 75.6289 67.2148 75.707C67.0846 75.7852 66.9414 75.8405 66.7852 75.873C66.6745 75.8861 66.5605 75.8991 66.4434 75.9121C66.3262 75.9186 66.2318 75.9642 66.1602 76.0488L64.7539 76.1758C64.4544 76.0651 64.1419 75.987 63.8164 75.9414C63.4909 75.8893 63.1719 75.8438 62.8594 75.8047Z" fill="#1D1515"/>
</svg>
