<svg width="132" height="267" viewBox="0 0 132 267" fill="none" xmlns="http://www.w3.org/2000/svg">
<rect width="131.989" height="267" transform="matrix(-1 0 0 1 131.989 0)" fill="#664E39"/>
<path fill-rule="evenodd" clip-rule="evenodd" d="M119.885 12.0781H117.87V12.0809H14.0916V12.0781H12.0765V266.988H14.0916V14.096H117.87V266.988H119.885V12.0781Z" fill="#38210B"/>
<rect x="-2" y="2" width="88.2364" height="105.227" transform="matrix(-1 0 0 1 107.653 143.211)" stroke="#3C230D" stroke-opacity="0.49" stroke-width="4"/>
<rect x="-2" y="2" width="88.2364" height="100.373" transform="matrix(-1 0 0 1 107.653 16.998)" stroke="#3C230D" stroke-opacity="0.49" stroke-width="4"/>
<circle cx="3.02264" cy="3.02264" r="3.02264" transform="matrix(-1 0 0 1 28.1389 130.107)" fill="#E9B42E"/>
<rect width="13.0981" height="2.01509" transform="matrix(-1 0 0 1 38.2012 132.125)" fill="#E9B42E"/>
<circle cx="3.02264" cy="3.02264" r="3.02264" transform="matrix(-1 0 0 1 28.1389 131.105)" fill="#E9B42E" fill-opacity="0.37"/>
<rect width="13.0981" height="2.01509" transform="matrix(-1 0 0 1 38.2012 133.121)" fill="#E9B42E" fill-opacity="0.37"/>
<path d="M38.2012 131.774H28.6667C27.9104 131.774 27.1782 131.508 26.5981 131.023L26.2688 130.747C25.1522 129.813 23.5025 129.905 22.4964 130.957V130.957C21.6517 131.84 21.4872 133.173 22.0918 134.235L22.1474 134.333C23.0036 135.837 24.9741 136.269 26.3806 135.26L26.6548 135.064C27.2018 134.671 27.858 134.461 28.5311 134.461H38.2012" stroke="#CE9E23"/>
<rect width="1.00755" height="2.01509" transform="matrix(-1 0 0 1 38.2012 132.125)" fill="#CE9E23"/>
<path d="M48.3471 61.1584H44.2595C42.6027 61.1584 41.2595 62.5015 41.2595 64.1584V75.1493C41.2595 76.8061 42.6027 78.1493 44.2595 78.1493H46.5995C47.806 78.1493 48.7841 79.1274 48.7841 80.3338C48.7841 81.5403 49.7621 82.5184 50.9686 82.5184H81.1429C82.3878 82.5184 83.397 81.5092 83.397 80.2643C83.397 79.0751 84.3209 78.0904 85.5077 78.0149L88.2093 77.8428C89.7889 77.7422 91.0186 76.4317 91.0186 74.8488V64.1584C91.0186 62.5015 89.6754 61.1584 88.0186 61.1584H84.9504C83.4758 61.1584 82.2804 59.963 82.2804 58.4884C82.2804 57.0138 81.085 55.8184 79.6104 55.8184H53.6872C52.2126 55.8184 51.0172 57.0138 51.0172 58.4884C51.0172 59.963 49.8218 61.1584 48.3471 61.1584Z" fill="#C7A96F"/>
<path d="M53.3923 81.3048L70.3832 55.8184H80.0923L71.5968 82.5184H53.3923V81.3048Z" fill="#C49D51"/>
<path d="M64.0312 66.3223V66.8496C64.0312 67.071 64.0345 67.2891 64.041 67.5039C64.0475 67.7188 64.0671 67.9303 64.0996 68.1387C64.1061 68.2103 64.1419 68.2689 64.207 68.3145C64.2786 68.36 64.3503 68.3828 64.4219 68.3828C64.5911 68.3828 64.7441 68.3535 64.8809 68.2949C65.0176 68.2363 65.1608 68.1842 65.3105 68.1387C65.623 68.0345 65.8802 67.9368 66.082 67.8457C66.2904 67.7546 66.4727 67.6504 66.6289 67.5332C66.7852 67.416 66.9316 67.276 67.0684 67.1133C67.2116 66.944 67.3743 66.7357 67.5566 66.4883C67.6283 66.4102 67.6934 66.3255 67.752 66.2344C67.8171 66.1432 67.8561 66.0521 67.8691 65.9609V65.7754V65.3359C67.8691 65.3229 67.8789 65.2806 67.8984 65.209C67.9245 65.1374 67.9375 65.0983 67.9375 65.0918V65.0527V65.0234C67.9049 64.8932 67.8724 64.7533 67.8398 64.6035C67.8138 64.4473 67.7812 64.304 67.7422 64.1738C67.7227 64.0957 67.6836 63.9948 67.625 63.8711C67.5664 63.7474 67.5013 63.6237 67.4297 63.5C67.3581 63.3763 67.2865 63.2624 67.2148 63.1582C67.1432 63.054 67.0814 62.9857 67.0293 62.9531C67.0163 62.9466 66.9805 62.9401 66.9219 62.9336C66.8633 62.9206 66.834 62.9076 66.834 62.8945C66.8275 62.8815 66.8079 62.8424 66.7754 62.7773C66.7428 62.7057 66.7266 62.6602 66.7266 62.6406C66.7201 62.6406 66.707 62.6309 66.6875 62.6113C66.6745 62.6048 66.6647 62.5983 66.6582 62.5918C66.4889 62.5137 66.3164 62.4355 66.1406 62.3574C65.9648 62.2793 65.7858 62.1947 65.6035 62.1035C65.571 62.097 65.5091 62.0872 65.418 62.0742C65.3268 62.0612 65.2292 62.0482 65.125 62.0352C65.0273 62.0221 64.9329 62.0091 64.8418 61.9961C64.7507 61.9831 64.6888 61.9766 64.6562 61.9766H64.6074C64.4382 61.9766 64.3079 62.0352 64.2168 62.1523C64.1257 62.263 64.0866 62.4095 64.0996 62.5918C64.1061 63.2233 64.0964 63.8451 64.0703 64.457C64.0443 65.069 64.0312 65.6908 64.0312 66.3223ZM63.9141 74.5059C63.9141 74.7142 63.9368 74.8802 63.9824 75.0039C64.028 75.1276 64.1029 75.2741 64.207 75.4434C64.207 75.4564 64.2168 75.4792 64.2363 75.5117C64.2624 75.5443 64.2754 75.5638 64.2754 75.5703C64.2884 75.5703 64.3242 75.5736 64.3828 75.5801C64.4414 75.5866 64.4772 75.5898 64.4902 75.5898C64.6204 75.5898 64.7344 75.5605 64.832 75.502C64.9362 75.4434 65.0534 75.4076 65.1836 75.3945C65.3008 75.388 65.4082 75.3848 65.5059 75.3848C65.61 75.3783 65.7109 75.3717 65.8086 75.3652C65.9062 75.3587 66.0039 75.3457 66.1016 75.3262C66.1992 75.3001 66.3034 75.2578 66.4141 75.1992C66.4271 75.1927 66.4499 75.1797 66.4824 75.1602C66.5215 75.1341 66.5605 75.1081 66.5996 75.082C66.6387 75.056 66.6745 75.0332 66.707 75.0137C66.7461 74.9941 66.7721 74.9844 66.7852 74.9844C66.7917 74.9779 66.8112 74.9681 66.8438 74.9551C66.8828 74.9355 66.9219 74.9193 66.9609 74.9062C67.0065 74.8867 67.0456 74.8737 67.0781 74.8672C67.1172 74.8542 67.14 74.8477 67.1465 74.8477C67.1725 74.8411 67.2148 74.8151 67.2734 74.7695C67.3385 74.7174 67.3776 74.6849 67.3906 74.6719C67.4036 74.6523 67.4362 74.6133 67.4883 74.5547C67.5404 74.4896 67.599 74.418 67.6641 74.3398C67.7292 74.2617 67.791 74.1836 67.8496 74.1055C67.9082 74.0273 67.9538 73.9688 67.9863 73.9297C68.0124 73.9036 68.0384 73.8711 68.0645 73.832C68.097 73.793 68.1133 73.7669 68.1133 73.7539C68.1719 73.6302 68.2142 73.5 68.2402 73.3633C68.2728 73.2201 68.3151 73.0833 68.3672 72.9531V72.0449C68.3346 72.0124 68.3118 71.9733 68.2988 71.9277C68.2858 71.8822 68.2793 71.8398 68.2793 71.8008C68.2793 71.7617 68.2826 71.7227 68.2891 71.6836C68.2956 71.6445 68.2988 71.612 68.2988 71.5859V71.5566C68.2858 71.459 68.25 71.3646 68.1914 71.2734C68.1328 71.1758 68.1035 71.0716 68.1035 70.9609C68.1035 70.9479 68.1035 70.9349 68.1035 70.9219C68.11 70.9089 68.1133 70.8958 68.1133 70.8828C68.0938 70.8568 68.0547 70.8079 67.9961 70.7363C67.944 70.6647 67.8822 70.5898 67.8105 70.5117C67.7454 70.4336 67.6803 70.362 67.6152 70.2969C67.5566 70.2318 67.5143 70.1862 67.4883 70.1602C67.4883 70.1471 67.4622 70.1178 67.4102 70.0723C67.3581 70.0202 67.332 69.9876 67.332 69.9746C67.319 69.9616 67.306 69.9323 67.293 69.8867C67.2865 69.8346 67.2832 69.7988 67.2832 69.7793C67.2637 69.7728 67.2376 69.7565 67.2051 69.7305C67.179 69.6979 67.1595 69.6784 67.1465 69.6719C66.9967 69.5547 66.834 69.4538 66.6582 69.3691C66.4889 69.2845 66.3132 69.2129 66.1309 69.1543C65.9486 69.0957 65.763 69.0436 65.5742 68.998C65.3854 68.9525 65.1999 68.9069 65.0176 68.8613C65.0046 68.8613 64.9785 68.8581 64.9395 68.8516C64.9069 68.8385 64.8711 68.8255 64.832 68.8125C64.793 68.7995 64.7539 68.7865 64.7148 68.7734C64.6823 68.7604 64.6628 68.7507 64.6562 68.7441C64.5977 68.7376 64.5326 68.7507 64.4609 68.7832C64.3893 68.8158 64.321 68.8581 64.2559 68.9102C64.1908 68.9622 64.1354 69.0208 64.0898 69.0859C64.0508 69.1445 64.0312 69.1966 64.0312 69.2422V70.6875C64.0443 70.7135 64.0573 70.7591 64.0703 70.8242C64.0898 70.8828 64.0996 70.9186 64.0996 70.9316V70.9805V71C64.0996 71.0065 64.0898 71.026 64.0703 71.0586C64.0573 71.0911 64.0443 71.1139 64.0312 71.127C64.0312 71.2376 64.0345 71.3385 64.041 71.4297C64.0475 71.5208 64.0508 71.612 64.0508 71.7031C64.0508 71.8008 64.0443 71.8952 64.0312 71.9863C64.0182 72.0775 63.9954 72.1784 63.9629 72.2891C63.9499 72.3021 63.9401 72.3184 63.9336 72.3379C63.9206 72.377 63.9141 72.3997 63.9141 72.4062V72.4355C63.9141 72.4941 63.9206 72.5495 63.9336 72.6016C63.9531 72.6536 63.9629 72.7155 63.9629 72.7871V72.8848C63.9629 72.8913 63.9531 72.9206 63.9336 72.9727C63.9206 73.0247 63.9141 73.054 63.9141 73.0605C63.9141 73.0801 63.9206 73.1159 63.9336 73.168C63.9531 73.2135 63.9629 73.2428 63.9629 73.2559V73.4609C63.9629 73.6302 63.9531 73.806 63.9336 73.9883C63.9206 74.1641 63.9141 74.3366 63.9141 74.5059ZM59.5879 75.8828C59.5879 75.8112 59.6074 75.7461 59.6465 75.6875C59.6921 75.6289 59.7441 75.5768 59.8027 75.5312C59.8678 75.4857 59.9362 75.4466 60.0078 75.4141C60.0794 75.3815 60.1413 75.3522 60.1934 75.3262C60.4082 75.3457 60.6328 75.3555 60.8672 75.3555C60.9909 75.3555 61.1113 75.349 61.2285 75.3359C61.3457 75.3164 61.4499 75.2806 61.541 75.2285C61.6322 75.1699 61.7038 75.0918 61.7559 74.9941C61.8079 74.8965 61.834 74.7663 61.834 74.6035V72.2891C61.821 72.263 61.8079 72.2109 61.7949 72.1328C61.7884 72.0547 61.7852 72.0026 61.7852 71.9766V71.918V71.8691C61.7852 71.8496 61.7884 71.8073 61.7949 71.7422C61.8014 71.6771 61.8047 71.6055 61.8047 71.5273C61.8112 71.4492 61.8177 71.3776 61.8242 71.3125C61.8307 71.2409 61.834 71.1953 61.834 71.1758C61.834 71.1237 61.834 71.0228 61.834 70.873C61.8405 70.7233 61.8438 70.5671 61.8438 70.4043C61.8503 70.235 61.8535 70.0755 61.8535 69.9258C61.86 69.7695 61.8633 69.6621 61.8633 69.6035V69.291C61.8698 69.2324 61.873 69.1217 61.873 68.959C61.8796 68.7962 61.8828 68.627 61.8828 68.4512C61.8893 68.2689 61.8926 68.0964 61.8926 67.9336C61.8991 67.7708 61.9023 67.6602 61.9023 67.6016C61.9023 67.5885 61.8991 67.5658 61.8926 67.5332C61.8861 67.4941 61.8763 67.4551 61.8633 67.416C61.8568 67.3704 61.8503 67.3314 61.8438 67.2988C61.8372 67.2598 61.834 67.2337 61.834 67.2207V67.1523V67.1035C61.834 67.0905 61.8372 67.0645 61.8438 67.0254C61.8503 66.9798 61.8568 66.9342 61.8633 66.8887C61.8698 66.8431 61.8763 66.8008 61.8828 66.7617C61.8893 66.7161 61.8958 66.6836 61.9023 66.6641V63.8613C61.9023 63.6921 61.9219 63.5358 61.9609 63.3926C62.0065 63.2428 62.0293 63.0768 62.0293 62.8945C62.0293 62.7188 62.0033 62.5723 61.9512 62.4551C61.9056 62.3314 61.8047 62.2142 61.6484 62.1035C61.6094 62.1165 61.5378 62.123 61.4336 62.123C61.3359 62.123 61.235 62.123 61.1309 62.123C61.0202 62.123 60.916 62.123 60.8184 62.123C60.7272 62.123 60.6654 62.1165 60.6328 62.1035C60.5742 62.1035 60.4993 62.0872 60.4082 62.0547C60.3236 62.0221 60.2357 61.9863 60.1445 61.9473C60.0599 61.9017 59.9818 61.8529 59.9102 61.8008C59.8385 61.7487 59.7897 61.7031 59.7637 61.6641C59.8483 61.5339 59.9395 61.4557 60.0371 61.4297C60.1348 61.3971 60.2422 61.3809 60.3594 61.3809H60.7305C60.75 61.3809 60.7923 61.3711 60.8574 61.3516C60.929 61.3255 60.9714 61.3125 60.9844 61.3125C60.9909 61.3125 61.0072 61.3158 61.0332 61.3223C61.0592 61.3288 61.0853 61.3385 61.1113 61.3516C61.1374 61.3581 61.1602 61.3646 61.1797 61.3711C61.2057 61.3776 61.222 61.3809 61.2285 61.3809H62.2734C62.319 61.4069 62.3711 61.4264 62.4297 61.4395C62.4883 61.446 62.5469 61.4492 62.6055 61.4492H62.8301H62.9473L63.0254 61.4688C63.0775 61.4818 63.1068 61.4915 63.1133 61.498H63.7383H63.9629C63.9824 61.498 64.0182 61.5013 64.0703 61.5078C64.1289 61.5143 64.1875 61.5208 64.2461 61.5273C64.3047 61.5339 64.36 61.5404 64.4121 61.5469C64.4642 61.5534 64.5 61.5599 64.5195 61.5664L64.6562 61.498H65.6719C65.6979 61.485 65.7533 61.4753 65.8379 61.4688C65.9225 61.4557 65.9714 61.4492 65.9844 61.4492L66.0234 61.4297C66.0495 61.4167 66.0625 61.4102 66.0625 61.4102C66.6419 61.4102 67.2018 61.4948 67.7422 61.6641L67.8008 61.7227C67.9701 61.8398 68.1458 61.9408 68.3281 62.0254C68.5104 62.11 68.6862 62.1979 68.8555 62.2891L68.875 62.3086C68.8945 62.3281 68.9108 62.3411 68.9238 62.3477C68.9238 62.3607 68.9401 62.3932 68.9727 62.4453C69.0052 62.4909 69.0247 62.5202 69.0312 62.5332C69.0378 62.5462 69.0475 62.556 69.0605 62.5625C69.0671 62.582 69.0801 62.5918 69.0996 62.5918C69.2493 62.7806 69.3861 62.9661 69.5098 63.1484C69.6335 63.3307 69.7409 63.5195 69.832 63.7148C69.9232 63.9102 69.9915 64.1152 70.0371 64.3301C70.0892 64.5449 70.1152 64.776 70.1152 65.0234V65.0918C70.1152 65.1048 70.112 65.1341 70.1055 65.1797C70.099 65.2253 70.0924 65.2773 70.0859 65.3359C70.0859 65.388 70.0827 65.4368 70.0762 65.4824C70.0697 65.528 70.0664 65.5605 70.0664 65.5801V65.8438V65.9609C70.0469 66.0195 70.0241 66.0749 69.998 66.127C69.9785 66.1725 69.9557 66.2181 69.9297 66.2637C69.9036 66.3027 69.8841 66.3385 69.8711 66.3711C69.8125 66.5208 69.7474 66.6901 69.6758 66.8789C69.6107 67.0677 69.5228 67.2272 69.4121 67.3574C69.3991 67.3639 69.3633 67.3704 69.3047 67.377C69.2461 67.3835 69.2168 67.3932 69.2168 67.4062C69.2038 67.4193 69.1712 67.4518 69.1191 67.5039C69.0736 67.5495 69.0443 67.582 69.0312 67.6016C69.0247 67.6081 68.9954 67.6211 68.9434 67.6406C68.8978 67.6602 68.8457 67.6829 68.7871 67.709C68.735 67.735 68.6829 67.7611 68.6309 67.7871C68.5853 67.8132 68.556 67.8327 68.543 67.8457C68.5169 67.8652 68.4746 67.9043 68.416 67.9629C68.3574 68.015 68.2956 68.0736 68.2305 68.1387C68.1654 68.1973 68.1035 68.2559 68.0449 68.3145C67.9928 68.373 67.957 68.4154 67.9375 68.4414C67.944 68.4674 67.9668 68.487 68.0059 68.5C68.0449 68.513 68.0872 68.5228 68.1328 68.5293C68.1784 68.5293 68.224 68.5326 68.2695 68.5391C68.3151 68.5391 68.3477 68.5423 68.3672 68.5488C68.3737 68.5684 68.4095 68.6009 68.4746 68.6465C68.5397 68.6855 68.5853 68.7181 68.6113 68.7441C68.6178 68.7572 68.6471 68.7897 68.6992 68.8418C68.7513 68.8874 68.7806 68.9167 68.7871 68.9297C68.7936 68.9362 68.8099 68.9492 68.8359 68.9688C68.8685 68.9818 68.901 68.998 68.9336 69.0176C68.9661 69.0371 68.9987 69.0566 69.0312 69.0762C69.0638 69.0957 69.0866 69.1055 69.0996 69.1055C69.2949 69.2617 69.4707 69.444 69.627 69.6523C69.7832 69.8607 69.9297 70.069 70.0664 70.2773C70.0729 70.2839 70.0859 70.3034 70.1055 70.3359C70.1315 70.362 70.1576 70.3945 70.1836 70.4336C70.2096 70.4661 70.2357 70.4987 70.2617 70.5312C70.2878 70.5638 70.304 70.5833 70.3105 70.5898C70.3626 70.6745 70.4147 70.7982 70.4668 70.9609C70.5189 71.1237 70.5645 71.293 70.6035 71.4688C70.6426 71.6445 70.6751 71.8171 70.7012 71.9863C70.7272 72.1491 70.7402 72.2793 70.7402 72.377C70.7402 72.4681 70.724 72.5658 70.6914 72.6699C70.6654 72.7741 70.6393 72.8685 70.6133 72.9531C70.6003 72.9922 70.5872 73.0508 70.5742 73.1289C70.5677 73.2005 70.5645 73.2428 70.5645 73.2559V73.5586C70.5449 73.6367 70.5091 73.7311 70.457 73.8418C70.4049 73.9525 70.3561 74.0436 70.3105 74.1152C70.2585 74.2064 70.1999 74.3073 70.1348 74.418C70.0697 74.5286 69.998 74.6361 69.9199 74.7402C69.8418 74.8444 69.7604 74.9421 69.6758 75.0332C69.5911 75.1243 69.5033 75.1992 69.4121 75.2578C69.3926 75.2708 69.3535 75.2936 69.2949 75.3262C69.2363 75.3587 69.1712 75.3945 69.0996 75.4336C69.028 75.4661 68.9629 75.4987 68.9043 75.5312C68.8457 75.5573 68.8066 75.5703 68.7871 75.5703C68.7285 75.6029 68.6797 75.6322 68.6406 75.6582C68.6081 75.6777 68.5723 75.6973 68.5332 75.7168C68.4941 75.7363 68.4518 75.7559 68.4062 75.7754C68.3607 75.7949 68.3021 75.8112 68.2305 75.8242C68.1589 75.8372 68.071 75.8535 67.9668 75.873C67.8626 75.8926 67.7585 75.9121 67.6543 75.9316C67.5371 75.9577 67.4134 75.9805 67.2832 76H63.9141C63.901 76.0065 63.8717 76.013 63.8262 76.0195C63.7871 76.026 63.7448 76.0326 63.6992 76.0391C63.6536 76.0456 63.6081 76.0521 63.5625 76.0586C63.5234 76.0651 63.4941 76.0684 63.4746 76.0684H61.6484C61.5573 76.0944 61.4694 76.1107 61.3848 76.1172C61.3066 76.1237 61.2253 76.127 61.1406 76.127H60.7305H60.5059C60.4928 76.127 60.4603 76.1335 60.4082 76.1465C60.3626 76.166 60.3333 76.1758 60.3203 76.1758H60.1641C60.125 76.1758 60.0729 76.1725 60.0078 76.166C59.9427 76.1595 59.8776 76.1432 59.8125 76.1172C59.7539 76.0977 59.7018 76.0684 59.6562 76.0293C59.6107 75.9902 59.5879 75.9414 59.5879 75.8828Z" fill="#1D1515"/>
</svg>
