<svg width="132" height="267" viewBox="0 0 132 267" fill="none" xmlns="http://www.w3.org/2000/svg">
<rect width="131.989" height="267" transform="matrix(-1 0 0 1 131.989 0)" fill="#664E39"/>
<path fill-rule="evenodd" clip-rule="evenodd" d="M119.885 12.0781H117.87V12.0809H14.0916V12.0781H12.0765V266.988H14.0916V14.096H117.87V266.988H119.885V12.0781Z" fill="#38210B"/>
<rect x="-2" y="2" width="88.2364" height="105.227" transform="matrix(-1 0 0 1 107.653 143.211)" stroke="#3C230D" stroke-opacity="0.49" stroke-width="4"/>
<rect x="-2" y="2" width="88.2364" height="100.373" transform="matrix(-1 0 0 1 107.653 16.998)" stroke="#3C230D" stroke-opacity="0.49" stroke-width="4"/>
<circle cx="3.02264" cy="3.02264" r="3.02264" transform="matrix(-1 0 0 1 28.1389 130.107)" fill="#E9B42E"/>
<rect width="13.0981" height="2.01509" transform="matrix(-1 0 0 1 38.2012 132.125)" fill="#E9B42E"/>
<circle cx="3.02264" cy="3.02264" r="3.02264" transform="matrix(-1 0 0 1 28.1389 131.105)" fill="#E9B42E" fill-opacity="0.37"/>
<rect width="13.0981" height="2.01509" transform="matrix(-1 0 0 1 38.2012 133.121)" fill="#E9B42E" fill-opacity="0.37"/>
<path d="M38.2012 131.774H28.6667C27.9104 131.774 27.1782 131.508 26.5981 131.023L26.2688 130.747C25.1522 129.813 23.5025 129.905 22.4964 130.957V130.957C21.6517 131.84 21.4872 133.173 22.0918 134.235L22.1474 134.333C23.0036 135.837 24.9741 136.269 26.3806 135.26L26.6548 135.064C27.2018 134.671 27.858 134.461 28.5311 134.461H38.2012" stroke="#CE9E23"/>
<rect width="1.00755" height="2.01509" transform="matrix(-1 0 0 1 38.2012 132.125)" fill="#CE9E23"/>
<path d="M48.3471 61.1584H44.2595C42.6027 61.1584 41.2595 62.5015 41.2595 64.1584V75.1493C41.2595 76.8061 42.6027 78.1493 44.2595 78.1493H46.5995C47.806 78.1493 48.7841 79.1274 48.7841 80.3338C48.7841 81.5403 49.7621 82.5184 50.9686 82.5184H81.1429C82.3878 82.5184 83.397 81.5092 83.397 80.2643C83.397 79.0751 84.3209 78.0904 85.5077 78.0149L88.2093 77.8428C89.7889 77.7422 91.0186 76.4317 91.0186 74.8488V64.1584C91.0186 62.5015 89.6754 61.1584 88.0186 61.1584H84.9504C83.4758 61.1584 82.2804 59.963 82.2804 58.4884C82.2804 57.0138 81.085 55.8184 79.6104 55.8184H53.6872C52.2126 55.8184 51.0172 57.0138 51.0172 58.4884C51.0172 59.963 49.8218 61.1584 48.3471 61.1584Z" fill="#C7A96F"/>
<path d="M53.3923 81.3048L70.3832 55.8184H80.0923L71.5968 82.5184H53.3923V81.3048Z" fill="#C49D51"/>
<path d="M63.8477 70.4336V74.9453C63.8477 74.9974 63.8802 75.0495 63.9453 75.1016C64.0169 75.1471 64.0983 75.1895 64.1895 75.2285C64.2806 75.2611 64.3685 75.2904 64.4531 75.3164C64.5378 75.3359 64.5964 75.3457 64.6289 75.3457C64.8177 75.3457 65.013 75.3294 65.2148 75.2969C65.4167 75.2578 65.612 75.2253 65.8008 75.1992C65.8073 75.1992 65.8464 75.2025 65.918 75.209C65.9896 75.209 66.0514 75.209 66.1035 75.209C66.1751 75.209 66.2142 75.2057 66.2207 75.1992C66.2402 75.1992 66.2695 75.1992 66.3086 75.1992C66.3542 75.1927 66.3997 75.1862 66.4453 75.1797C66.4909 75.1732 66.5332 75.1667 66.5723 75.1602C66.6113 75.1536 66.6374 75.1504 66.6504 75.1504C66.8001 75.1243 66.9368 75.0723 67.0605 74.9941C67.1908 74.9095 67.321 74.8411 67.4512 74.7891C67.5553 74.75 67.666 74.7142 67.7832 74.6816C67.9004 74.6426 68.0176 74.6035 68.1348 74.5645C68.2585 74.5189 68.3757 74.4733 68.4863 74.4277C68.597 74.3757 68.6947 74.3138 68.7793 74.2422C68.8053 74.2227 68.8509 74.1836 68.916 74.125C68.9811 74.0599 69.0495 73.9915 69.1211 73.9199C69.1927 73.8483 69.2611 73.7799 69.3262 73.7148C69.3913 73.6432 69.4401 73.5911 69.4727 73.5586C69.4792 73.5521 69.4889 73.5358 69.502 73.5098C69.5215 73.4837 69.541 73.4544 69.5605 73.4219C69.5801 73.3828 69.5996 73.3503 69.6191 73.3242C69.6387 73.2917 69.6484 73.2689 69.6484 73.2559C69.7786 73.0736 69.9121 72.9076 70.0488 72.7578C70.1921 72.6016 70.2995 72.4258 70.3711 72.2305C70.3841 72.2044 70.3939 72.1816 70.4004 72.1621C70.4069 72.1491 70.4134 72.1328 70.4199 72.1133C70.6283 71.8008 70.8138 71.4655 70.9766 71.1074C71.1458 70.7493 71.25 70.388 71.2891 70.0234C71.2956 69.9453 71.3086 69.8184 71.3281 69.6426C71.3477 69.4603 71.3672 69.2747 71.3867 69.0859C71.4062 68.8906 71.4225 68.7083 71.4355 68.5391C71.4551 68.3698 71.4681 68.2526 71.4746 68.1875V68.041C71.4746 67.8848 71.4551 67.748 71.416 67.6309C71.377 67.5072 71.3346 67.3704 71.2891 67.2207C71.25 67.0645 71.2142 66.9049 71.1816 66.7422C71.1491 66.5794 71.11 66.4199 71.0645 66.2637C71.0254 66.1074 70.9733 65.9544 70.9082 65.8047C70.8496 65.6549 70.7715 65.515 70.6738 65.3848C70.6673 65.3717 70.6608 65.3555 70.6543 65.3359C70.6478 65.3229 70.6413 65.3099 70.6348 65.2969C70.6283 65.2839 70.6217 65.2708 70.6152 65.2578C70.6152 65.2513 70.6087 65.2285 70.5957 65.1895C70.5827 65.1439 70.5697 65.0983 70.5566 65.0527C70.5436 65.0072 70.5306 64.9648 70.5176 64.9258C70.5046 64.8867 70.4948 64.8607 70.4883 64.8477C70.4883 64.8411 70.4785 64.8249 70.459 64.7988C70.446 64.7728 70.4264 64.7467 70.4004 64.7207C70.3809 64.6882 70.3613 64.6621 70.3418 64.6426C70.3288 64.6165 70.3223 64.6003 70.3223 64.5938C70.153 64.3594 70 64.1543 69.8633 63.9785C69.7266 63.7962 69.5508 63.6139 69.3359 63.4316C69.1992 63.321 69.056 63.1908 68.9062 63.041C68.7565 62.8913 68.5938 62.7806 68.418 62.709C68.4115 62.7025 68.3626 62.6895 68.2715 62.6699C68.1868 62.6504 68.1315 62.6406 68.1055 62.6406C68.099 62.6341 68.0697 62.6048 68.0176 62.5527C67.972 62.4941 67.9427 62.4648 67.9297 62.4648C67.9297 62.4518 67.9167 62.4388 67.8906 62.4258C67.8646 62.4062 67.8451 62.3965 67.832 62.3965C67.819 62.3965 67.8027 62.3932 67.7832 62.3867C67.7702 62.3802 67.7507 62.3737 67.7246 62.3672C67.6986 62.3607 67.6693 62.3542 67.6367 62.3477C67.5521 62.3086 67.4805 62.276 67.4219 62.25C67.3698 62.224 67.3177 62.2012 67.2656 62.1816C67.2135 62.1621 67.1582 62.1458 67.0996 62.1328C67.0475 62.1198 66.9792 62.11 66.8945 62.1035C66.888 62.1035 66.8685 62.1003 66.8359 62.0938C66.8034 62.0872 66.7676 62.0807 66.7285 62.0742C66.6895 62.0612 66.6504 62.0514 66.6113 62.0449C66.5788 62.0384 66.5527 62.0352 66.5332 62.0352C66.3639 61.9961 66.1882 61.957 66.0059 61.918C65.8301 61.8789 65.651 61.8594 65.4688 61.8594H65.2539C65.2083 61.8659 65.1302 61.8757 65.0195 61.8887C64.9089 61.9017 64.7917 61.918 64.668 61.9375C64.5443 61.957 64.4271 61.9766 64.3164 61.9961C64.2057 62.0091 64.1309 62.0221 64.0918 62.0352C64.0397 62.0677 63.9941 62.1328 63.9551 62.2305C63.9225 62.3281 63.9062 62.4062 63.9062 62.4648V65.6777C63.9258 65.7624 63.9388 65.8372 63.9453 65.9023C63.9518 65.9609 63.9583 66.0163 63.9648 66.0684C63.9714 66.1204 63.9746 66.1758 63.9746 66.2344C63.9746 66.2865 63.9746 66.3483 63.9746 66.4199V66.6641C63.9746 66.6771 63.9714 66.7096 63.9648 66.7617C63.9583 66.8073 63.9486 66.8561 63.9355 66.9082C63.929 66.9603 63.9225 67.0124 63.916 67.0645C63.9095 67.11 63.9062 67.1393 63.9062 67.1523C63.9062 67.2174 63.903 67.3314 63.8965 67.4941C63.89 67.6504 63.8835 67.8197 63.877 68.002C63.8704 68.1842 63.8639 68.3568 63.8574 68.5195C63.8509 68.6823 63.8477 68.7962 63.8477 68.8613C63.8151 68.9329 63.7956 69.0143 63.7891 69.1055C63.7826 69.1966 63.7793 69.2812 63.7793 69.3594V69.5156C63.7793 69.6914 63.7826 69.8477 63.7891 69.9844C63.7956 70.1146 63.8151 70.2643 63.8477 70.4336ZM59.3945 75.8047C59.3945 75.7461 59.4141 75.694 59.4531 75.6484C59.4922 75.5964 59.541 75.554 59.5996 75.5215C59.6582 75.4889 59.7168 75.4629 59.7754 75.4434C59.8405 75.4173 59.8991 75.401 59.9512 75.3945C60.0814 75.375 60.2279 75.3685 60.3906 75.375C60.5534 75.375 60.7161 75.3717 60.8789 75.3652C61.0417 75.3522 61.1914 75.3229 61.3281 75.2773C61.4648 75.2253 61.5723 75.1374 61.6504 75.0137V74.6914C61.6504 74.5742 61.6406 74.4701 61.6211 74.3789C61.6016 74.2812 61.5918 74.1803 61.5918 74.0762V74.0469C61.5918 74.0339 61.5951 74.0046 61.6016 73.959C61.6081 73.9069 61.6146 73.8548 61.6211 73.8027C61.6276 73.7507 61.6341 73.7018 61.6406 73.6562C61.6471 73.6042 61.6504 73.5716 61.6504 73.5586V73.4707C61.6504 73.334 61.6406 73.2005 61.6211 73.0703C61.6016 72.9336 61.5918 72.7904 61.5918 72.6406V72.5234C61.5918 72.5169 61.5951 72.4941 61.6016 72.4551C61.6081 72.416 61.6146 72.377 61.6211 72.3379C61.6276 72.2988 61.6341 72.263 61.6406 72.2305C61.6471 72.1914 61.6504 72.1686 61.6504 72.1621V71.293C61.6504 70.8893 61.6406 70.4922 61.6211 70.1016C61.6016 69.7044 61.5918 69.3073 61.5918 68.9102V68.0605C61.5918 68.041 61.5951 67.9857 61.6016 67.8945C61.6081 67.8034 61.6146 67.709 61.6211 67.6113C61.6276 67.5072 61.6341 67.4095 61.6406 67.3184C61.6471 67.2272 61.6504 67.1719 61.6504 67.1523V65.4336C61.6504 65.4206 61.6536 65.3978 61.6602 65.3652C61.6667 65.3262 61.6732 65.2839 61.6797 65.2383C61.6862 65.1927 61.6927 65.1504 61.6992 65.1113C61.7057 65.0723 61.709 65.043 61.709 65.0234V62.5918C61.709 62.5592 61.6927 62.5104 61.6602 62.4453C61.6341 62.3737 61.6113 62.3216 61.5918 62.2891C61.5788 62.2565 61.556 62.2207 61.5234 62.1816C61.4974 62.1426 61.4779 62.1165 61.4648 62.1035C61.4323 62.0579 61.3639 62.0189 61.2598 61.9863C61.1556 61.9538 61.0319 61.9277 60.8887 61.9082C60.752 61.8887 60.6055 61.8691 60.4492 61.8496C60.293 61.8301 60.1497 61.8105 60.0195 61.791C59.8958 61.765 59.7917 61.7324 59.707 61.6934C59.6224 61.6543 59.5801 61.6055 59.5801 61.5469C59.5801 61.4557 59.6224 61.3939 59.707 61.3613C59.7982 61.3223 59.8796 61.3027 59.9512 61.3027H60.4004H60.8594C60.9115 61.3353 60.9766 61.3581 61.0547 61.3711C61.1328 61.3776 61.2109 61.3809 61.2891 61.3809C61.3542 61.3809 61.4128 61.3776 61.4648 61.3711C61.5169 61.3646 61.5592 61.3613 61.5918 61.3613C61.9824 61.3809 62.3665 61.4069 62.7441 61.4395C63.1283 61.4655 63.5156 61.4785 63.9062 61.4785H64.0234C64.0365 61.4785 64.069 61.4688 64.1211 61.4492C64.1732 61.4232 64.2057 61.4102 64.2188 61.4102C64.6029 61.3841 64.9837 61.3711 65.3613 61.3711C65.7454 61.3646 66.1296 61.3613 66.5137 61.3613H66.9629C67.1452 61.3743 67.321 61.4004 67.4902 61.4395C67.6595 61.472 67.8255 61.5111 67.9883 61.5566C68.1576 61.6022 68.3268 61.6478 68.4961 61.6934C68.6654 61.7324 68.8444 61.765 69.0332 61.791C69.1309 61.8757 69.2415 61.9342 69.3652 61.9668C69.4889 61.9993 69.6061 62.0449 69.7168 62.1035C69.9837 62.2272 70.2604 62.3509 70.5469 62.4746C70.8333 62.5983 71.0807 62.7546 71.2891 62.9434C71.7448 63.347 72.1419 63.7539 72.4805 64.1641C72.819 64.5742 73.099 65.0039 73.3203 65.4531C73.5417 65.8958 73.7077 66.3711 73.8184 66.8789C73.929 67.3867 73.9844 67.9401 73.9844 68.5391C73.9844 69.1576 73.929 69.7272 73.8184 70.248C73.7077 70.7689 73.5384 71.2604 73.3105 71.7227C73.0827 72.1784 72.7962 72.6178 72.4512 73.041C72.1061 73.4577 71.6992 73.8743 71.2305 74.291C71.1263 74.3626 71.0059 74.4147 70.8691 74.4473C70.7389 74.4798 70.612 74.5319 70.4883 74.6035C70.3581 74.6882 70.2246 74.7858 70.0879 74.8965C69.9512 75.0072 69.8047 75.0918 69.6484 75.1504C69.2578 75.2806 68.8639 75.4043 68.4668 75.5215C68.0762 75.6387 67.679 75.7396 67.2754 75.8242H67.1387C66.8783 75.8372 66.6146 75.8698 66.3477 75.9219C66.0807 75.974 65.8203 76 65.5664 76C65.4362 76 65.3288 75.9967 65.2441 75.9902C65.166 75.9837 65.0488 75.9642 64.8926 75.9316C64.8796 75.9316 64.847 75.9349 64.7949 75.9414C64.7493 75.9479 64.7233 75.9512 64.7168 75.9512H64.6484H64.5801C64.5736 75.9577 64.554 75.9642 64.5215 75.9707C64.4954 75.9707 64.4629 75.974 64.4238 75.9805C64.3913 75.9805 64.3587 75.9837 64.3262 75.9902C64.3001 75.9902 64.2806 75.9935 64.2676 76H62.207C61.8685 76.013 61.5267 76.0358 61.1816 76.0684C60.8366 76.1074 60.4948 76.127 60.1562 76.127C60.0911 76.127 60.013 76.127 59.9219 76.127C59.8372 76.127 59.7559 76.1172 59.6777 76.0977C59.5996 76.0781 59.5312 76.0456 59.4727 76C59.4206 75.9544 59.3945 75.8893 59.3945 75.8047Z" fill="#1D1515"/>
</svg>
