<svg width="309" height="624" viewBox="0 0 309 624" fill="none" xmlns="http://www.w3.org/2000/svg">
<rect width="308.075" height="623.206" transform="matrix(-1 0 0 1 308.075 0)" fill="white"/>
<path fill-rule="evenodd" clip-rule="evenodd" d="M279.825 28.2666H275.121V28.2795H32.9008V28.2666H28.1974V623.251H32.9008V32.9829H275.121V623.251H279.825V28.2666Z" fill="#5C5C5C" fill-opacity="0.71"/>
<rect x="-2" y="2" width="211.29" height="250.948" transform="matrix(-1 0 0 1 256.623 334.254)" stroke="#CBBAAB" stroke-opacity="0.67" stroke-width="4"/>
<rect x="-2" y="2" width="211.29" height="239.617" transform="matrix(-1 0 0 1 256.618 39.5791)" stroke="#CBBAAB" stroke-opacity="0.67" stroke-width="4"/>
<ellipse cx="7.05517" cy="7.05517" rx="7.05517" ry="7.05517" transform="matrix(-1 0 0 1 65.7183 303.713)" fill="#E9B42E"/>
<rect width="30.5724" height="4.70345" transform="matrix(-1 0 0 1 89.2041 308.394)" fill="#E9B42E"/>
<ellipse cx="7.05517" cy="7.05517" rx="7.05517" ry="7.05517" transform="matrix(-1 0 0 1 65.7183 306.085)" fill="#E9B42E" fill-opacity="0.37"/>
<rect width="30.5724" height="4.70345" transform="matrix(-1 0 0 1 89.2041 310.756)" fill="#E9B42E" fill-opacity="0.37"/>
<path d="M89.2041 307.566H66.9495C65.1843 307.566 63.4752 306.946 62.1213 305.813L61.3527 305.17C58.7464 302.989 54.8958 303.204 52.5474 305.659V305.659C50.5758 307.721 50.1918 310.833 51.603 313.312L51.7328 313.54C53.7313 317.051 58.3306 318.059 61.6137 315.704L62.2537 315.245C63.5304 314.33 65.062 313.837 66.633 313.837H89.2041" stroke="#CE9E23"/>
<rect width="2.35172" height="4.70345" transform="matrix(-1 0 0 1 89.2041 308.394)" fill="#CE9E23"/>
<path d="M116.123 142.766H99.3472C97.6903 142.766 96.3472 144.109 96.3472 145.766V179.425C96.3472 181.081 97.6903 182.425 99.3472 182.425H110.91C112.567 182.425 113.91 183.768 113.91 185.425V189.623C113.91 191.279 115.253 192.623 116.91 192.623H191.7C193.357 192.623 194.7 191.279 194.7 189.623V185.24C194.7 183.657 195.93 182.346 197.51 182.246L209.681 181.47C211.261 181.37 212.49 180.059 212.49 178.477V145.766C212.49 144.109 211.147 142.766 209.49 142.766H195.094C193.437 142.766 192.094 141.423 192.094 139.766V133.302C192.094 131.645 190.751 130.302 189.094 130.302H122.123C120.466 130.302 119.123 131.645 119.123 133.302V139.766C119.123 141.423 117.779 142.766 116.123 142.766Z" fill="#C7A96F"/>
<path d="M124.658 189.79L164.317 130.302H186.979L167.15 192.623H124.658V189.79Z" fill="#C49D51"/>
</svg>
