<svg width="78" height="157" viewBox="0 0 78 157" fill="none" xmlns="http://www.w3.org/2000/svg">
<rect width="77.6113" height="157" transform="matrix(-1 0 0 1 77.6116 0)" fill="#664E39"/>
<path fill-rule="evenodd" clip-rule="evenodd" d="M70.4946 7.10254H69.3097V7.10397H8.28642V7.10261H7.10152V156.993H8.28642V8.28888H69.3097V156.993H70.4946V7.10254Z" fill="#38210B"/>
<rect x="-2" y="2" width="50.2364" height="60.2273" transform="matrix(-1 0 0 1 61.6541 84.2095)" stroke="#3C230D" stroke-opacity="0.49" stroke-width="4"/>
<rect x="-2" y="2" width="50.2364" height="57.3726" transform="matrix(-1 0 0 1 61.6541 9.99463)" stroke="#3C230D" stroke-opacity="0.49" stroke-width="4"/>
<circle cx="1.77736" cy="1.77736" r="1.77736" transform="matrix(-1 0 0 1 16.5463 76.5054)" fill="#E9B42E"/>
<rect width="7.70188" height="1.18491" transform="matrix(-1 0 0 1 22.4631 77.6914)" fill="#E9B42E"/>
<circle cx="1.77736" cy="1.77736" r="1.77736" transform="matrix(-1 0 0 1 16.5463 77.0913)" fill="#E9B42E" fill-opacity="0.37"/>
<rect width="7.70188" height="1.18491" transform="matrix(-1 0 0 1 22.4631 78.2778)" fill="#E9B42E" fill-opacity="0.37"/>
<path d="M22.4631 77.4851H16.8567C16.412 77.4851 15.9814 77.3288 15.6404 77.0434L15.4467 76.8815C14.7901 76.3322 13.8201 76.3861 13.2285 77.0048V77.0048C12.7318 77.5242 12.635 78.3081 12.9906 78.9327L13.0233 78.9901C13.5267 79.8746 14.6854 80.1284 15.5125 79.5353L15.6737 79.4197C15.9954 79.1891 16.3812 79.065 16.777 79.065H22.4631" stroke="#CE9E23"/>
<rect width="0.592452" height="1.18491" transform="matrix(-1 0 0 1 22.4631 77.6914)" fill="#CE9E23"/>
<path d="M28.4291 35.9623H27.1303C25.5459 35.9623 24.2615 37.2467 24.2615 38.8311V43.7409C24.2615 44.9627 25.2519 45.9532 26.4737 45.9532H27.4015C28.1109 45.9532 28.686 46.5283 28.686 47.2377C28.686 47.9472 29.2611 48.5223 29.9706 48.5223H47.7135C48.4455 48.5223 49.0389 47.9289 49.0389 47.1969C49.0389 46.4976 49.5822 45.9186 50.2801 45.8741L51.2797 45.8105C52.5397 45.7302 53.5205 44.6849 53.5205 43.4224V38.5314C53.5205 37.1125 52.3703 35.9623 50.9515 35.9623H49.9524C49.0853 35.9623 48.3824 35.2594 48.3824 34.3923C48.3824 33.5252 47.6795 32.8223 46.8124 32.8223H31.5691C30.702 32.8223 29.9991 33.5252 29.9991 34.3923C29.9991 35.2594 29.2962 35.9623 28.4291 35.9623Z" fill="#C7A96F"/>
<path d="M31.3958 47.8086L41.3866 32.8223H47.0957L42.1003 48.5223H31.3958V47.8086Z" fill="#C49D51"/>
<path d="M33.9343 40.998C33.9343 41.0827 33.957 41.1445 34.0026 41.1836C34.0482 41.2161 34.1003 41.2422 34.1589 41.2617C34.224 41.2747 34.2891 41.2812 34.3542 41.2812C34.4258 41.2747 34.4876 41.2747 34.5397 41.2812C34.5527 41.2812 34.5788 41.2845 34.6178 41.291C34.6634 41.2975 34.709 41.304 34.7546 41.3105C34.8066 41.3171 34.8522 41.3236 34.8913 41.3301C34.9303 41.3366 34.9564 41.3398 34.9694 41.3398H35.4284C35.4414 41.3529 35.4577 41.3659 35.4772 41.3789C35.5033 41.3984 35.526 41.4082 35.5456 41.4082H35.6725H35.8483C35.8874 41.4017 35.959 41.3952 36.0632 41.3887C36.1673 41.3822 36.278 41.3757 36.3952 41.3691C36.5124 41.3626 36.6231 41.3561 36.7272 41.3496C36.8379 41.3431 36.9128 41.3398 36.9518 41.3398C37.0169 41.3398 37.0593 41.3138 37.0788 41.2617C37.1048 41.2031 37.1211 41.1478 37.1276 41.0957C37.1341 41.0762 37.1406 41.0469 37.1471 41.0078C37.1537 40.9622 37.1602 40.9199 37.1667 40.8809C37.1732 40.8353 37.1797 40.793 37.1862 40.7539C37.1927 40.7148 37.196 40.6855 37.196 40.666V40.3047C37.209 40.2135 37.2318 40.1354 37.2643 40.0703C37.2969 39.9987 37.3132 39.9206 37.3132 39.8359V39.748C37.3132 39.7415 37.3001 39.7122 37.2741 39.6602C37.2546 39.6016 37.2448 39.5658 37.2448 39.5527C37.2448 39.5267 37.2415 39.4811 37.235 39.416C37.2285 39.3509 37.222 39.2793 37.2155 39.2012C37.209 39.123 37.2025 39.0482 37.196 38.9766C37.196 38.9049 37.196 38.8529 37.196 38.8203V37.4238C37.1699 37.3522 37.1276 37.3099 37.069 37.2969C37.0104 37.2839 36.9551 37.2773 36.903 37.2773C36.89 37.2773 36.877 37.2806 36.8639 37.2871C36.8509 37.2871 36.8379 37.2871 36.8249 37.2871H36.776C36.7435 37.3066 36.7044 37.3522 36.6589 37.4238C36.6198 37.4889 36.5905 37.528 36.571 37.541C36.1283 38.0488 35.7083 38.5632 35.3112 39.084C34.9206 39.6048 34.5202 40.1322 34.11 40.666C34.071 40.7181 34.0319 40.7702 33.9928 40.8223C33.9538 40.8678 33.9343 40.9264 33.9343 40.998ZM37.069 47.1699C37.069 47.1504 37.0755 47.1113 37.0885 47.0527C37.1016 46.9941 37.1146 46.929 37.1276 46.8574C37.1471 46.7923 37.1634 46.7305 37.1764 46.6719C37.1895 46.6133 37.196 46.5775 37.196 46.5645V45.7539C37.196 45.6497 37.1992 45.5163 37.2057 45.3535C37.2122 45.1973 37.2155 45.0443 37.2155 44.8945C37.222 44.7448 37.2285 44.6146 37.235 44.5039C37.2415 44.3932 37.2448 44.3346 37.2448 44.3281L37.3132 44.2109V43.1172C37.3132 43.0977 37.2774 43.0618 37.2057 43.0098C37.1406 42.9577 37.0951 42.9316 37.069 42.9316H34.9206C34.8294 42.8991 34.7383 42.8828 34.6471 42.8828C34.556 42.8763 34.4616 42.873 34.3639 42.873H34.11H33.6413C33.5827 42.8991 33.5371 42.9154 33.5046 42.9219C33.4785 42.9284 33.4395 42.9316 33.3874 42.9316H33.3288C33.3223 42.9316 33.3027 42.9251 33.2702 42.9121C33.2441 42.8991 33.2149 42.8861 33.1823 42.873C33.1497 42.8535 33.1172 42.8372 33.0846 42.8242C33.0521 42.8112 33.0293 42.8047 33.0163 42.8047H32.9186H32.6843C32.5736 42.8047 32.4792 42.7884 32.401 42.7559C32.3294 42.7168 32.2936 42.6289 32.2936 42.4922C32.2936 42.3945 32.3066 42.3132 32.3327 42.248C32.3652 42.1829 32.4043 42.1243 32.4499 42.0723C32.502 42.0202 32.554 41.9714 32.6061 41.9258C32.6647 41.8802 32.7233 41.8281 32.7819 41.7695C32.9642 41.5872 33.1302 41.3919 33.28 41.1836C33.4297 40.9753 33.5859 40.7669 33.7487 40.5586C33.7552 40.5521 33.7585 40.5423 33.7585 40.5293C33.765 40.5098 33.7747 40.4935 33.7878 40.4805C33.7943 40.4609 33.804 40.4414 33.8171 40.4219C33.9147 40.2331 34.0221 40.0671 34.1393 39.9238C34.2565 39.7806 34.3737 39.6178 34.4909 39.4355C34.556 39.3249 34.6146 39.1979 34.6667 39.0547C34.7253 38.9115 34.8099 38.7943 34.9206 38.7031C34.9271 38.6966 34.9531 38.6803 34.9987 38.6543C35.0443 38.6217 35.0899 38.5892 35.1354 38.5566C35.1875 38.5241 35.2363 38.4915 35.2819 38.459C35.3275 38.4264 35.3535 38.4036 35.36 38.3906C35.36 38.3841 35.3763 38.3548 35.4089 38.3027C35.4479 38.2441 35.4935 38.1758 35.5456 38.0977C35.5977 38.0195 35.6497 37.9414 35.7018 37.8633C35.7604 37.7852 35.8093 37.7201 35.8483 37.668C35.9525 37.5117 36.0534 37.362 36.151 37.2188C36.2487 37.0755 36.3724 36.9421 36.5221 36.8184C36.5287 36.8118 36.5449 36.7956 36.571 36.7695C36.597 36.7435 36.6263 36.7174 36.6589 36.6914C36.6979 36.6589 36.7305 36.6328 36.7565 36.6133C36.7891 36.5872 36.8119 36.571 36.8249 36.5645C36.929 36.4863 37.0039 36.3887 37.0495 36.2715C37.0951 36.1543 37.1602 36.0501 37.2448 35.959C37.2643 35.9395 37.3001 35.9036 37.3522 35.8516C37.4108 35.7995 37.4694 35.7441 37.528 35.6855C37.5866 35.627 37.6419 35.5716 37.694 35.5195C37.7461 35.4609 37.7819 35.4219 37.8014 35.4023C37.86 35.1289 37.9675 34.8945 38.1237 34.6992C38.2865 34.4974 38.485 34.3281 38.7194 34.1914C38.7324 34.1719 38.7487 34.1621 38.7682 34.1621C38.7943 34.1556 38.8138 34.1523 38.8268 34.1523C38.8333 34.1523 38.8464 34.1556 38.8659 34.1621C38.8919 34.1621 38.905 34.1719 38.905 34.1914C38.918 34.1914 38.9408 34.2142 38.9733 34.2598C39.0059 34.3053 39.0221 34.3411 39.0221 34.3672V34.748C39.0221 34.9368 39.0124 35.1126 38.9928 35.2754C38.9798 35.4316 38.9733 35.6042 38.9733 35.793V36.1934C39.0124 36.2324 39.0319 36.304 39.0319 36.4082C39.0319 36.4473 39.0287 36.4896 39.0221 36.5352C39.0221 36.5742 39.0221 36.6003 39.0221 36.6133C39.0221 36.8151 39.0026 37.0104 38.9635 37.1992C38.9245 37.3815 38.905 37.5703 38.905 37.7656C38.905 37.974 38.9147 38.179 38.9343 38.3809C38.9603 38.5827 38.9733 38.7812 38.9733 38.9766V39.0645C38.9408 39.3379 38.9082 39.6016 38.8757 39.8555C38.8496 40.1094 38.8366 40.3698 38.8366 40.6367C38.8366 40.7799 38.8561 40.8874 38.8952 40.959C38.9343 41.0306 39.0189 41.1217 39.1491 41.2324C39.1621 41.2389 39.1914 41.2487 39.237 41.2617C39.2891 41.2747 39.3216 41.2812 39.3346 41.2812H39.9987C40.0247 41.2812 40.0833 41.2878 40.1745 41.3008C40.2656 41.3138 40.3633 41.3301 40.4675 41.3496C40.5716 41.3626 40.6693 41.3757 40.7604 41.3887C40.8516 41.4017 40.9102 41.4082 40.9362 41.4082H41.7272H42.528C42.6387 41.3366 42.7656 41.2682 42.9089 41.2031C43.0521 41.1315 43.1986 41.0957 43.3483 41.0957C43.4199 41.0957 43.4688 41.1348 43.4948 41.2129C43.5274 41.291 43.5501 41.3561 43.5632 41.4082V41.4277V41.4766C43.4915 41.6849 43.4134 41.8965 43.3288 42.1113C43.2441 42.3262 43.179 42.541 43.1335 42.7559C43.1204 42.834 43.1107 42.9219 43.1042 43.0195C43.0977 43.1172 43.0846 43.2116 43.0651 43.3027C43.0456 43.3939 43.0098 43.472 42.9577 43.5371C42.9056 43.6087 42.8242 43.6543 42.7135 43.6738C42.6354 43.6868 42.5736 43.6576 42.528 43.5859C42.4824 43.5208 42.4434 43.4427 42.4108 43.3516C42.3783 43.2669 42.3392 43.1855 42.2936 43.1074C42.2546 43.0358 42.2025 43 42.1374 43C41.9421 43 41.75 43.0065 41.5612 43.0195C41.3789 43.0391 41.1934 43.0488 41.0046 43.0488C40.679 43.0488 40.36 43.0293 40.0475 42.9902C39.7415 42.9512 39.4258 42.9316 39.1003 42.9316H38.9733C38.9473 42.9447 38.918 42.974 38.8854 43.0195C38.8529 43.0651 38.8366 43.0977 38.8366 43.1172V43.9473V44.7578C38.8366 44.8099 38.8399 44.8945 38.8464 45.0117C38.8529 45.1289 38.8594 45.2526 38.8659 45.3828C38.8724 45.5195 38.8789 45.6432 38.8854 45.7539C38.8919 45.8711 38.8984 45.9525 38.905 45.998C38.8724 46.0697 38.8529 46.1185 38.8464 46.1445C38.8399 46.1706 38.8366 46.2096 38.8366 46.2617C38.8366 46.4896 38.8464 46.7142 38.8659 46.9355C38.8919 47.1634 38.905 47.388 38.905 47.6094V47.9512C38.8464 48.0618 38.7617 48.1335 38.651 48.166C38.5404 48.1986 38.4232 48.2148 38.2995 48.2148C38.2409 48.2148 38.1823 48.2116 38.1237 48.2051C38.0651 48.2051 38.013 48.2051 37.9675 48.2051H37.4889C37.3978 48.179 37.3229 48.1335 37.2643 48.0684C37.2122 48.0098 37.1699 47.9382 37.1374 47.8535C37.1113 47.7754 37.0918 47.6908 37.0788 47.5996C37.0723 47.515 37.069 47.4303 37.069 47.3457V47.1699Z" fill="#1D1515"/>
</svg>
