<svg width="78" height="157" viewBox="0 0 78 157" fill="none" xmlns="http://www.w3.org/2000/svg">
<rect width="77.6113" height="157" transform="matrix(-1 0 0 1 77.8342 0)" fill="#664E39"/>
<path fill-rule="evenodd" clip-rule="evenodd" d="M70.7173 7.10254H69.5324V7.10397H8.50908V7.10261H7.32417V156.993H8.50908V8.28888H69.5324V156.993H70.7173V7.10254Z" fill="#38210B"/>
<rect x="-2" y="2" width="50.2364" height="60.2273" transform="matrix(-1 0 0 1 61.8767 84.2095)" stroke="#3C230D" stroke-opacity="0.49" stroke-width="4"/>
<rect x="-2" y="2" width="50.2364" height="57.3726" transform="matrix(-1 0 0 1 61.8767 9.99463)" stroke="#3C230D" stroke-opacity="0.49" stroke-width="4"/>
<circle cx="1.77736" cy="1.77736" r="1.77736" transform="matrix(-1 0 0 1 16.7689 76.5054)" fill="#E9B42E"/>
<rect width="7.70188" height="1.18491" transform="matrix(-1 0 0 1 22.6858 77.6914)" fill="#E9B42E"/>
<circle cx="1.77736" cy="1.77736" r="1.77736" transform="matrix(-1 0 0 1 16.7689 77.0913)" fill="#E9B42E" fill-opacity="0.37"/>
<rect width="7.70188" height="1.18491" transform="matrix(-1 0 0 1 22.6858 78.2778)" fill="#E9B42E" fill-opacity="0.37"/>
<path d="M22.6858 77.4851H17.0794C16.6346 77.4851 16.2041 77.3288 15.863 77.0434L15.6694 76.8815C15.0128 76.3322 14.0428 76.3861 13.4511 77.0048V77.0048C12.9544 77.5242 12.8577 78.3081 13.2132 78.9327L13.2459 78.9901C13.7494 79.8746 14.908 80.1284 15.7351 79.5353L15.8964 79.4197C16.218 79.1891 16.6038 79.065 16.9996 79.065H22.6858" stroke="#CE9E23"/>
<rect width="0.592452" height="1.18491" transform="matrix(-1 0 0 1 22.6858 77.6914)" fill="#CE9E23"/>
<path d="M28.6518 35.9623H27.3529C25.7685 35.9623 24.4841 37.2467 24.4841 38.8311V43.7409C24.4841 44.9627 25.4746 45.9532 26.6964 45.9532H27.6241C28.3336 45.9532 28.9087 46.5283 28.9087 47.2377C28.9087 47.9472 29.4838 48.5223 30.1932 48.5223H47.9362C48.6682 48.5223 49.2616 47.9289 49.2616 47.1969C49.2616 46.4976 49.8049 45.9186 50.5027 45.8741L51.5024 45.8105C52.7624 45.7302 53.7432 44.6849 53.7432 43.4224V38.5314C53.7432 37.1125 52.593 35.9623 51.1741 35.9623H50.175C49.3079 35.9623 48.605 35.2594 48.605 34.3923C48.605 33.5252 47.9021 32.8223 47.035 32.8223H31.7918C30.9247 32.8223 30.2218 33.5252 30.2218 34.3923C30.2218 35.2594 29.5189 35.9623 28.6518 35.9623Z" fill="#C7A96F"/>
<path d="M31.6184 47.8086L41.6093 32.8223H47.3184L42.3229 48.5223H31.6184V47.8086Z" fill="#C49D51"/>
<path d="M37.3796 47.9219C37.3796 47.8763 37.4121 47.8242 37.4772 47.7656C37.5423 47.707 37.6172 47.6517 37.7018 47.5996C37.793 47.5475 37.8809 47.502 37.9655 47.4629C38.0501 47.4238 38.1152 47.401 38.1608 47.3945C38.3431 47.2708 38.5221 47.1341 38.6979 46.9844C38.8737 46.8411 39.0234 46.6784 39.1471 46.4961C39.1471 46.4766 39.1537 46.4505 39.1667 46.418C39.1862 46.3919 39.196 46.3724 39.196 46.3594C39.235 46.2812 39.2806 46.1999 39.3327 46.1152C39.3913 46.0306 39.4466 45.946 39.4987 45.8613C39.5573 45.7832 39.6094 45.7018 39.655 45.6172C39.7005 45.5391 39.7331 45.4609 39.7526 45.3828C39.8047 45.2005 39.8372 45.0443 39.8503 44.9141C39.8633 44.7839 39.8698 44.6341 39.8698 44.4648C39.8698 44.3411 39.8503 44.1947 39.8112 44.0254C39.7721 43.8561 39.7168 43.6868 39.6452 43.5176C39.5736 43.3483 39.4889 43.1921 39.3913 43.0488C39.3001 42.9056 39.2025 42.7949 39.0983 42.7168C39.0267 42.6777 38.9486 42.6419 38.8639 42.6094C38.7793 42.5768 38.7109 42.5312 38.6589 42.4727C38.6458 42.4596 38.6231 42.4271 38.5905 42.375C38.5579 42.3229 38.5417 42.2904 38.5417 42.2773C38.4701 42.1927 38.3757 42.1276 38.2585 42.082C38.1413 42.0299 38.0274 41.9974 37.9167 41.9844C37.8971 41.9844 37.8483 41.9779 37.7702 41.9648C37.6986 41.9518 37.6172 41.9388 37.526 41.9258C37.4414 41.9062 37.36 41.89 37.2819 41.877C37.2103 41.8639 37.1647 41.8542 37.1452 41.8477C37.1191 41.8477 37.0899 41.8411 37.0573 41.8281C37.0313 41.8151 37.0182 41.8021 37.0182 41.7891V41.7695C37.0182 41.6979 37.0345 41.6556 37.0671 41.6426C37.1061 41.623 37.155 41.6003 37.2135 41.5742C37.2135 41.5612 37.2266 41.5417 37.2526 41.5156C37.2852 41.4896 37.3177 41.4635 37.3503 41.4375C37.3828 41.4115 37.4121 41.3887 37.4382 41.3691C37.4707 41.3431 37.487 41.3301 37.487 41.3301C37.513 41.3105 37.5684 41.2943 37.653 41.2812C37.7441 41.2682 37.793 41.2617 37.7995 41.2617C37.806 41.2487 37.8288 41.2259 37.8678 41.1934C37.9069 41.1543 37.946 41.1152 37.985 41.0762C38.0241 41.0306 38.0599 40.9915 38.0925 40.959C38.1315 40.9199 38.1543 40.8939 38.1608 40.8809C38.1803 40.8743 38.2227 40.8581 38.2878 40.832C38.3594 40.7995 38.3984 40.7799 38.405 40.7734C38.5287 40.6953 38.6198 40.6042 38.6784 40.5C38.737 40.3958 38.8119 40.2982 38.903 40.207L38.9616 40.1875C39.0007 40.1745 39.0234 40.1615 39.03 40.1484C39.1211 40.0768 39.1829 40.002 39.2155 39.9238C39.2481 39.8457 39.3034 39.7676 39.3815 39.6895C39.655 39.3639 39.8763 39.0189 40.0456 38.6543C40.2149 38.2897 40.2995 37.8958 40.2995 37.4727C40.2995 37.3034 40.2962 37.1439 40.2897 36.9941C40.2897 36.8379 40.2767 36.6751 40.2507 36.5059C40.2507 36.4928 40.2409 36.4733 40.2214 36.4473C40.2083 36.4147 40.1953 36.3887 40.1823 36.3691L39.4401 35.666C39.375 35.5944 39.2741 35.5521 39.1374 35.5391C39.0007 35.526 38.89 35.5195 38.8053 35.5195C38.6882 35.5195 38.5905 35.5228 38.5124 35.5293C38.4343 35.5358 38.3399 35.5586 38.2292 35.5977L38.1901 35.6172C38.1706 35.6302 38.1608 35.6465 38.1608 35.666C38.1543 35.666 38.1348 35.6758 38.1022 35.6953C38.0762 35.7083 38.0566 35.7148 38.0436 35.7148H37.9167H37.8678C37.8418 35.7279 37.8158 35.7441 37.7897 35.7637C37.7702 35.7767 37.7474 35.793 37.7214 35.8125C37.7018 35.8255 37.6856 35.8385 37.6725 35.8516C37.6595 35.8581 37.6367 35.8743 37.6042 35.9004C37.5781 35.9199 37.5488 35.9427 37.5163 35.9688C37.4837 35.9883 37.4544 36.0111 37.4284 36.0371C37.4024 36.0566 37.3861 36.0697 37.3796 36.0762C37.3665 36.0892 37.334 36.125 37.2819 36.1836C37.2298 36.2357 37.1712 36.2943 37.1061 36.3594C37.0475 36.418 36.9922 36.4733 36.9401 36.5254C36.888 36.5775 36.8522 36.6068 36.8327 36.6133C36.7936 36.6458 36.7578 36.6654 36.7253 36.6719C36.6992 36.6784 36.6602 36.6816 36.6081 36.6816C36.5365 36.6816 36.4844 36.6751 36.4518 36.6621C36.4193 36.6426 36.403 36.5938 36.403 36.5156C36.403 36.418 36.4128 36.3301 36.4323 36.252C36.4518 36.1673 36.4811 36.0697 36.5202 35.959C36.5397 35.9134 36.5658 35.8516 36.5983 35.7734C36.6374 35.6888 36.6764 35.6042 36.7155 35.5195C36.7546 35.4349 36.7904 35.36 36.8229 35.2949C36.862 35.2298 36.888 35.1908 36.901 35.1777C36.9792 35.041 37.0899 34.9173 37.2331 34.8066C37.3828 34.696 37.5423 34.6016 37.7116 34.5234C37.8874 34.4453 38.0632 34.3835 38.2389 34.3379C38.4147 34.2858 38.5742 34.2533 38.7175 34.2402C38.7435 34.2402 38.8053 34.2435 38.903 34.25C39.0072 34.2565 39.1048 34.2598 39.196 34.2598C39.235 34.2598 39.2708 34.2598 39.3034 34.2598C39.3425 34.2598 39.3685 34.2533 39.3815 34.2402C39.388 34.2402 39.4141 34.237 39.4596 34.2305C39.5117 34.2174 39.5443 34.2109 39.5573 34.2109C39.5638 34.2109 39.5801 34.2142 39.6061 34.2207C39.6322 34.2207 39.6582 34.224 39.6843 34.2305C39.7168 34.2305 39.7428 34.2337 39.7624 34.2402C39.7884 34.2402 39.8014 34.2402 39.8014 34.2402C39.8145 34.2533 39.8438 34.2598 39.8893 34.2598C39.9219 34.2598 39.9544 34.2565 39.987 34.25C40.0195 34.2435 40.0391 34.2402 40.0456 34.2402C40.1693 34.2598 40.3027 34.3118 40.446 34.3965C40.5957 34.4746 40.7422 34.569 40.8854 34.6797C41.0287 34.7904 41.1589 34.9076 41.276 35.0312C41.3997 35.1484 41.5007 35.2559 41.5788 35.3535C41.6244 35.4121 41.6667 35.4902 41.7057 35.5879C41.7448 35.679 41.7774 35.7799 41.8034 35.8906C41.8359 35.9948 41.8587 36.099 41.8718 36.2031C41.8848 36.3073 41.8913 36.4017 41.8913 36.4863V36.6816C41.8783 36.7598 41.8652 36.8509 41.8522 36.9551C41.8457 37.0592 41.8359 37.1634 41.8229 37.2676C41.8099 37.3717 41.7904 37.4727 41.7643 37.5703C41.7448 37.6615 41.7188 37.7363 41.6862 37.7949C41.556 38.0423 41.4063 38.3027 41.237 38.5762C41.0677 38.8496 40.8789 39.0938 40.6706 39.3086C40.5925 39.3802 40.5013 39.4583 40.3971 39.543C40.293 39.6211 40.1856 39.7057 40.0749 39.7969C39.9642 39.8815 39.8535 39.9694 39.7428 40.0605C39.6387 40.1452 39.5443 40.2331 39.4596 40.3242C39.388 40.3958 39.3262 40.4577 39.2741 40.5098C39.222 40.5553 39.1895 40.6204 39.1764 40.7051C39.1764 40.7441 39.1862 40.7767 39.2057 40.8027C39.2318 40.8288 39.2578 40.8516 39.2839 40.8711C39.3164 40.8906 39.3457 40.9069 39.3718 40.9199C39.4043 40.9329 39.4271 40.9427 39.4401 40.9492C39.7201 41.1185 39.9544 41.2845 40.1432 41.4473C40.3385 41.61 40.4981 41.7858 40.6218 41.9746C40.7454 42.1569 40.8431 42.3652 40.9147 42.5996C40.9863 42.8275 41.0417 43.0911 41.0807 43.3906C41.0872 43.3971 41.0938 43.4167 41.1003 43.4492C41.1068 43.4883 41.1133 43.5273 41.1198 43.5664C41.1263 43.6055 41.1328 43.6413 41.1393 43.6738C41.1458 43.7129 41.1491 43.7357 41.1491 43.7422V43.791C41.1491 43.8952 41.1393 44.0091 41.1198 44.1328C41.1068 44.2565 41.0872 44.3802 41.0612 44.5039C41.0352 44.6341 41.0026 44.7611 40.9635 44.8848C40.931 45.0085 40.8952 45.1191 40.8561 45.2168C40.8301 45.2754 40.7878 45.36 40.7292 45.4707C40.6771 45.5814 40.6218 45.6921 40.5632 45.8027C40.5046 45.9199 40.4492 46.0241 40.3971 46.1152C40.3451 46.2129 40.3125 46.2747 40.2995 46.3008C40.2865 46.3138 40.2539 46.3464 40.2018 46.3984C40.1563 46.4505 40.1009 46.5091 40.0358 46.5742C39.9707 46.6393 39.9056 46.7044 39.8405 46.7695C39.7754 46.8346 39.7233 46.8867 39.6843 46.9258C39.6712 46.9323 39.6419 46.9518 39.5964 46.9844C39.5508 47.0234 39.4987 47.0625 39.4401 47.1016C39.388 47.1406 39.3392 47.1764 39.2936 47.209C39.2481 47.2415 39.2155 47.2611 39.196 47.2676C39.0788 47.3717 38.9616 47.4694 38.8444 47.5605C38.7337 47.6582 38.6165 47.7428 38.4928 47.8145C38.3757 47.8926 38.2487 47.9544 38.112 48C37.9818 48.0456 37.8353 48.0684 37.6725 48.0684H37.6237C37.5716 48.0684 37.5163 48.0586 37.4577 48.0391C37.4056 48.026 37.3796 47.987 37.3796 47.9219Z" fill="#1D1515"/>
</svg>
