<svg width="78" height="157" viewBox="0 0 78 157" fill="none" xmlns="http://www.w3.org/2000/svg">
<rect width="77.6113" height="157" transform="matrix(-1 0 0 1 77.8342 0)" fill="#664E39"/>
<path fill-rule="evenodd" clip-rule="evenodd" d="M70.7173 7.10254H69.5324V7.10397H8.50908V7.10261H7.32417V156.993H8.50908V8.28888H69.5324V156.993H70.7173V7.10254Z" fill="#38210B"/>
<rect x="-2" y="2" width="50.2364" height="60.2273" transform="matrix(-1 0 0 1 61.8767 84.2095)" stroke="#3C230D" stroke-opacity="0.49" stroke-width="4"/>
<rect x="-2" y="2" width="50.2364" height="57.3726" transform="matrix(-1 0 0 1 61.8767 9.99463)" stroke="#3C230D" stroke-opacity="0.49" stroke-width="4"/>
<circle cx="1.77736" cy="1.77736" r="1.77736" transform="matrix(-1 0 0 1 16.7689 76.5054)" fill="#E9B42E"/>
<rect width="7.70188" height="1.18491" transform="matrix(-1 0 0 1 22.6858 77.6914)" fill="#E9B42E"/>
<circle cx="1.77736" cy="1.77736" r="1.77736" transform="matrix(-1 0 0 1 16.7689 77.0913)" fill="#E9B42E" fill-opacity="0.37"/>
<rect width="7.70188" height="1.18491" transform="matrix(-1 0 0 1 22.6858 78.2778)" fill="#E9B42E" fill-opacity="0.37"/>
<path d="M22.6858 77.4851H17.0794C16.6346 77.4851 16.2041 77.3288 15.863 77.0434L15.6694 76.8815C15.0128 76.3322 14.0428 76.3861 13.4511 77.0048V77.0048C12.9544 77.5242 12.8577 78.3081 13.2132 78.9327L13.2459 78.9901C13.7494 79.8746 14.908 80.1284 15.7351 79.5353L15.8964 79.4197C16.218 79.1891 16.6038 79.065 16.9996 79.065H22.6858" stroke="#CE9E23"/>
<rect width="0.592452" height="1.18491" transform="matrix(-1 0 0 1 22.6858 77.6914)" fill="#CE9E23"/>
<path d="M28.6518 35.9623H27.3529C25.7685 35.9623 24.4841 37.2467 24.4841 38.8311V43.7409C24.4841 44.9627 25.4746 45.9532 26.6964 45.9532H27.6241C28.3336 45.9532 28.9087 46.5283 28.9087 47.2377C28.9087 47.9472 29.4838 48.5223 30.1932 48.5223H47.9362C48.6682 48.5223 49.2616 47.9289 49.2616 47.1969C49.2616 46.4976 49.8049 45.9186 50.5027 45.8741L51.5024 45.8105C52.7624 45.7302 53.7432 44.6849 53.7432 43.4224V38.5314C53.7432 37.1125 52.593 35.9623 51.1741 35.9623H50.175C49.3079 35.9623 48.605 35.2594 48.605 34.3923C48.605 33.5252 47.9021 32.8223 47.035 32.8223H31.7918C30.9247 32.8223 30.2218 33.5252 30.2218 34.3923C30.2218 35.2594 29.5189 35.9623 28.6518 35.9623Z" fill="#C7A96F"/>
<path d="M31.6184 47.8086L41.6093 32.8223H47.3184L42.3229 48.5223H31.6184V47.8086Z" fill="#C49D51"/>
<path d="M37.5885 37.5703C37.5885 37.7396 37.6113 37.9056 37.6569 38.0684C37.7025 38.2311 37.7383 38.3971 37.7643 38.5664C37.7839 38.7096 37.7936 38.8529 37.7936 38.9961C37.8001 39.1328 37.8294 39.2695 37.8815 39.4062C37.888 39.4128 37.8978 39.429 37.9108 39.4551C37.9303 39.4746 37.9466 39.4974 37.9596 39.5234C37.9792 39.5495 37.9922 39.5755 37.9987 39.6016C38.0117 39.6211 38.0182 39.6341 38.0182 39.6406C38.0247 39.6667 38.0313 39.722 38.0378 39.8066C38.0508 39.8913 38.0638 39.9401 38.0768 39.9531C38.0899 39.9596 38.1191 39.9889 38.1647 40.041C38.2168 40.0866 38.2494 40.1159 38.2624 40.1289C38.2689 40.1419 38.2754 40.168 38.2819 40.207C38.2949 40.2396 38.3079 40.2754 38.321 40.3145C38.334 40.3535 38.3438 40.3926 38.3503 40.4316C38.3633 40.4642 38.3731 40.4837 38.3796 40.4902C38.3796 40.5033 38.3893 40.526 38.4089 40.5586C38.4284 40.5911 38.4382 40.6107 38.4382 40.6172C38.6074 40.8711 38.8223 41.099 39.0827 41.3008C39.3496 41.4961 39.6458 41.5938 39.9714 41.5938C40.0625 41.5938 40.1537 41.5905 40.2448 41.584C40.3359 41.571 40.4238 41.5352 40.5085 41.4766C40.6126 41.3789 40.7233 41.2715 40.8405 41.1543C40.9577 41.0371 41.0651 40.9167 41.1628 40.793C41.2669 40.6628 41.3548 40.5293 41.4264 40.3926C41.5046 40.2493 41.5599 40.1029 41.5925 39.9531V39.8652V39.6406C41.6315 39.4648 41.6706 39.3053 41.7096 39.1621C41.7487 39.0124 41.7682 38.8431 41.7682 38.6543V38.5664C41.7682 38.5534 41.765 38.5176 41.7585 38.459C41.7585 38.3939 41.7552 38.3288 41.7487 38.2637C41.7422 38.1921 41.7357 38.127 41.7292 38.0684C41.7292 38.0033 41.7259 37.9642 41.7194 37.9512V37.5215V37.3359C41.7194 37.3294 41.7162 37.3132 41.7096 37.2871C41.7031 37.2611 41.6966 37.2318 41.6901 37.1992C41.6836 37.1667 41.6771 37.1374 41.6706 37.1113C41.6641 37.0788 41.6608 37.056 41.6608 37.043C41.6348 36.9518 41.5859 36.8737 41.5143 36.8086C41.4427 36.737 41.3874 36.6523 41.3483 36.5547C41.3483 36.5417 41.3418 36.5156 41.3288 36.4766C41.3223 36.431 41.3125 36.3854 41.2995 36.3398C41.2865 36.2878 41.2734 36.2422 41.2604 36.2031C41.2539 36.1576 41.2507 36.1315 41.2507 36.125C41.166 35.9557 41.0423 35.7832 40.8796 35.6074C40.7233 35.4251 40.5833 35.2689 40.4596 35.1387C40.4206 35.1126 40.3555 35.0931 40.2643 35.0801C40.1732 35.0605 40.1113 35.0443 40.0788 35.0312C39.9421 34.9596 39.8151 34.901 39.6979 34.8555C39.5872 34.8034 39.4473 34.7773 39.278 34.7773C39.2259 34.7773 39.1478 34.8132 39.0436 34.8848C38.946 34.9499 38.8418 35.028 38.7311 35.1191C38.627 35.2038 38.5293 35.2917 38.4382 35.3828C38.347 35.4674 38.2884 35.5293 38.2624 35.5684C38.054 35.8483 37.888 36.1641 37.7643 36.5156C37.6471 36.8672 37.5885 37.2188 37.5885 37.5703ZM33.5163 46.3301C33.5163 46.2845 33.5358 46.2389 33.5749 46.1934C33.6074 46.1543 33.6497 46.1185 33.7018 46.0859C33.7539 46.0599 33.8093 46.0371 33.8678 46.0176C33.9264 45.998 33.9753 45.9818 34.0143 45.9688C34.3659 45.8841 34.7142 45.7995 35.0593 45.7148C35.4108 45.6367 35.7656 45.5586 36.1237 45.4805C36.2995 45.4544 36.459 45.3893 36.6022 45.2852C36.7454 45.1875 36.8887 45.0931 37.0319 45.002C37.1426 44.9368 37.2663 44.888 37.403 44.8555C37.5462 44.8294 37.6667 44.7741 37.7643 44.6895C37.7774 44.6895 37.8066 44.6602 37.8522 44.6016C37.9043 44.5495 37.9369 44.5202 37.9499 44.5137C37.9564 44.5137 37.9889 44.4974 38.0475 44.4648C38.1061 44.4323 38.1745 44.3932 38.2526 44.3477C38.3372 44.3021 38.4186 44.2565 38.4968 44.2109C38.5814 44.1654 38.6465 44.1296 38.6921 44.1035C38.7832 44.0514 38.8646 43.9896 38.9362 43.918C39.0143 43.8529 39.0957 43.7943 39.1803 43.7422C39.1934 43.7227 39.2227 43.7064 39.2682 43.6934C39.3138 43.6803 39.3431 43.6738 39.3561 43.6738C39.4147 43.6283 39.4538 43.5729 39.4733 43.5078C39.4928 43.4492 39.5384 43.4004 39.61 43.3613C39.6686 43.3158 39.7468 43.2572 39.8444 43.1855C39.9486 43.1139 40.0495 43.0358 40.1471 42.9512C40.2448 42.86 40.3294 42.7689 40.401 42.6777C40.4727 42.5801 40.5085 42.4857 40.5085 42.3945C40.5085 42.3815 40.5117 42.3652 40.5182 42.3457C40.5247 42.3262 40.528 42.3099 40.528 42.2969C40.528 42.2318 40.4987 42.1992 40.4401 42.1992C40.4336 42.1992 40.4271 42.2025 40.4206 42.209C40.4141 42.209 40.4043 42.209 40.3913 42.209C40.3392 42.209 40.2513 42.2057 40.1276 42.1992C40.0104 42.1927 39.8835 42.1862 39.7468 42.1797C39.61 42.1732 39.4798 42.1667 39.3561 42.1602C39.2389 42.1536 39.1576 42.1504 39.112 42.1504C39.0859 42.1504 39.0306 42.1406 38.946 42.1211C38.8613 42.0951 38.8125 42.082 38.7995 42.082H38.4382C38.3275 42.0625 38.2135 42.0267 38.0964 41.9746C37.9857 41.9225 37.8718 41.8639 37.7546 41.7988C37.6439 41.7337 37.5365 41.6654 37.4323 41.5938C37.3346 41.5221 37.2435 41.4603 37.1589 41.4082C37.0482 41.3431 36.9668 41.2585 36.9147 41.1543C36.8626 41.0436 36.7813 40.9492 36.6706 40.8711L36.0163 39.5234V39.1621C36.0098 39.1556 35.9935 39.1393 35.9675 39.1133C35.9414 39.0807 35.9121 39.0482 35.8796 39.0156C35.8535 38.9831 35.8275 38.9538 35.8014 38.9277C35.7819 38.8952 35.7721 38.8757 35.7721 38.8691C35.7721 38.7975 35.7787 38.7422 35.7917 38.7031C35.8112 38.6641 35.8242 38.6348 35.8307 38.6152C35.8568 38.5111 35.8731 38.4427 35.8796 38.4102C35.8926 38.3711 35.8991 38.3092 35.8991 38.2246C35.8991 38.166 35.8861 38.1237 35.86 38.0977C35.8405 38.0716 35.8307 38.0326 35.8307 37.9805V37.9512C35.8633 37.6191 35.9024 37.2904 35.9479 36.9648C36 36.6393 36.0781 36.3171 36.1823 35.998C36.2344 35.8548 36.3158 35.7344 36.4264 35.6367C36.5436 35.5391 36.6478 35.4382 36.7389 35.334C36.7454 35.3275 36.7585 35.3112 36.778 35.2852C36.804 35.2526 36.8301 35.2201 36.8561 35.1875C36.8822 35.1484 36.905 35.1159 36.9245 35.0898C36.9505 35.0573 36.9701 35.0378 36.9831 35.0312C36.9961 34.9987 37.0287 34.9629 37.0807 34.9238C37.1328 34.8848 37.1589 34.8587 37.1589 34.8457C37.1654 34.8457 37.1849 34.8424 37.2175 34.8359C37.25 34.8294 37.2826 34.8229 37.3151 34.8164C37.3477 34.8099 37.377 34.8034 37.403 34.7969C37.4356 34.7904 37.4551 34.7839 37.4616 34.7773C37.5462 34.7513 37.6276 34.7122 37.7057 34.6602C37.7904 34.6081 37.8718 34.556 37.9499 34.5039C38.028 34.4518 38.1061 34.403 38.1843 34.3574C38.2689 34.3053 38.3535 34.2663 38.4382 34.2402C38.7376 34.1556 39.0404 34.084 39.3464 34.0254C39.6589 33.9603 39.9746 33.9277 40.2936 33.9277C40.5345 33.9277 40.7591 33.9701 40.9675 34.0547C41.1758 34.1393 41.3841 34.2402 41.5925 34.3574C41.612 34.3639 41.6478 34.3835 41.6999 34.416C41.7585 34.4421 41.8171 34.4746 41.8757 34.5137C41.9408 34.5462 41.9994 34.5788 42.0514 34.6113C42.1035 34.6374 42.1361 34.6569 42.1491 34.6699C42.1686 34.6829 42.2044 34.7155 42.2565 34.7676C42.3086 34.8197 42.3672 34.8783 42.4323 34.9434C42.4974 35.002 42.5593 35.0638 42.6178 35.1289C42.6764 35.194 42.722 35.2428 42.7546 35.2754C42.7741 35.2949 42.8034 35.3307 42.8425 35.3828C42.888 35.4349 42.9303 35.4902 42.9694 35.5488C43.015 35.6009 43.0573 35.653 43.0964 35.7051C43.1354 35.7572 43.1647 35.793 43.1843 35.8125C43.1973 35.832 43.2103 35.8646 43.2233 35.9102C43.2428 35.9557 43.2526 35.985 43.2526 35.998C43.4024 36.4017 43.5293 36.8151 43.6335 37.2383C43.7376 37.6549 43.7897 38.0781 43.7897 38.5078C43.7897 38.8333 43.7637 39.1621 43.7116 39.4941C43.6595 39.8197 43.5846 40.1452 43.487 40.4707C43.3893 40.7897 43.2689 41.1022 43.1257 41.4082C42.9824 41.7077 42.8164 41.9909 42.6276 42.2578C42.6146 42.2773 42.5885 42.3132 42.5495 42.3652C42.5104 42.4173 42.4649 42.4759 42.4128 42.541C42.3672 42.6061 42.3216 42.6647 42.276 42.7168C42.237 42.7689 42.2109 42.8047 42.1979 42.8242C42.1914 42.8372 42.1849 42.8535 42.1784 42.873C42.1654 42.9121 42.1556 42.9316 42.1491 42.9316C42.1361 42.9577 42.1133 42.9902 42.0807 43.0293C42.0482 43.0749 42.0287 43.1042 42.0221 43.1172L41.905 43.1758C41.6966 43.3451 41.4981 43.5273 41.3093 43.7227C41.1204 43.918 40.9186 44.097 40.7038 44.2598C40.5801 44.3639 40.4531 44.4486 40.3229 44.5137C40.1992 44.5788 40.082 44.6602 39.9714 44.7578C39.9583 44.7643 39.9323 44.7806 39.8932 44.8066C39.8607 44.8392 39.8249 44.8717 39.7858 44.9043C39.7468 44.9434 39.7077 44.9759 39.6686 45.002C39.6361 45.028 39.6165 45.0443 39.61 45.0508C39.5905 45.0638 39.5449 45.0768 39.4733 45.0898C39.4082 45.1094 39.3691 45.1191 39.3561 45.1191C39.3431 45.1191 39.3203 45.1322 39.2878 45.1582C39.2552 45.1842 39.2227 45.2103 39.1901 45.2363C39.1576 45.2689 39.125 45.2949 39.0925 45.3145C39.0664 45.3405 39.0534 45.3568 39.0534 45.3633C38.8971 45.487 38.7376 45.5684 38.5749 45.6074C38.4186 45.653 38.2526 45.7148 38.0768 45.793C37.8815 45.8711 37.6895 45.9427 37.5007 46.0078C37.3184 46.0794 37.1231 46.1478 36.9147 46.2129C36.9017 46.2194 36.8854 46.2259 36.8659 46.2324C36.8333 46.2454 36.8073 46.2617 36.7878 46.2812C36.6576 46.3594 36.5143 46.4245 36.3581 46.4766C36.2083 46.5352 36.0488 46.5807 35.8796 46.6133C35.7168 46.6458 35.5508 46.6686 35.3815 46.6816C35.2188 46.7012 35.0625 46.7109 34.9128 46.7109H34.7956C34.7435 46.7044 34.6751 46.6947 34.5905 46.6816C34.5059 46.6751 34.4245 46.6686 34.3464 46.6621C34.2617 46.6556 34.1869 46.6491 34.1218 46.6426C34.0566 46.6426 34.0208 46.6426 34.0143 46.6426C33.9818 46.6361 33.9362 46.6263 33.8776 46.6133C33.819 46.6003 33.7637 46.5807 33.7116 46.5547C33.6595 46.5352 33.6139 46.5059 33.5749 46.4668C33.5358 46.4277 33.5163 46.3822 33.5163 46.3301Z" fill="#1D1515"/>
</svg>
