<svg width="79" height="157" viewBox="0 0 79 157" fill="none" xmlns="http://www.w3.org/2000/svg">
<rect width="77.6113" height="157" transform="matrix(-1 0 0 1 78.2229 0)" fill="#664E39"/>
<path fill-rule="evenodd" clip-rule="evenodd" d="M71.106 7.10254H69.9211V7.10397H8.89775V7.10261H7.71284V156.993H8.89775V8.28888H69.9211V156.993H71.106V7.10254Z" fill="#38210B"/>
<rect x="-2" y="2" width="50.2364" height="60.2273" transform="matrix(-1 0 0 1 62.2654 84.2095)" stroke="#3C230D" stroke-opacity="0.49" stroke-width="4"/>
<rect x="-2" y="2" width="50.2364" height="57.3726" transform="matrix(-1 0 0 1 62.2654 9.99463)" stroke="#3C230D" stroke-opacity="0.49" stroke-width="4"/>
<circle cx="1.77736" cy="1.77736" r="1.77736" transform="matrix(-1 0 0 1 17.1576 76.5054)" fill="#E9B42E"/>
<rect width="7.70188" height="1.18491" transform="matrix(-1 0 0 1 23.0745 77.6914)" fill="#E9B42E"/>
<circle cx="1.77736" cy="1.77736" r="1.77736" transform="matrix(-1 0 0 1 17.1576 77.0913)" fill="#E9B42E" fill-opacity="0.37"/>
<rect width="7.70188" height="1.18491" transform="matrix(-1 0 0 1 23.0745 78.2778)" fill="#E9B42E" fill-opacity="0.37"/>
<path d="M23.0745 77.4851H17.468C17.0233 77.4851 16.5928 77.3288 16.2517 77.0434L16.0581 76.8815C15.4015 76.3322 14.4314 76.3861 13.8398 77.0048V77.0048C13.3431 77.5242 13.2464 78.3081 13.6019 78.9327L13.6346 78.9901C14.1381 79.8746 15.2967 80.1284 16.1238 79.5353L16.285 79.4197C16.6067 79.1891 16.9925 79.065 17.3883 79.065H23.0745" stroke="#CE9E23"/>
<rect width="0.592452" height="1.18491" transform="matrix(-1 0 0 1 23.0745 77.6914)" fill="#CE9E23"/>
<path d="M29.0404 35.9623H27.7416C26.1572 35.9623 24.8728 37.2467 24.8728 38.8311V43.7409C24.8728 44.9627 25.8633 45.9532 27.0851 45.9532H28.0128C28.7222 45.9532 29.2973 46.5283 29.2973 47.2377C29.2973 47.9472 29.8725 48.5223 30.5819 48.5223H48.3248C49.0568 48.5223 49.6502 47.9289 49.6502 47.1969C49.6502 46.4976 50.1935 45.9186 50.8914 45.8741L51.8911 45.8105C53.151 45.7302 54.1319 44.6849 54.1319 43.4224V38.5314C54.1319 37.1125 52.9817 35.9623 51.5628 35.9623H50.5637C49.6966 35.9623 48.9937 35.2594 48.9937 34.3923C48.9937 33.5252 48.2908 32.8223 47.4237 32.8223H32.1804C31.3133 32.8223 30.6104 33.5252 30.6104 34.3923C30.6104 35.2594 29.9075 35.9623 29.0404 35.9623Z" fill="#C7A96F"/>
<path d="M32.0071 47.8086L41.998 32.8223H47.7071L42.7116 48.5223H32.0071V47.8086Z" fill="#C49D51"/>
<path d="M37.0265 47.0508C37.0265 46.9596 37.0851 46.875 37.2023 46.7969C37.3195 46.7188 37.4562 46.6471 37.6125 46.582C37.7687 46.5169 37.9185 46.4551 38.0617 46.3965C38.2114 46.3444 38.3156 46.2988 38.3742 46.2598C38.5695 46.1491 38.7583 46.0156 38.9406 45.8594C39.1294 45.7096 39.2889 45.5208 39.4191 45.293C39.4191 45.2865 39.4321 45.2507 39.4582 45.1855C39.4907 45.1204 39.5103 45.0814 39.5168 45.0684C39.5233 45.0553 39.5396 45.0293 39.5656 44.9902C39.5982 44.9512 39.634 44.9121 39.673 44.873C39.7121 44.834 39.7479 44.7982 39.7804 44.7656C39.813 44.7266 39.8358 44.707 39.8488 44.707C40.0441 44.3815 40.1939 44.0332 40.298 43.6621C40.4022 43.2845 40.4543 42.9102 40.4543 42.5391C40.4543 42.3698 40.4185 42.207 40.3468 42.0508C40.2817 41.8945 40.2134 41.7415 40.1418 41.5918C40.0311 41.3184 39.8944 41.0482 39.7316 40.7812C39.5754 40.5078 39.3833 40.2799 39.1554 40.0977C39.1034 40.0716 39.0448 40.0488 38.9797 40.0293C38.9211 40.0098 38.8657 39.9935 38.8136 39.9805C38.5597 39.9089 38.2993 39.8047 38.0324 39.668C37.772 39.5312 37.5343 39.401 37.3195 39.2773C37.2609 39.1862 37.2251 39.1146 37.2121 39.0625C37.2056 39.0104 37.2023 38.9453 37.2023 38.8672C37.2023 38.8281 37.2153 38.7826 37.2414 38.7305C37.2674 38.6719 37.3 38.6133 37.339 38.5547C37.3781 38.4961 37.4172 38.4408 37.4562 38.3887C37.5018 38.3366 37.5441 38.2975 37.5832 38.2715C37.5897 38.2715 37.6092 38.2617 37.6418 38.2422C37.6808 38.2227 37.7199 38.2031 37.759 38.1836C37.798 38.1576 37.8338 38.138 37.8664 38.125C37.9054 38.1055 37.925 38.0957 37.925 38.0957C37.951 38.0762 37.9868 38.0534 38.0324 38.0273C38.0845 37.9948 38.1105 37.972 38.1105 37.959C38.1235 37.946 38.1431 37.9199 38.1691 37.8809C38.2017 37.8418 38.2342 37.7995 38.2668 37.7539C38.3058 37.7018 38.3384 37.6562 38.3644 37.6172C38.397 37.5716 38.4198 37.5391 38.4328 37.5195C38.4393 37.513 38.4653 37.5 38.5109 37.4805C38.563 37.4609 38.6151 37.4382 38.6672 37.4121C38.7192 37.3861 38.7681 37.3633 38.8136 37.3438C38.8657 37.3242 38.8983 37.3112 38.9113 37.3047C38.9243 37.2982 38.9471 37.2819 38.9797 37.2559C39.0187 37.2233 39.0578 37.1875 39.0968 37.1484C39.1424 37.1094 39.1815 37.0768 39.214 37.0508C39.2531 37.0182 39.2791 36.9987 39.2922 36.9922C39.3052 36.9922 39.3247 36.9824 39.3508 36.9629C39.3833 36.9368 39.4061 36.9238 39.4191 36.9238C39.4321 36.9173 39.4614 36.888 39.507 36.8359C39.5591 36.7839 39.5916 36.748 39.6047 36.7285C39.6112 36.696 39.6242 36.6667 39.6437 36.6406C39.6633 36.5951 39.6893 36.5658 39.7218 36.5527C39.7284 36.5527 39.7707 36.5299 39.8488 36.4844C39.9269 36.4323 39.9855 36.3932 40.0246 36.3672C40.1027 36.3216 40.1711 36.2793 40.2297 36.2402C40.2948 36.1947 40.3534 36.1523 40.4054 36.1133C40.4575 36.0677 40.5096 36.0189 40.5617 35.9668C40.6203 35.9147 40.6821 35.8529 40.7472 35.7812C40.7603 35.7682 40.7928 35.7617 40.8449 35.7617C40.897 35.7617 40.9328 35.7617 40.9523 35.7617C41.1021 35.7617 41.2616 35.7812 41.4308 35.8203C41.6066 35.8594 41.7694 35.9049 41.9191 35.957C41.9321 35.957 41.9712 35.9766 42.0363 36.0156C42.1014 36.0547 42.1502 36.0742 42.1828 36.0742C42.2088 36.0807 42.2642 36.0938 42.3488 36.1133C42.4399 36.1328 42.5343 36.1523 42.632 36.1719C42.7297 36.1914 42.8241 36.2109 42.9152 36.2305C43.0064 36.2435 43.0682 36.2533 43.1008 36.2598H43.423H43.7551C43.8267 36.2142 43.8885 36.1426 43.9406 36.0449C43.9992 35.9473 44.0578 35.8496 44.1164 35.752C44.175 35.6543 44.2433 35.5697 44.3215 35.498C44.3996 35.4264 44.5005 35.3906 44.6242 35.3906C44.6828 35.3906 44.7153 35.4134 44.7218 35.459C44.7349 35.5046 44.7414 35.5566 44.7414 35.6152C44.7414 35.6803 44.7284 35.7617 44.7023 35.8594C44.6828 35.957 44.6535 36.0579 44.6144 36.1621C44.5819 36.2663 44.5428 36.3639 44.4972 36.4551C44.4517 36.5462 44.4061 36.6211 44.3605 36.6797C44.354 36.6927 44.3377 36.7122 44.3117 36.7383C44.2857 36.7643 44.2564 36.7969 44.2238 36.8359C44.1978 36.8685 44.1717 36.901 44.1457 36.9336C44.1196 36.9596 44.1034 36.9792 44.0968 36.9922C44.0968 36.9987 44.0936 37.015 44.0871 37.041C44.0871 37.0671 44.0838 37.0964 44.0773 37.1289C44.0773 37.1615 44.0741 37.194 44.0676 37.2266C44.0676 37.2591 44.0676 37.2852 44.0676 37.3047C44.0545 37.3047 44.0317 37.3177 43.9992 37.3438C43.9666 37.3698 43.9439 37.3893 43.9308 37.4023C43.8722 37.4935 43.8202 37.5879 43.7746 37.6855C43.729 37.7767 43.6769 37.8613 43.6183 37.9395C43.5663 38.0176 43.5011 38.0827 43.423 38.1348C43.3449 38.1803 43.2472 38.2031 43.1301 38.2031C42.9933 38.2031 42.8631 38.1901 42.7394 38.1641C42.6157 38.138 42.4953 38.1087 42.3781 38.0762C42.2674 38.0371 42.1535 37.998 42.0363 37.959C41.9191 37.9199 41.7954 37.8841 41.6652 37.8516C41.6457 37.8451 41.6099 37.8353 41.5578 37.8223C41.5122 37.8027 41.4634 37.7865 41.4113 37.7734C41.3592 37.7539 41.3104 37.7376 41.2648 37.7246C41.2258 37.7116 41.203 37.7018 41.1965 37.6953C41.1769 37.6953 41.1248 37.6921 41.0402 37.6855C40.9556 37.6725 40.8644 37.6628 40.7668 37.6562C40.6691 37.6432 40.578 37.6335 40.4933 37.627C40.4087 37.6139 40.3566 37.6042 40.3371 37.5977C40.3241 37.5977 40.298 37.5944 40.259 37.5879C40.2199 37.5749 40.1808 37.5618 40.1418 37.5488C40.1027 37.5293 40.0636 37.5163 40.0246 37.5098C39.992 37.4967 39.9725 37.4902 39.966 37.4902C39.953 37.4902 39.9334 37.4967 39.9074 37.5098C39.8814 37.5163 39.8618 37.5195 39.8488 37.5195C39.7902 37.5716 39.7186 37.6367 39.634 37.7148C39.5558 37.7865 39.5168 37.832 39.5168 37.8516V38.0469C39.5689 38.0924 39.6177 38.1315 39.6633 38.1641C39.7023 38.1966 39.7414 38.2292 39.7804 38.2617C39.826 38.2878 39.8651 38.3073 39.8976 38.3203C39.9107 38.3398 39.9432 38.3659 39.9953 38.3984C40.0474 38.4245 40.0734 38.444 40.0734 38.457C40.0799 38.457 40.0995 38.4733 40.132 38.5059C40.1646 38.5319 40.1971 38.5645 40.2297 38.6035C40.2687 38.6361 40.3013 38.6686 40.3273 38.7012C40.3599 38.7272 40.3794 38.7435 40.3859 38.75C40.4705 38.8346 40.5617 38.8932 40.6593 38.9258C40.7635 38.9583 40.8612 39.0267 40.9523 39.1309C41.3234 39.5996 41.6066 40.1432 41.8019 40.7617C41.9972 41.3737 42.0949 41.9824 42.0949 42.5879C42.0949 42.9525 42.02 43.3171 41.8703 43.6816C41.7271 44.0397 41.5773 44.3815 41.4211 44.707C41.3885 44.7786 41.3527 44.8405 41.3136 44.8926C41.2746 44.9382 41.2388 44.987 41.2062 45.0391C41.1737 45.0911 41.1411 45.1465 41.1086 45.2051C41.0825 45.2702 41.063 45.3483 41.05 45.4395C40.8416 45.6673 40.6203 45.8789 40.3859 46.0742C40.1515 46.2695 39.9302 46.4811 39.7218 46.709C39.6047 46.748 39.5005 46.7904 39.4093 46.8359C39.3182 46.888 39.2173 46.9499 39.1066 47.0215C38.8983 47.1452 38.6802 47.2233 38.4523 47.2559C38.231 47.2949 37.9966 47.3145 37.7492 47.3145H37.6027C37.5441 47.3145 37.479 47.3112 37.4074 47.3047C37.3423 47.3047 37.2804 47.2949 37.2218 47.2754C37.1633 47.2559 37.1144 47.2266 37.0754 47.1875C37.0428 47.1549 37.0265 47.1094 37.0265 47.0508Z" fill="#1D1515"/>
</svg>
