<svg width="79" height="157" viewBox="0 0 79 157" fill="none" xmlns="http://www.w3.org/2000/svg">
<rect width="77.6113" height="157" transform="matrix(-1 0 0 1 78.2229 0)" fill="#664E39"/>
<path fill-rule="evenodd" clip-rule="evenodd" d="M71.106 7.10254H69.9211V7.10397H8.89775V7.10261H7.71284V156.993H8.89775V8.28888H69.9211V156.993H71.106V7.10254Z" fill="#38210B"/>
<rect x="-2" y="2" width="50.2364" height="60.2273" transform="matrix(-1 0 0 1 62.2654 84.2095)" stroke="#3C230D" stroke-opacity="0.49" stroke-width="4"/>
<rect x="-2" y="2" width="50.2364" height="57.3726" transform="matrix(-1 0 0 1 62.2654 9.99463)" stroke="#3C230D" stroke-opacity="0.49" stroke-width="4"/>
<circle cx="1.77736" cy="1.77736" r="1.77736" transform="matrix(-1 0 0 1 17.1576 76.5054)" fill="#E9B42E"/>
<rect width="7.70188" height="1.18491" transform="matrix(-1 0 0 1 23.0745 77.6914)" fill="#E9B42E"/>
<circle cx="1.77736" cy="1.77736" r="1.77736" transform="matrix(-1 0 0 1 17.1576 77.0913)" fill="#E9B42E" fill-opacity="0.37"/>
<rect width="7.70188" height="1.18491" transform="matrix(-1 0 0 1 23.0745 78.2778)" fill="#E9B42E" fill-opacity="0.37"/>
<path d="M23.0745 77.4851H17.468C17.0233 77.4851 16.5928 77.3288 16.2517 77.0434L16.0581 76.8815C15.4015 76.3322 14.4314 76.3861 13.8398 77.0048V77.0048C13.3431 77.5242 13.2464 78.3081 13.6019 78.9327L13.6346 78.9901C14.1381 79.8746 15.2967 80.1284 16.1238 79.5353L16.285 79.4197C16.6067 79.1891 16.9925 79.065 17.3883 79.065H23.0745" stroke="#CE9E23"/>
<rect width="0.592452" height="1.18491" transform="matrix(-1 0 0 1 23.0745 77.6914)" fill="#CE9E23"/>
<path d="M29.0404 35.9623H27.7416C26.1572 35.9623 24.8728 37.2467 24.8728 38.8311V43.7409C24.8728 44.9627 25.8633 45.9532 27.0851 45.9532H28.0128C28.7222 45.9532 29.2973 46.5283 29.2973 47.2377C29.2973 47.9472 29.8725 48.5223 30.5819 48.5223H48.3248C49.0568 48.5223 49.6502 47.9289 49.6502 47.1969C49.6502 46.4976 50.1935 45.9186 50.8914 45.8741L51.8911 45.8105C53.151 45.7302 54.1319 44.6849 54.1319 43.4224V38.5314C54.1319 37.1125 52.9817 35.9623 51.5628 35.9623H50.5637C49.6966 35.9623 48.9937 35.2594 48.9937 34.3923C48.9937 33.5252 48.2908 32.8223 47.4237 32.8223H32.1804C31.3133 32.8223 30.6104 33.5252 30.6104 34.3923C30.6104 35.2594 29.9075 35.9623 29.0404 35.9623Z" fill="#C7A96F"/>
<path d="M32.0071 47.8086L41.998 32.8223H47.7071L42.7116 48.5223H32.0071V47.8086Z" fill="#C49D51"/>
<path d="M35.5226 45.0293C35.4901 44.9967 35.4705 44.9674 35.464 44.9414C35.4575 44.9154 35.4543 44.8796 35.4543 44.834C35.4543 44.7298 35.4771 44.6452 35.5226 44.5801C35.5747 44.515 35.6366 44.4596 35.7082 44.4141C35.7798 44.362 35.8579 44.3197 35.9426 44.2871C36.0272 44.2546 36.1053 44.2188 36.1769 44.1797C36.203 44.1732 36.2453 44.1569 36.3039 44.1309C36.369 44.0983 36.4341 44.0658 36.4992 44.0332C36.5643 44.0007 36.6261 43.9714 36.6847 43.9453C36.7433 43.9128 36.7824 43.8932 36.8019 43.8867C36.8084 43.8802 36.8149 43.8704 36.8215 43.8574C36.8345 43.8314 36.8442 43.8184 36.8508 43.8184C36.8638 43.8053 36.8866 43.7923 36.9191 43.7793C36.9517 43.7598 36.9712 43.75 36.9777 43.75C36.9842 43.75 37.007 43.75 37.0461 43.75C37.0851 43.7435 37.1242 43.7402 37.1633 43.7402C37.2023 43.7337 37.2381 43.7272 37.2707 43.7207C37.3097 43.7142 37.3325 43.7077 37.339 43.7012C37.3586 43.6947 37.3944 43.6751 37.4465 43.6426C37.4985 43.6035 37.5539 43.5645 37.6125 43.5254C37.6776 43.4798 37.7362 43.4408 37.7883 43.4082C37.8468 43.3691 37.8827 43.3431 37.8957 43.3301C37.9803 43.278 38.0715 43.2487 38.1691 43.2422C38.2668 43.2292 38.3579 43.1966 38.4426 43.1445C38.6834 42.9818 38.9243 42.8125 39.1652 42.6367C39.4061 42.4609 39.647 42.2266 39.8879 41.9336C39.9269 41.9076 39.9823 41.8587 40.0539 41.7871C40.132 41.709 40.2134 41.6276 40.298 41.543C40.3827 41.4583 40.4575 41.377 40.5226 41.2988C40.5942 41.2207 40.6431 41.1654 40.6691 41.1328C40.7472 41.0547 40.8091 40.9831 40.8547 40.918C40.9002 40.8464 40.936 40.7747 40.9621 40.7031C40.9946 40.625 41.0207 40.5436 41.0402 40.459C41.0597 40.3743 41.0858 40.2799 41.1183 40.1758C41.1444 40.0651 41.1802 39.9544 41.2258 39.8438C41.2713 39.7331 41.2941 39.6191 41.2941 39.502C41.2941 39.1829 41.2323 38.877 41.1086 38.584C40.9914 38.2845 40.7863 38.0436 40.4933 37.8613C40.4803 37.8548 40.4608 37.8418 40.4347 37.8223C40.4087 37.8027 40.3892 37.793 40.3761 37.793L39.175 37.6172C39.1554 37.6237 39.1229 37.6302 39.0773 37.6367C39.0383 37.6432 38.9959 37.6497 38.9504 37.6562C38.9113 37.6628 38.8722 37.6693 38.8332 37.6758C38.7941 37.6823 38.7681 37.6855 38.7551 37.6855C38.7355 37.6855 38.703 37.6758 38.6574 37.6562C38.6118 37.6302 38.5825 37.6172 38.5695 37.6172C38.5565 37.6172 38.5272 37.6335 38.4816 37.666C38.436 37.6921 38.4002 37.7148 38.3742 37.7344C38.3677 37.7409 38.3514 37.7572 38.3254 37.7832C38.3058 37.8092 38.2798 37.8353 38.2472 37.8613C38.2212 37.8874 38.1952 37.9134 38.1691 37.9395C38.1496 37.959 38.1366 37.972 38.1301 37.9785C38.117 37.9785 38.0877 37.9883 38.0422 38.0078C37.9966 38.0208 37.964 38.0339 37.9445 38.0469C37.8664 38.0729 37.7687 38.1445 37.6515 38.2617C37.5343 38.3724 37.4172 38.5026 37.3 38.6523C37.1828 38.7956 37.0786 38.9421 36.9875 39.0918C36.8963 39.235 36.8345 39.349 36.8019 39.4336C36.7694 39.4987 36.7368 39.5768 36.7043 39.668C36.6782 39.7591 36.6457 39.847 36.6066 39.9316C36.5676 40.0163 36.5187 40.0911 36.4601 40.1562C36.408 40.2148 36.3397 40.2441 36.2551 40.2441C36.203 40.2441 36.1607 40.2181 36.1281 40.166C36.0955 40.1139 36.0695 40.0521 36.05 39.9805C36.0304 39.9023 36.0142 39.8275 36.0011 39.7559C35.9946 39.6777 35.9914 39.6159 35.9914 39.5703V39.3848C35.9914 39.3783 36.0011 39.3522 36.0207 39.3066C36.0467 39.2546 36.0597 39.222 36.0597 39.209C36.0597 39.196 36.0597 39.1699 36.0597 39.1309C36.0663 39.0853 36.0728 39.0397 36.0793 38.9941C36.0858 38.9421 36.0923 38.8965 36.0988 38.8574C36.1118 38.8184 36.1216 38.7923 36.1281 38.7793C36.1346 38.7663 36.1476 38.7435 36.1672 38.7109C36.1932 38.6784 36.2192 38.6458 36.2453 38.6133C36.2713 38.5807 36.2974 38.5514 36.3234 38.5254C36.3495 38.4928 36.3657 38.4733 36.3722 38.4668C36.3788 38.4538 36.3853 38.431 36.3918 38.3984C36.4048 38.3594 36.4178 38.3203 36.4308 38.2812C36.4439 38.2422 36.4536 38.2064 36.4601 38.1738C36.4732 38.1413 36.4829 38.1185 36.4894 38.1055C36.4894 38.0924 36.5024 38.0632 36.5285 38.0176C36.561 37.972 36.5871 37.9362 36.6066 37.9102C36.6196 37.9036 36.6489 37.8678 36.6945 37.8027C36.7466 37.7311 36.7824 37.6921 36.8019 37.6855C36.8019 37.679 36.8117 37.6562 36.8312 37.6172C36.8508 37.5781 36.8735 37.5358 36.8996 37.4902C36.9256 37.4447 36.9517 37.4023 36.9777 37.3633C37.0038 37.3177 37.0265 37.2819 37.0461 37.2559C37.0982 37.1582 37.1502 37.0964 37.2023 37.0703C37.2544 37.0443 37.3228 37.002 37.4074 36.9434C37.4139 36.9303 37.4367 36.9076 37.4758 36.875C37.5148 36.8359 37.5571 36.7969 37.6027 36.7578C37.6548 36.7122 37.7004 36.6732 37.7394 36.6406C37.785 36.6081 37.8176 36.5885 37.8371 36.582C37.8371 36.5755 37.8501 36.569 37.8761 36.5625C37.9087 36.5495 37.9413 36.5397 37.9738 36.5332C38.0064 36.5267 38.0389 36.5234 38.0715 36.5234C38.104 36.5169 38.1235 36.5137 38.1301 36.5137C38.3319 36.4551 38.5142 36.403 38.6769 36.3574C38.8397 36.3118 38.9959 36.2728 39.1457 36.2402C39.3019 36.2077 39.4614 36.1784 39.6242 36.1523C39.7935 36.1263 39.9855 36.1068 40.2004 36.0938C40.272 36.1003 40.3241 36.1068 40.3566 36.1133C40.3957 36.1198 40.4217 36.1263 40.4347 36.1328C40.4543 36.1328 40.4705 36.1361 40.4836 36.1426C40.5031 36.1426 40.5291 36.1426 40.5617 36.1426C40.6138 36.1426 40.6691 36.1556 40.7277 36.1816C40.7863 36.2012 40.8449 36.2109 40.9035 36.2109H40.9816C41.0077 36.2109 41.0402 36.2207 41.0793 36.2402C41.1248 36.2533 41.1541 36.263 41.1672 36.2695C41.1802 36.2826 41.2127 36.3118 41.2648 36.3574C41.3234 36.3965 41.3853 36.4421 41.4504 36.4941C41.5155 36.5397 41.5741 36.5853 41.6261 36.6309C41.6782 36.6699 41.7108 36.6927 41.7238 36.6992L41.7824 36.7383C41.8019 36.7513 41.8215 36.7611 41.841 36.7676C41.8605 36.7806 41.8898 36.8066 41.9289 36.8457C41.9679 36.8783 42.007 36.9141 42.0461 36.9531C42.0851 36.9922 42.1177 37.0312 42.1437 37.0703C42.1763 37.1029 42.1958 37.1224 42.2023 37.1289C42.2349 37.168 42.2837 37.2363 42.3488 37.334C42.4139 37.4251 42.4823 37.526 42.5539 37.6367C42.6255 37.7474 42.6906 37.8516 42.7492 37.9492C42.8078 38.0469 42.8468 38.1152 42.8664 38.1543C42.8794 38.1738 42.8924 38.2129 42.9054 38.2715C42.925 38.3236 42.9413 38.3789 42.9543 38.4375C42.9673 38.4961 42.9771 38.5547 42.9836 38.6133C42.9966 38.6654 43.0031 38.7012 43.0031 38.7207C43.0031 38.7467 42.9998 38.7988 42.9933 38.877C42.9868 38.9486 42.9803 39.0299 42.9738 39.1211C42.9673 39.2122 42.9608 39.3001 42.9543 39.3848C42.9478 39.4694 42.9413 39.5312 42.9347 39.5703C42.9282 39.6484 42.9087 39.7233 42.8761 39.7949C42.8501 39.86 42.8208 39.9251 42.7883 39.9902C42.7557 40.0553 42.7232 40.1237 42.6906 40.1953C42.6646 40.2669 42.6483 40.3418 42.6418 40.4199C42.4465 40.6934 42.2218 40.9668 41.9679 41.2402C41.7205 41.5072 41.4536 41.7383 41.1672 41.9336C41.1216 41.9661 41.0142 42.0312 40.8449 42.1289C40.6821 42.2201 40.5096 42.321 40.3273 42.4316C40.1515 42.5358 39.992 42.64 39.8488 42.7441C39.7056 42.8418 39.634 42.9102 39.634 42.9492V42.959C39.634 42.9655 39.6405 42.9688 39.6535 42.9688C39.6535 42.9753 39.6698 42.9948 39.7023 43.0273C39.7349 43.0599 39.7642 43.0762 39.7902 43.0762C39.9725 43.0697 40.1288 43.0794 40.259 43.1055C40.3957 43.1315 40.5487 43.1445 40.7179 43.1445C40.77 43.1445 40.8123 43.1413 40.8449 43.1348C40.884 43.1283 40.9295 43.1087 40.9816 43.0762H42.6906C42.8338 43.0762 42.9608 43.0371 43.0715 42.959C43.1886 42.8743 43.2928 42.7832 43.384 42.6855C43.4751 42.5879 43.563 42.5 43.6476 42.4219C43.7323 42.3372 43.8234 42.2949 43.9211 42.2949C43.9536 42.2949 43.9829 42.3112 44.009 42.3438C44.0415 42.3698 44.0708 42.4023 44.0968 42.4414C44.1229 42.4805 44.1424 42.5195 44.1554 42.5586C44.1685 42.5977 44.1717 42.6302 44.1652 42.6562C44.1392 42.8255 44.0741 42.985 43.9699 43.1348C43.8722 43.278 43.7909 43.4245 43.7258 43.5742C43.7192 43.5872 43.6997 43.6361 43.6672 43.7207C43.6411 43.7988 43.6086 43.89 43.5695 43.9941C43.537 44.0983 43.5011 44.2025 43.4621 44.3066C43.423 44.4108 43.3905 44.4954 43.3644 44.5605C43.3058 44.7298 43.1984 44.8503 43.0422 44.9219C42.8924 44.9935 42.7297 45.0293 42.5539 45.0293C42.4302 45.0293 42.3163 45.0195 42.2121 45C42.1144 44.987 41.994 44.9805 41.8508 44.9805C41.0825 44.9805 40.3208 44.987 39.5656 45C38.8169 45.0195 38.0584 45.0293 37.2902 45.0293H36.3722C36.3592 45.0488 36.3267 45.0651 36.2746 45.0781C36.2225 45.0911 36.1899 45.0977 36.1769 45.0977H36.1281C36.0174 45.0977 35.9328 45.0846 35.8742 45.0586C35.8156 45.0391 35.7375 45.0293 35.6398 45.0293H35.5226Z" fill="#1D1515"/>
</svg>
