<svg width="79" height="157" viewBox="0 0 79 157" fill="none" xmlns="http://www.w3.org/2000/svg">
<rect width="77.6113" height="157" transform="matrix(-1 0 0 1 78.2229 0)" fill="#664E39"/>
<path fill-rule="evenodd" clip-rule="evenodd" d="M71.106 7.10254H69.9211V7.10397H8.89775V7.10261H7.71284V156.993H8.89775V8.28888H69.9211V156.993H71.106V7.10254Z" fill="#38210B"/>
<rect x="-2" y="2" width="50.2364" height="60.2273" transform="matrix(-1 0 0 1 62.2654 84.2095)" stroke="#3C230D" stroke-opacity="0.49" stroke-width="4"/>
<rect x="-2" y="2" width="50.2364" height="57.3726" transform="matrix(-1 0 0 1 62.2654 9.99463)" stroke="#3C230D" stroke-opacity="0.49" stroke-width="4"/>
<circle cx="1.77736" cy="1.77736" r="1.77736" transform="matrix(-1 0 0 1 17.1576 76.5054)" fill="#E9B42E"/>
<rect width="7.70188" height="1.18491" transform="matrix(-1 0 0 1 23.0745 77.6914)" fill="#E9B42E"/>
<circle cx="1.77736" cy="1.77736" r="1.77736" transform="matrix(-1 0 0 1 17.1576 77.0913)" fill="#E9B42E" fill-opacity="0.37"/>
<rect width="7.70188" height="1.18491" transform="matrix(-1 0 0 1 23.0745 78.2778)" fill="#E9B42E" fill-opacity="0.37"/>
<path d="M23.0745 77.4851H17.468C17.0233 77.4851 16.5928 77.3288 16.2517 77.0434L16.0581 76.8815C15.4015 76.3322 14.4314 76.3861 13.8398 77.0048V77.0048C13.3431 77.5242 13.2464 78.3081 13.6019 78.9327L13.6346 78.9901C14.1381 79.8746 15.2967 80.1284 16.1238 79.5353L16.285 79.4197C16.6067 79.1891 16.9925 79.065 17.3883 79.065H23.0745" stroke="#CE9E23"/>
<rect width="0.592452" height="1.18491" transform="matrix(-1 0 0 1 23.0745 77.6914)" fill="#CE9E23"/>
<path d="M29.0404 35.9623H27.7416C26.1572 35.9623 24.8728 37.2467 24.8728 38.8311V43.7409C24.8728 44.9627 25.8633 45.9532 27.0851 45.9532H28.0128C28.7222 45.9532 29.2973 46.5283 29.2973 47.2377C29.2973 47.9472 29.8725 48.5223 30.5819 48.5223H48.3248C49.0568 48.5223 49.6502 47.9289 49.6502 47.1969C49.6502 46.4976 50.1935 45.9186 50.8914 45.8741L51.8911 45.8105C53.151 45.7302 54.1319 44.6849 54.1319 43.4224V38.5314C54.1319 37.1125 52.9817 35.9623 51.5628 35.9623H50.5637C49.6966 35.9623 48.9937 35.2594 48.9937 34.3923C48.9937 33.5252 48.2908 32.8223 47.4237 32.8223H32.1804C31.3133 32.8223 30.6104 33.5252 30.6104 34.3923C30.6104 35.2594 29.9075 35.9623 29.0404 35.9623Z" fill="#C7A96F"/>
<path d="M32.0071 47.8086L41.998 32.8223H47.7071L42.7116 48.5223H32.0071V47.8086Z" fill="#C49D51"/>
<path d="M40.132 40.041C40.1711 40.054 40.2297 40.0833 40.3078 40.1289C40.3924 40.168 40.4738 40.2103 40.5519 40.2559C40.6366 40.3014 40.7114 40.3405 40.7765 40.373C40.8482 40.4056 40.8905 40.4154 40.9035 40.4023C40.923 40.4023 40.9491 40.3763 40.9816 40.3242C41.0207 40.2721 41.0402 40.2396 41.0402 40.2266C41.1314 40.1159 41.2192 40.0052 41.3039 39.8945C41.395 39.7773 41.4862 39.6634 41.5773 39.5527C41.5968 39.5397 41.6392 39.5039 41.7043 39.4453C41.7759 39.3802 41.8149 39.3379 41.8215 39.3184C42.0298 39.0059 42.2088 38.6641 42.3586 38.293C42.5148 37.9154 42.6222 37.541 42.6808 37.1699V37.1602C42.6808 37.0299 42.6548 36.9128 42.6027 36.8086C42.5571 36.6979 42.5213 36.5775 42.4953 36.4473V36.2031C42.4888 36.1315 42.466 36.0892 42.4269 36.0762C42.3944 36.0632 42.3586 36.0306 42.3195 35.9785C42.313 35.972 42.3 35.9492 42.2804 35.9102C42.2674 35.8711 42.2479 35.832 42.2218 35.793C42.2023 35.7474 42.1828 35.7083 42.1633 35.6758C42.1502 35.6367 42.1405 35.6172 42.134 35.6172C42.0363 35.487 41.9191 35.3698 41.7824 35.2656C41.6457 35.1549 41.4959 35.0638 41.3332 34.9922C41.1769 34.9141 41.0142 34.8555 40.8449 34.8164C40.6821 34.7708 40.5226 34.748 40.3664 34.748C40.2362 34.748 40.1288 34.7546 40.0441 34.7676C39.9595 34.7741 39.8846 34.7904 39.8195 34.8164C39.7609 34.8424 39.6991 34.8815 39.634 34.9336C39.5754 34.9792 39.5038 35.041 39.4191 35.1191C39.061 35.4121 38.8071 35.7539 38.6574 36.1445C38.5077 36.5286 38.4328 36.9486 38.4328 37.4043C38.4328 37.4954 38.4491 37.6191 38.4816 37.7754C38.5207 37.9316 38.5663 38.0911 38.6183 38.2539C38.6704 38.4167 38.729 38.5697 38.7941 38.7129C38.8657 38.8496 38.9308 38.9473 38.9894 39.0059C39.0285 39.0449 39.1001 39.1133 39.2043 39.2109C39.3149 39.3086 39.4321 39.4128 39.5558 39.5234C39.6795 39.6341 39.7935 39.7383 39.8976 39.8359C40.0083 39.9336 40.0864 40.002 40.132 40.041ZM38.2472 45.6367C38.2603 45.6628 38.2798 45.6986 38.3058 45.7441C38.3319 45.7832 38.3514 45.8092 38.3644 45.8223C38.3709 45.8353 38.3872 45.8581 38.4133 45.8906C38.4393 45.9232 38.4653 45.9557 38.4914 45.9883C38.5239 46.0208 38.55 46.0534 38.5695 46.0859C38.5955 46.112 38.6086 46.125 38.6086 46.125C38.6672 46.2227 38.7388 46.3366 38.8234 46.4668C38.9146 46.5905 39.0122 46.7109 39.1164 46.8281C39.2205 46.9453 39.3345 47.0462 39.4582 47.1309C39.5884 47.209 39.7218 47.248 39.8586 47.248C39.8716 47.248 39.9041 47.2448 39.9562 47.2383C40.0148 47.2318 40.0571 47.2285 40.0832 47.2285C40.1027 47.1634 40.1255 47.1276 40.1515 47.1211C40.1776 47.1081 40.2069 47.1016 40.2394 47.1016H40.3176C40.3241 47.1016 40.3403 47.1048 40.3664 47.1113C40.3989 47.1178 40.4315 47.1243 40.464 47.1309C40.5031 47.1374 40.5357 47.1439 40.5617 47.1504C40.5877 47.1569 40.604 47.1602 40.6105 47.1602C40.6821 47.1602 40.7733 47.1276 40.884 47.0625C40.9946 46.9909 41.1053 46.9095 41.216 46.8184C41.3267 46.7272 41.4276 46.6361 41.5187 46.5449C41.6099 46.4473 41.675 46.3691 41.714 46.3105C41.714 46.304 41.7238 46.2845 41.7433 46.252C41.7629 46.2129 41.7824 46.1738 41.8019 46.1348C41.8215 46.0892 41.841 46.0501 41.8605 46.0176C41.8801 45.9785 41.8898 45.9557 41.8898 45.9492C41.8963 45.9362 41.9159 45.9069 41.9484 45.8613C41.981 45.8158 42.0135 45.7669 42.0461 45.7148C42.0851 45.6562 42.1177 45.6042 42.1437 45.5586C42.1763 45.5065 42.1958 45.474 42.2023 45.4609C42.2153 45.4479 42.2251 45.4284 42.2316 45.4023C42.2446 45.3763 42.2511 45.3568 42.2511 45.3438V45.3047V45.2754C42.2511 45.2689 42.2479 45.2559 42.2414 45.2363C42.2349 45.2103 42.2284 45.1842 42.2218 45.1582C42.2218 45.1322 42.2186 45.1061 42.2121 45.0801C42.2056 45.054 42.2023 45.0378 42.2023 45.0312V44.3574C42.1893 44.1816 42.1437 44.0026 42.0656 43.8203C41.994 43.6315 41.8996 43.4525 41.7824 43.2832C41.6717 43.1074 41.5448 42.9447 41.4015 42.7949C41.2583 42.6452 41.1151 42.5215 40.9718 42.4238C40.9718 42.4108 40.9426 42.388 40.884 42.3555C40.8319 42.3229 40.8026 42.3066 40.7961 42.3066C40.7049 42.2285 40.6235 42.1536 40.5519 42.082C40.4868 42.0104 40.4185 41.9453 40.3468 41.8867C40.2752 41.8281 40.1939 41.7826 40.1027 41.75C40.0181 41.7174 39.9139 41.7012 39.7902 41.7012C39.6991 41.7012 39.6112 41.737 39.5265 41.8086C39.4419 41.8737 39.3605 41.9551 39.2824 42.0527C39.2043 42.1504 39.1327 42.2513 39.0676 42.3555C39.009 42.4531 38.9601 42.5345 38.9211 42.5996C38.9015 42.6191 38.8788 42.6484 38.8527 42.6875C38.8267 42.7266 38.8006 42.7656 38.7746 42.8047C38.7551 42.8438 38.7355 42.8796 38.716 42.9121C38.6965 42.9447 38.6834 42.9674 38.6769 42.9805C38.5923 43.1172 38.5142 43.2637 38.4426 43.4199C38.3709 43.5762 38.3091 43.7389 38.257 43.9082C38.2114 44.0775 38.1756 44.25 38.1496 44.4258C38.1235 44.5951 38.117 44.7578 38.1301 44.9141C38.1301 44.9466 38.1333 44.9987 38.1398 45.0703C38.1463 45.1354 38.1561 45.207 38.1691 45.2852C38.1821 45.3633 38.1952 45.4349 38.2082 45.5C38.2212 45.5651 38.2342 45.6107 38.2472 45.6367ZM36.548 45.4609V44.1816C36.5545 43.9538 36.5708 43.791 36.5968 43.6934C36.6294 43.5892 36.6489 43.5306 36.6554 43.5176C36.7075 43.3939 36.7596 43.2702 36.8117 43.1465C36.8638 43.0163 36.9386 42.8991 37.0363 42.7949C37.0623 42.7624 37.1112 42.707 37.1828 42.6289C37.2609 42.5508 37.339 42.4694 37.4172 42.3848C37.5018 42.3001 37.5832 42.222 37.6613 42.1504C37.7394 42.0723 37.7948 42.0202 37.8273 41.9941C37.8403 41.9811 37.8761 41.9616 37.9347 41.9355C37.9998 41.9095 38.0454 41.89 38.0715 41.877C38.078 41.8704 38.1073 41.8477 38.1593 41.8086C38.2114 41.7695 38.2407 41.75 38.2472 41.75C38.2603 41.737 38.2896 41.7272 38.3351 41.7207C38.3807 41.7077 38.4133 41.7012 38.4328 41.7012C38.4588 41.6882 38.5044 41.6719 38.5695 41.6523C38.6346 41.6328 38.7062 41.6133 38.7843 41.5938C38.8625 41.5742 38.9373 41.5579 39.009 41.5449C39.0806 41.5254 39.1327 41.5124 39.1652 41.5059C39.2433 41.4603 39.2824 41.3984 39.2824 41.3203C39.2824 41.2552 39.2564 41.1999 39.2043 41.1543C39.1587 41.1087 39.1034 41.0664 39.0383 41.0273C39.0252 41.0143 38.9894 40.9948 38.9308 40.9688C38.8788 40.9362 38.8202 40.9036 38.7551 40.8711C38.6965 40.8385 38.6379 40.8092 38.5793 40.7832C38.5272 40.7507 38.4979 40.7279 38.4914 40.7148C38.4653 40.6953 38.41 40.6465 38.3254 40.5684C38.2472 40.4837 38.1593 40.3926 38.0617 40.2949C37.964 40.1973 37.8664 40.1029 37.7687 40.0117C37.6776 39.9141 37.6125 39.8424 37.5734 39.7969C37.5669 39.7904 37.5506 39.7708 37.5246 39.7383C37.4985 39.6992 37.4725 39.6602 37.4465 39.6211C37.4204 39.5755 37.3944 39.5365 37.3683 39.5039C37.3488 39.4648 37.3358 39.4421 37.3293 39.4355L37.1535 39.2598C37.0884 39.1621 37.0363 39.0449 36.9972 38.9082C36.9582 38.7715 36.9256 38.6283 36.8996 38.4785C36.8801 38.3288 36.8605 38.1823 36.841 38.0391C36.828 37.8958 36.8117 37.7721 36.7922 37.668C36.7661 37.5638 36.7336 37.4531 36.6945 37.3359C36.662 37.2188 36.6489 37.1048 36.6554 36.9941C36.6554 36.9876 36.6587 36.9616 36.6652 36.916C36.6782 36.8704 36.6913 36.8184 36.7043 36.7598C36.7173 36.7012 36.7303 36.6426 36.7433 36.584C36.7629 36.5254 36.7791 36.4798 36.7922 36.4473C36.8182 36.3366 36.8475 36.2031 36.8801 36.0469C36.9126 35.8906 36.9647 35.7669 37.0363 35.6758C37.1079 35.5521 37.1991 35.4382 37.3097 35.334C37.4204 35.2298 37.5311 35.1354 37.6418 35.0508C37.7004 34.9987 37.7492 34.9368 37.7883 34.8652C37.8338 34.7936 37.8827 34.7383 37.9347 34.6992C38.0064 34.6471 38.078 34.6048 38.1496 34.5723C38.2277 34.5332 38.2993 34.4909 38.3644 34.4453C38.3709 34.4453 38.384 34.4355 38.4035 34.416C38.4295 34.3965 38.4556 34.377 38.4816 34.3574C38.5142 34.3314 38.5402 34.3118 38.5597 34.2988C38.5858 34.2793 38.6021 34.2695 38.6086 34.2695C38.882 34.1523 39.1685 34.084 39.4679 34.0645C39.7674 34.0384 40.0669 34.0254 40.3664 34.0254H40.7765H41.5285C41.6261 34.084 41.7271 34.1328 41.8312 34.1719C41.9419 34.2109 42.0526 34.25 42.1633 34.2891C42.2739 34.3281 42.3814 34.3704 42.4855 34.416C42.5962 34.4551 42.7036 34.5104 42.8078 34.582C42.8859 34.6276 42.9933 34.7155 43.1301 34.8457C43.2668 34.9694 43.4035 35.1094 43.5402 35.2656C43.6834 35.4219 43.8136 35.5781 43.9308 35.7344C44.048 35.8841 44.1229 36.0078 44.1554 36.1055C44.2075 36.2357 44.2401 36.3594 44.2531 36.4766C44.2661 36.5938 44.2726 36.7272 44.2726 36.877C44.2726 37.3197 44.1945 37.7168 44.0383 38.0684C43.882 38.4199 43.6737 38.7715 43.4133 39.123C43.4133 39.1296 43.4035 39.1458 43.384 39.1719C43.3644 39.1979 43.3416 39.2305 43.3156 39.2695C43.2896 39.3021 43.2635 39.3346 43.2375 39.3672C43.2114 39.3932 43.1886 39.416 43.1691 39.4355C43.104 39.5137 43.0291 39.5788 42.9445 39.6309C42.8664 39.6764 42.7817 39.722 42.6906 39.7676C42.606 39.8066 42.5213 39.849 42.4367 39.8945C42.3521 39.9336 42.2739 39.9824 42.2023 40.041C42.1698 40.0605 42.1242 40.0996 42.0656 40.1582C42.007 40.2168 41.9452 40.2786 41.8801 40.3438C41.8149 40.4023 41.7531 40.4609 41.6945 40.5195C41.6359 40.5781 41.5968 40.6204 41.5773 40.6465C41.6359 40.7181 41.6847 40.7962 41.7238 40.8809C41.7629 40.959 41.8182 41.0241 41.8898 41.0762C41.9028 41.0892 41.9452 41.112 42.0168 41.1445C42.0884 41.1771 42.1274 41.1966 42.134 41.2031C42.4595 41.4375 42.7264 41.7142 42.9347 42.0332C43.1431 42.3457 43.3416 42.6777 43.5304 43.0293C43.576 43.1074 43.6118 43.1986 43.6379 43.3027C43.6704 43.4069 43.6899 43.5143 43.6965 43.625C43.7095 43.7357 43.716 43.8464 43.716 43.957C43.7225 44.0612 43.7258 44.1556 43.7258 44.2402C43.7258 44.4941 43.7192 44.7513 43.7062 45.0117C43.6997 45.2721 43.6639 45.526 43.5988 45.7734C43.5597 45.9427 43.4849 46.1055 43.3742 46.2617C43.27 46.418 43.1626 46.5547 43.0519 46.6719C42.8566 46.8932 42.6613 47.082 42.466 47.2383C42.2772 47.3945 42.0754 47.5215 41.8605 47.6191C41.6522 47.7168 41.4276 47.7884 41.1867 47.834C40.9458 47.8796 40.6789 47.9023 40.3859 47.9023C40.1841 47.9023 39.9627 47.8958 39.7218 47.8828C39.481 47.8633 39.2401 47.8275 38.9992 47.7754C38.7648 47.7233 38.537 47.6484 38.3156 47.5508C38.1008 47.4531 37.9152 47.3229 37.759 47.1602C37.7524 47.1602 37.7427 47.1504 37.7297 47.1309C37.7232 47.1048 37.7134 47.0788 37.7004 47.0527C37.6873 47.0202 37.6743 46.9909 37.6613 46.9648C37.6548 46.9388 37.6483 46.9225 37.6418 46.916C37.6092 46.8639 37.5604 46.8249 37.4953 46.7988C37.4302 46.7728 37.3748 46.7305 37.3293 46.6719C37.2381 46.5547 37.1535 46.4277 37.0754 46.291C37.0038 46.1478 36.9256 46.0111 36.841 45.8809C36.7889 45.8092 36.7271 45.7507 36.6554 45.7051C36.5838 45.653 36.548 45.5716 36.548 45.4609Z" fill="#1D1515"/>
</svg>
