<svg width="78" height="157" viewBox="0 0 78 157" fill="none" xmlns="http://www.w3.org/2000/svg">
<rect width="77.6113" height="157" transform="matrix(-1 0 0 1 77.6116 0)" fill="#664E39"/>
<path fill-rule="evenodd" clip-rule="evenodd" d="M70.4946 7.10254H69.3097V7.10397H8.28642V7.10261H7.10152V156.993H8.28642V8.28888H69.3097V156.993H70.4946V7.10254Z" fill="#38210B"/>
<rect x="-2" y="2" width="50.2364" height="60.2273" transform="matrix(-1 0 0 1 61.6541 84.2095)" stroke="#3C230D" stroke-opacity="0.49" stroke-width="4"/>
<rect x="-2" y="2" width="50.2364" height="57.3726" transform="matrix(-1 0 0 1 61.6541 9.99463)" stroke="#3C230D" stroke-opacity="0.49" stroke-width="4"/>
<circle cx="1.77736" cy="1.77736" r="1.77736" transform="matrix(-1 0 0 1 16.5463 76.5054)" fill="#E9B42E"/>
<rect width="7.70188" height="1.18491" transform="matrix(-1 0 0 1 22.4631 77.6914)" fill="#E9B42E"/>
<circle cx="1.77736" cy="1.77736" r="1.77736" transform="matrix(-1 0 0 1 16.5463 77.0913)" fill="#E9B42E" fill-opacity="0.37"/>
<rect width="7.70188" height="1.18491" transform="matrix(-1 0 0 1 22.4631 78.2778)" fill="#E9B42E" fill-opacity="0.37"/>
<path d="M22.4631 77.4851H16.8567C16.412 77.4851 15.9814 77.3288 15.6404 77.0434L15.4467 76.8815C14.7901 76.3322 13.8201 76.3861 13.2285 77.0048V77.0048C12.7318 77.5242 12.635 78.3081 12.9906 78.9327L13.0233 78.9901C13.5267 79.8746 14.6854 80.1284 15.5125 79.5353L15.6737 79.4197C15.9954 79.1891 16.3812 79.065 16.777 79.065H22.4631" stroke="#CE9E23"/>
<rect width="0.592452" height="1.18491" transform="matrix(-1 0 0 1 22.4631 77.6914)" fill="#CE9E23"/>
<path d="M28.4291 35.9623H27.1303C25.5459 35.9623 24.2615 37.2467 24.2615 38.8311V43.7409C24.2615 44.9627 25.2519 45.9532 26.4737 45.9532H27.4015C28.1109 45.9532 28.686 46.5283 28.686 47.2377C28.686 47.9472 29.2611 48.5223 29.9706 48.5223H47.7135C48.4455 48.5223 49.0389 47.9289 49.0389 47.1969C49.0389 46.4976 49.5822 45.9186 50.2801 45.8741L51.2797 45.8105C52.5397 45.7302 53.5205 44.6849 53.5205 43.4224V38.5314C53.5205 37.1125 52.3703 35.9623 50.9515 35.9623H49.9524C49.0853 35.9623 48.3824 35.2594 48.3824 34.3923C48.3824 33.5252 47.6795 32.8223 46.8124 32.8223H31.5691C30.702 32.8223 29.9991 33.5252 29.9991 34.3923C29.9991 35.2594 29.2962 35.9623 28.4291 35.9623Z" fill="#C7A96F"/>
<path d="M31.3958 47.8086L41.3866 32.8223H47.0957L42.1003 48.5223H31.3958V47.8086Z" fill="#C49D51"/>
<path d="M36.3757 47.2812C36.3757 47.0729 36.4115 46.8906 36.4831 46.7344C36.5547 46.5846 36.6393 46.4154 36.737 46.2266C36.7565 46.1875 36.7923 46.1191 36.8444 46.0215C36.903 45.9238 36.9649 45.8197 37.03 45.709C37.1016 45.6048 37.1667 45.5039 37.2253 45.4062C37.2839 45.3086 37.3294 45.2402 37.362 45.2012C37.3685 45.071 37.3978 44.9147 37.4499 44.7324C37.502 44.5501 37.5638 44.3646 37.6354 44.1758C37.7135 43.987 37.7917 43.8079 37.8698 43.6387C37.9479 43.4629 38.0195 43.3197 38.0846 43.209C38.0846 43.196 38.0912 43.1602 38.1042 43.1016C38.1237 43.043 38.1367 43.0137 38.1432 43.0137C38.1432 43.0007 38.1497 42.9779 38.1628 42.9453C38.1823 42.9128 38.1986 42.8965 38.2116 42.8965C38.2181 42.89 38.2311 42.8737 38.2507 42.8477C38.2767 42.8151 38.3027 42.7826 38.3288 42.75C38.3548 42.7109 38.3776 42.6784 38.3971 42.6523C38.4167 42.6198 38.4264 42.6003 38.4264 42.5938C38.4329 42.5872 38.4427 42.5645 38.4557 42.5254C38.4688 42.4863 38.4818 42.4473 38.4948 42.4082C38.5143 42.3626 38.5274 42.3236 38.5339 42.291C38.5469 42.252 38.5534 42.2324 38.5534 42.2324C38.5599 42.2259 38.5729 42.2064 38.5925 42.1738C38.612 42.1413 38.6315 42.1087 38.651 42.0762C38.6771 42.0436 38.6966 42.0143 38.7096 41.9883C38.7292 41.9557 38.7389 41.9362 38.7389 41.9297C38.7389 41.9167 38.752 41.8906 38.778 41.8516C38.791 41.832 38.8008 41.8158 38.8073 41.8027C38.8073 41.7832 38.8138 41.7441 38.8268 41.6855C38.8399 41.627 38.8529 41.5651 38.8659 41.5C38.8789 41.4284 38.8887 41.3633 38.8952 41.3047C38.9082 41.2461 38.9147 41.2103 38.9147 41.1973C38.9277 41.1712 38.9538 41.1257 38.9928 41.0605C39.0319 40.9954 39.0514 40.9596 39.0514 40.9531C39.0579 40.9336 39.071 40.8945 39.0905 40.8359C39.1165 40.7773 39.1426 40.7155 39.1686 40.6504C39.1947 40.5788 39.2175 40.5137 39.237 40.4551C39.263 40.3965 39.276 40.3574 39.276 40.3379C39.2956 40.3314 39.3184 40.3053 39.3444 40.2598C39.377 40.2077 39.3997 40.1751 39.4128 40.1621C39.4193 40.1491 39.4388 40.1263 39.4714 40.0938C39.5039 40.0612 39.5202 40.0384 39.5202 40.0254C39.5267 40.0189 39.5365 39.9993 39.5495 39.9668C39.569 39.9277 39.5853 39.8887 39.5983 39.8496C39.6178 39.8105 39.6309 39.7747 39.6374 39.7422C39.6504 39.7031 39.6569 39.6771 39.6569 39.6641C39.6634 39.6445 39.6862 39.5957 39.7253 39.5176C39.7708 39.4329 39.8164 39.3418 39.862 39.2441C39.9141 39.1465 39.9596 39.0553 39.9987 38.9707C40.0443 38.8861 40.0736 38.834 40.0866 38.8145C40.0931 38.7949 40.1094 38.7526 40.1354 38.6875C40.168 38.6224 40.2005 38.5508 40.2331 38.4727C40.2656 38.3945 40.2949 38.3197 40.321 38.248C40.347 38.1764 40.3665 38.1211 40.3796 38.082C40.3926 38.0625 40.4056 38.0332 40.4186 37.9941C40.4316 37.9551 40.4447 37.916 40.4577 37.877C40.4707 37.8379 40.4805 37.8053 40.487 37.7793C40.5 37.7467 40.5065 37.7272 40.5065 37.7207V37.584C40.5065 37.4863 40.487 37.4115 40.4479 37.3594C40.4089 37.3073 40.3568 37.2715 40.2917 37.252C40.2266 37.2259 40.155 37.2096 40.0768 37.2031C39.9987 37.1901 39.9173 37.1738 39.8327 37.1543C39.8262 37.1543 39.7904 37.1478 39.7253 37.1348C39.6602 37.1152 39.6146 37.1055 39.5885 37.1055H39.0514C39.0319 37.1055 38.9961 37.0957 38.944 37.0762C38.8984 37.0566 38.8691 37.0469 38.8561 37.0469H38.7194C38.6283 37.0469 38.5339 37.0566 38.4362 37.0762C38.3451 37.0957 38.2539 37.1055 38.1628 37.1055H38.0846C38.0651 37.1055 38.0228 37.0957 37.9577 37.0762C37.8926 37.0566 37.8503 37.0469 37.8307 37.0469H37.362C37.3425 37.0469 37.3132 37.0404 37.2741 37.0273C37.2415 37.0078 37.2253 36.9915 37.2253 36.9785H36.6393H36.1803C35.8158 36.9785 35.4642 37.0078 35.1257 37.0664C34.7871 37.125 34.4714 37.2812 34.1784 37.5352C34.1263 37.5091 34.0938 37.4863 34.0807 37.4668C34.0677 37.4473 34.0612 37.4115 34.0612 37.3594V37.291C34.0677 37.252 34.0807 37.1934 34.1003 37.1152C34.1263 37.0306 34.1524 36.946 34.1784 36.8613C34.2109 36.7767 34.237 36.6986 34.2565 36.627C34.2826 36.5553 34.2988 36.5098 34.3053 36.4902C34.3314 36.4121 34.3835 36.3242 34.4616 36.2266C34.5462 36.1224 34.6146 36.028 34.6667 35.9434C34.6732 35.9238 34.6895 35.8978 34.7155 35.8652C34.7415 35.8262 34.7676 35.7871 34.7936 35.748C34.8262 35.709 34.8522 35.6764 34.8718 35.6504C34.8978 35.6178 34.9108 35.5951 34.9108 35.582C34.9564 35.543 34.9954 35.5104 35.028 35.4844C35.0606 35.4518 35.0833 35.403 35.0964 35.3379C35.1159 35.2533 35.1322 35.1491 35.1452 35.0254C35.1582 34.9017 35.181 34.7812 35.2135 34.6641C35.2526 34.5469 35.3047 34.446 35.3698 34.3613C35.4414 34.2767 35.5423 34.2344 35.6725 34.2344C35.679 34.2344 35.7018 34.2344 35.7409 34.2344C35.7865 34.2344 35.8158 34.2409 35.8288 34.2539C35.8874 34.3125 35.9167 34.3776 35.9167 34.4492C35.9167 34.4948 35.9102 34.5404 35.8971 34.5859C35.8841 34.6315 35.8776 34.6738 35.8776 34.7129C35.8776 34.7715 35.8971 34.8268 35.9362 34.8789C35.9753 34.9245 36.0599 34.9733 36.1901 35.0254C36.2031 35.0384 36.2422 35.0645 36.3073 35.1035C36.3724 35.1361 36.418 35.1523 36.444 35.1523C36.444 35.1654 36.4635 35.1719 36.5026 35.1719C36.5612 35.1719 36.61 35.1589 36.6491 35.1328C36.6947 35.1068 36.75 35.0938 36.8151 35.0938C36.9128 35.0938 36.9909 35.1068 37.0495 35.1328C37.1146 35.1589 37.1895 35.1719 37.2741 35.1719C37.502 35.1719 37.7331 35.123 37.9675 35.0254H41.0046C41.0241 35.0254 41.0566 35.0254 41.1022 35.0254C41.1478 35.0189 41.1966 35.0124 41.2487 35.0059C41.3008 34.9993 41.3464 34.9928 41.3854 34.9863C41.431 34.9798 41.4603 34.9701 41.4733 34.957C41.4928 34.957 41.5352 34.9603 41.6003 34.9668C41.6719 34.9733 41.7337 34.9766 41.7858 34.9766C41.8509 34.9766 41.89 34.9701 41.903 34.957C41.916 34.957 41.9486 34.9538 42.0007 34.9473C42.0527 34.9342 42.0853 34.9212 42.0983 34.9082H42.1374H42.1471C42.1667 34.9212 42.1927 34.9408 42.2253 34.9668C42.2578 34.9928 42.2904 35.0221 42.3229 35.0547C42.3555 35.0872 42.3848 35.1198 42.4108 35.1523C42.4369 35.1784 42.4531 35.1979 42.4596 35.2109C42.4596 35.224 42.4629 35.2598 42.4694 35.3184C42.4759 35.377 42.4792 35.4225 42.4792 35.4551C42.4792 35.5592 42.4629 35.6504 42.4303 35.7285C42.3978 35.8066 42.3555 35.8815 42.3034 35.9531C42.2578 36.0182 42.2025 36.0833 42.1374 36.1484C42.0788 36.2135 42.0234 36.2884 41.9714 36.373C41.9714 36.3796 41.9583 36.4089 41.9323 36.4609C41.9128 36.513 41.903 36.5423 41.903 36.5488C41.8965 36.5879 41.8835 36.6335 41.8639 36.6855C41.8509 36.7376 41.8346 36.7897 41.8151 36.8418C41.7956 36.8939 41.776 36.9395 41.7565 36.9785C41.7435 37.0176 41.7337 37.0404 41.7272 37.0469C41.7142 37.0664 41.6882 37.1185 41.6491 37.2031C41.61 37.2878 41.5645 37.3789 41.5124 37.4766C41.4668 37.5677 41.4212 37.6556 41.3757 37.7402C41.3366 37.8249 41.3106 37.877 41.2975 37.8965C41.2975 37.903 41.2943 37.9225 41.2878 37.9551C41.2878 37.9876 41.2845 38.0202 41.278 38.0527C41.2715 38.0853 41.265 38.1178 41.2585 38.1504C41.2585 38.1829 41.2552 38.2025 41.2487 38.209C41.2357 38.2285 41.2096 38.2741 41.1706 38.3457C41.138 38.4108 41.099 38.4857 41.0534 38.5703C41.0143 38.6484 40.9753 38.7233 40.9362 38.7949C40.9037 38.8665 40.8809 38.9121 40.8678 38.9316C40.8678 38.9447 40.8613 38.974 40.8483 39.0195C40.8353 39.0651 40.819 39.0944 40.7995 39.1074C40.7474 39.3353 40.679 39.5632 40.5944 39.791C40.5163 40.0189 40.4284 40.2402 40.3307 40.4551C40.2787 40.5723 40.2266 40.6634 40.1745 40.7285C40.1224 40.7936 40.0703 40.888 40.0182 41.0117C40.0182 41.0182 40.015 41.0345 40.0085 41.0605C40.0085 41.0801 40.0052 41.1029 39.9987 41.1289C39.9922 41.1549 39.9824 41.181 39.9694 41.207C39.9629 41.2331 39.9564 41.2493 39.9499 41.2559C39.9499 41.2689 39.9206 41.3014 39.862 41.3535C39.8099 41.3991 39.7806 41.4284 39.7741 41.4414C39.6895 41.5651 39.6374 41.6953 39.6178 41.832C39.6048 41.9688 39.556 42.1022 39.4714 42.2324C39.3086 42.4798 39.1621 42.7337 39.0319 42.9941C38.9082 43.2546 38.7878 43.5247 38.6706 43.8047C38.6445 43.8958 38.6185 43.9902 38.5925 44.0879C38.5664 44.1855 38.5339 44.2702 38.4948 44.3418C38.4102 44.5176 38.3158 44.6868 38.2116 44.8496C38.1074 45.0189 38.026 45.1947 37.9675 45.377C37.9544 45.3965 37.9382 45.429 37.9186 45.4746C37.9056 45.5267 37.8926 45.5788 37.8796 45.6309C37.8665 45.6829 37.8535 45.7318 37.8405 45.7773C37.834 45.8229 37.8307 45.8555 37.8307 45.875V45.9336V46.1191C37.8242 46.1257 37.8047 46.1419 37.7721 46.168C37.7396 46.2005 37.7233 46.2201 37.7233 46.2266C37.7103 46.2461 37.694 46.2689 37.6745 46.2949C37.6615 46.3275 37.655 46.3503 37.655 46.3633C37.5703 46.5456 37.4922 46.7311 37.4206 46.9199C37.349 47.1087 37.2676 47.2878 37.1764 47.457C37.1374 47.5156 37.082 47.5482 37.0104 47.5547C36.9388 47.5677 36.8704 47.5742 36.8053 47.5742C36.7012 47.5742 36.6035 47.5547 36.5124 47.5156C36.4212 47.4831 36.3757 47.4049 36.3757 47.2812Z" fill="#1D1515"/>
</svg>
