<svg width="78" height="157" viewBox="0 0 78 157" fill="none" xmlns="http://www.w3.org/2000/svg">
<rect width="77.6113" height="157" transform="matrix(-1 0 0 1 77.6116 0)" fill="#664E39"/>
<path fill-rule="evenodd" clip-rule="evenodd" d="M70.4946 7.10254H69.3097V7.10397H8.28642V7.10261H7.10152V156.993H8.28642V8.28888H69.3097V156.993H70.4946V7.10254Z" fill="#38210B"/>
<rect x="-2" y="2" width="50.2364" height="60.2273" transform="matrix(-1 0 0 1 61.6541 84.2095)" stroke="#3C230D" stroke-opacity="0.49" stroke-width="4"/>
<rect x="-2" y="2" width="50.2364" height="57.3726" transform="matrix(-1 0 0 1 61.6541 9.99463)" stroke="#3C230D" stroke-opacity="0.49" stroke-width="4"/>
<circle cx="1.77736" cy="1.77736" r="1.77736" transform="matrix(-1 0 0 1 16.5463 76.5054)" fill="#E9B42E"/>
<rect width="7.70188" height="1.18491" transform="matrix(-1 0 0 1 22.4631 77.6914)" fill="#E9B42E"/>
<circle cx="1.77736" cy="1.77736" r="1.77736" transform="matrix(-1 0 0 1 16.5463 77.0913)" fill="#E9B42E" fill-opacity="0.37"/>
<rect width="7.70188" height="1.18491" transform="matrix(-1 0 0 1 22.4631 78.2778)" fill="#E9B42E" fill-opacity="0.37"/>
<path d="M22.4631 77.4851H16.8567C16.412 77.4851 15.9814 77.3288 15.6404 77.0434L15.4467 76.8815C14.7901 76.3322 13.8201 76.3861 13.2285 77.0048V77.0048C12.7318 77.5242 12.635 78.3081 12.9906 78.9327L13.0233 78.9901C13.5267 79.8746 14.6854 80.1284 15.5125 79.5353L15.6737 79.4197C15.9954 79.1891 16.3812 79.065 16.777 79.065H22.4631" stroke="#CE9E23"/>
<rect width="0.592452" height="1.18491" transform="matrix(-1 0 0 1 22.4631 77.6914)" fill="#CE9E23"/>
<path d="M28.4291 35.9623H27.1303C25.5459 35.9623 24.2615 37.2467 24.2615 38.8311V43.7409C24.2615 44.9627 25.2519 45.9532 26.4737 45.9532H27.4015C28.1109 45.9532 28.686 46.5283 28.686 47.2377C28.686 47.9472 29.2611 48.5223 29.9706 48.5223H47.7135C48.4455 48.5223 49.0389 47.9289 49.0389 47.1969C49.0389 46.4976 49.5822 45.9186 50.2801 45.8741L51.2797 45.8105C52.5397 45.7302 53.5205 44.6849 53.5205 43.4224V38.5314C53.5205 37.1125 52.3703 35.9623 50.9515 35.9623H49.9524C49.0853 35.9623 48.3824 35.2594 48.3824 34.3923C48.3824 33.5252 47.6795 32.8223 46.8124 32.8223H31.5691C30.702 32.8223 29.9991 33.5252 29.9991 34.3923C29.9991 35.2594 29.2962 35.9623 28.4291 35.9623Z" fill="#C7A96F"/>
<path d="M31.3958 47.8086L41.3866 32.8223H47.0957L42.1003 48.5223H31.3958V47.8086Z" fill="#C49D51"/>
<path d="M36.6296 45.8047C36.6296 45.6289 36.6849 45.5182 36.7956 45.4727C36.9063 45.4271 37.0332 45.401 37.1764 45.3945C37.3262 45.388 37.4727 45.3815 37.6159 45.375C37.7591 45.362 37.86 45.3066 37.9186 45.209C38.0423 45.0137 38.1302 44.8216 38.1823 44.6328C38.2409 44.4375 38.2767 44.2389 38.2897 44.0371C38.3093 43.8353 38.319 43.627 38.319 43.4121C38.319 43.1973 38.3288 42.9759 38.3483 42.748C38.3483 42.7415 38.3581 42.696 38.3776 42.6113C38.4037 42.5202 38.4167 42.4616 38.4167 42.4355V42.3867C38.4167 42.263 38.4037 42.1458 38.3776 42.0352C38.3581 41.918 38.3483 41.791 38.3483 41.6543V41.2246C38.3809 41.1921 38.4004 41.166 38.4069 41.1465C38.4199 41.1204 38.4264 41.0879 38.4264 41.0488C38.4264 41.0423 38.4232 41.0391 38.4167 41.0391C38.4167 41.0326 38.4167 41.0228 38.4167 41.0098V40.9805C38.3841 40.8372 38.3516 40.6973 38.319 40.5605C38.293 40.4238 38.28 40.2806 38.28 40.1309V40.0625C38.2865 40.0495 38.293 40.0137 38.2995 39.9551C38.306 39.8965 38.3125 39.8346 38.319 39.7695C38.3255 39.6979 38.332 39.6328 38.3385 39.5742C38.3451 39.5091 38.3483 39.4701 38.3483 39.457C38.3483 39.4375 38.3451 39.4017 38.3385 39.3496C38.332 39.291 38.3223 39.2324 38.3093 39.1738C38.3027 39.1087 38.2962 39.0534 38.2897 39.0078C38.2832 38.9557 38.28 38.9232 38.28 38.9102V38.0312C38.2344 37.8945 38.1335 37.8001 37.9772 37.748C37.821 37.6895 37.655 37.6406 37.4792 37.6016C37.3099 37.556 37.1569 37.5039 37.0202 37.4453C36.89 37.3802 36.8249 37.2728 36.8249 37.123C36.8249 37.084 36.8249 37.0514 36.8249 37.0254C36.8314 36.9993 36.8509 36.9668 36.8835 36.9277C36.8965 36.9147 36.9225 36.8984 36.9616 36.8789C37.0072 36.8529 37.056 36.8268 37.1081 36.8008C37.1602 36.7747 37.209 36.752 37.2546 36.7324C37.3066 36.7064 37.3425 36.6901 37.362 36.6836C37.3815 36.6836 37.4369 36.6803 37.528 36.6738C37.6257 36.6673 37.7005 36.6641 37.7526 36.6641C37.9219 36.6641 38.0846 36.6836 38.2409 36.7227C38.3971 36.7552 38.5534 36.791 38.7096 36.8301C38.8659 36.8691 39.0221 36.9082 39.1784 36.9473C39.3412 36.9798 39.5072 36.9961 39.6764 36.9961C39.9043 36.9961 40.1289 36.9766 40.3503 36.9375C40.5781 36.8984 40.8125 36.8789 41.0534 36.8789H41.2194C41.3757 36.8789 41.4994 36.8984 41.5905 36.9375C41.6882 36.9701 41.7728 37.071 41.8444 37.2402V37.2695C41.8444 37.3867 41.7923 37.4844 41.6882 37.5625C41.584 37.6341 41.4603 37.696 41.3171 37.748C41.1803 37.8001 41.0404 37.8424 40.8971 37.875C40.7539 37.9076 40.6432 37.9401 40.5651 37.9727C40.5456 37.9922 40.5195 38.0345 40.487 38.0996C40.4609 38.1582 40.4479 38.194 40.4479 38.207C40.3893 38.4349 40.347 38.666 40.321 38.9004C40.3014 39.1348 40.2884 39.3691 40.2819 39.6035C40.2754 39.8379 40.2721 40.0723 40.2721 40.3066C40.2787 40.5345 40.2787 40.7591 40.2721 40.9805C40.2721 41 40.2689 41.0391 40.2624 41.0977C40.2559 41.1562 40.2461 41.2214 40.2331 41.293C40.2266 41.3581 40.2201 41.4199 40.2135 41.4785C40.207 41.5371 40.2038 41.5729 40.2038 41.5859C40.1973 41.638 40.1908 41.7324 40.1843 41.8691C40.1777 41.9993 40.1712 42.1426 40.1647 42.2988C40.1582 42.4486 40.1517 42.5918 40.1452 42.7285C40.1387 42.8587 40.1354 42.9499 40.1354 43.002C40.0964 43.0671 40.0736 43.1419 40.0671 43.2266C40.0606 43.3047 40.0573 43.3828 40.0573 43.4609V43.5879C40.0573 43.7116 40.0573 43.8223 40.0573 43.9199C40.0638 44.0111 40.0671 44.1055 40.0671 44.2031C40.0736 44.2943 40.0801 44.3919 40.0866 44.4961C40.0996 44.5938 40.1159 44.7109 40.1354 44.8477C40.1615 45.056 40.2461 45.196 40.3893 45.2676C40.5326 45.3392 40.6856 45.388 40.8483 45.4141C41.0111 45.4401 41.1576 45.4727 41.2878 45.5117C41.418 45.5443 41.4831 45.6289 41.4831 45.7656C41.4831 45.8958 41.4277 45.9772 41.3171 46.0098C41.2129 46.0488 41.1022 46.0684 40.985 46.0684H40.8093C40.653 46.0684 40.5195 46.0651 40.4089 46.0586C40.2982 46.0521 40.168 46.0326 40.0182 46C40.0052 46 39.9792 45.9935 39.9401 45.9805C39.9206 45.974 39.9043 45.9642 39.8913 45.9512H39.862H39.8229C39.8164 45.9512 39.8034 45.9544 39.7839 45.9609C39.7643 45.9674 39.7448 45.974 39.7253 45.9805L39.6471 46C39.582 46.0195 39.4649 46.0358 39.2956 46.0488C39.1328 46.0618 38.9603 46.0781 38.778 46.0977C38.5957 46.1172 38.4264 46.1367 38.2702 46.1562C38.1204 46.1823 38.026 46.2116 37.987 46.2441H37.655C37.5768 46.2441 37.4792 46.2409 37.362 46.2344C37.2448 46.2279 37.1309 46.2116 37.0202 46.1855C36.916 46.1595 36.8249 46.1172 36.7468 46.0586C36.6686 46 36.6296 45.9154 36.6296 45.8047Z" fill="#1D1515"/>
</svg>
