<svg width="78" height="157" viewBox="0 0 78 157" fill="none" xmlns="http://www.w3.org/2000/svg">
<rect width="77.6113" height="157" transform="matrix(-1 0 0 1 77.8342 0)" fill="#664E39"/>
<path fill-rule="evenodd" clip-rule="evenodd" d="M70.7173 7.10254H69.5324V7.10397H8.50908V7.10261H7.32417V156.993H8.50908V8.28888H69.5324V156.993H70.7173V7.10254Z" fill="#38210B"/>
<rect x="-2" y="2" width="50.2364" height="60.2273" transform="matrix(-1 0 0 1 61.8767 84.2095)" stroke="#3C230D" stroke-opacity="0.49" stroke-width="4"/>
<rect x="-2" y="2" width="50.2364" height="57.3726" transform="matrix(-1 0 0 1 61.8767 9.99463)" stroke="#3C230D" stroke-opacity="0.49" stroke-width="4"/>
<circle cx="1.77736" cy="1.77736" r="1.77736" transform="matrix(-1 0 0 1 16.7689 76.5054)" fill="#E9B42E"/>
<rect width="7.70188" height="1.18491" transform="matrix(-1 0 0 1 22.6858 77.6914)" fill="#E9B42E"/>
<circle cx="1.77736" cy="1.77736" r="1.77736" transform="matrix(-1 0 0 1 16.7689 77.0913)" fill="#E9B42E" fill-opacity="0.37"/>
<rect width="7.70188" height="1.18491" transform="matrix(-1 0 0 1 22.6858 78.2778)" fill="#E9B42E" fill-opacity="0.37"/>
<path d="M22.6858 77.4851H17.0794C16.6346 77.4851 16.2041 77.3288 15.863 77.0434L15.6694 76.8815C15.0128 76.3322 14.0428 76.3861 13.4511 77.0048V77.0048C12.9544 77.5242 12.8577 78.3081 13.2132 78.9327L13.2459 78.9901C13.7494 79.8746 14.908 80.1284 15.7351 79.5353L15.8964 79.4197C16.218 79.1891 16.6038 79.065 16.9996 79.065H22.6858" stroke="#CE9E23"/>
<rect width="0.592452" height="1.18491" transform="matrix(-1 0 0 1 22.6858 77.6914)" fill="#CE9E23"/>
<path d="M28.6518 35.9623H27.3529C25.7685 35.9623 24.4841 37.2467 24.4841 38.8311V43.7409C24.4841 44.9627 25.4746 45.9532 26.6964 45.9532H27.6241C28.3336 45.9532 28.9087 46.5283 28.9087 47.2377C28.9087 47.9472 29.4838 48.5223 30.1932 48.5223H47.9362C48.6682 48.5223 49.2616 47.9289 49.2616 47.1969C49.2616 46.4976 49.8049 45.9186 50.5027 45.8741L51.5024 45.8105C52.7624 45.7302 53.7432 44.6849 53.7432 43.4224V38.5314C53.7432 37.1125 52.593 35.9623 51.1741 35.9623H50.175C49.3079 35.9623 48.605 35.2594 48.605 34.3923C48.605 33.5252 47.9021 32.8223 47.035 32.8223H31.7918C30.9247 32.8223 30.2218 33.5252 30.2218 34.3923C30.2218 35.2594 29.5189 35.9623 28.6518 35.9623Z" fill="#C7A96F"/>
<path d="M31.6184 47.8086L41.6093 32.8223H47.3184L42.3229 48.5223H31.6184V47.8086Z" fill="#C49D51"/>
<path d="M35.9245 42.6836C35.9245 43.1784 36.0287 43.6374 36.237 44.0605C36.237 44.0801 36.2435 44.1094 36.2565 44.1484C36.263 44.168 36.2728 44.1842 36.2858 44.1973C36.2858 44.2038 36.2891 44.2266 36.2956 44.2656C36.3021 44.2982 36.3086 44.3372 36.3151 44.3828C36.3216 44.4219 36.3281 44.4609 36.3346 44.5C36.3412 44.5326 36.3477 44.5521 36.3542 44.5586C36.3542 44.5846 36.3704 44.6367 36.403 44.7148C36.4356 44.793 36.4583 44.8451 36.4714 44.8711C36.4974 44.9232 36.5267 44.9883 36.5593 45.0664C36.5983 45.1445 36.6374 45.2227 36.6764 45.3008C36.7155 45.3789 36.7513 45.4505 36.7839 45.5156C36.8229 45.5807 36.8587 45.6263 36.8913 45.6523C36.9694 45.7109 37.041 45.7598 37.1061 45.7988C37.1777 45.8314 37.2494 45.8672 37.321 45.9062C37.3991 45.9388 37.4772 45.9746 37.5553 46.0137C37.6335 46.0462 37.7181 46.0918 37.8093 46.1504C37.8288 46.1569 37.8711 46.1895 37.9362 46.248C38.0013 46.3001 38.0436 46.3262 38.0632 46.3262H38.2389C38.3431 46.3262 38.431 46.3197 38.5026 46.3066C38.5742 46.2871 38.6426 46.2643 38.7077 46.2383C38.7728 46.2057 38.8346 46.1667 38.8932 46.1211C38.9518 46.0755 39.0169 46.0234 39.0885 45.9648C39.2057 45.8737 39.3034 45.7858 39.3815 45.7012C39.4662 45.6165 39.541 45.5319 39.6061 45.4473C39.6777 45.3561 39.7428 45.2585 39.8014 45.1543C39.86 45.0501 39.9251 44.9329 39.9968 44.8027C40.0098 44.7897 40.0228 44.7604 40.0358 44.7148C40.0553 44.6628 40.0651 44.6302 40.0651 44.6172V44.4707V44.0605C40.0716 44.054 40.0912 44.028 40.1237 43.9824C40.1563 43.9303 40.1725 43.8978 40.1725 43.8848C40.1856 43.8652 40.1986 43.8262 40.2116 43.7676C40.2311 43.709 40.2409 43.6667 40.2409 43.6406V42.4199C40.2734 42.3874 40.293 42.3613 40.2995 42.3418C40.3125 42.3158 40.319 42.2832 40.319 42.2441C40.319 42.1855 40.2962 42.1074 40.2507 42.0098C40.2116 41.9121 40.1628 41.8145 40.1042 41.7168C40.0521 41.6126 39.9968 41.5182 39.9382 41.4336C39.8796 41.3424 39.8372 41.2741 39.8112 41.2285C39.7982 41.196 39.7721 41.1439 39.7331 41.0723C39.7005 41.0007 39.6647 40.9258 39.6257 40.8477C39.5866 40.7695 39.5475 40.6979 39.5085 40.6328C39.4759 40.5612 39.4531 40.5124 39.4401 40.4863C39.3229 40.4212 39.2318 40.3398 39.1667 40.2422C39.1081 40.1445 39.0234 40.0469 38.9128 39.9492C38.8477 39.8711 38.7565 39.8027 38.6393 39.7441C38.5287 39.6855 38.4408 39.627 38.3757 39.5684C38.3301 39.5553 38.2682 39.5195 38.1901 39.4609C38.1185 39.4023 38.0534 39.3763 37.9948 39.3828C37.9883 39.3828 37.9688 39.3893 37.9362 39.4023C37.9037 39.4154 37.8711 39.4284 37.8385 39.4414C37.806 39.4544 37.7734 39.4707 37.7409 39.4902C37.7149 39.5033 37.7018 39.513 37.7018 39.5195C37.6237 39.5456 37.5293 39.5814 37.4186 39.627C37.3145 39.666 37.2103 39.7148 37.1061 39.7734C37.002 39.8255 36.9076 39.8841 36.8229 39.9492C36.7448 40.0078 36.6927 40.0664 36.6667 40.125C36.6537 40.1315 36.6439 40.1543 36.6374 40.1934C36.6309 40.2259 36.6244 40.265 36.6178 40.3105C36.6113 40.3496 36.6048 40.3887 36.5983 40.4277C36.5983 40.4603 36.5983 40.4798 36.5983 40.4863C36.5853 40.5124 36.569 40.5482 36.5495 40.5938C36.5365 40.6328 36.53 40.6589 36.53 40.6719C36.53 40.6784 36.5169 40.6979 36.4909 40.7305C36.4714 40.7565 36.4453 40.7858 36.4128 40.8184C36.3867 40.8509 36.3607 40.8835 36.3346 40.916C36.3086 40.9421 36.2923 40.9616 36.2858 40.9746C36.1231 41.235 36.0221 41.5117 35.9831 41.8047C35.944 42.0977 35.9245 42.3906 35.9245 42.6836ZM34.2253 42.459V42.3613C34.2578 42.0228 34.2904 41.6647 34.3229 41.2871C34.362 40.9095 34.4466 40.5612 34.5768 40.2422C34.5833 40.2227 34.5964 40.1901 34.6159 40.1445C34.6419 40.0924 34.668 40.0404 34.694 39.9883C34.7266 39.9362 34.7526 39.8906 34.7721 39.8516C34.7982 39.806 34.8177 39.7767 34.8307 39.7637C34.8372 39.7376 34.8633 39.6953 34.9089 39.6367C34.9609 39.5716 34.9935 39.5326 35.0065 39.5195C35.0521 39.4284 35.0781 39.334 35.0846 39.2363C35.0977 39.1387 35.1335 39.0475 35.1921 38.9629C35.3027 38.8197 35.4102 38.6895 35.5143 38.5723C35.6185 38.4486 35.7357 38.3379 35.8659 38.2402C35.8724 38.2272 35.8952 38.2044 35.9343 38.1719C35.9733 38.1393 35.9928 38.1165 35.9928 38.1035C35.9928 38.097 35.9961 38.0579 36.0026 37.9863C36.0156 37.9147 36.0287 37.8724 36.0417 37.8594C36.0547 37.8398 36.0742 37.8073 36.1003 37.7617C36.1263 37.7161 36.1556 37.6673 36.1882 37.6152C36.2207 37.5632 36.25 37.5143 36.276 37.4688C36.3086 37.4232 36.3346 37.3906 36.3542 37.3711C36.3997 37.306 36.4583 37.2539 36.53 37.2148C36.6016 37.1758 36.6732 37.14 36.7448 37.1074C36.8164 37.0749 36.888 37.0391 36.9596 37C37.0313 36.9544 37.0931 36.8958 37.1452 36.8242L38.3073 36.0918C38.3854 35.9746 38.4701 35.8932 38.5612 35.8477C38.6524 35.7956 38.7435 35.7598 38.8346 35.7402C38.9323 35.7207 39.0267 35.7044 39.1178 35.6914C39.2155 35.6784 39.3066 35.6523 39.3913 35.6133C39.3978 35.6068 39.4108 35.5905 39.4303 35.5645C39.4564 35.5384 39.4824 35.5124 39.5085 35.4863C39.541 35.4603 39.5671 35.4375 39.5866 35.418C39.6126 35.3919 39.6289 35.3757 39.6354 35.3691C39.6875 35.3366 39.7494 35.3073 39.821 35.2812C39.8991 35.2487 39.9805 35.2227 40.0651 35.2031C40.1497 35.1836 40.2311 35.1673 40.3093 35.1543C40.3939 35.1413 40.4688 35.1315 40.5339 35.125H40.7194H40.7878C40.8008 35.125 40.8301 35.1087 40.8757 35.0762C40.9212 35.0371 40.9505 35.0078 40.9635 34.9883C41.0417 34.9688 41.1133 34.9557 41.1784 34.9492C41.25 34.9427 41.3184 34.9362 41.3835 34.9297C41.4486 34.9232 41.5104 34.9134 41.569 34.9004C41.6341 34.8809 41.6992 34.8516 41.7643 34.8125C41.8164 34.806 41.9076 34.793 42.0378 34.7734C42.1745 34.7474 42.3177 34.7214 42.4675 34.6953C42.6172 34.6693 42.7572 34.6465 42.8874 34.627C43.0176 34.6009 43.1087 34.5814 43.1608 34.5684H43.2096C43.2682 34.5684 43.3366 34.5814 43.4147 34.6074C43.4928 34.627 43.5677 34.6595 43.6393 34.7051C43.7175 34.7441 43.7793 34.7962 43.8249 34.8613C43.877 34.9199 43.903 34.985 43.903 35.0566C43.903 35.1803 43.8477 35.2878 43.737 35.3789C43.6263 35.4635 43.5156 35.5189 43.405 35.5449C43.3984 35.5514 43.3691 35.5579 43.3171 35.5645C43.2715 35.571 43.2227 35.5775 43.1706 35.584C43.1185 35.5905 43.0664 35.597 43.0143 35.6035C42.9688 35.61 42.9427 35.6133 42.9362 35.6133C42.9037 35.6263 42.8451 35.6393 42.7604 35.6523C42.6823 35.6589 42.6367 35.6621 42.6237 35.6621C42.2266 35.7858 41.8392 35.9128 41.4616 36.043C41.084 36.1732 40.6999 36.3132 40.3093 36.4629C40.166 36.515 40.0228 36.5931 39.8796 36.6973C39.7363 36.8014 39.6094 36.8828 39.4987 36.9414C39.2774 37.0911 39.0462 37.2246 38.8053 37.3418C38.5645 37.459 38.3366 37.5924 38.1218 37.7422C38.0892 37.7617 38.0306 37.8171 37.946 37.9082C37.8678 37.9928 37.7832 38.0872 37.6921 38.1914C37.6074 38.2956 37.5326 38.3932 37.4675 38.4844C37.4024 38.5755 37.3698 38.6406 37.3698 38.6797C37.3698 38.7318 37.3796 38.7839 37.3991 38.8359C37.4186 38.888 37.4577 38.9303 37.5163 38.9629C37.5879 38.9499 37.6563 38.9434 37.7214 38.9434C37.793 38.9434 37.8613 38.9434 37.9264 38.9434C38.1934 38.9434 38.4408 38.9629 38.6686 39.002C38.903 39.041 39.1602 39.0866 39.4401 39.1387C39.4531 39.1387 39.4792 39.1419 39.5182 39.1484C39.5573 39.1549 39.5964 39.1615 39.6354 39.168C39.681 39.1745 39.7201 39.181 39.7526 39.1875C39.7917 39.194 39.8112 39.2005 39.8112 39.207C39.8242 39.207 39.8698 39.2298 39.9479 39.2754C40.0326 39.321 40.0879 39.3568 40.1139 39.3828C40.4655 39.6107 40.7617 39.8516 41.0026 40.1055C41.2435 40.3594 41.4388 40.6328 41.5885 40.9258C41.7448 41.2188 41.8555 41.5378 41.9206 41.8828C41.9857 42.2214 42.0182 42.5924 42.0182 42.9961C42.0182 43.3802 41.9727 43.7578 41.8815 44.1289C41.7969 44.4935 41.6634 44.8353 41.4811 45.1543C41.2988 45.4668 41.0677 45.7467 40.7878 45.9941C40.5143 46.235 40.1888 46.4271 39.8112 46.5703C39.7005 46.6159 39.5768 46.6712 39.4401 46.7363C39.3034 46.8014 39.1699 46.8503 39.0397 46.8828C38.9681 46.9023 38.8932 46.9154 38.8151 46.9219C38.737 46.9284 38.6556 46.9316 38.571 46.9316C38.4863 46.9316 38.4017 46.9316 38.3171 46.9316C38.2389 46.9251 38.1641 46.9219 38.0925 46.9219C38.0339 46.9219 37.9753 46.9219 37.9167 46.9219C37.8646 46.9219 37.8125 46.9251 37.7604 46.9316C37.7474 46.9316 37.7214 46.9447 37.6823 46.9707C37.6628 46.9837 37.6465 46.9935 37.6335 47H37.5651C37.4089 47 37.2526 46.9772 37.0964 46.9316C36.9466 46.8861 36.8034 46.8275 36.6667 46.7559C36.4518 46.6582 36.25 46.5671 36.0612 46.4824C35.8724 46.3978 35.6869 46.2871 35.5046 46.1504C35.4655 46.1243 35.4264 46.082 35.3874 46.0234C35.3483 45.9648 35.3093 45.903 35.2702 45.8379C35.2311 45.7663 35.1953 45.6979 35.1628 45.6328C35.1302 45.5677 35.1009 45.5156 35.0749 45.4766C34.8796 45.2096 34.7135 44.9427 34.5768 44.6758C34.4466 44.4089 34.3652 44.1061 34.3327 43.7676C34.3327 43.748 34.3294 43.6992 34.3229 43.6211C34.3164 43.5365 34.3099 43.4486 34.3034 43.3574C34.3034 43.2598 34.3001 43.1686 34.2936 43.084C34.2871 42.9993 34.2839 42.944 34.2839 42.918C34.2839 42.9115 34.2806 42.8919 34.2741 42.8594C34.2676 42.8203 34.2611 42.7812 34.2546 42.7422C34.2481 42.6966 34.2415 42.6543 34.235 42.6152C34.2285 42.5762 34.2253 42.5501 34.2253 42.5371V42.459Z" fill="#1D1515"/>
</svg>
