<svg width="29" height="22" viewBox="0 0 29 22" fill="none" xmlns="http://www.w3.org/2000/svg">
<path fill-rule="evenodd" clip-rule="evenodd" d="M11.6048 0.680357L26.579 8.16292C28.9182 9.33183 28.9182 12.668 26.579 13.8369L11.6048 21.3195C8.9415 22.6503 6.07584 19.9136 7.28517 17.1943L9.46699 12.2881C9.50908 12.1935 9.54631 12.0973 9.57869 11.9999L15.0001 11.9999C15.5524 11.9999 16.0001 11.5522 16.0001 10.9999C16.0001 10.4476 15.5524 9.99992 15.0001 9.99992L9.57869 9.99992C9.54631 9.90254 9.50908 9.80635 9.46699 9.7117L7.28517 4.80558C6.07584 2.08624 8.94151 -0.65047 11.6048 0.680357ZM0.666748 8.33325C0.666748 7.78097 1.11446 7.33325 1.66675 7.33325H4.33341C4.8857 7.33325 5.33341 7.78097 5.33341 8.33325C5.33341 8.88554 4.8857 9.33325 4.33341 9.33325H1.66675C1.11446 9.33325 0.666748 8.88554 0.666748 8.33325ZM1.66675 12.6666C1.11446 12.6666 0.666748 13.1143 0.666748 13.6666C0.666748 14.2189 1.11446 14.6666 1.66675 14.6666H4.33341C4.8857 14.6666 5.33341 14.2189 5.33341 13.6666C5.33341 13.1143 4.8857 12.6666 4.33341 12.6666H1.66675Z" fill="#B9B39F"/>
</svg>
