<svg width="61" height="61" viewBox="0 0 61 61" fill="none" xmlns="http://www.w3.org/2000/svg">
<g clip-path="url(#clip0_440_2567)">
<path d="M6.16346 4.00165C6.24169 4.00149 6.31992 4.00134 6.40051 4.00118C6.48698 4.00133 6.57345 4.00147 6.66254 4.00162C6.75436 4.00153 6.84619 4.00144 6.9408 4.00135C7.19735 4.00111 7.4539 4.00125 7.71045 4.00146C7.98892 4.00161 8.2674 4.00141 8.54587 4.00126C9.03449 4.00104 9.52311 4.00105 10.0117 4.0012C10.7383 4.00143 11.4649 4.00131 12.1915 4.00113C13.4889 4.0008 14.7864 4.00083 16.0838 4.00101C17.2192 4.00116 18.3547 4.0012 19.4901 4.00113C19.5653 4.00113 19.6406 4.00112 19.718 4.00112C20.0233 4.0011 20.3286 4.00108 20.6339 4.00106C23.4999 4.00087 26.3659 4.00104 29.2319 4.00137C31.7799 4.00166 34.328 4.00163 36.8761 4.00134C39.7366 4.00101 42.5971 4.00088 45.4577 4.00107C45.7624 4.00109 46.0672 4.00111 46.372 4.00113C46.447 4.00114 46.522 4.00114 46.5994 4.00115C47.7342 4.00121 48.8691 4.00113 50.004 4.00098C51.294 4.0008 52.5841 4.00085 53.8741 4.00118C54.5967 4.00136 55.3193 4.00137 56.0419 4.00114C56.5239 4.001 57.0059 4.00109 57.488 4.00135C57.763 4.0015 58.0381 4.00155 58.3132 4.00133C58.6088 4.0011 58.9045 4.00133 59.2001 4.00162C59.2864 4.00147 59.3727 4.00133 59.4616 4.00118C59.54 4.00134 59.6184 4.00149 59.6992 4.00165C59.7669 4.00165 59.8345 4.00166 59.9042 4.00166C60.0682 4.00871 60.2077 4.0302 60.3646 4.07045C60.3646 4.1108 60.3646 4.15116 60.3646 4.19273C60.4112 4.19273 60.4578 4.19273 60.5058 4.19273C60.5291 4.27344 60.5524 4.35414 60.5764 4.43729C60.623 4.43729 60.6696 4.43729 60.7176 4.43729C60.7176 4.47764 60.7176 4.51799 60.7176 4.55957C60.7642 4.55957 60.8108 4.55957 60.8588 4.55957C60.8588 4.6201 60.8588 4.68063 60.8588 4.74299C60.9054 4.74299 60.952 4.74299 61 4.74299C61 21.4488 61 38.1546 61 55.3667C60.9534 55.3667 60.9068 55.3667 60.8588 55.3667C60.8588 55.5483 60.8588 55.7299 60.8588 55.917C60.8122 55.917 60.7656 55.917 60.7176 55.917C60.7176 56.0582 60.7176 56.1994 60.7176 56.3449C60.671 56.3449 60.6244 56.3449 60.5764 56.3449C60.5531 56.5265 60.5298 56.7081 60.5058 56.8952C60.4592 56.8952 60.4126 56.8952 60.3646 56.8952C60.3646 56.9961 60.3646 57.097 60.3646 57.2009C60.318 57.2009 60.2714 57.2009 60.2234 57.2009C60.2234 57.2816 60.2234 57.3623 60.2234 57.4455C60.1768 57.4455 60.1302 57.4455 60.0822 57.4455C60.0822 57.4858 60.0822 57.5262 60.0822 57.5677C60.0356 57.5677 59.989 57.5677 59.941 57.5677C59.941 57.6484 59.941 57.7291 59.941 57.8123C59.8944 57.8123 59.8478 57.8123 59.7998 57.8123C59.7765 57.9132 59.7532 58.0141 59.7292 58.118C59.6826 58.118 59.636 58.118 59.588 58.118C59.588 58.1987 59.588 58.2794 59.588 58.3626C59.5414 58.3626 59.4948 58.3626 59.4468 58.3626C59.4468 58.4029 59.4468 58.4433 59.4468 58.4848C59.3536 58.505 59.2604 58.5252 59.1644 58.546C59.1411 58.6267 59.1178 58.7074 59.0937 58.7905C59.0472 58.7905 59.0006 58.7905 58.9525 58.7905C58.9525 58.8712 58.9525 58.9519 58.9525 59.0351C58.8594 59.0553 58.7662 59.0754 58.6701 59.0962C58.6701 59.1366 58.6701 59.1769 58.6701 59.2185C58.5769 59.2185 58.4837 59.2185 58.3877 59.2185C58.3644 59.2992 58.3411 59.3799 58.3171 59.4631C58.2705 59.4631 58.2239 59.4631 58.1759 59.4631C58.1759 59.5034 58.1759 59.5438 58.1759 59.5854C58.1293 59.5854 58.0827 59.5854 58.0347 59.5854C58.0347 59.6257 58.0347 59.6661 58.0347 59.7076C57.9182 59.7278 57.8017 59.748 57.6817 59.7688C57.6817 59.8091 57.6817 59.8495 57.6817 59.8911C57.6351 59.8911 57.5885 59.8911 57.5405 59.8911C57.5405 59.9314 57.5405 59.9718 57.5405 60.0133C57.4473 60.0133 57.3541 60.0133 57.2581 60.0133C57.2581 60.0537 57.2581 60.094 57.2581 60.1356C57.2115 60.1356 57.1649 60.1356 57.1169 60.1356C57.1169 60.176 57.1169 60.2163 57.1169 60.2579C56.658 60.4413 56.658 60.4413 56.3403 60.4413C56.3403 60.4817 56.3403 60.522 56.3403 60.5636C56.2238 60.5636 56.1073 60.5636 55.9873 60.5636C55.9873 60.6039 55.9873 60.6443 55.9873 60.6859C55.8475 60.6859 55.7077 60.6859 55.5637 60.6859C55.5637 60.7262 55.5637 60.7666 55.5637 60.8081C55.4472 60.8081 55.3307 60.8081 55.2106 60.8081C55.2106 60.8485 55.2106 60.8889 55.2106 60.9304C54.69 60.9906 54.1801 61.0001 53.6552 60.9993C53.5635 60.9993 53.4718 60.9994 53.3772 60.9995C53.1229 60.9998 52.8686 60.9996 52.6142 60.9994C52.3374 60.9993 52.0606 60.9995 51.7838 60.9996C51.2988 60.9998 50.8138 60.9998 50.3287 60.9997C49.6075 60.9994 48.8862 60.9996 48.165 60.9997C46.877 61.0001 45.5891 61 44.3011 60.9999C43.1742 60.9997 42.0474 60.9997 40.9205 60.9997C40.8085 60.9998 40.8085 60.9998 40.6942 60.9998C40.3909 60.9998 40.0877 60.9998 39.7845 60.9998C36.9395 61 34.0946 60.9998 31.2496 60.9995C28.7205 60.9992 26.1913 60.9992 23.6621 60.9995C20.8217 60.9999 17.9814 61 15.1411 60.9998C14.8385 60.9998 14.536 60.9998 14.2334 60.9997C14.1589 60.9997 14.0844 60.9997 14.0077 60.9997C12.8811 60.9997 11.7544 60.9997 10.6278 60.9999C9.34756 61.0001 8.0673 61 6.78704 60.9997C6.06991 60.9995 5.35277 60.9995 4.63564 60.9997C4.15737 60.9999 3.6791 60.9998 3.20084 60.9995C2.92786 60.9994 2.65488 60.9993 2.3819 60.9995C2.08863 60.9998 1.79537 60.9995 1.5021 60.9993C1.3734 60.9995 1.3734 60.9995 1.2421 60.9997C1.16447 60.9995 1.08684 60.9994 1.00686 60.9992C0.939722 60.9992 0.872589 60.9992 0.803421 60.9992C0.635417 60.9916 0.635417 60.9916 0.423611 60.9304C0.423611 60.8901 0.423611 60.8497 0.423611 60.8081C0.377014 60.8081 0.330417 60.8081 0.282407 60.8081C0.282407 60.7678 0.282407 60.7274 0.282407 60.6859C0.23581 60.6859 0.189213 60.6859 0.141204 60.6859C0.141204 60.6052 0.141204 60.5245 0.141204 60.4413C0.0946065 60.4413 0.0480093 60.4413 0 60.4413C0 59.8158 0 59.1904 0 58.546C0.0465972 58.546 0.0931944 58.546 0.141204 58.546C0.141204 58.4653 0.141204 58.3846 0.141204 58.3014C0.187801 58.3014 0.234398 58.3014 0.282407 58.3014C0.282407 58.2611 0.282407 58.2207 0.282407 58.1791C0.329005 58.1791 0.375602 58.1791 0.423611 58.1791C0.447638 58.1205 0.447638 58.1205 0.47215 58.0607C0.564815 57.9346 0.564815 57.9346 0.710431 57.8887C0.991816 57.868 1.27104 57.8686 1.55324 57.8734C1.55324 57.8331 1.55324 57.7927 1.55324 57.7512C1.80953 57.7512 2.06581 57.7512 2.32986 57.7512C2.32986 57.7108 2.32986 57.6705 2.32986 57.6289C2.58615 57.6289 2.84243 57.6289 3.10648 57.6289C3.10648 57.5885 3.10648 57.5482 3.10648 57.5066C3.36277 57.5066 3.61905 57.5066 3.8831 57.5066C3.8831 57.4662 3.8831 57.4259 3.8831 57.3843C4.13939 57.3843 4.39567 57.3843 4.65972 57.3843C4.65972 57.344 4.65972 57.3036 4.65972 57.262C4.72962 57.262 4.79951 57.262 4.87153 57.262C4.87153 39.9711 4.87153 22.6802 4.87153 4.86527C4.91812 4.86527 4.96472 4.86527 5.01273 4.86527C5.01273 4.78456 5.01273 4.70386 5.01273 4.62071C5.05933 4.62071 5.10593 4.62071 5.15394 4.62071C5.15394 4.56018 5.15394 4.49965 5.15394 4.43729C5.20053 4.43729 5.24713 4.43729 5.29514 4.43729C5.29514 4.39694 5.29514 4.35659 5.29514 4.31501C5.34174 4.31501 5.38833 4.31501 5.43634 4.31501C5.45527 4.27592 5.4742 4.23683 5.49371 4.19655C5.64518 3.96873 5.88846 4.00166 6.16346 4.00165Z" fill="#FDF5EA"/>
<path d="M46.7961 51.0811C46.9078 51.0815 47.0195 51.0822 47.1311 51.0832C47.1881 51.0835 47.245 51.0838 47.3037 51.084C47.4447 51.0848 47.5858 51.0859 47.7269 51.087C47.7269 51.1274 47.7269 51.1677 47.7269 51.2093C47.7734 51.2093 47.82 51.2093 47.8681 51.2093C48.1275 51.4152 48.3343 51.6342 48.402 51.9372C48.4063 52.1112 48.405 52.262 48.3623 52.4321C48.327 52.4635 48.2918 52.495 48.2554 52.5274C48.0911 52.7611 48.123 52.9919 48.1273 53.2601C48.1274 53.3166 48.1276 53.3731 48.1277 53.4313C48.1282 53.5505 48.1292 53.6697 48.1306 53.7889C48.1328 53.972 48.1335 54.1551 48.1339 54.3383C48.1346 54.454 48.1353 54.5697 48.1361 54.6854C48.1364 54.7405 48.1367 54.7956 48.137 54.8524C48.1118 55.0987 48.1118 55.0987 48.2211 55.3057C48.2261 55.3986 48.227 55.4916 48.2255 55.5846C48.2245 55.6604 48.2245 55.6604 48.2235 55.7377C48.2227 55.7767 48.2219 55.8157 48.2211 55.8559C48.2677 55.8559 48.3143 55.8559 48.3623 55.8559C48.3623 55.9972 48.3623 56.1384 48.3623 56.2839C48.4089 56.2839 48.4555 56.2839 48.5035 56.2839C48.5035 56.3646 48.5035 56.4453 48.5035 56.5285C48.5501 56.5285 48.5967 56.5285 48.6447 56.5285C48.668 56.71 48.6913 56.8916 48.7153 57.0787C48.7619 57.0787 48.8085 57.0787 48.8565 57.0787C48.9876 57.2704 49.0119 57.4073 48.9977 57.629C49.0443 57.629 49.0909 57.629 49.1389 57.629C49.1389 57.6693 49.1389 57.7097 49.1389 57.7513C49.1855 57.7513 49.2321 57.7513 49.2801 57.7513C49.299 57.808 49.318 57.8647 49.3375 57.9232C49.4024 58.1155 49.4024 58.1155 49.536 58.2174C49.5681 58.2452 49.6001 58.2729 49.6331 58.3015C49.6331 58.3822 49.6331 58.4629 49.6331 58.5461C49.6797 58.5461 49.7263 58.5461 49.7743 58.5461C49.7743 58.5864 49.7743 58.6268 49.7743 58.6684C49.8209 58.6684 49.8675 58.6684 49.9155 58.6684C50.1273 58.9364 50.1273 58.9364 50.1273 59.0963C50.1739 59.0963 50.2205 59.0963 50.2685 59.0963C50.2685 59.1367 50.2685 59.177 50.2685 59.2186C50.3151 59.2186 50.3617 59.2186 50.4097 59.2186C50.4097 59.259 50.4097 59.2993 50.4097 59.3409C50.5029 59.3611 50.5961 59.3812 50.6921 59.402C50.6921 59.4424 50.6921 59.4827 50.6921 59.5243C50.7387 59.5243 50.7853 59.5243 50.8333 59.5243C50.8566 59.605 50.8799 59.6857 50.9039 59.7689C50.9505 59.7689 50.9971 59.7689 51.0451 59.7689C51.0451 59.8092 51.0451 59.8496 51.0451 59.8911C51.1383 59.8911 51.2315 59.8911 51.3275 59.8911C51.3275 59.9315 51.3275 59.9719 51.3275 60.0134C51.4207 60.0336 51.5139 60.0538 51.61 60.0746C51.6333 60.1553 51.6566 60.236 51.6806 60.3191C51.7737 60.3191 51.8669 60.3191 51.963 60.3191C51.963 60.3595 51.963 60.3998 51.963 60.4414C52.0096 60.4414 52.0562 60.4414 52.1042 60.4414C52.1042 60.4818 52.1042 60.5221 52.1042 60.5637C52.4187 60.6545 52.4187 60.6545 52.7396 60.7471C52.7396 60.7875 52.7396 60.8278 52.7396 60.8694C52.8561 60.8694 52.9726 60.8694 53.0926 60.8694C53.0926 60.9097 53.0926 60.9501 53.0926 60.9917C48.0945 60.9927 43.0964 60.9937 38.0982 60.9943C37.9874 60.9943 37.9874 60.9943 37.8742 60.9943C36.2679 60.9945 34.6616 60.9946 33.0552 60.9948C32.2675 60.9949 31.4798 60.9949 30.6921 60.995C30.6137 60.995 30.5353 60.995 30.4546 60.995C27.9118 60.9953 25.369 60.9958 22.8262 60.9963C20.2141 60.9969 17.602 60.9973 14.99 60.9974C14.6214 60.9974 14.2528 60.9974 13.8843 60.9975C13.7755 60.9975 13.7755 60.9975 13.6644 60.9975C12.4946 60.9975 11.3248 60.9978 10.155 60.9982C8.98024 60.9986 7.80545 60.9987 6.63067 60.9986C5.93189 60.9986 5.23311 60.9987 4.53434 60.999C4.06828 60.9993 3.60223 60.9993 3.13618 60.9991C2.87016 60.999 2.60414 60.999 2.33813 60.9993C2.05232 60.9996 1.76652 60.9994 1.48072 60.9992C1.39712 60.9993 1.31352 60.9995 1.22738 60.9997C1.15171 60.9995 1.07604 60.9994 0.998079 60.9993C0.932653 60.9993 0.867229 60.9993 0.799821 60.9993C0.635417 60.9917 0.635417 60.9917 0.423611 60.9305C0.423611 60.8902 0.423611 60.8498 0.423611 60.8082C0.377014 60.8082 0.330417 60.8082 0.282407 60.8082C0.282407 60.7679 0.282407 60.7275 0.282407 60.686C0.23581 60.686 0.189213 60.686 0.141204 60.686C0.141204 60.6053 0.141204 60.5246 0.141204 60.4414C0.0946065 60.4414 0.0480093 60.4414 0 60.4414C0 59.8159 0 59.1905 0 58.5461C0.0465972 58.5461 0.0931944 58.5461 0.141204 58.5461C0.141204 58.4654 0.141204 58.3847 0.141204 58.3015C0.187801 58.3015 0.234398 58.3015 0.282407 58.3015C0.282407 58.2612 0.282407 58.2208 0.282407 58.1792C0.329005 58.1792 0.375602 58.1792 0.423611 58.1792C0.439629 58.1401 0.455647 58.1011 0.47215 58.0608C0.564815 57.9347 0.564815 57.9347 0.710431 57.8888C0.991816 57.8681 1.27104 57.8687 1.55324 57.8735C1.55324 57.8332 1.55324 57.7928 1.55324 57.7513C1.80953 57.7513 2.06581 57.7513 2.32986 57.7513C2.32986 57.7109 2.32986 57.6706 2.32986 57.629C2.58615 57.629 2.84243 57.629 3.10648 57.629C3.10648 57.5886 3.10648 57.5483 3.10648 57.5067C3.36277 57.5067 3.61905 57.5067 3.8831 57.5067C3.8831 57.4663 3.8831 57.426 3.8831 57.3844C4.13939 57.3844 4.39567 57.3844 4.65972 57.3844C4.65972 57.3441 4.65972 57.3037 4.65972 57.2621C4.73535 57.2628 4.81098 57.2636 4.8889 57.2643C4.98754 57.2649 5.08618 57.2654 5.18482 57.266C5.23474 57.2665 5.28466 57.267 5.33609 57.2675C5.46366 57.268 5.59123 57.2653 5.71875 57.2621C5.74205 57.242 5.76535 57.2218 5.78935 57.201C5.9346 57.1815 6.07996 57.1697 6.2262 57.1571C6.35535 57.1509 6.35535 57.1509 6.42477 57.0787C6.54708 57.0576 6.67019 57.0398 6.7935 57.0236C6.87041 57.0133 6.94732 57.0031 7.02656 56.9926C7.10901 56.9819 7.19146 56.9712 7.2764 56.9603C7.40096 56.9439 7.40096 56.9439 7.52804 56.9271C8.08455 56.8546 8.64128 56.7899 9.20058 56.736C9.38394 56.7293 9.38394 56.7293 9.46065 56.6507C9.6105 56.6409 9.7606 56.6337 9.91073 56.6278C10.3007 56.606 10.6426 56.5541 11.0153 56.4568C11.6396 56.3066 12.2939 56.2137 12.9397 56.1745C13.0634 56.1724 13.0634 56.1724 13.1319 56.1005C13.3692 56.0806 13.6066 56.0691 13.8446 56.0565C14.042 56.059 14.042 56.059 14.1204 55.9782C14.2615 55.9757 14.4028 55.9756 14.544 55.9782C14.544 55.9379 14.544 55.8975 14.544 55.8559C14.592 55.8532 14.64 55.8504 14.6894 55.8476C14.9102 55.8346 15.1308 55.8204 15.3515 55.8062C15.427 55.802 15.5025 55.7977 15.5803 55.7932C15.9926 55.7659 16.3536 55.7158 16.7415 55.591C16.9017 55.5417 17.0532 55.5221 17.2224 55.512C17.4448 55.4981 17.4448 55.4981 17.6505 55.4279C17.7828 55.4236 17.9152 55.4228 18.0476 55.4241C18.1538 55.425 18.1538 55.425 18.2622 55.4258C18.3166 55.4265 18.371 55.4272 18.4271 55.4279C18.4271 55.3876 18.4271 55.3472 18.4271 55.3057C18.5472 55.2924 18.5472 55.2924 18.6698 55.2789C18.9077 55.2683 18.9077 55.2683 18.9919 55.1834C19.1803 55.1613 19.3677 55.1426 19.5567 55.1261C19.6721 55.1154 19.7875 55.1048 19.9028 55.0941C19.9622 55.0886 20.0215 55.0832 20.0826 55.0776C20.3678 55.0515 20.6529 55.0242 20.9379 54.9961C20.9895 54.9913 21.0412 54.9865 21.0944 54.9815C21.3346 54.9735 21.3346 54.9735 21.5336 54.8777C21.6983 54.8573 21.863 54.8369 22.0278 54.8165C22.0511 54.7964 22.0744 54.7762 22.0984 54.7554C22.2869 54.7468 22.4743 54.7528 22.6632 54.7554C22.6632 54.7151 22.6632 54.6747 22.6632 54.6331C22.7365 54.6301 22.8099 54.6271 22.8855 54.6241C23.3783 54.6019 23.8539 54.5744 24.3361 54.4781C24.5143 54.447 24.6883 54.4344 24.8695 54.423C25.0923 54.4066 25.2023 54.3898 25.4034 54.2969C25.7152 54.1698 26.0122 54.1709 26.3535 54.1569C26.5401 54.1626 26.5401 54.1626 26.6169 54.0829C26.8733 54.0407 27.1301 54.0034 27.3877 53.967C27.6602 53.9468 27.6602 53.9468 27.8877 53.8383C28.0702 53.8165 28.2518 53.7977 28.4349 53.781C29.3172 53.7599 29.3172 53.7599 30.0764 53.5326C30.2953 53.5128 30.5143 53.5012 30.7339 53.4887C30.9177 53.4894 30.9177 53.4894 30.9942 53.4103C31.1015 53.4059 31.209 53.4052 31.3163 53.4065C31.3747 53.4071 31.433 53.4076 31.4931 53.4082C31.5382 53.4089 31.5832 53.4096 31.6296 53.4103C31.6296 53.37 31.6296 53.3296 31.6296 53.2881C31.6759 53.2847 31.7223 53.2813 31.77 53.2778C31.9791 53.2624 32.1883 53.2466 32.3974 53.2307C32.5068 53.2228 32.5068 53.2228 32.6183 53.2146C32.688 53.2093 32.7576 53.204 32.8293 53.1985C32.9258 53.1913 32.9258 53.1913 33.0243 53.1839C33.1851 53.1731 33.1851 53.1731 33.3241 53.1046C33.507 53.0857 33.6901 53.0735 33.8737 53.0607C34.028 53.0578 34.028 53.0578 34.1007 52.9824C34.2654 52.9799 34.4302 52.9798 34.5949 52.9824C34.5949 52.942 34.5949 52.9017 34.5949 52.8601C34.6502 52.8564 34.7054 52.8527 34.7623 52.8489C34.8695 52.8412 34.8695 52.8412 34.9788 52.8333C35.0501 52.8284 35.1213 52.8234 35.1947 52.8183C35.367 52.8153 35.367 52.8153 35.4421 52.7378C35.5616 52.7246 35.6816 52.7151 35.8018 52.7072C35.8745 52.7022 35.9472 52.6971 36.0221 52.6919C36.1767 52.6818 36.3314 52.6716 36.486 52.6614C36.5587 52.6563 36.6314 52.6513 36.7063 52.6461C36.7736 52.6417 36.8408 52.6373 36.91 52.6327C37.064 52.6297 37.064 52.6297 37.1366 52.5544C37.3187 52.5347 37.5008 52.523 37.6837 52.5104C37.8402 52.5078 37.8402 52.5078 37.9132 52.4321C38.0544 52.4296 38.1956 52.4295 38.3368 52.4321C38.3368 52.3917 38.3368 52.3514 38.3368 52.3098C38.5465 52.3098 38.7562 52.3098 38.9722 52.3098C38.9722 52.2695 38.9722 52.2291 38.9722 52.1875C39.2285 52.1875 39.4848 52.1875 39.7488 52.1875C39.7488 52.1472 39.7488 52.1068 39.7488 52.0653C39.7976 52.0603 39.8463 52.0554 39.8965 52.0504C40.1195 52.0277 40.3423 52.0044 40.5652 51.9812C40.6419 51.9735 40.7185 51.9657 40.7975 51.9578C41.1923 51.9162 41.5549 51.8549 41.9375 51.7596C42.1343 51.7396 42.3308 51.7316 42.5288 51.7252C42.8598 51.7385 42.8598 51.7385 43.1377 51.6373C43.3114 51.6143 43.4841 51.5941 43.6584 51.5761C44.0386 51.5373 44.0386 51.5373 44.4086 51.4539C44.5319 51.4431 44.6555 51.4344 44.7792 51.4271C45.0965 51.4041 45.3741 51.3507 45.6794 51.2704C45.8847 51.2366 46.0904 51.206 46.2966 51.1766C46.5486 51.1317 46.4927 51.0878 46.7961 51.0811Z" fill="#FAE2C0"/>
<path d="M48.1505 52.6152C48.1738 52.6152 48.1971 52.6152 48.2211 52.6152C48.2207 52.6868 48.2203 52.7584 48.22 52.8322C48.2187 53.0972 48.2179 53.3622 48.2172 53.6273C48.2168 53.7421 48.2164 53.8569 48.2158 53.9717C48.2149 54.1365 48.2145 54.3013 48.2142 54.4661C48.2138 54.5177 48.2135 54.5692 48.2131 54.6223C48.2046 54.8803 48.2046 54.8803 48.2917 55.122C48.3078 55.2465 48.3206 55.3714 48.3314 55.4964C48.3373 55.5634 48.3432 55.6304 48.3493 55.6994C48.3536 55.751 48.3579 55.8025 48.3623 55.8556C48.3157 55.8556 48.2691 55.8556 48.2211 55.8556C48.2168 55.8166 48.2125 55.7776 48.2081 55.7374C48.1992 55.6616 48.1992 55.6616 48.1902 55.5843C48.1816 55.5088 48.1816 55.5088 48.1728 55.4317C48.1654 55.3062 48.1654 55.3062 48.0799 55.2442C48.0727 55.0553 48.07 54.8677 48.0705 54.6787C48.0704 54.6219 48.0704 54.5652 48.0703 54.5067C48.0702 54.3864 48.0704 54.2661 48.0707 54.1459C48.0711 53.9611 48.0707 53.7763 48.0702 53.5916C48.0703 53.475 48.0704 53.3585 48.0705 53.2419C48.0704 53.1863 48.0702 53.1306 48.0701 53.0732C48.0718 52.6834 48.0718 52.6834 48.1505 52.6152Z" fill="#FBEDD9"/>
<path d="M45.8912 51.2704C45.8236 51.2826 45.8236 51.2826 45.7547 51.295C45.6672 51.3112 45.6672 51.3112 45.5779 51.3278C45.5197 51.3384 45.4616 51.349 45.4017 51.36C45.2574 51.3809 45.2574 51.3809 45.1852 51.4539C45.0663 51.4652 44.9471 51.4736 44.8277 51.4806C44.5769 51.4981 44.3425 51.5228 44.0997 51.58C43.881 51.6289 43.714 51.6494 43.4907 51.6373C43.514 51.5969 43.5373 51.5566 43.5613 51.515C43.7477 51.515 43.9341 51.515 44.1261 51.515C44.1261 51.4746 44.1261 51.4343 44.1261 51.3927C44.1979 51.3882 44.1979 51.3882 44.2712 51.3836C44.6749 51.3556 45.0602 51.31 45.4541 51.2279C45.6212 51.2078 45.7318 51.2258 45.8912 51.2704Z" fill="#FBECD7"/>
<path d="M37.9131 52.4315C37.8898 52.4719 37.8665 52.5122 37.8425 52.5538C37.6836 52.5769 37.6836 52.5769 37.4895 52.5882C37.256 52.5865 37.256 52.5865 37.0659 52.6761C36.8875 52.6905 36.7107 52.7018 36.5319 52.7105C36.4566 52.7144 36.4566 52.7144 36.3798 52.7185C36.2555 52.725 36.1312 52.7311 36.0068 52.7372C36.0068 52.6968 36.0068 52.6565 36.0068 52.6149C36.057 52.6112 36.1071 52.6075 36.1588 52.6037C36.2561 52.596 36.2561 52.596 36.3554 52.5882C36.4201 52.5832 36.4848 52.5782 36.5515 52.5731C36.7101 52.5684 36.7101 52.5684 36.7835 52.4926C37.1582 52.4362 37.5337 52.4245 37.9131 52.4315Z" fill="#FBECD8"/>
<path d="M28.9467 53.8383C28.3578 53.969 27.789 54.0553 27.1816 54.0828C27.3765 53.9141 27.5496 53.9289 27.8171 53.8994C27.8404 53.8792 27.8637 53.8591 27.8877 53.8383C28.0255 53.8222 28.1639 53.8101 28.3024 53.8001C28.378 53.7942 28.4535 53.7884 28.5313 53.7824C28.7349 53.7771 28.7349 53.7771 28.9467 53.8383Z" fill="#FBEBD5"/>
<path d="M16.8739 55.6118C16.4331 55.7633 16.0773 55.8147 15.603 55.7952C15.603 55.775 15.603 55.7548 15.603 55.734C15.7195 55.734 15.836 55.734 15.956 55.734C15.956 55.6937 15.956 55.6533 15.956 55.6118C16.0692 55.5998 16.1825 55.5885 16.2958 55.5774C16.3589 55.571 16.4219 55.5646 16.4869 55.558C16.6621 55.5506 16.6621 55.5506 16.8739 55.6118Z" fill="#FBEDD9"/>
<circle cx="33" cy="4" r="4" fill="#E9B42E"/>
<path d="M33.6178 0.0480014C34.1368 0.129135 34.6347 0.311696 35.0832 0.585261C35.5316 0.858825 35.9217 1.21804 36.2314 1.64238C36.541 2.06673 36.764 2.5479 36.8876 3.05843C37.0113 3.56896 37.0331 4.09884 36.952 4.61783C36.8709 5.13681 36.6883 5.63473 36.4147 6.08316C36.1412 6.53159 35.782 6.92175 35.3576 7.23135C34.9333 7.54096 34.4521 7.76395 33.9416 7.8876C33.431 8.01125 32.9012 8.03313 32.3822 7.952L33 4L33.6178 0.0480014Z" fill="#AD8B33" fill-opacity="0.35"/>
</g>
<defs>
<clipPath id="clip0_440_2567">
<rect width="61" height="61" fill="white"/>
</clipPath>
</defs>
</svg>
