<svg width="78" height="90" viewBox="0 0 78 90" fill="none" xmlns="http://www.w3.org/2000/svg">
<g clip-path="url(#clip0_183_911)">
<rect width="78" height="90" fill="#EBF0F1"/>
<g clip-path="url(#clip1_183_911)">
<path d="M25.3954 68.5243C23.8354 69.4488 24.0665 74.7065 24.0088 76.5554C23.8932 78.4621 25.511 80.1954 27.3021 80.8888C29.0932 81.5821 31.1154 81.4665 33.0799 81.351C38.5109 80.8888 43.8843 80.1376 49.1998 78.9821C51.6265 78.4621 55.6709 77.8265 58.0976 78.4043C53.6487 74.8221 54.7465 71.5865 51.5109 67.5421C47.4665 62.5732 47.1776 55.1199 49.5465 50.2666C37.7021 52.751 27.4754 44.0266 29.3243 53.3866C30.7687 60.551 31.9821 64.5377 25.3954 68.5243Z" fill="#FFA58F"/>
<path d="M55.671 35.7644C55.671 50.3243 48.3332 62.111 39.3199 62.111C30.3065 62.111 22.9688 50.2666 22.9688 35.7644C22.9688 21.2044 30.3065 9.41772 39.3199 9.41772C48.3332 9.41772 55.671 21.2044 55.671 35.7644Z" fill="#F7AF98"/>
<path d="M-12.9998 86.6286C-10.8719 83.9049 20.3649 70.542 20.3649 70.542C20.3649 70.542 32.5362 78.4576 41.6434 77.8618C51.006 77.1809 59.3472 68.6695 60.0281 69.0099C74.7528 75.3084 80.3703 77.9469 95.0099 84.2454C87.2646 125.866 91.4352 159.061 79.2638 197.192C50.5804 200.426 31.8553 198.554 2.83145 197.447C-2.61585 173.956 -12.3188 100.077 -12.9998 86.6286Z" fill="#D22F38"/>
<path d="M55.7288 21.6089C57.9244 17.9688 58.7333 7.9155 55.1511 9.70661C48.4489 13.1155 41.4577 3.9866 35.0444 6.06661C31.5778 7.22216 31 9.70661 32.9067 13.52C36.6044 20.6844 50.3555 30.5066 55.7288 21.6089Z" fill="#4D3932"/>
<path d="M34.4665 10.631C32.3288 7.56881 26.6088 12.711 25.1066 14.6755C13.1466 30.911 23.2577 45.7021 23.2577 45.7021C23.6621 46.4533 24.0666 47.0888 24.5288 47.8977C26.2621 45.0666 27.6488 41.4844 27.7643 38.4221C27.9954 33.7421 29.7866 29.0621 31.6354 24.7866C32.6177 22.5333 36.1999 13.1155 34.4665 10.631Z" fill="#4D3932"/>
<path d="M26.4355 28.3111C26.32 28.0223 26.2622 27.7911 26.2622 27.5023C26.2622 27.2134 26.32 26.9822 26.3778 26.6934C26.4933 26.4622 26.6089 26.2311 26.7822 26C26.9555 25.8267 27.1867 25.6534 27.4755 25.5956C26.8978 26.3467 26.4933 27.3289 26.4355 28.3111Z" fill="#382823"/>
<path d="M46.0801 22.1866C46.5423 22.7644 47.1779 23.2266 47.8134 23.4577C48.449 23.6889 49.1423 23.8044 49.8356 23.7466C50.529 23.6889 51.2223 23.4577 51.8578 23.1689C52.4934 22.8222 53.0712 22.36 53.649 21.84C52.7823 23.1111 51.3956 24.0355 49.8934 24.2089C48.3334 24.3244 46.7156 23.5733 46.0801 22.1866Z" fill="#382823"/>
<path d="M31.9245 12.8267C29.9023 13.1733 28.4579 14.9644 28.4579 16.8711C28.4001 17.8533 28.4579 18.9511 28.0534 19.9911C27.5912 21.0311 26.8401 21.7822 26.2045 22.5333C24.9334 24.0355 24.009 25.7689 23.3734 27.6755C23.0845 28.6 22.9112 29.5822 22.7956 30.5644C22.6801 31.5466 22.6223 32.5866 22.7379 33.5689C22.0445 29.5822 23.2579 25.3066 25.9156 22.2444C26.5512 21.4933 27.3023 20.8 27.649 19.8755C28.0534 18.9511 27.9956 17.9111 28.1112 16.8711C28.1112 14.8489 29.8445 13 31.9245 12.8267Z" fill="#382823"/>
<path d="M31.9822 16.4666C31.5777 16.5244 31.5777 16.9288 31.6355 17.2755C31.6933 17.5644 31.9244 17.7955 32.2133 18.0844C32.5022 18.3155 32.8488 18.6621 32.9644 19.1821C33.0222 19.7021 32.8488 20.1644 32.6177 20.511C32.1555 21.2044 31.5777 21.7244 31.1155 22.2444C30.6533 22.8221 30.2488 23.3999 29.7866 24.0933C30.0177 23.3421 30.3644 22.7066 30.8266 22.071C31.2888 21.4355 31.8088 20.9155 32.2133 20.2799C32.3866 19.9333 32.56 19.5866 32.5022 19.2399C32.4444 18.8933 32.1555 18.6044 31.9244 18.3155C31.6933 18.0266 31.4044 17.7377 31.3466 17.3333C31.3466 16.9288 31.52 16.4088 31.9822 16.4666Z" fill="#382823"/>
<path d="M25.1645 38.7688C24.8178 38.191 24.4711 37.5555 24.3556 36.8044C24.2978 36.3999 24.2978 35.9955 24.4134 35.591C24.5289 35.1866 24.76 34.8399 24.9911 34.6088C25.4534 34.0888 25.6845 33.5688 25.8 32.9332C25.9156 32.2977 25.8578 31.6043 25.9156 30.911C26.0311 31.5466 26.2045 32.2399 26.1467 32.9332C26.1467 33.6266 25.8 34.3199 25.3956 34.8399C24.8756 35.3599 24.5867 36.0532 24.7022 36.7466C24.76 37.4399 24.9911 38.1332 25.1645 38.7688Z" fill="#382823"/>
<path d="M56.0178 15.0799C56.1334 14.6755 56.2489 14.271 56.3067 13.9243C56.3645 13.5199 56.4223 13.1732 56.4223 12.8266C56.48 12.4799 56.4223 12.0755 56.3645 11.7288C56.3067 11.3244 56.2489 10.9777 56.1334 10.5732C57.1156 11.7866 57.0578 13.751 56.0178 15.0799Z" fill="#382823"/>
<path d="M32.2134 10.4578C32.3289 11.0933 32.5023 11.6711 32.6756 12.2489C32.8489 12.8267 33.0801 13.4044 33.3689 13.9244C33.6001 14.4444 33.8889 14.9067 34.2356 15.4267C34.5823 15.9467 34.9289 16.4089 35.3334 16.8711C33.3112 15.4267 32.0978 12.9422 32.2134 10.4578Z" fill="#382823"/>
<path d="M38.6846 8.03106C38.5113 7.62662 37.9913 7.62662 37.5868 7.62662C37.1824 7.62662 36.7202 7.62662 36.3157 7.62662C35.9113 7.6844 35.4491 7.62662 35.0446 7.6844C34.6402 7.74217 34.4668 7.91551 34.2935 8.2044C33.8891 8.83995 33.9468 9.70662 34.1202 10.4577C34.3513 11.2666 34.7557 12.0177 35.3913 12.5955C34.6402 12.1911 34.0624 11.4399 33.7735 10.5733C33.5424 9.76439 33.4268 8.78217 33.8891 7.97328C34.1202 7.56884 34.5246 7.33773 34.9868 7.27995C35.4491 7.22217 35.8535 7.27995 36.3157 7.27995C36.778 7.27995 37.1824 7.27995 37.6446 7.39551C38.0491 7.45328 38.5691 7.56884 38.6846 8.03106Z" fill="#382823"/>
<path d="M41.9778 9.6488C42.7289 10.3421 43.48 11.0932 44.2889 11.5555C45.0978 12.0755 46.0222 12.4221 46.9467 12.6533C47.9289 12.9421 48.8533 13.231 49.8356 13.4044C50.76 13.5777 51.8 13.5199 52.6667 13.0577C51.8578 13.6933 50.76 13.8666 49.7778 13.751C48.7378 13.6355 47.8133 13.3466 46.8311 13.1155C45.8489 12.8266 44.8667 12.4799 44.0578 11.9021C43.2489 11.2666 42.5556 10.4577 41.9778 9.6488Z" fill="#382823"/>
<path d="M36.7778 16.7555C37.2978 17.2177 37.8178 17.6222 38.3956 17.911C38.9734 18.1999 39.5512 18.431 40.1867 18.4888C40.8223 18.6044 41.4578 18.6044 42.1512 18.7199C42.8445 18.7777 43.5378 18.8355 44.1734 19.0666C42.7867 19.0088 41.4578 19.1822 40.0712 18.951C39.3778 18.8355 38.7423 18.6044 38.1645 18.2577C37.6445 17.8533 37.1245 17.3333 36.7778 16.7555Z" fill="#382823"/>
<path d="M54.2844 15.5422C54.6311 16.2356 54.6311 17.16 54.2266 17.9111C53.8222 18.6622 53.0711 19.1822 52.32 19.4711C51.5689 19.7022 50.76 19.8178 50.0666 19.9333C49.3155 19.9911 48.6222 20.1067 47.8711 20.3378C49.2 19.5289 50.76 19.5867 52.2044 19.0667C52.8977 18.8356 53.5333 18.3733 53.9377 17.7378C54.2844 17.1022 54.4 16.2933 54.2844 15.5422Z" fill="#382823"/>
<path d="M57.4166 71C57.4166 75.6192 55.5816 81.6325 52.3154 84.8988C49.0491 88.165 44.6191 90 40 90C35.3808 90 30.9508 88.165 27.6845 84.8988C24.4183 81.6325 21 75.6192 21 71H38.4166H57.4166Z" fill="#D22F38"/>
<circle cx="40.1243" cy="76.234" r="2.06038" fill="#FFF4F4"/>
<circle cx="40.1243" cy="87.2227" r="2.06038" fill="#FFF4F4"/>
<path d="M24.3281 68.6793C24.3281 67.1621 25.5581 65.9321 27.0753 65.9321H51.7998C53.317 65.9321 54.547 67.1621 54.547 68.6793C54.547 70.1965 53.317 71.4265 51.7998 71.4265H27.0753C25.5581 71.4265 24.3281 70.1965 24.3281 68.6793Z" fill="black"/>
<path d="M46.3059 70.9896C52.133 68.0737 58.9694 67.9639 64.8871 70.6913L84 79.5L74.1225 82.797L46.3059 70.9896Z" fill="black"/>
<path d="M31.7702 70.8276C26.496 68.3104 20.3397 68.4483 15.1835 71.199L-6 82.4999L4.845 84.5466L31.7702 70.8276Z" fill="black"/>
<path d="M34.5 24.3471C36.6522 22.8768 36.7072 26.3147 41.0898 24.3471C49 26.5 48 25.5 51.5 25C52.8566 25.9377 53.0017 29.8803 53.8754 31.8195C54.5644 33.3538 55.0403 38.4893 54.9337 40.0804C54.1666 51.4027 47.1133 57 41.3598 57C36.2811 57 28.1622 48.2348 27.4661 42.1901C27.0896 39.3133 30.7781 36.7089 29.5 32C34.7781 30.7089 31.6717 25.5826 33 24.6734L34.5 24.3471Z" fill="#F7AF98"/>
<path d="M49.6128 35.6269C49.6341 38.6457 46.104 38.7309 45.9903 35.7121C45.969 32.6933 49.4992 32.608 49.6128 35.6269Z" fill="#121D3F"/>
<path d="M36.7718 35.9181C36.7931 38.9653 33.2344 39.0435 33.1136 36.0033C33.0923 32.9632 36.6511 32.878 36.7718 35.9181Z" fill="#121D3F"/>
<path d="M41.5794 45.2089C40.2014 45.2231 38.0492 44.8395 38.9513 42.9927C40.3151 40.4711 41.0256 36.4579 41.0327 36.4223C41.1392 35.7689 42.162 35.9464 42.0413 36.5999C42.0128 36.7704 41.2954 40.8191 39.8534 43.4828C39.4273 44.2499 41.274 44.1931 42.3111 44.1576C42.5952 44.1362 42.8367 44.3423 42.8652 44.6193C42.8509 45.3154 42.1903 45.1805 41.5866 45.2089H41.5794Z" fill="#E08C79"/>
<path d="M45.7444 33.368C45.7018 33.7658 45.6875 34.1636 45.7159 34.5614C46.8098 34.4122 47.9109 34.4264 49.0119 34.4477C49.3244 34.4477 49.6297 34.4548 49.9423 34.4619L49.8002 33.1123C49.1325 33.3041 48.4223 33.1833 47.7262 33.1123C47.0301 33.0484 46.2771 33.0555 45.7444 33.3609V33.368Z" fill="#F6AF9A"/>
<path d="M45.8497 35.1579C45.6011 35.1579 45.388 34.9733 45.3667 34.7175C45.3383 34.4476 45.5373 34.2132 45.8072 34.1848H45.8143C47.1994 34.0499 48.2933 33.9362 50.0691 34.1422C50.339 34.1706 50.5306 34.4121 50.4951 34.682C50.4667 34.9519 50.2252 35.1437 49.9553 35.1082C48.2861 34.9164 47.2846 35.0159 45.9066 35.1508H45.8994C45.8994 35.1508 45.8639 35.1508 45.8497 35.1508V35.1579Z" fill="#E08C79"/>
<path d="M32.8088 33.7019C32.7662 34.0996 32.752 34.4975 32.7804 34.8952C33.8743 34.7461 34.9752 34.7602 36.0762 34.7816C36.3887 34.7816 36.6942 34.7887 37.0067 34.7958C36.957 34.3483 36.9144 33.8937 36.8647 33.4462C36.197 33.638 35.4867 33.5172 34.7906 33.4462C34.0945 33.3822 33.3416 33.3893 32.8088 33.6948V33.7019Z" fill="#F6AF9A"/>
<path d="M32.9141 35.4919C32.6655 35.4919 32.4525 35.3072 32.4312 35.0515C32.4028 34.7816 32.6017 34.5472 32.8716 34.5188H32.8786C34.2637 34.3838 35.3577 34.2701 37.1335 34.4761C37.4034 34.5045 37.5951 34.7461 37.5596 35.016C37.5312 35.2859 37.2897 35.4777 37.0197 35.4422C35.3505 35.2505 34.349 35.3498 32.971 35.4848H32.9639C32.9639 35.4848 32.9283 35.4848 32.9141 35.4848V35.4919Z" fill="#E08C79"/>
<path d="M43.449 30.5623C42.412 33.091 47.3202 31.2371 51.2198 31.8906C53.2229 32.2244 52.9245 30.9956 50.5379 30.6404C48.4638 30.3279 43.5485 29.8733 43.4419 30.5623H43.449Z" fill="#8C4949"/>
<path d="M39.4637 30.7116C40.5008 33.2403 35.6352 31.4503 31.7143 32.0541C29.7041 32.3666 29.9811 31.1449 32.3677 30.7897C34.4418 30.4772 39.3572 30.0226 39.4637 30.7116Z" fill="#8C4949"/>
<path d="M44.3204 42.4176C43.9511 39.4556 54.3074 38.9797 53.8599 42.1974C53.7888 43.7033 44.5193 45.3796 44.3204 42.4176Z" fill="#EDA48E"/>
<path d="M37.2839 42.5809C37.5183 39.6047 27.1476 39.6118 27.7443 42.8011C27.8863 44.2999 37.2199 45.55 37.2839 42.5809Z" fill="#EDA48E"/>
<path d="M46.1342 48.8244C46.0561 48.6965 45.9282 48.6042 45.779 48.5758C45.7577 48.5758 45.6653 48.5473 45.509 48.5189C44.6211 48.3484 41.3965 47.8441 37.3122 48.6255C37.163 48.6539 37.0352 48.7391 36.957 48.867C36.886 48.9877 36.8646 49.1298 36.9002 49.2648C36.9499 49.4495 37.1062 49.5915 37.2909 49.6413C37.3761 49.6626 37.4612 49.6697 37.5536 49.6484C42.0427 48.7889 45.502 49.5773 45.5375 49.5844C45.8287 49.6554 46.1271 49.485 46.1911 49.208C46.2266 49.0801 46.2052 48.9451 46.1271 48.8244H46.1342Z" fill="#E08C79"/>
<path d="M39.6481 51.8718C39.5557 51.8576 39.506 51.8434 39.4918 51.8363C39.2929 51.7936 39.1651 51.6019 39.2149 51.4101C39.2575 51.2183 39.4563 51.0976 39.6552 51.1402C39.6836 51.1402 41.8785 51.6232 43.4341 51.1117C43.6258 51.0478 43.8318 51.1473 43.9028 51.3391C43.9667 51.5238 43.8674 51.7297 43.6756 51.7936C42.1627 52.2908 40.2234 51.9855 39.6623 51.8718H39.6481Z" fill="#EDA48E"/>
<path d="M34.8871 39.2778C33.566 39.221 32.8628 38.0562 32.8273 38.0065C32.7137 37.8147 32.7776 37.566 32.9693 37.4524C33.1611 37.3387 33.4097 37.4026 33.5234 37.5944C33.5234 37.6015 34.0561 38.4681 34.9653 38.4752C35.7183 38.4823 36.4285 37.9141 36.6487 37.1186C36.7055 36.9055 36.9328 36.7776 37.1459 36.8344C37.359 36.8912 37.4869 37.1185 37.4301 37.3316C37.1105 38.4965 36.0947 39.2992 34.9582 39.285C34.9369 39.285 34.9084 39.285 34.8871 39.285V39.2778Z" fill="#EDA48E"/>
<path d="M47.6657 38.9441C47.6657 38.9441 47.6161 38.9441 47.5948 38.9441C46.4654 38.866 45.5136 37.978 45.2934 36.7918C45.2508 36.5716 45.3999 36.3586 45.6201 36.3231C45.8403 36.2805 46.0534 36.4296 46.0889 36.6427C46.238 37.4524 46.8986 38.0846 47.6515 38.1343C48.5678 38.1983 49.1575 37.3885 49.1646 37.3743C49.2924 37.1897 49.5482 37.147 49.7257 37.282C49.9104 37.4098 49.953 37.6656 49.818 37.8432C49.7825 37.8929 48.9798 38.9938 47.6586 38.9441H47.6657Z" fill="#EDA48E"/>
</g>
</g>
<defs>
<clipPath id="clip0_183_911">
<rect width="78" height="90" fill="white"/>
</clipPath>
<clipPath id="clip1_183_911">
<rect width="127.111" height="364" fill="white" transform="translate(-21)"/>
</clipPath>
</defs>
</svg>
