<svg width="325" height="83" viewBox="0 0 325 83" fill="none" xmlns="http://www.w3.org/2000/svg">
<path d="M86.6813 2.32542L72.4775 38.9778H60.1494C60.5328 33.3482 61.2553 26.949 62.3168 19.78C61.1053 22.8438 58.4765 29.2431 54.4306 38.9778H42.1728L47.5875 2.32542H57.1735L54.7539 15.1164L52.4792 27.4546C54.5492 21.0704 57.6999 12.694 61.9313 2.32542H72.1969C72.0504 3.39699 71.33 7.42671 70.0357 14.4146L67.3832 28.3375C70.304 19.4781 73.5413 10.8075 77.0953 2.32542H86.6813ZM97.8375 2.32542L95.6295 10.566C96.6361 9.84153 97.6567 9.29819 98.6912 8.93597C99.7414 8.57375 100.806 8.39264 101.884 8.39264C103.54 8.39264 104.837 8.80014 105.775 9.61514C106.728 10.4301 107.187 11.3734 107.149 12.445C107.132 13.5015 106.745 15.4409 105.989 18.2632L100.438 38.9778H90.9697L96.6354 17.8331C97.1045 16.0823 97.312 14.9579 97.258 14.4599C97.2196 13.9618 96.8879 13.7128 96.2629 13.7128C95.6847 13.7128 95.2254 13.9694 94.8847 14.4825C94.5441 14.9956 94.1696 16.0144 93.7611 17.5387L88.0166 38.9778H78.5478L88.3688 2.32542H97.8375ZM123.291 2.32542L122.011 7.10222H112.261L113.541 2.32542H123.291ZM121.519 8.93597L113.47 38.9778H103.72L111.769 8.93597H121.519ZM142.832 20.2781H133.902L134.83 16.8143C135.154 15.6069 135.271 14.7919 135.181 14.3693C135.095 13.9316 134.778 13.7128 134.232 13.7128C133.685 13.7128 133.267 13.9014 132.978 14.2787C132.69 14.6561 132.37 15.5012 132.018 16.8143L128.22 30.9862C127.933 32.0578 127.858 32.8653 127.993 33.4086C128.133 33.9368 128.476 34.201 129.023 34.201C129.664 34.201 130.168 33.9218 130.537 33.3633C130.921 32.8049 131.321 31.7484 131.737 30.1939L132.696 26.6169H141.133C140.475 29.0167 139.898 30.8202 139.402 32.0276C138.927 33.22 138.074 34.45 136.843 35.7178C135.633 36.9705 134.229 37.9213 132.634 38.5703C131.042 39.2042 129.199 39.5211 127.105 39.5211C124.433 39.5211 122.434 39.0834 121.106 38.2081C119.782 37.3176 119.004 36.08 118.772 34.4953C118.56 32.8955 118.847 30.6316 119.631 27.7036L121.918 19.1687C122.602 16.6181 123.383 14.6938 124.262 13.3958C125.141 12.0979 126.583 10.9433 128.588 9.93208C130.598 8.90579 132.845 8.39264 135.329 8.39264C137.798 8.39264 139.772 8.89824 141.251 9.90944C142.73 10.9206 143.552 12.196 143.718 13.7354C143.883 15.2749 143.588 17.4557 142.832 20.2781ZM159.947 2.32542L157.739 10.566C158.745 9.84153 159.766 9.29819 160.801 8.93597C161.851 8.57375 162.915 8.39264 163.993 8.39264C165.649 8.39264 166.946 8.80014 167.884 9.61514C168.838 10.4301 169.296 11.3734 169.259 12.445C169.241 13.5015 168.854 15.4409 168.098 18.2632L162.548 38.9778H153.079L158.745 17.8331C159.214 16.0823 159.421 14.9579 159.367 14.4599C159.329 13.9618 158.997 13.7128 158.372 13.7128C157.794 13.7128 157.335 13.9694 156.994 14.4825C156.653 14.9956 156.279 16.0144 155.871 17.5387L150.126 38.9778H140.657L150.478 2.32542H159.947ZM184.416 2.32542H191.798C196.564 2.32542 199.726 2.53671 201.285 2.95931C202.859 3.3819 203.954 4.07616 204.571 5.04208C205.187 6.00801 205.444 7.08713 205.344 8.27944C205.247 9.45667 204.734 11.7809 203.803 15.2522L200.364 28.0885C199.482 31.3787 198.728 33.5822 198.101 34.699C197.493 35.8008 196.706 36.6686 195.739 37.3025C194.776 37.9213 193.675 38.359 192.434 38.6156C191.197 38.857 189.399 38.9778 187.04 38.9778H174.595L184.416 2.32542ZM192.603 8.59639L186.142 32.7068C187.564 32.7068 188.512 32.4351 188.986 31.8918C189.463 31.3334 190.03 29.8317 190.685 27.3867L194.5 13.1468C194.945 11.4866 195.176 10.4226 195.192 9.95472C195.208 9.48685 195.049 9.14727 194.715 8.93597C194.385 8.70958 193.681 8.59639 192.603 8.59639ZM227.489 19.4857L225.518 26.8433C224.794 29.5449 224.122 31.5296 223.501 32.7974C222.884 34.05 221.967 35.2273 220.75 36.329C219.537 37.4157 218.133 38.2231 216.538 38.7514C214.963 39.2645 213.238 39.5211 211.363 39.5211C209.269 39.5211 207.555 39.3023 206.219 38.8646C204.887 38.4118 203.934 37.7402 203.36 36.8497C202.806 35.9442 202.527 34.8575 202.523 33.5897C202.523 32.3068 202.864 30.3901 203.548 27.8394L205.61 20.1422C206.359 17.3501 207.255 15.1692 208.301 13.5996C209.347 12.03 210.809 10.7697 212.689 9.81889C214.569 8.86806 216.774 8.39264 219.306 8.39264C221.431 8.39264 223.168 8.70204 224.518 9.32083C225.887 9.92454 226.855 10.7169 227.42 11.6979C227.985 12.6789 228.277 13.6901 228.295 14.7315C228.328 15.7729 228.06 17.3576 227.489 19.4857ZM218.627 17.2218C219.04 15.6824 219.213 14.7164 219.146 14.324C219.083 13.9165 218.771 13.7128 218.208 13.7128C217.646 13.7128 217.216 13.9165 216.919 14.324C216.627 14.7164 216.274 15.6824 215.862 17.2218L212.228 30.7825C211.848 32.2012 211.693 33.1294 211.763 33.5671C211.837 33.9897 212.148 34.201 212.695 34.201C213.257 34.201 213.677 34.0048 213.954 33.6124C214.247 33.22 214.567 32.3748 214.915 31.0768L218.627 17.2218ZM252.052 19.4857L250.08 26.8433C249.357 29.5449 248.684 31.5296 248.063 32.7974C247.446 34.05 246.529 35.2273 245.312 36.329C244.099 37.4157 242.695 38.2231 241.101 38.7514C239.526 39.2645 237.801 39.5211 235.926 39.5211C233.832 39.5211 232.117 39.3023 230.781 38.8646C229.449 38.4118 228.497 37.7402 227.923 36.8497C227.368 35.9442 227.089 34.8575 227.085 33.5897C227.085 32.3068 227.427 30.3901 228.11 27.8394L230.173 20.1422C230.921 17.3501 231.818 15.1692 232.863 13.5996C233.909 12.03 235.372 10.7697 237.252 9.81889C239.131 8.86806 241.337 8.39264 243.868 8.39264C245.993 8.39264 247.73 8.70204 249.08 9.32083C250.45 9.92454 251.417 10.7169 251.982 11.6979C252.548 12.6789 252.839 13.6901 252.857 14.7315C252.891 15.7729 252.622 17.3576 252.052 19.4857ZM243.19 17.2218C243.602 15.6824 243.775 14.7164 243.708 14.324C243.646 13.9165 243.333 13.7128 242.771 13.7128C242.208 13.7128 241.779 13.9165 241.482 14.324C241.189 14.7164 240.837 15.6824 240.424 17.2218L236.791 30.7825C236.41 32.2012 236.256 33.1294 236.326 33.5671C236.4 33.9897 236.711 34.201 237.257 34.201C237.82 34.201 238.24 34.0048 238.517 33.6124C238.809 33.22 239.13 32.3748 239.477 31.0768L243.19 17.2218ZM267.488 8.93597L266.058 12.8751C268.189 10.0528 270.581 8.55866 273.235 8.39264L270.402 18.965C268.668 18.965 267.334 19.1914 266.4 19.6442C265.466 20.0969 264.796 20.7308 264.391 21.5458C263.989 22.3457 263.398 24.2021 262.617 27.115L259.438 38.9778H249.97L258.019 8.93597H267.488ZM283.577 14.1429H274.109C275.001 10.9282 275.911 8.5813 276.839 7.10222C277.766 5.62315 279.261 4.33273 281.321 3.23097C283.402 2.11412 285.817 1.5557 288.567 1.5557C290.552 1.5557 292.205 1.85755 293.528 2.46125C294.85 3.06495 295.804 3.91014 296.387 4.99681C296.975 6.06838 297.304 7.23051 297.375 8.48319C297.446 9.73588 297.123 11.6979 296.407 14.3693L295.206 18.8518C294.66 20.8893 294.026 22.5269 293.304 23.7644C292.582 25.002 291.439 26.0887 289.876 27.0244C288.312 27.9602 286.648 28.4281 284.882 28.4281C282.586 28.4281 281.107 27.5602 280.447 25.8246L279.392 29.7637H270.556L273.255 19.6894H281.88C281.539 21.078 281.869 21.7722 282.869 21.7722C283.65 21.7722 284.223 21.4704 284.588 20.8667C284.973 20.2479 285.484 18.7462 286.123 16.3615L287.755 10.2717C288.115 8.92843 288.254 8.03042 288.172 7.57764C288.11 7.10977 287.79 6.87583 287.212 6.87583C286.493 6.87583 285.949 7.18523 285.58 7.80403C285.216 8.40773 284.746 9.78116 284.172 11.9243L283.577 14.1429ZM278.888 31.6428L276.923 38.9778H268.087L270.052 31.6428H278.888Z" fill="#653E1A"/>
<path d="M96.8377 72.5456L74.0586 39.3578H61.7305C63.431 44.4552 65.6507 50.2496 68.3895 56.7409C66.4611 53.9667 62.3352 48.1724 56.0117 39.3578H43.7539L57.7439 72.5456H67.3299L61.9177 60.9637L56.7563 49.7918C60.32 55.5725 65.4304 63.1571 72.0877 72.5456H82.3533C81.9561 71.5753 80.2929 67.9265 77.3637 61.5992L71.4538 48.9923C76.4473 57.0142 81.7133 64.8653 87.2517 72.5456H96.8377ZM107.994 72.5456L103.858 65.084C105.034 65.7399 106.182 66.2319 107.301 66.5599C108.436 66.8879 109.542 67.0519 110.621 67.0519C112.277 67.0519 113.479 66.6829 114.226 65.9449C114.989 65.207 115.226 64.3528 114.938 63.3826C114.674 62.4259 113.833 60.6699 112.416 58.1143L102.02 39.3578H92.5508L103.164 58.5038C104.042 60.0891 104.513 61.1072 104.575 61.5582C104.653 62.0091 104.38 62.2346 103.755 62.2346C103.177 62.2346 102.658 62.0023 102.197 61.5377C101.736 61.073 101.123 60.1506 100.358 58.7703L89.5977 39.3578H80.1289L98.5252 72.5456H107.994ZM133.447 72.5456L131.05 68.2203H121.3L123.697 72.5456H133.447ZM130.129 66.5599L115.051 39.3578H105.301L120.379 66.5599H130.129ZM148.788 56.2899H139.858L141.597 59.4263C142.203 60.5195 142.51 61.2575 142.519 61.6401C142.536 62.0365 142.271 62.2346 141.724 62.2346C141.177 62.2346 140.715 62.0638 140.338 61.7221C139.961 61.3805 139.443 60.6152 138.784 59.4263L131.671 46.594C131.133 45.6237 130.869 44.8925 130.877 44.4006C130.893 43.9223 131.175 43.6831 131.722 43.6831C132.362 43.6831 132.932 43.9359 133.431 44.4416C133.946 44.9472 134.593 45.9038 135.374 47.3114L137.169 50.5502H145.606C144.386 48.3774 143.387 46.7443 142.609 45.651C141.855 44.5714 140.714 43.4576 139.187 42.3097C137.683 41.1754 136.058 40.3145 134.31 39.7268C132.57 39.1529 130.653 38.8659 128.559 38.8659C125.887 38.8659 123.99 39.2622 122.867 40.0548C121.751 40.8611 121.263 41.9817 121.402 43.4166C121.565 44.8652 122.38 46.9151 123.85 49.5663L128.134 57.2944C129.414 59.6039 130.645 61.3463 131.828 62.5216C133.011 63.6969 134.723 64.7423 136.965 65.6579C139.215 66.5872 141.582 67.0519 144.066 67.0519C146.535 67.0519 148.39 66.594 149.633 65.6784C150.875 64.7628 151.399 63.608 151.205 62.2141C151.01 60.8202 150.205 58.8455 148.788 56.2899ZM170.103 72.5456L165.967 65.084C167.143 65.7399 168.291 66.2319 169.41 66.5599C170.545 66.8879 171.652 67.0519 172.73 67.0519C174.386 67.0519 175.588 66.6829 176.335 65.9449C177.098 65.207 177.335 64.3528 177.048 63.3826C176.783 62.4259 175.942 60.6699 174.526 58.1143L164.129 39.3578H154.66L165.273 58.5038C166.152 60.0891 166.622 61.1072 166.685 61.5582C166.763 62.0091 166.489 62.2346 165.864 62.2346C165.286 62.2346 164.767 62.0023 164.306 61.5377C163.846 61.073 163.233 60.1506 162.468 58.7703L151.707 39.3578H142.238L160.635 72.5456H170.103ZM194.572 72.5456H201.955C206.72 72.5456 209.833 72.3542 211.293 71.9716C212.768 71.5889 213.701 70.9603 214.091 70.0857C214.482 69.2111 214.487 68.234 214.107 67.1544C213.735 66.0884 212.678 63.9839 210.936 60.8407L204.493 49.2178C202.841 46.2386 201.571 44.2434 200.683 43.2321C199.817 42.2345 198.827 41.4487 197.712 40.8748C196.605 40.3145 195.4 39.9181 194.1 39.6858C192.807 39.4672 190.98 39.3578 188.621 39.3578H176.176L194.572 72.5456ZM201.292 66.8674L189.19 45.036C190.612 45.036 191.624 45.282 192.225 45.774C192.833 46.2796 193.751 47.6394 194.978 49.8533L202.125 62.7471C202.958 64.2503 203.438 65.2138 203.563 65.6374C203.689 66.0611 203.609 66.3686 203.324 66.5599C203.047 66.7649 202.37 66.8674 201.292 66.8674ZM233.631 57.0074L229.938 50.3453C228.582 47.8991 227.445 46.102 226.528 44.954C225.618 43.8198 224.425 42.7538 222.951 41.7562C221.483 40.7723 219.89 40.0411 218.172 39.5628C216.477 39.0982 214.692 38.8659 212.817 38.8659C210.723 38.8659 209.06 39.064 207.826 39.4603C206.6 39.8703 205.805 40.4785 205.439 41.2847C205.097 42.1047 205.072 43.0886 205.365 44.2366C205.665 45.3982 206.455 47.1338 207.735 49.4433L211.598 56.4129C213 58.9411 214.407 60.9159 215.82 62.3371C217.232 63.7584 218.99 64.8995 221.092 65.7604C223.194 66.6214 225.511 67.0519 228.042 67.0519C230.167 67.0519 231.832 66.7717 233.038 66.2114C234.266 65.6648 235.048 64.9473 235.384 64.059C235.719 63.1707 235.774 62.2551 235.548 61.3122C235.338 60.3692 234.699 58.9343 233.631 57.0074ZM225.299 59.0573C226.071 60.4512 226.47 61.3258 226.495 61.6811C226.528 62.0501 226.263 62.2346 225.7 62.2346C225.138 62.2346 224.661 62.0501 224.269 61.6811C223.884 61.3258 223.306 60.4512 222.533 59.0573L215.727 46.7784C215.015 45.4938 214.642 44.6534 214.61 44.2571C214.586 43.8744 214.847 43.6831 215.394 43.6831C215.956 43.6831 216.422 43.8608 216.791 44.2161C217.175 44.5714 217.693 45.3367 218.345 46.512L225.299 59.0573ZM258.193 57.0074L254.501 50.3453C253.145 47.8991 252.008 46.102 251.09 44.954C250.18 43.8198 248.988 42.7538 247.513 41.7562C246.046 40.7723 244.453 40.0411 242.735 39.5628C241.04 39.0982 239.255 38.8659 237.38 38.8659C235.286 38.8659 233.622 39.064 232.389 39.4603C231.163 39.8703 230.367 40.4785 230.002 41.2847C229.659 42.1047 229.634 43.0886 229.927 44.2366C230.227 45.3982 231.017 47.1338 232.298 49.4433L236.161 56.4129C237.562 58.9411 238.969 60.9159 240.382 62.3371C241.795 63.7584 243.553 64.8995 245.655 65.7604C247.757 66.6214 250.074 67.0519 252.605 67.0519C254.73 67.0519 256.395 66.7717 257.6 66.2114C258.828 65.6648 259.61 64.9473 259.946 64.059C260.282 63.1707 260.337 62.2551 260.111 61.3122C259.901 60.3692 259.262 58.9343 258.193 57.0074ZM249.861 59.0573C250.634 60.4512 251.033 61.3258 251.058 61.6811C251.09 62.0501 250.825 62.2346 250.263 62.2346C249.7 62.2346 249.223 62.0501 248.831 61.6811C248.447 61.3258 247.868 60.4512 247.095 59.0573L240.289 46.7784C239.577 45.4938 239.205 44.6534 239.173 44.2571C239.148 43.8744 239.409 43.6831 239.956 43.6831C240.519 43.6831 240.984 43.8608 241.353 44.2161C241.738 44.5714 242.256 45.3367 242.907 46.512L249.861 59.0573ZM276.098 66.5599L273.746 62.9931C276.537 65.5486 279.279 66.9015 281.972 67.0519L276.666 57.4789C274.931 57.4789 273.544 57.2739 272.505 56.8639C271.465 56.4539 270.647 55.88 270.05 55.142C269.461 54.4177 268.436 52.7368 266.974 50.0993L261.02 39.3578H251.551L266.629 66.5599H276.098ZM290.969 61.8451H281.5C283.145 64.756 284.604 66.881 285.878 68.2203C287.151 69.5596 288.947 70.728 291.266 71.7256C293.608 72.7369 296.154 73.2425 298.904 73.2425C300.888 73.2425 302.471 72.9692 303.652 72.4226C304.834 71.8759 305.589 71.1106 305.919 70.1267C306.256 69.1564 306.313 68.1041 306.091 66.9699C305.868 65.8356 305.087 64.059 303.746 61.6401L301.496 57.5814C300.473 55.7365 299.456 54.2537 298.444 53.1331C297.433 52.0125 296.036 51.0286 294.253 50.1813C292.471 49.334 290.697 48.9103 288.932 48.9103C286.635 48.9103 285.36 49.6961 285.106 51.2677L283.129 47.7009H274.293L279.349 56.8229H287.974C287.308 55.5656 287.476 54.937 288.476 54.937C289.257 54.937 289.9 55.2103 290.407 55.757C290.936 56.3173 291.799 57.677 292.996 59.8362L296.052 65.3504C296.727 66.5667 297.076 67.3798 297.1 67.7898C297.147 68.2135 296.882 68.4253 296.304 68.4253C295.585 68.4253 294.969 68.1451 294.455 67.5848C293.949 67.0382 293.158 65.7946 292.082 63.854L290.969 61.8451ZM282.185 45.9995L278.504 39.3578H269.668L273.35 45.9995H282.185Z" fill="#957C65"/>
</svg>
