<svg width="51" height="102" viewBox="0 0 51 102" fill="none" xmlns="http://www.w3.org/2000/svg">
<rect x="-1" y="1" width="48.6267" height="85.6791" transform="matrix(-1 0 0 1 48.6267 5.85254)" fill="#792113" stroke="#664E39" stroke-width="2"/>
<rect x="-1" y="1" width="13.0721" height="31.0865" transform="matrix(-1 0 0 1 40.1223 12.1514)" fill="#792113" stroke="#664E39" stroke-width="2"/>
<path d="M50.856 5.84527L11.9849 0V102L50.856 93.5244V5.84527Z" fill="#664E39"/>
<path d="M46.5353 88.3411L47.065 52.96H19.823V93.4291L46.5353 88.3411Z" stroke="#3C230D" stroke-opacity="0.49" stroke-width="4"/>
<path d="M47.0952 42.981V9.65662L19.823 6.0883V42.4712L47.0952 42.981Z" stroke="#3C230D" stroke-opacity="0.49" stroke-width="4"/>
<ellipse cx="1.03891" cy="1.03891" rx="1.03891" ry="1.03891" transform="matrix(-1 0 0 1 19.6106 46.4678)" fill="#E9B42E"/>
<rect width="4.50196" height="0.692611" transform="matrix(-1 0 0 1 23.072 47.165)" fill="#E9B42E"/>
<ellipse cx="1.03891" cy="1.03891" rx="1.03891" ry="1.03891" transform="matrix(-1 0 0 1 19.6106 46.8154)" fill="#E9B42E" fill-opacity="0.37"/>
<rect width="4.50196" height="0.692611" transform="matrix(-1 0 0 1 23.072 47.5049)" fill="#E9B42E" fill-opacity="0.37"/>
<path d="M23.072 47.0485H19.7949C19.535 47.0485 19.2833 46.9571 19.0839 46.7903L18.9707 46.6956C18.587 46.3745 18.0199 46.4061 17.6741 46.7677V46.7677C17.3838 47.0713 17.3272 47.5295 17.535 47.8946L17.5542 47.9282C17.8484 48.4452 18.5257 48.5935 19.0092 48.2469L19.1034 48.1793C19.2914 48.0445 19.517 47.972 19.7483 47.972H23.072" stroke="#CE9E23" stroke-width="0.5"/>
<rect width="0.346304" height="0.692611" transform="matrix(-1 0 0 1 23.072 47.165)" fill="#CE9E23"/>
<path d="M28.7444 22.7895H27.9853C27.0591 22.7895 26.3083 23.5403 26.3083 24.4664V27.3363C26.3083 28.0505 26.8873 28.6295 27.6015 28.6295H28.1438C28.5584 28.6295 28.8946 28.9656 28.8946 29.3803C28.8946 29.795 29.2308 30.1312 29.6455 30.1312H40.0167C40.4446 30.1312 40.7914 29.7843 40.7914 29.3564C40.7914 28.9477 41.109 28.6093 41.5169 28.5833L42.1013 28.5461C42.8377 28.4991 43.4111 27.8881 43.4111 27.1502V24.2912C43.4111 23.4619 42.7387 22.7895 41.9094 22.7895H41.3254C40.8185 22.7895 40.4077 22.3786 40.4077 21.8718C40.4077 21.365 39.9968 20.9541 39.49 20.9541H30.5799C30.073 20.9541 29.6622 21.365 29.6622 21.8718C29.6622 22.3786 29.2513 22.7895 28.7444 22.7895Z" fill="#C7A96F"/>
<path d="M30.3933 29.714L36.2333 20.9541H39.5704L36.6504 30.1312H30.3933V29.714Z" fill="#C49D51"/>
</svg>
